<svg width="995" height="605" viewBox="0 0 995 605" fill="none" xmlns="http://www.w3.org/2000/svg">
<g clip-path="url(#clip0_124:10992)">
<path d="M0 605L995 605L995 6.10352e-05L5.28908e-05 -2.59505e-05L0 605Z" fill="#85582D"/>
<path d="M-0.000137303 604.707L-0.000137329 605L995 605L497.534 149.311L-0.000137303 604.707Z" fill="#99692B"/>
<path d="M-0.000129718 1.12372L497.451 437.268L994.029 0L-0.00012962 -8.69008e-05L-0.000129718 1.12372Z" fill="#99692B"/>
<path opacity="0.4" d="M12.7566 592.075L982.244 592.075L982.244 12.9263L12.7567 12.9262L12.7566 592.075Z" fill="#85582D"/>
<path d="M26.319 579.622L968.682 579.623L968.682 25.3777L26.319 25.3776L26.319 579.622Z" fill="#003E27"/>
<path d="M33.0997 577.185L961.901 577.186L961.901 36.0016L33.0997 36.0015L33.0997 577.185Z" fill="#1D4A2D"/>
</g>
<defs>
<clipPath id="clip0_124:10992">
<rect width="995" height="605" fill="white" transform="translate(995 605) rotate(-180)"/>
</clipPath>
</defs>
</svg>
