<svg width="464" height="77" viewBox="0 0 464 77" fill="none" xmlns="http://www.w3.org/2000/svg">
<path d="M167.944 18.5625C167.986 18.3333 168.121 18.25 168.351 18.3125C169.226 18.5625 169.486 18.9688 169.132 19.5312L169.069 20.6875V23.2812L169.132 25.5312C169.194 26.1354 169.174 26.5625 169.069 26.8125C169.049 27.125 168.913 27.2396 168.663 27.1562C168.476 27.0104 168.361 26.7708 168.319 26.4375L168.382 23.4375C168.382 23.125 168.184 23.0521 167.788 23.2188C167.392 23.3854 166.996 23.5729 166.601 23.7812C166.08 24.0104 165.684 24.1979 165.413 24.3438C165.017 24.5729 164.799 24.6875 164.757 24.6875C164.382 24.5 164.257 24.2604 164.382 23.9688C164.569 23.8229 164.694 23.6354 164.757 23.4062C164.903 22.7188 164.944 22.0104 164.882 21.2812L164.788 20.8438C164.663 20.4479 164.799 20.2396 165.194 20.2188C165.736 20.3438 165.913 20.6042 165.726 21C165.58 21.4167 165.496 21.9479 165.476 22.5938C165.392 23.1771 165.59 23.3542 166.069 23.125C166.653 22.9583 167.267 22.7604 167.913 22.5312C168.226 22.4271 168.392 22.1771 168.413 21.7812C168.476 20.5729 168.424 19.7188 168.257 19.2188C168.049 18.8229 167.944 18.6042 167.944 18.5625ZM169.851 30.7188C170.267 30.5104 170.757 30.5104 171.319 30.7188C171.569 30.7812 171.736 30.8646 171.819 30.9688C171.861 31.3229 171.632 31.4896 171.132 31.4688C170.674 31.4062 170.215 31.3646 169.757 31.3438H168.101C166.767 31.4271 165.621 31.625 164.663 31.9375C164.246 32 163.84 31.8438 163.444 31.4688C163.257 31.2188 163.194 31.0729 163.257 31.0312C163.382 30.9896 163.621 31 163.976 31.0625L164.569 31.125L169.288 30.7812L169.851 30.7188ZM163.538 36.75C163.934 36.1875 164.33 36.0938 164.726 36.4688C165.476 37.1562 166.215 37.8125 166.944 38.4375C167.278 38.7083 167.632 38.6979 168.007 38.4062C168.674 37.9479 169.309 37.3542 169.913 36.625C170.226 36.125 170.621 36.1354 171.101 36.6562C171.184 36.9062 171.017 37.125 170.601 37.3125C170.017 37.6667 169.236 38.2292 168.257 39C167.944 39.25 167.788 39.5729 167.788 39.9688L167.882 43.3438C167.819 43.8438 167.674 44.125 167.444 44.1875C167.278 44.2083 167.132 44.0938 167.007 43.8438C166.819 43.5312 166.778 43.2292 166.882 42.9375C167.028 41.9583 167.09 40.9688 167.069 39.9688C167.069 39.6562 166.924 39.3438 166.632 39.0312C165.778 38.2604 164.944 37.6667 164.132 37.25C163.736 36.9792 163.538 36.8125 163.538 36.75ZM144.757 17.25C144.757 16.625 145.059 16.3542 145.663 16.4375L146.288 16.5625C146.976 16.5417 147.382 16.7396 147.507 17.1562C146.819 17.9062 146.517 18.4479 146.601 18.7812C146.601 19.1354 146.851 19.3125 147.351 19.3125H154.726C155.226 19.3125 155.799 19 156.444 18.375C157.069 17.75 157.694 17.6667 158.319 18.125L158.632 18.375C159.382 18.9792 159.705 19.4271 159.601 19.7188C159.496 20.0104 159.132 20.1562 158.507 20.1562H147.382C146.861 20.1562 146.601 20.4062 146.601 20.9062V22.1875C146.601 22.7083 146.851 22.9688 147.351 22.9688H152.132C152.632 22.9688 153.184 22.6667 153.788 22.0625C154.392 21.4792 155.017 21.4375 155.663 21.9375L156.038 22.2188C156.621 22.6979 156.851 23.0729 156.726 23.3438C156.559 23.6354 156.163 23.7812 155.538 23.7812H135.851C135.226 23.7812 134.871 23.6667 134.788 23.4375C134.705 23.125 134.965 22.9688 135.569 22.9688H143.976C144.496 22.9688 144.757 22.7188 144.757 22.2188V20.9375C144.757 20.4167 144.507 20.1562 144.007 20.1562H133.476C132.851 20.1562 132.507 20.0417 132.444 19.8125C132.361 19.4792 132.601 19.3125 133.163 19.3125H143.976C144.496 19.3125 144.757 19.0625 144.757 18.5625V17.25ZM137.257 26C137.257 25.375 137.569 25.2188 138.194 25.5312C138.507 25.7188 138.882 25.8125 139.319 25.8125H151.788C152.288 25.8125 152.705 25.6667 153.038 25.375C153.371 25.1042 153.83 25.1771 154.413 25.5938C155.496 26.0312 155.621 26.5521 154.788 27.1562C154.559 27.2188 154.444 27.5208 154.444 28.0625C154.465 29.2083 154.444 30.3854 154.382 31.5938C154.299 31.6562 153.996 31.7083 153.476 31.75C152.913 31.7708 152.632 31.5729 152.632 31.1562C152.632 30.7396 152.382 30.5312 151.882 30.5312H139.851C139.33 30.5312 139.069 30.7083 139.069 31.0625C139.215 31.5625 139.028 31.8542 138.507 31.9375C138.132 32.0208 137.757 32.0521 137.382 32.0312C137.299 31.9688 137.257 31.625 137.257 31V26ZM152.632 27.4688C152.632 26.9271 152.392 26.6562 151.913 26.6562H139.851C139.33 26.6562 139.069 26.9062 139.069 27.4062V28.9375C139.069 29.4583 139.319 29.7188 139.819 29.7188H151.851C152.371 29.7188 152.632 29.4688 152.632 28.9688V27.4688ZM149.444 32.3438C149.59 31.5938 149.976 31.3333 150.601 31.5625L151.476 31.8438C152.226 32.0521 152.361 32.3958 151.882 32.875C151.465 32.9167 151.132 33.0521 150.882 33.2812C150.257 33.9062 150.194 34.2188 150.694 34.2188H154.976C155.476 34.2188 156.038 33.9062 156.663 33.2812C157.309 32.6354 157.944 32.5417 158.569 33L158.882 33.25C159.653 33.875 159.976 34.3229 159.851 34.5938C159.726 34.8854 159.361 35.0312 158.757 35.0312H132.851C132.226 35.0312 131.871 34.9167 131.788 34.6875C131.705 34.375 131.965 34.2188 132.569 34.2188H140.757C141.653 34.4688 141.767 34.0521 141.101 32.9688C140.601 32.3438 140.403 31.9479 140.507 31.7812C140.674 31.5938 141.101 31.6667 141.788 32C142.684 32.4792 143.174 33.0521 143.257 33.7188C143.236 34.0521 143.476 34.2188 143.976 34.2188H148.038C148.538 34.2188 148.913 33.9062 149.163 33.2812L149.444 32.3438ZM137.538 36.7812C137.58 36.1562 137.903 35.8854 138.507 35.9688C139.319 36.0312 139.892 36.1875 140.226 36.4375C140.476 36.875 140.267 37.1562 139.601 37.2812C139.517 37.3646 139.434 37.5208 139.351 37.75C139.351 37.9792 139.601 38.0938 140.101 38.0938H142.476C142.976 38.0938 143.424 37.9375 143.819 37.625C144.194 37.3125 144.705 37.3125 145.351 37.625C146.601 38.0417 146.861 38.5833 146.132 39.25C145.611 39.3542 145.434 39.7188 145.601 40.3438C145.58 42.6771 145.059 44.3438 144.038 45.3438C143.642 45.6771 143.246 45.9271 142.851 46.0938C142.226 46.3646 141.809 46.1667 141.601 45.5C141.434 45.1667 141.09 44.8229 140.569 44.4688C139.924 44.1771 139.642 43.8958 139.726 43.625C139.809 43.4375 140.194 43.4583 140.882 43.6875L141.913 43.9062C142.33 44.0521 142.705 43.8229 143.038 43.2188C143.517 42.3229 143.757 41.1458 143.757 39.6875C143.757 39.1667 143.507 38.9062 143.007 38.9062H139.944C139.444 38.9062 139.09 39.2188 138.882 39.8438C138.507 41.6354 137.382 43.0938 135.507 44.2188C134.653 44.7188 133.684 45.1354 132.601 45.4688C131.934 45.6562 131.569 45.6667 131.507 45.5C131.403 45.2708 131.663 45 132.288 44.6875C134.913 43.6667 136.549 41.9896 137.194 39.6562C137.299 39.1562 137.101 38.9062 136.601 38.9062H133.663C133.038 38.9062 132.694 38.7917 132.632 38.5625C132.569 38.25 132.83 38.0938 133.413 38.0938H136.726C137.226 38.0938 137.496 37.7812 137.538 37.1562V36.7812ZM147.882 37.5312C147.882 36.8854 148.194 36.7292 148.819 37.0625C149.403 37.5625 149.955 37.7396 150.476 37.5938H155.038C155.538 37.5938 155.955 37.4479 156.288 37.1562C156.621 36.8854 157.08 36.9375 157.663 37.3125C158.392 37.7083 158.674 38.1042 158.507 38.5C158.444 38.6042 158.299 38.7292 158.069 38.875C157.819 39.0417 157.694 39.375 157.694 39.875V44.6875C157.694 45.3125 157.674 45.6562 157.632 45.7188C157.549 45.7812 157.246 45.8229 156.726 45.8438C156.163 45.8854 155.882 45.6562 155.882 45.1562C155.882 44.6562 155.632 44.4062 155.132 44.4062H150.476C149.955 44.4062 149.694 44.6042 149.694 45C149.84 45.5625 149.653 45.875 149.132 45.9375C148.444 46.0208 148.069 46.0417 148.007 46C147.924 45.9375 147.882 45.5938 147.882 44.9688V37.5312ZM155.882 39.2188C155.882 38.6771 155.642 38.4062 155.163 38.4062H150.476C149.955 38.4062 149.694 38.6562 149.694 39.1562V42.8125C149.694 43.3333 149.944 43.5938 150.444 43.5938H155.101C155.621 43.5938 155.882 43.3438 155.882 42.8438V39.2188ZM222.189 24.9688C222.585 24.3854 222.991 24.3958 223.408 25C223.929 25.5833 224.419 26.1771 224.877 26.7812C225.148 27.0729 225.335 27.3438 225.439 27.5938C225.398 27.6354 225.366 27.6562 225.346 27.6562C224.866 27.4271 224.096 26.9062 223.033 26.0938C222.825 25.9479 222.627 25.8229 222.439 25.7188C222.148 25.4896 222.064 25.2396 222.189 24.9688ZM219.346 30.5C219.45 30.3958 219.637 30.3958 219.908 30.5C220.366 30.5208 220.71 30.6146 220.939 30.7812C221.106 30.9062 221.137 31.0312 221.033 31.1562C220.971 31.2396 220.835 31.3021 220.627 31.3438C218.564 31.1771 217.033 31.1875 216.033 31.375C215.471 31.375 214.689 31.5 213.689 31.75C212.96 31.9375 212.377 31.6875 211.939 31C211.981 30.9375 212.2 30.9167 212.596 30.9375C213.366 31.0208 214.439 30.9896 215.814 30.8438C216.606 30.7604 217.387 30.7083 218.158 30.6875C218.637 30.6458 219.033 30.5833 219.346 30.5ZM198.877 17.4688C199.064 16.7604 199.429 16.4792 199.971 16.625C200.866 16.8333 201.429 17.0938 201.658 17.4062C201.7 17.7396 201.491 17.9583 201.033 18.0625C200.908 18.0625 200.585 18.3229 200.064 18.8438C199.919 19.0521 199.741 19.2604 199.533 19.4688C199.075 20.0521 199.096 20.3438 199.596 20.3438H202.971C203.471 20.3438 204.033 20.0312 204.658 19.4062C205.304 18.7604 205.939 18.6771 206.564 19.1562L206.877 19.4062C207.669 19.9688 208.002 20.3854 207.877 20.6562C207.731 20.9896 207.366 21.1562 206.783 21.1562H196.627C196.106 21.1562 195.846 21.4062 195.846 21.9062V23.4375C195.846 23.9583 196.096 24.2188 196.596 24.2188H200.596C201.096 24.2188 201.658 23.9062 202.283 23.2812C202.929 22.6354 203.564 22.5417 204.189 23L204.502 23.25C205.252 23.8542 205.575 24.3021 205.471 24.5938C205.366 24.8854 205.002 25.0312 204.377 25.0312H196.627C196.106 25.0312 195.846 25.2812 195.846 25.7812V27.1562C195.846 27.6771 196.096 27.9375 196.596 27.9375H203.971C204.471 27.9375 205.044 27.625 205.689 27C206.314 26.375 206.939 26.2917 207.564 26.75L207.877 27C208.648 27.6042 208.981 28.0417 208.877 28.3125C208.731 28.625 208.366 28.7812 207.783 28.7812H182.096C181.471 28.7812 181.127 28.6667 181.064 28.4375C180.981 28.1042 181.221 27.9375 181.783 27.9375H193.221C193.741 27.9375 194.002 27.6875 194.002 27.1875V25.8125C194.002 25.2917 193.752 25.0312 193.252 25.0312H185.971C185.346 25.0312 185.002 24.9167 184.939 24.6875C184.877 24.375 185.127 24.2188 185.689 24.2188H193.221C193.741 24.2188 194.002 23.9688 194.002 23.4688V21.9375C194.002 21.4167 193.752 21.1562 193.252 21.1562H183.346C182.721 21.1562 182.377 21.0417 182.314 20.8125C182.252 20.5 182.502 20.3438 183.064 20.3438H189.189C189.689 20.3438 189.846 20.0312 189.658 19.4062C189.491 18.8854 189.283 18.4479 189.033 18.0938C188.471 17.4688 188.252 17.0729 188.377 16.9062C188.523 16.7188 188.908 16.8021 189.533 17.1562C190.846 17.9271 191.502 18.7812 191.502 19.7188C191.419 20.1354 191.627 20.3438 192.127 20.3438H197.064C197.564 20.3438 197.96 20.0312 198.252 19.4062C198.502 18.7604 198.71 18.1146 198.877 17.4688ZM196.877 30.8125C196.877 30.1042 197.189 29.7812 197.814 29.8438C198.127 29.8438 198.439 29.875 198.752 29.9375C199.231 29.9792 199.512 30.1875 199.596 30.5625C199.637 30.7708 199.481 30.9479 199.127 31.0938C198.835 31.1562 198.721 31.3854 198.783 31.7812C198.846 32.5521 198.939 33.3229 199.064 34.0938C199.189 34.5938 199.502 34.8438 200.002 34.8438H204.189C204.689 34.8438 205.252 34.5312 205.877 33.9062C206.523 33.2604 207.158 33.1667 207.783 33.625L209.221 34.75C209.241 34.8333 209.2 34.9896 209.096 35.2188C208.971 35.5104 208.616 35.6562 208.033 35.6562H200.221C199.721 35.6562 199.564 35.9688 199.752 36.5938C200.064 37.4896 200.46 38.3542 200.939 39.1875C201.231 39.6667 201.627 39.6458 202.127 39.125L203.471 37.5625C203.991 36.9792 204.564 36.8333 205.189 37.125C205.856 37.3542 206.231 37.6354 206.314 37.9688C206.273 38.3229 206.075 38.4688 205.721 38.4062C205.491 38.4062 205.054 38.6979 204.408 39.2812L203.158 40.375C202.554 40.8542 202.575 41.3854 203.221 41.9688C204.075 42.6562 205.106 43.2604 206.314 43.7812C206.856 43.9062 207.273 43.7292 207.564 43.25L208.314 41.5938C208.627 40.9271 208.877 40.625 209.064 40.6875C209.273 40.75 209.346 41.0938 209.283 41.7188C209.179 42.0938 209.106 42.5 209.064 42.9375C208.939 43.4583 208.908 43.9375 208.971 44.375C209.283 44.7083 209.471 45 209.533 45.25C209.387 46 208.794 46.3021 207.752 46.1562C205.773 46.0729 203.669 44.9583 201.439 42.8125C201.023 42.3542 200.481 42.3229 199.814 42.7188C197.648 43.9896 195.116 44.9792 192.221 45.6875C191.596 45.7917 191.252 45.7604 191.189 45.5938C191.148 45.4479 191.46 45.2604 192.127 45.0312C194.689 44.1771 197.044 43.0312 199.189 41.5938C199.731 41.2188 199.825 40.7292 199.471 40.125C198.721 38.7917 198.179 37.5521 197.846 36.4062C197.679 35.9062 197.346 35.6562 196.846 35.6562H190.971C190.45 35.6562 190.189 35.9062 190.189 36.4062V37.9688C190.189 38.4688 190.502 38.6562 191.127 38.5312C192.169 38.3021 193.241 38.0312 194.346 37.7188C195.033 37.5104 195.46 37.5104 195.627 37.7188C195.814 38.0104 195.596 38.2917 194.971 38.5625L190.939 39.9062C190.439 40.0729 190.189 40.4062 190.189 40.9062V43.8438C190.106 44.7396 189.491 45.4271 188.346 45.9062C187.575 46.1354 187.158 46.1354 187.096 45.9062C186.908 45.3229 186.346 44.8646 185.408 44.5312C184.762 44.3021 184.46 44.0729 184.502 43.8438C184.544 43.5521 184.929 43.4583 185.658 43.5625L187.189 43.75C187.898 43.75 188.283 43.4167 188.346 42.75V41.3125C188.346 40.8125 188.033 40.6042 187.408 40.6875C186.346 40.8542 185.273 41.0521 184.189 41.2812C183.648 41.3854 183.377 41.5625 183.377 41.8125C183.252 42.5833 182.877 42.7396 182.252 42.2812C182.002 41.7188 181.794 41.1562 181.627 40.5938C181.419 39.9688 181.637 39.6458 182.283 39.625C184.2 39.5625 185.96 39.4167 187.564 39.1875C188.085 39.125 188.346 38.8438 188.346 38.3438V36.4375C188.346 35.9167 188.096 35.6562 187.596 35.6562H181.721C181.096 35.6562 180.752 35.5417 180.689 35.3125C180.627 35 180.877 34.8438 181.439 34.8438H187.564C188.085 34.8438 188.346 34.5938 188.346 34.0938V33.4375C188.346 32.9375 188.033 32.7083 187.408 32.75C186.137 32.8125 184.866 32.9062 183.596 33.0312C182.929 33.0729 182.585 33 182.564 32.8125C182.523 32.5 182.846 32.2917 183.533 32.1875C186.325 31.875 188.95 31.2396 191.408 30.2812C192.075 29.9479 192.7 29.9062 193.283 30.1562L194.158 30.5625C194.721 30.8333 194.835 31.1042 194.502 31.375C194.335 31.4583 194.033 31.5 193.596 31.5C193.346 31.4583 192.929 31.5521 192.346 31.7812L190.939 32.1562C190.439 32.2812 190.189 32.5938 190.189 33.0938V34.0625C190.189 34.5833 190.439 34.8438 190.939 34.8438H196.689C197.189 34.8438 197.377 34.5312 197.252 33.9062C197.085 32.8854 196.96 31.8542 196.877 30.8125ZM201.502 30.375C201.585 30.1875 201.919 30.1875 202.502 30.375C203.648 30.8125 204.502 31.4583 205.064 32.3125C205.419 33.125 205.158 33.6042 204.283 33.75C204.096 33.7083 203.95 33.6458 203.846 33.5625C203.491 32.875 203.054 32.1875 202.533 31.5C201.762 30.9167 201.419 30.5417 201.502 30.375ZM268.497 19.2188C268.809 19.1354 269.122 19.1771 269.434 19.3438C269.789 19.5729 269.945 19.7292 269.903 19.8125C269.757 20.0625 269.507 20.125 269.153 20C268.528 19.7917 267.695 19.7812 266.653 19.9688C266.32 19.9896 266.153 20.1562 266.153 20.4688V22.3438L266.216 24.6875C266.32 25.4583 266.236 26.0625 265.966 26.5C265.757 26.6875 265.559 26.6042 265.372 26.25C265.184 25.8958 265.153 25.5 265.278 25.0625C265.361 24.6042 265.414 23.9896 265.434 23.2188V21.125C265.455 20.9375 265.455 20.7604 265.434 20.5938C265.434 20.2812 265.236 20.1354 264.841 20.1562L263.809 20.25L262.653 20.5312C262.049 20.5104 261.601 20.3229 261.309 19.9688C261.351 19.8229 261.455 19.75 261.622 19.75C263.997 19.75 266.289 19.5729 268.497 19.2188ZM268.497 30.5625C268.705 30.5417 269.101 30.5938 269.684 30.7188C269.893 30.7396 270.059 30.8438 270.184 31.0312C270.247 31.1354 270.205 31.2396 270.059 31.3438C269.914 31.4479 269.705 31.4792 269.434 31.4375C268.997 31.3958 268.549 31.3646 268.091 31.3438H266.466C265.299 31.3854 264.111 31.5729 262.903 31.9062C262.341 31.9688 261.851 31.7188 261.434 31.1562C261.434 31.1146 261.455 31.0729 261.497 31.0312C261.601 30.9896 261.83 31 262.184 31.0625L262.747 31.125L267.497 30.7812C267.934 30.7604 268.268 30.6875 268.497 30.5625ZM271.747 33.5C271.872 33.4375 271.986 33.4375 272.091 33.5C272.799 34.1458 273.486 34.8333 274.153 35.5625C274.445 35.9583 274.57 36.1771 274.528 36.2188C274.486 36.2188 274.268 36.1146 273.872 35.9062C273.184 35.5312 272.497 35.1146 271.809 34.6562C271.101 34.3854 271.08 34 271.747 33.5ZM267.747 36.1875C267.976 36.125 268.268 36.2188 268.622 36.4688C268.893 36.7604 268.986 37.0312 268.903 37.2812C268.882 37.3229 268.82 37.375 268.716 37.4375C268.445 37.6042 268.164 37.9167 267.872 38.375L267.528 38.9688C267.341 39.3854 267.434 39.5833 267.809 39.5625C268.143 39.5625 268.434 39.5208 268.684 39.4375C269.101 39.3958 269.518 39.6667 269.934 40.25C269.955 40.375 269.778 40.625 269.403 41C268.986 42.0208 268.32 42.9479 267.403 43.7812C267.007 44.1354 266.789 44.3125 266.747 44.3125C266.643 44.3125 266.559 44.25 266.497 44.125C266.434 43.9792 266.549 43.7917 266.841 43.5625C267.757 42.5833 268.361 41.5938 268.653 40.5938C268.757 40.4896 268.747 40.375 268.622 40.25C268.455 40.1042 268.195 40.0521 267.841 40.0938C266.861 40.0729 265.789 40.125 264.622 40.25C263.893 40.2917 263.247 40.4896 262.684 40.8438C262.289 40.9688 262.07 41.0104 262.028 40.9688C261.653 40.4896 261.768 40.0938 262.372 39.7812C262.976 39.3229 263.299 38.6771 263.341 37.8438C263.466 37.5938 263.205 37.2917 262.559 36.9375C262.539 36.8958 262.539 36.8542 262.559 36.8125C262.58 36.7708 262.789 36.7396 263.184 36.7188C264.518 36.6354 265.861 36.5312 267.216 36.4062C267.361 36.3854 267.539 36.3125 267.747 36.1875ZM266.934 36.9375C265.83 36.9583 264.903 37.0521 264.153 37.2188C263.841 37.3438 263.757 37.5104 263.903 37.7188C264.153 38.1562 264.007 38.7396 263.466 39.4688C263.216 39.7812 263.289 39.9167 263.684 39.875L265.778 39.6562C266.153 39.6146 266.445 39.4271 266.653 39.0938L267.559 37.5938C267.664 37.3021 267.695 37.125 267.653 37.0625C267.507 36.9167 267.268 36.875 266.934 36.9375ZM240.622 17.25C241.039 16.9167 241.549 16.9271 242.153 17.2812C243.07 17.6562 243.486 18.0833 243.403 18.5625C243.257 18.8958 243.07 19.0625 242.841 19.0625C242.361 19.2083 242.184 19.6042 242.309 20.25V30.9688C242.309 31.5938 242.247 31.9583 242.122 32.0625C241.976 32.125 242.143 32.3542 242.622 32.75C243.122 33.1458 243.341 33.5 243.278 33.8125C243.174 34.125 242.809 34.2812 242.184 34.2812H238.841C238.32 34.2812 238.059 34.5312 238.059 35.0312V44.9688C238.059 45.5938 238.039 45.9375 237.997 46C237.914 46.0625 237.601 46.125 237.059 46.1875C236.518 46.2083 236.247 45.9062 236.247 45.2812V35.0625C236.247 34.5417 235.997 34.2812 235.497 34.2812H232.997C232.476 34.2812 232.216 34.5 232.216 34.9375C232.424 35.6458 232.143 35.9896 231.372 35.9688C230.705 36.0104 230.372 35.6979 230.372 35.0312V20.125C230.372 19.5 230.684 19.2292 231.309 19.3125L232.247 19.4375C232.83 19.5208 233.174 19.6979 233.278 19.9688C233.341 20.2396 233.205 20.4688 232.872 20.6562C232.309 20.8646 232.091 21.2812 232.216 21.9062V32.6875C232.216 33.2083 232.466 33.4688 232.966 33.4688H238.716C239.216 33.4688 239.768 33.1562 240.372 32.5312C240.455 32.4271 240.497 32.0833 240.497 31.5C240.497 31.0208 240.247 30.7812 239.747 30.7812H236.997C236.476 30.7812 236.216 30.9375 236.216 31.25C236.216 31.5625 236.195 31.7604 236.153 31.8438C236.07 31.9271 235.768 32.0208 235.247 32.125C234.664 32.1458 234.372 31.8333 234.372 31.1875V17.75C234.372 17.125 234.684 16.9792 235.309 17.3125C235.747 17.7292 236.226 17.8646 236.747 17.7188H239.309C239.809 17.7188 240.247 17.5625 240.622 17.25ZM254.372 17.25C255.059 16.875 255.684 16.8125 256.247 17.0625C257.018 17.375 257.539 17.6875 257.809 18C257.705 18.4583 257.403 18.6354 256.903 18.5312C256.507 18.5104 256.101 18.5729 255.684 18.7188C254.309 19.2188 252.684 19.6354 250.809 19.9688C250.643 20.0521 250.757 20.1771 251.153 20.3438C251.611 20.5104 251.747 20.7604 251.559 21.0938C251.434 21.4062 251.226 21.5208 250.934 21.4375C250.684 21.3542 250.403 21.6146 250.091 22.2188C249.653 23.0312 249.059 23.8125 248.309 24.5625C247.851 25.0208 247.882 25.5104 248.403 26.0312C248.945 26.6562 249.164 27.2812 249.059 27.9062C249.08 28.1562 248.903 28.3646 248.528 28.5312C248.132 28.7188 247.778 28.5833 247.466 28.125C246.924 26.75 246.174 25.5833 245.216 24.625C244.549 24.125 244.268 23.8021 244.372 23.6562C244.497 23.4271 244.872 23.4688 245.497 23.7812C245.684 23.8646 245.872 23.9792 246.059 24.125C246.559 24.4792 247.039 24.3542 247.497 23.75C248.205 22.5417 248.674 21.5938 248.903 20.9062C249.091 20.4479 248.851 20.25 248.184 20.3125C247.247 20.4375 246.299 20.5208 245.341 20.5625C244.716 20.5833 244.361 20.4479 244.278 20.1562C244.236 19.8854 244.549 19.7083 245.216 19.625C248.799 19.1667 251.851 18.375 254.372 17.25ZM240.497 19.3438C240.497 18.8021 240.257 18.5312 239.778 18.5312H236.997C236.476 18.5312 236.216 18.7812 236.216 19.2812V20.9375C236.216 21.4583 236.466 21.7188 236.966 21.7188H239.716C240.236 21.7188 240.497 21.4688 240.497 20.9688V19.3438ZM240.497 23.3125C240.497 22.7917 240.247 22.5312 239.747 22.5312H236.997C236.476 22.5312 236.216 22.7812 236.216 23.2812V25.1562C236.216 25.6771 236.466 25.9375 236.966 25.9375H239.716C240.236 25.9375 240.497 25.6875 240.497 25.1875V23.3125ZM253.247 23.5C253.518 22.875 253.955 22.7188 254.559 23.0312C255.518 23.4688 256.018 23.8646 256.059 24.2188C255.976 24.5521 255.726 24.6875 255.309 24.625C254.997 24.6667 254.611 25.0104 254.153 25.6562C252.736 27.6354 251.08 29.5833 249.184 31.5C248.684 32 248.747 32.2396 249.372 32.2188C251.143 32.0938 252.955 31.8438 254.809 31.4688C255.309 31.3438 255.372 30.9479 254.997 30.2812C254.893 30.0729 254.747 29.8646 254.559 29.6562C254.101 29.1354 253.934 28.8125 254.059 28.6875C254.247 28.5 254.653 28.6458 255.278 29.125C256.466 30.2083 257.33 31.3438 257.872 32.5312C258.164 33.0104 258.216 33.5312 258.028 34.0938C257.861 34.5521 257.611 34.7604 257.278 34.7188C256.882 34.7812 256.57 34.4792 256.341 33.8125L256.122 33.0312C255.955 32.5312 255.559 32.375 254.934 32.5625L252.809 33.0938C252.309 33.2396 252.059 33.5625 252.059 34.0625V45.0312C252.059 45.6979 251.757 46.0729 251.153 46.1562C250.549 46.1979 250.247 45.9062 250.247 45.2812V34.375C250.247 33.875 249.934 33.6562 249.309 33.7188C248.539 33.8021 247.757 33.9167 246.966 34.0625C246.466 34.125 246.174 34.2083 246.091 34.3125C246.07 34.625 246.007 34.8542 245.903 35C245.403 35.4375 245.039 35.3021 244.809 34.5938L244.434 33.3438C244.268 32.6146 244.497 32.2604 245.122 32.2812H246.403C246.903 32.3021 247.445 32 248.028 31.375C250.341 28.75 252.08 26.125 253.247 23.5ZM240.497 27.625C240.497 27.0625 240.268 26.7812 239.809 26.7812H236.997C236.476 26.7812 236.216 27.0312 236.216 27.5312V29.1562C236.216 29.6771 236.466 29.9375 236.966 29.9375H239.716C240.236 29.9375 240.497 29.6875 240.497 29.1875V27.625ZM253.684 36.0312C253.872 35.8854 254.33 36.1771 255.059 36.9062C256.955 39.1146 257.861 41.1979 257.778 43.1562C257.445 44.0938 256.914 44.2083 256.184 43.5C256.101 43.3333 256.049 43.125 256.028 42.875C255.924 40.875 255.33 39 254.247 37.25C253.726 36.6042 253.539 36.1979 253.684 36.0312ZM239.903 36.5625C240.111 36.4167 240.559 36.6771 241.247 37.3438C242.018 38.2604 242.549 39.0938 242.841 39.8438C243.299 40.8229 243.226 41.6042 242.622 42.1875C241.83 42.5 241.382 42.1146 241.278 41.0312C241.257 40.0312 240.997 38.9896 240.497 37.9062C239.955 37.1146 239.757 36.6667 239.903 36.5625ZM246.622 37.375C246.768 36.6875 247.132 36.4271 247.716 36.5938C248.216 36.6979 248.747 36.875 249.309 37.125C249.559 37.5 249.393 37.75 248.809 37.875C248.601 37.8542 248.393 38.0833 248.184 38.5625C247.122 40.8333 245.861 42.6979 244.403 44.1562C243.799 44.7188 243.414 44.9167 243.247 44.75C243.101 44.6042 243.257 44.2292 243.716 43.625C245.257 41.5417 246.226 39.4583 246.622 37.375ZM232.497 37.8125C232.622 37.125 232.986 36.8438 233.591 36.9688L233.903 37.0312C234.716 37.2604 235.164 37.4583 235.247 37.625C235.351 37.8958 235.174 38.0833 234.716 38.1875C234.528 38.2083 234.289 38.5312 233.997 39.1562C233.309 40.8021 232.299 42.3229 230.966 43.7188C230.341 44.2812 229.934 44.5104 229.747 44.4062C229.58 44.2396 229.747 43.8333 230.247 43.1875C231.455 41.3958 232.205 39.6042 232.497 37.8125ZM314.273 21.375C314.502 21.2292 314.773 21.3125 315.086 21.625C315.252 21.8958 315.294 22.1354 315.211 22.3438C315.002 23.1146 314.752 23.8438 314.461 24.5312C314.336 24.8438 314.461 24.9896 314.836 24.9688C315.836 24.9062 316.825 24.8229 317.804 24.7188C318.2 24.5521 318.596 24.6146 318.992 24.9062C319.263 25.0729 319.273 25.2708 319.023 25.5C318.981 25.5208 318.763 25.5 318.367 25.4375C317.742 25.25 316.471 25.25 314.554 25.4375C314.242 25.4583 314.002 25.6667 313.836 26.0625C313.586 26.5833 313.356 27.1146 313.148 27.6562C312.981 27.9896 312.888 28.2188 312.867 28.3438C312.888 28.6146 313.086 28.7188 313.461 28.6562C314.294 28.5521 315.127 28.4271 315.961 28.2812C316.294 28.2188 316.346 28 316.117 27.625C315.867 27.1458 315.773 26.9062 315.836 26.9062C316.127 26.9271 316.534 27.2292 317.054 27.8125C317.825 28.625 318.075 29.2396 317.804 29.6562C317.7 29.7604 317.575 29.7396 317.429 29.5938L317.054 29.125C316.867 28.8125 316.606 28.6771 316.273 28.7188L314.023 29.0625C313.711 29.1042 313.315 29.2083 312.836 29.375C312.377 29.4167 312.086 29.2188 311.961 28.7812C311.961 28.6146 312.023 28.4375 312.148 28.25C312.544 27.75 312.929 27.0104 313.304 26.0312C313.409 25.6979 313.273 25.5521 312.898 25.5938C312.398 25.6771 311.909 25.7812 311.429 25.9062C310.992 26.0938 310.586 25.9792 310.211 25.5625C310.086 25.375 310.231 25.25 310.648 25.1875L313.179 25.0625C313.492 25.0625 313.721 24.8646 313.867 24.4688C314.263 23.5312 314.398 22.7188 314.273 22.0312C314.231 21.6354 314.231 21.4167 314.273 21.375ZM322.929 29.7812C323.367 29.4688 323.565 29.4167 323.523 29.625C323.231 30.1667 322.648 30.9479 321.773 31.9688C321.294 32.7188 320.846 32.8021 320.429 32.2188C320.304 32.0104 320.346 31.8229 320.554 31.6562L322.929 29.7812ZM316.617 32.875C316.721 32.4792 316.804 32.2708 316.867 32.25C317.117 32.2708 317.377 32.4479 317.648 32.7812C317.877 33.0312 317.804 33.3229 317.429 33.6562C317.221 33.9062 316.929 34.3021 316.554 34.8438L316.117 35.4375C315.763 35.8333 315.784 36.1771 316.179 36.4688C317.034 37.0729 317.784 37.7292 318.429 38.4375C318.7 38.75 318.679 39.0521 318.367 39.3438C318.054 39.5521 317.7 39.3542 317.304 38.75C316.888 38.25 316.346 37.6979 315.679 37.0938C315.284 36.7604 314.898 36.7708 314.523 37.125C313.231 38.3333 312.044 39.1354 310.961 39.5312C310.711 39.6146 310.554 39.6562 310.492 39.6562C310.367 39.6354 310.502 39.4896 310.898 39.2188C311.898 38.5521 312.961 37.6771 314.086 36.5938C314.398 36.2812 314.356 35.9583 313.961 35.625C313.377 35.125 312.784 34.6667 312.179 34.25C311.721 33.8542 311.534 33.6354 311.617 33.5938C311.804 33.5729 312.023 33.6458 312.273 33.8125C312.94 34.2083 313.711 34.6979 314.586 35.2812C314.898 35.5104 315.211 35.4271 315.523 35.0312C316.106 34.2812 316.471 33.5625 316.617 32.875ZM304.304 16.7812C304.784 16.2396 305.304 16.25 305.867 16.8125C307.263 17.8333 307.419 18.5729 306.336 19.0312C305.898 19.1562 305.679 19.4375 305.679 19.875V44.6875C305.888 45.8125 305.398 46.2812 304.211 46.0938C303.981 46.0312 303.867 45.6771 303.867 45.0312C303.867 44.3646 303.617 44.0312 303.117 44.0312H282.242C281.721 44.0312 281.461 44.3021 281.461 44.8438C281.648 45.9688 281.054 46.3854 279.679 46.0938C279.617 46.0312 279.586 45.6875 279.586 45.0625V17.125C279.586 16.5 279.898 16.4062 280.523 16.8438C281.044 17.4271 281.565 17.6354 282.086 17.4688H302.867C303.367 17.4688 303.846 17.2396 304.304 16.7812ZM303.867 19.0625C303.867 18.5417 303.617 18.2812 303.117 18.2812H282.242C281.721 18.2812 281.461 18.5312 281.461 19.0312V42.4062C281.461 42.9271 281.711 43.1875 282.211 43.1875H303.086C303.606 43.1875 303.867 42.9375 303.867 42.4375V19.0625ZM286.992 20.6562C286.992 20.0104 287.294 19.8542 287.898 20.1875C288.231 20.375 288.606 20.4688 289.023 20.4688H295.898C296.398 20.4688 296.815 20.3229 297.148 20.0312C297.481 19.7604 297.94 19.8125 298.523 20.1875C299.106 20.6875 299.409 21 299.429 21.125C299.409 21.3125 299.263 21.5208 298.992 21.75C298.7 21.9167 298.554 22.25 298.554 22.75V25.0312C298.554 25.6562 298.523 26.0104 298.461 26.0938C298.377 26.1562 298.086 26.2083 297.586 26.25C297.023 26.2708 296.742 26.0938 296.742 25.7188C296.742 25.3438 296.492 25.1562 295.992 25.1562H294.461C293.94 25.1562 293.679 25.4062 293.679 25.9062V26.8125C293.679 27.3333 293.929 27.5938 294.429 27.5938H298.398C298.898 27.5938 299.377 27.2812 299.836 26.6562C300.252 26.0729 300.763 26.0833 301.367 26.6875C301.992 27.3125 302.273 27.7396 302.211 27.9688C302.148 28.2604 301.825 28.4062 301.242 28.4062H283.867C283.242 28.4062 282.898 28.2917 282.836 28.0625C282.773 27.75 283.023 27.5938 283.586 27.5938H291.086C291.606 27.5938 291.867 27.3438 291.867 26.8438V25.9375C291.867 25.4167 291.617 25.1562 291.117 25.1562H289.586C289.065 25.1562 288.804 25.2708 288.804 25.5C288.867 26.0417 288.554 26.2917 287.867 26.25C287.284 26.2708 286.992 25.9479 286.992 25.2812V20.6562ZM296.742 22.0625C296.742 21.5417 296.492 21.2812 295.992 21.2812H289.586C289.065 21.2812 288.804 21.5312 288.804 22.0312V23.5625C288.804 24.0833 289.054 24.3438 289.554 24.3438H295.961C296.481 24.3438 296.742 24.0938 296.742 23.5938V22.0625ZM298.898 29.875C299.315 29.5417 299.815 29.5521 300.398 29.9062L300.679 30.0938C301.284 30.4688 301.606 30.7083 301.648 30.8125C301.711 31.2708 301.534 31.5625 301.117 31.6875C300.554 31.8958 300.367 32.2812 300.554 32.8438V40.9375C300.554 41.6042 300.252 41.9688 299.648 42.0312C299.044 42.0729 298.742 41.9167 298.742 41.5625C298.742 41.2083 298.492 41.0312 297.992 41.0312H287.492C286.992 41.0312 286.731 41.1354 286.711 41.3438C286.711 41.7812 286.502 41.9792 286.086 41.9375C285.273 42 284.867 41.6979 284.867 41.0312V30.5312C284.867 29.9062 285.179 29.75 285.804 30.0625C286.117 30.25 286.492 30.3438 286.929 30.3438H297.586C298.086 30.3438 298.523 30.1875 298.898 29.875ZM298.742 32C298.742 31.4375 298.513 31.1562 298.054 31.1562H287.492C286.971 31.1562 286.711 31.4062 286.711 31.9062V39.4375C286.711 39.9583 286.961 40.2188 287.461 40.2188H297.961C298.481 40.2188 298.742 39.9688 298.742 39.4688V32ZM288.804 33.625C288.804 32.9792 289.106 32.8229 289.711 33.1562C290.065 33.4688 290.502 33.5729 291.023 33.4688H294.086C294.586 33.4688 294.981 33.3438 295.273 33.0938C295.586 32.8438 296.065 32.9271 296.711 33.3438C297.544 33.7812 297.638 34.2188 296.992 34.6562C296.763 34.8229 296.648 35.1458 296.648 35.625V37.9062C296.648 38.5312 296.617 38.875 296.554 38.9375C296.492 39 296.211 39.0625 295.711 39.125C295.19 39.0833 294.929 38.8958 294.929 38.5625C294.929 38.2083 294.679 38.0312 294.179 38.0312H291.273C290.773 38.0312 290.513 38.1354 290.492 38.3438C290.513 38.8438 290.211 39.0625 289.586 39C289.065 39.0208 288.804 38.7083 288.804 38.0625V33.625ZM294.929 35.125C294.929 34.5625 294.7 34.2812 294.242 34.2812H291.273C290.752 34.2812 290.492 34.5312 290.492 35.0312V36.4062C290.492 36.9271 290.742 37.1875 291.242 37.1875H294.148C294.669 37.1875 294.929 36.9375 294.929 36.4375V35.125ZM366.174 22.3438C366.612 22.2604 367.07 22.375 367.549 22.6875C367.633 22.75 367.685 22.8229 367.706 22.9062C367.747 22.9896 367.643 23.2188 367.393 23.5938C367.226 23.9688 367.081 24.3438 366.956 24.7188C366.726 25.4271 366.341 25.7396 365.799 25.6562C364.924 25.6979 363.914 25.7917 362.768 25.9375C362.456 25.9792 362.268 26.1562 362.206 26.4688C362.101 27.1979 361.883 27.9479 361.549 28.7188C361.216 29.5312 360.591 30.3021 359.674 31.0312C359.57 31.1354 359.435 31.1458 359.268 31.0625C359.226 31.0208 359.372 30.8438 359.706 30.5312C360.685 29.3646 361.278 28.0208 361.487 26.5C361.508 26.0625 361.476 25.7396 361.393 25.5312C361.289 25.3438 361.247 25.2292 361.268 25.1875C361.31 25.1458 361.528 25.1875 361.924 25.3125C362.112 25.4375 362.372 25.4479 362.706 25.3438C363.706 25.2396 364.695 25.1562 365.674 25.0938C365.924 25.0729 366.091 24.9479 366.174 24.7188C366.32 24.3229 366.424 23.9583 366.487 23.625C366.57 23.1875 366.403 22.9688 365.987 22.9688L361.831 23.5312C361.643 23.5729 361.351 23.5208 360.956 23.375C360.726 23.2917 360.664 23.1458 360.768 22.9375C362.872 22.8125 364.674 22.6146 366.174 22.3438ZM365.737 32.875C365.841 32.4792 365.924 32.2708 365.987 32.25C366.237 32.2708 366.497 32.4479 366.768 32.7812C366.997 33.0312 366.924 33.3229 366.549 33.6562C366.341 33.9062 366.049 34.3021 365.674 34.8438L365.237 35.4375C364.883 35.8333 364.903 36.1771 365.299 36.4688C366.153 37.0729 366.903 37.7292 367.549 38.4375C367.82 38.75 367.799 39.0521 367.487 39.3438C367.174 39.5521 366.82 39.3542 366.424 38.75C366.008 38.25 365.466 37.6979 364.799 37.0938C364.403 36.7604 364.018 36.7708 363.643 37.125C362.351 38.3333 361.164 39.1354 360.081 39.5312C359.831 39.6146 359.674 39.6562 359.612 39.6562C359.487 39.6354 359.622 39.4896 360.018 39.2188C361.018 38.5521 362.081 37.6771 363.206 36.5938C363.518 36.2812 363.476 35.9583 363.081 35.625C362.497 35.125 361.903 34.6667 361.299 34.25C360.841 33.8542 360.653 33.6354 360.737 33.5938C360.924 33.5729 361.143 33.6458 361.393 33.8125C362.06 34.2083 362.831 34.6979 363.706 35.2812C364.018 35.5104 364.331 35.4271 364.643 35.0312C365.226 34.2812 365.591 33.5625 365.737 32.875ZM340.987 17.4062C340.987 16.7812 341.289 16.5104 341.893 16.5938C342.101 16.5938 342.31 16.625 342.518 16.6875C343.143 16.8125 343.508 16.9167 343.612 17C343.674 17.125 343.56 17.4167 343.268 17.875C342.935 18.2917 342.778 18.5938 342.799 18.7812C342.82 18.9062 343.081 18.9688 343.581 18.9688H349.081C349.581 18.9688 350.028 18.7917 350.424 18.4375C350.778 18.1458 351.289 18.1979 351.956 18.5938L353.081 19.2812C353.289 19.7396 353.164 20.0729 352.706 20.2812C352.101 20.3646 351.883 20.7812 352.049 21.5312C352.049 22.1354 352.143 22.4479 352.331 22.4688C352.518 22.4688 352.903 22.1771 353.487 21.5938C354.091 20.9896 354.706 20.9167 355.331 21.375C355.435 21.5 355.539 21.5938 355.643 21.6562C356.289 22.1771 356.549 22.5729 356.424 22.8438C356.278 23.1354 355.893 23.2812 355.268 23.2812H352.831C352.31 23.2812 352.049 23.5312 352.049 24.0312V26.5625C352.049 27.2292 351.747 27.5833 351.143 27.625C350.539 27.6667 350.237 27.5417 350.237 27.25C350.237 26.9375 349.987 26.7812 349.487 26.7812H343.581C343.06 26.7812 342.799 27.0312 342.799 27.5312V28.6875C342.799 29.2083 343.049 29.4688 343.549 29.4688H349.237C349.737 29.4688 350.289 29.1667 350.893 28.5625C351.497 27.9792 352.122 27.9375 352.768 28.4375L353.143 28.75C353.706 29.2083 353.924 29.5729 353.799 29.8438C353.653 30.1354 353.268 30.2812 352.643 30.2812H343.581C343.06 30.2812 342.799 30.5312 342.799 31.0312V31.9062C342.799 32.4271 343.049 32.6875 343.549 32.6875H351.331C351.831 32.6875 352.403 32.375 353.049 31.75C353.674 31.125 354.299 31.0417 354.924 31.5L355.237 31.75C356.008 32.3542 356.331 32.7917 356.206 33.0625C356.06 33.375 355.695 33.5312 355.112 33.5312H329.331C328.706 33.5312 328.362 33.4167 328.299 33.1875C328.216 32.8542 328.456 32.6875 329.018 32.6875H340.206C340.726 32.6875 340.987 32.4375 340.987 31.9375V31.0625C340.987 30.5417 340.737 30.2812 340.237 30.2812H331.456C330.831 30.2812 330.476 30.1667 330.393 29.9375C330.31 29.625 330.57 29.4688 331.174 29.4688H340.206C340.726 29.4688 340.987 29.2188 340.987 28.7188V27.5625C340.987 27.0417 340.737 26.7812 340.237 26.7812H332.456C331.831 26.7812 331.476 26.6667 331.393 26.4375C331.31 26.1042 331.549 25.9375 332.112 25.9375H340.206C340.726 25.9375 340.987 25.6875 340.987 25.1875V24.0625C340.987 23.5417 340.737 23.2812 340.237 23.2812H328.956C328.331 23.2812 327.987 23.1667 327.924 22.9375C327.862 22.625 328.112 22.4688 328.674 22.4688H340.206C340.726 22.4688 340.987 22.2188 340.987 21.7188V20.5625C340.987 20.0417 340.737 19.7812 340.237 19.7812H332.893C332.268 19.7812 331.924 19.6667 331.862 19.4375C331.799 19.125 332.06 18.9688 332.643 18.9688H340.206C340.726 18.9688 340.987 18.7188 340.987 18.2188V17.4062ZM350.237 20.5938C350.237 20.0521 349.997 19.7812 349.518 19.7812H343.581C343.06 19.7812 342.799 20.0312 342.799 20.5312V21.6875C342.799 22.2083 343.049 22.4688 343.549 22.4688H349.456C349.976 22.4688 350.237 22.2188 350.237 21.7188V20.5938ZM350.237 24.0625C350.237 23.5417 349.987 23.2812 349.487 23.2812H343.581C343.06 23.2812 342.799 23.5312 342.799 24.0312V25.1562C342.799 25.6771 343.049 25.9375 343.549 25.9375H349.456C349.976 25.9375 350.237 25.6875 350.237 25.1875V24.0625ZM350.393 35.8438C350.768 35.5312 351.268 35.5521 351.893 35.9062C352.851 36.3646 353.268 36.7917 353.143 37.1875C353.081 37.5 352.903 37.6562 352.612 37.6562C352.091 37.8021 351.903 38.1562 352.049 38.7188V45.125C352.258 45.875 352.049 46.25 351.424 46.25C350.633 46.2917 350.237 46.1042 350.237 45.6875C350.237 45.25 349.987 45.0312 349.487 45.0312H335.237C334.716 45.0312 334.456 45.1562 334.456 45.4062C334.456 45.6771 334.435 45.8542 334.393 45.9375C334.31 46.0417 334.008 46.1458 333.487 46.25C332.903 46.2708 332.612 45.9479 332.612 45.2812V36.5312C332.612 35.9062 332.924 35.75 333.549 36.0625C333.862 36.25 334.237 36.3438 334.674 36.3438H349.081C349.581 36.3438 350.018 36.1771 350.393 35.8438ZM350.237 37.9688C350.237 37.4271 349.997 37.1562 349.518 37.1562H335.237C334.716 37.1562 334.456 37.4062 334.456 37.9062V39.4375C334.456 39.9583 334.706 40.2188 335.206 40.2188H349.456C349.976 40.2188 350.237 39.9688 350.237 39.4688V37.9688ZM350.237 41.8438C350.237 41.3021 349.997 41.0312 349.518 41.0312H335.237C334.716 41.0312 334.456 41.2812 334.456 41.7812V43.4375C334.456 43.9583 334.706 44.2188 335.206 44.2188H349.456C349.976 44.2188 350.237 43.9688 350.237 43.4688V41.8438ZM411.607 19.1562C411.586 18.8854 411.617 18.7188 411.701 18.6562C411.888 18.5938 412.169 18.7292 412.544 19.0625C412.774 19.1667 412.784 19.3646 412.576 19.6562C412.055 20.4688 411.503 21.25 410.919 22C410.461 22.5625 410.159 22.9792 410.013 23.25C410.034 23.4167 410.128 23.5938 410.294 23.7812C411.482 24.8854 412.169 25.7083 412.357 26.25C412.274 26.6042 412.055 26.6875 411.701 26.5C411.596 26.4167 411.482 26.2708 411.357 26.0625C410.961 25.3125 410.409 24.5833 409.701 23.875C409.451 23.4792 409.451 23.0833 409.701 22.6875C410.534 21.5417 411.149 20.6042 411.544 19.875C411.628 19.6875 411.649 19.4479 411.607 19.1562ZM415.201 18.9688C415.555 18.8646 415.878 19.0208 416.169 19.4375C416.211 19.5417 416.096 19.7917 415.826 20.1875L413.857 22.625C413.628 22.9375 413.513 23.1146 413.513 23.1562C413.534 23.2812 413.617 23.4062 413.763 23.5312C414.888 24.5521 415.544 25.3854 415.732 26.0312C415.774 26.1562 415.68 26.2604 415.451 26.3438C415.263 26.4271 415.076 26.3333 414.888 26.0625C414.471 25.25 413.899 24.4583 413.169 23.6875C412.732 23.3333 412.742 22.9479 413.201 22.5312C413.805 21.6979 414.388 20.8542 414.951 20C415.117 19.6667 415.18 19.4375 415.138 19.3125C415.096 19.125 415.117 19.0104 415.201 18.9688ZM415.044 28.125C415.211 27.9792 415.43 28.0104 415.701 28.2188C415.93 28.4271 416.065 28.6146 416.107 28.7812C416.086 28.8854 415.878 29.0938 415.482 29.4062L414.638 30.25C414.326 30.5417 414.336 30.7917 414.669 31C415.274 31.3125 415.826 31.6354 416.326 31.9688C416.659 32.2812 416.836 32.4792 416.857 32.5625C416.732 33.1458 416.43 33.25 415.951 32.875C415.659 32.5833 415.263 32.2604 414.763 31.9062L414.169 31.4688C413.794 31.2188 413.451 31.2083 413.138 31.4375C411.596 32.4792 410.242 33.1042 409.076 33.3125C409.034 33.2708 409.211 33.1354 409.607 32.9062C410.69 32.3438 411.669 31.7396 412.544 31.0938C412.878 30.8646 412.846 30.6354 412.451 30.4062L410.669 29.4375C410.19 29.1667 409.992 29.0104 410.076 28.9688C410.242 28.9688 410.471 29.0208 410.763 29.125L413.013 30.0938C413.367 30.2604 413.721 30.1771 414.076 29.8438C414.409 29.5312 414.68 29.1562 414.888 28.7188C414.951 28.5312 415.003 28.3333 415.044 28.125ZM418.482 34C418.19 33.4583 418.274 33.3333 418.732 33.625L419.794 34.4688C420.128 34.6354 420.482 34.5833 420.857 34.3125C421.315 34 421.69 33.7083 421.982 33.4375L422.357 33.25C422.378 33.25 422.315 33.4479 422.169 33.8438C421.753 34.5938 421.305 35.3438 420.826 36.0938C420.346 36.6146 419.909 36.5 419.513 35.75L418.482 34ZM414.919 36.375C415.19 36.1875 415.461 36.1354 415.732 36.2188C416.169 36.4271 416.419 36.7188 416.482 37.0938C416.544 37.2396 416.451 37.3646 416.201 37.4688C416.096 37.5104 415.951 37.6354 415.763 37.8438C415.513 38.1771 415.242 38.5938 414.951 39.0938C414.826 39.4271 414.919 39.5938 415.232 39.5938C415.732 39.5729 416.096 39.5208 416.326 39.4375C416.742 39.4167 417.149 39.6979 417.544 40.2812C417.565 40.3854 417.399 40.6146 417.044 40.9688C416.794 41.3646 416.565 41.7604 416.357 42.1562C416.086 42.6146 415.555 43.1979 414.763 43.9062C414.43 44.3854 414.169 44.4479 413.982 44.0938C413.961 43.9896 414.138 43.75 414.513 43.375C415.409 42.4583 415.992 41.4792 416.263 40.4375C416.159 40.125 415.867 40.0104 415.388 40.0938C413.617 40.0729 412.128 40.1875 410.919 40.4375C410.669 40.5 410.274 40.6771 409.732 40.9688C409.544 41.0521 409.419 41.0521 409.357 40.9688C409.086 40.5104 409.159 40.1458 409.576 39.875C410.284 39.3958 410.669 38.7812 410.732 38.0312C410.732 37.6979 410.555 37.3958 410.201 37.125C410.055 37.0417 409.961 36.9479 409.919 36.8438C409.919 36.8021 410.117 36.75 410.513 36.6875C412.555 36.6042 414.024 36.5 414.919 36.375ZM414.482 36.9375C413.065 36.9583 412.096 37.0521 411.576 37.2188C411.221 37.3438 411.107 37.4792 411.232 37.625C411.544 38.0625 411.44 38.6458 410.919 39.375C410.607 39.7708 410.649 39.9375 411.044 39.875C411.857 39.7292 412.659 39.6562 413.451 39.6562C413.659 39.6562 413.794 39.6354 413.857 39.5938C414.294 38.9479 414.69 38.2917 415.044 37.625C415.169 37.3125 415.221 37.1354 415.201 37.0938C415.055 36.9271 414.815 36.875 414.482 36.9375ZM396.732 17.1875C396.732 16.5208 397.024 16.2396 397.607 16.3438C398.149 16.4062 398.69 16.5 399.232 16.625C399.607 16.9167 399.524 17.2604 398.982 17.6562C398.544 17.9896 398.399 18.6979 398.544 19.7812C398.544 20.3021 398.794 20.5625 399.294 20.5625H402.169C402.669 20.5625 403.138 20.3854 403.576 20.0312C404.055 19.6771 404.586 19.7604 405.169 20.2812C406.294 20.9896 406.586 21.625 406.044 22.1875C405.899 22.2708 405.69 22.3125 405.419 22.3125C404.94 22.0625 404.336 22.4479 403.607 23.4688C402.982 24.0521 402.586 24.2812 402.419 24.1562C402.232 23.9896 402.326 23.5625 402.701 22.875L402.951 22.2812C403.117 21.6979 402.982 21.4062 402.544 21.4062H392.419C391.919 21.4062 391.628 21.7188 391.544 22.3438C391.399 23.4688 390.971 24.3958 390.263 25.125C389.846 25.4583 389.388 25.5 388.888 25.25C388.305 24.6667 388.399 24.0833 389.169 23.5C390.232 22.625 390.846 21.6667 391.013 20.625C391.117 20 391.263 19.6875 391.451 19.6875C391.617 19.7083 391.701 19.8542 391.701 20.125C391.701 20.4167 391.951 20.5625 392.451 20.5625H395.951C396.471 20.5625 396.732 20.3125 396.732 19.8125V17.1875ZM382.294 17.4062C382.503 16.7396 382.909 16.5312 383.513 16.7812C384.388 17.0938 384.899 17.4062 385.044 17.7188C385.024 17.8229 385.336 18.0729 385.982 18.4688C386.919 19.0312 387.732 19.7188 388.419 20.5312C388.899 21.1354 389.096 21.6562 389.013 22.0938C388.992 22.5104 388.805 22.7604 388.451 22.8438C387.992 23.0312 387.628 22.8542 387.357 22.3125C386.794 21.1875 385.951 20.0729 384.826 18.9688C384.263 18.5312 383.846 18.5312 383.576 18.9688C382.242 21.4896 380.378 23.7292 377.982 25.6875C377.294 26.4167 376.857 26.5312 376.669 26.0312C376.669 25.9062 376.971 25.5417 377.576 24.9375C379.971 22.375 381.544 19.8646 382.294 17.4062ZM385.107 22.625C385.524 22.0417 386.013 22.0417 386.576 22.625C387.138 23.1875 387.399 23.5833 387.357 23.8125C387.294 24.125 386.961 24.2812 386.357 24.2812H381.857C381.232 24.2812 380.878 24.1667 380.794 23.9375C380.711 23.625 380.971 23.4688 381.576 23.4688H383.732C384.232 23.4688 384.69 23.1875 385.107 22.625ZM391.951 25C391.951 24.3542 392.263 24.2604 392.888 24.7188C393.513 25.3854 394.065 25.6354 394.544 25.4688H400.138C400.638 25.4688 401.055 25.3229 401.388 25.0312C401.721 24.7396 402.18 24.7917 402.763 25.1875C403.784 25.625 403.94 26.1458 403.232 26.75C402.94 26.9167 402.794 27.25 402.794 27.75V32.8125C402.794 33.4375 402.774 33.7812 402.732 33.8438C402.649 33.9062 402.346 33.9583 401.826 34C401.263 34.0417 400.982 33.8021 400.982 33.2812C400.982 32.7812 400.732 32.5312 400.232 32.5312H394.576C394.055 32.5312 393.794 32.7812 393.794 33.2812V35.5625C393.794 36.0833 394.044 36.3438 394.544 36.3438H400.669C401.169 36.3438 401.617 36.1771 402.013 35.8438C402.409 35.5312 402.919 35.5625 403.544 35.9375C404.482 36.2917 404.888 36.7292 404.763 37.25C404.638 37.5208 404.44 37.6667 404.169 37.6875C403.711 37.8542 403.544 38.2292 403.669 38.8125V44.7188C403.878 45.4688 403.669 45.8438 403.044 45.8438C402.253 45.9062 401.857 45.625 401.857 45C401.857 44.3542 401.607 44.0312 401.107 44.0312H394.576C394.055 44.0312 393.794 44.3125 393.794 44.875C393.794 45.4375 393.774 45.7604 393.732 45.8438C393.669 45.9271 393.367 46.0312 392.826 46.1562C392.242 46.1771 391.951 45.8438 391.951 45.1562V25ZM378.701 26.625C378.701 26 379.013 25.9062 379.638 26.3438C380.242 27.0104 380.805 27.2604 381.326 27.0938H385.701C386.201 27.0938 386.649 26.9167 387.044 26.5625C387.399 26.2708 387.909 26.3229 388.576 26.7188L389.701 27.4062C389.93 27.9896 389.753 28.3333 389.169 28.4375C388.711 28.6042 388.544 28.9792 388.669 29.5625V35.9375C388.669 36.5833 388.367 36.9479 387.763 37.0312C387.159 37.0521 386.857 36.8125 386.857 36.3125C386.857 35.7917 386.607 35.5312 386.107 35.5312H381.326C380.805 35.5312 380.544 35.7812 380.544 36.2812V38.0625C380.544 38.5833 380.794 38.8438 381.294 38.8438H383.451C383.951 38.8438 384.492 38.5521 385.076 37.9688C385.68 37.3646 386.294 37.2917 386.919 37.75L387.232 38C387.836 38.5208 388.096 38.9271 388.013 39.2188C387.909 39.5104 387.544 39.6562 386.919 39.6562H381.326C380.805 39.6562 380.544 39.9062 380.544 40.4062V41.9062C380.544 42.4271 380.794 42.6875 381.294 42.6875H383.294C383.794 42.6875 384.336 42.3958 384.919 41.8125C385.524 41.2083 386.138 41.1458 386.763 41.625L387.076 41.875C387.701 42.375 387.971 42.7708 387.888 43.0625C387.784 43.375 387.419 43.5312 386.794 43.5312H381.326C380.805 43.5312 380.544 43.7812 380.544 44.2812C380.565 44.8021 380.544 45.3229 380.482 45.8438C380.065 46.1562 379.534 46.2604 378.888 46.1562C378.763 46.0729 378.701 45.7188 378.701 45.0938V26.625ZM400.982 27.0625C400.982 26.5417 400.732 26.2812 400.232 26.2812H394.576C394.055 26.2812 393.794 26.5312 393.794 27.0312V30.9375C393.794 31.4583 394.044 31.7188 394.544 31.7188H400.201C400.721 31.7188 400.982 31.4688 400.982 30.9688V27.0625ZM386.857 28.7188C386.857 28.1771 386.617 27.9062 386.138 27.9062H381.326C380.805 27.9062 380.544 28.1562 380.544 28.6562V30.1875C380.544 30.7083 380.794 30.9688 381.294 30.9688H386.076C386.596 30.9688 386.857 30.7188 386.857 30.2188V28.7188ZM386.857 32.625C386.857 32.0625 386.628 31.7812 386.169 31.7812H381.326C380.805 31.7812 380.544 32.0312 380.544 32.5312V33.9062C380.544 34.4271 380.794 34.6875 381.294 34.6875H386.076C386.596 34.6875 386.857 34.4375 386.857 33.9375V32.625ZM401.857 37.9688C401.857 37.4271 401.617 37.1562 401.138 37.1562H394.576C394.055 37.1562 393.794 37.4062 393.794 37.9062V42.4062C393.794 42.9271 394.044 43.1875 394.544 43.1875H401.076C401.596 43.1875 401.857 42.9375 401.857 42.4375V37.9688ZM134.538 55.4375C135.621 55.2396 136.476 55.2552 137.101 55.4844C137.496 55.5677 137.913 55.7969 138.351 56.1719C138.621 56.4219 138.809 56.4219 138.913 56.1719L139.038 55.875C139.174 55.5521 139.299 55.3906 139.413 55.3906C139.538 55.3906 139.616 55.5469 139.647 55.8594C139.689 56.9427 139.752 58.0417 139.835 59.1562C139.845 59.4688 139.788 59.625 139.663 59.625C139.538 59.625 139.429 59.4688 139.335 59.1562C138.731 56.8333 137.46 55.6979 135.522 55.75C134.543 55.8542 133.731 56.3333 133.085 57.1875C132.345 58.3125 131.944 59.5417 131.882 60.875C131.788 62.4167 132.179 63.7708 133.054 64.9375C133.981 65.8854 135.08 66.2969 136.351 66.1719C137.924 66.0469 139.002 65.0938 139.585 63.3125C139.658 63 139.767 62.849 139.913 62.8594C140.038 62.8698 140.064 63.0469 139.991 63.3906C139.439 65.3906 138.184 66.4792 136.226 66.6562C135.153 66.7396 134.142 66.5156 133.194 65.9844C131.819 65.0677 131.007 63.9219 130.757 62.5469C130.569 61.3906 130.59 60.3854 130.819 59.5312C130.976 58.7188 131.387 57.8854 132.054 57.0312C132.731 56.2083 133.559 55.6771 134.538 55.4375ZM142.348 55.4531L143.364 55.3906C143.697 55.3698 143.864 55.5104 143.864 55.8125V60.4219C143.864 60.7448 143.947 60.7448 144.114 60.4219C144.635 59.4115 145.327 58.8594 146.192 58.7656C146.713 58.724 147.213 58.8073 147.692 59.0156C148.15 59.224 148.504 59.5781 148.754 60.0781C148.921 60.4531 149.025 60.8698 149.067 61.3281V65.3281C149.15 65.8802 149.468 66.1458 150.02 66.125C150.332 66.125 150.489 66.1823 150.489 66.2969C150.489 66.3906 150.332 66.4375 150.02 66.4375H147.129C146.817 66.4375 146.655 66.3854 146.645 66.2812C146.645 66.1667 146.801 66.1094 147.114 66.1094C147.655 66.151 147.989 65.8802 148.114 65.2969V61.1406C148.093 60.4323 147.739 59.8542 147.051 59.4062C146.187 59.0104 145.411 59.3021 144.723 60.2812C144.223 61.0312 143.937 61.8073 143.864 62.6094V65.3281C144.01 65.9219 144.343 66.1823 144.864 66.1094C145.176 66.1094 145.338 66.1615 145.348 66.2656C145.348 66.3802 145.192 66.4375 144.879 66.4375H142.114C141.801 66.4375 141.64 66.3854 141.629 66.2812C141.629 66.1667 141.718 66.1094 141.895 66.1094C142.645 66.0781 142.978 65.7135 142.895 65.0156V56.6719C142.895 56.2865 142.728 56.0104 142.395 55.8438C142.02 55.8021 141.832 55.7188 141.832 55.5938C141.832 55.5312 142.004 55.4844 142.348 55.4531ZM152.924 56.3281C152.965 55.5365 153.34 55.25 154.049 55.4688C154.278 55.6042 154.408 55.7396 154.439 55.875C154.658 56.5417 154.382 56.9219 153.611 57.0156C153.236 56.974 153.007 56.7448 152.924 56.3281ZM152.783 59.0156L153.892 58.9531C154.205 58.9427 154.361 59.0938 154.361 59.4062V65.3438C154.424 65.875 154.741 66.1406 155.314 66.1406C155.627 66.1406 155.788 66.1875 155.799 66.2812C155.799 66.3854 155.642 66.4375 155.33 66.4375H152.455C152.142 66.4375 151.981 66.3854 151.971 66.2812C151.971 66.1667 152.08 66.1094 152.299 66.1094C153.007 66.2031 153.366 65.8438 153.377 65.0312V60.1875C153.377 59.7812 153.195 59.5208 152.83 59.4062C152.455 59.3646 152.267 59.2812 152.267 59.1562C152.267 59.0938 152.439 59.0469 152.783 59.0156ZM160.406 58.8281C161.124 58.7344 161.843 58.8125 162.562 59.0625C163.281 59.375 163.671 59.901 163.734 60.6406V65.1719C163.775 65.5781 163.984 65.8229 164.359 65.9062C164.567 65.9688 164.796 65.8854 165.046 65.6562C165.098 65.6875 165.124 65.7292 165.124 65.7812C164.926 66.1875 164.624 66.4271 164.218 66.5C163.426 66.6146 162.947 66.151 162.781 65.1094C162.76 64.8073 162.645 64.8177 162.437 65.1406C161.322 66.6198 159.999 67.0417 158.468 66.4062C157.937 66.1354 157.64 65.7656 157.577 65.2969C157.411 64.3073 157.807 63.5312 158.765 62.9688C159.765 62.4062 160.973 62.0521 162.39 61.9062C162.64 61.875 162.765 61.7344 162.765 61.4844V60.4531C162.692 59.849 162.307 59.4583 161.609 59.2812C160.765 59.0833 159.989 59.1979 159.281 59.625C158.989 59.8646 159.015 60.1875 159.359 60.5938C159.525 61.1354 159.322 61.4531 158.749 61.5469C158.531 61.599 158.333 61.5052 158.156 61.2656C157.958 60.9844 157.926 60.6198 158.062 60.1719C158.468 59.3906 159.249 58.9427 160.406 58.8281ZM162.265 62.375L161.968 62.4219C160.885 62.6094 160.051 62.8802 159.468 63.2344C158.937 63.5677 158.635 63.9635 158.562 64.4219C158.395 65.3698 158.791 65.9479 159.749 66.1562C160.864 66.3333 161.791 65.7396 162.531 64.375C162.77 64.0729 162.848 63.5 162.765 62.6562C162.765 62.3958 162.598 62.3021 162.265 62.375ZM166.403 59.125C166.403 58.9896 166.549 58.9219 166.841 58.9219H169.262C169.585 58.9219 169.747 58.9792 169.747 59.0938C169.747 59.2188 169.591 59.2865 169.278 59.2969C168.882 59.3177 168.679 59.4844 168.669 59.7969C168.731 60.1094 168.898 60.526 169.169 61.0469C169.637 62.0573 170.101 63.0833 170.559 64.125C170.684 64.3958 170.809 64.375 170.934 64.0625L172.325 60.4844C172.585 59.9115 172.512 59.526 172.106 59.3281C172.012 59.2865 171.919 59.2656 171.825 59.2656C171.471 59.2656 171.289 59.2135 171.278 59.1094C171.278 58.9844 171.434 58.9219 171.747 58.9219H173.637C173.95 58.9219 174.091 58.974 174.059 59.0781C174.018 59.1823 173.841 59.2708 173.528 59.3438C173.028 59.6562 172.674 60.1979 172.466 60.9688C171.799 62.6354 171.148 64.3021 170.512 65.9688C170.356 66.3646 170.143 66.7812 169.872 67.2188C169.33 68.1562 168.69 68.6823 167.95 68.7969C167.398 68.8281 166.95 68.6979 166.606 68.4062C166.46 68.25 166.382 68.0938 166.372 67.9375C166.32 67.3542 166.565 67.0469 167.106 67.0156C167.752 67.0469 167.945 67.3333 167.684 67.875C167.643 68.3438 167.835 68.5052 168.262 68.3594C169.012 67.974 169.617 67.2344 170.075 66.1406C170.169 65.8906 170.148 65.6094 170.012 65.2969C169.21 63.474 168.387 61.651 167.544 59.8281C167.377 59.5573 167.19 59.3906 166.981 59.3281C166.606 59.2969 166.414 59.2292 166.403 59.125ZM176.26 56.3281C176.302 55.5365 176.677 55.25 177.385 55.4688C177.614 55.6042 177.744 55.7396 177.776 55.875C177.994 56.5417 177.718 56.9219 176.947 57.0156C176.572 56.974 176.343 56.7448 176.26 56.3281ZM176.119 59.0156L177.229 58.9531C177.541 58.9427 177.697 59.0938 177.697 59.4062V65.3438C177.76 65.875 178.078 66.1406 178.651 66.1406C178.963 66.1406 179.125 66.1875 179.135 66.2812C179.135 66.3854 178.979 66.4375 178.666 66.4375H175.791C175.479 66.4375 175.317 66.3854 175.307 66.2812C175.307 66.1667 175.416 66.1094 175.635 66.1094C176.343 66.2031 176.703 65.8438 176.713 65.0312V60.1875C176.713 59.7812 176.531 59.5208 176.166 59.4062C175.791 59.3646 175.604 59.2812 175.604 59.1562C175.604 59.0938 175.776 59.0469 176.119 59.0156ZM193.411 55.4375C194.495 55.2396 195.349 55.2552 195.974 55.4844C196.37 55.5677 196.786 55.7969 197.224 56.1719C197.495 56.4219 197.682 56.4219 197.786 56.1719L197.911 55.875C198.047 55.5521 198.172 55.3906 198.286 55.3906C198.411 55.3906 198.489 55.5469 198.521 55.8594C198.562 56.9427 198.625 58.0417 198.708 59.1562C198.719 59.4688 198.661 59.625 198.536 59.625C198.411 59.625 198.302 59.4688 198.208 59.1562C197.604 56.8333 196.333 55.6979 194.396 55.75C193.416 55.8542 192.604 56.3333 191.958 57.1875C191.219 58.3125 190.817 59.5417 190.755 60.875C190.661 62.4167 191.052 63.7708 191.927 64.9375C192.854 65.8854 193.953 66.2969 195.224 66.1719C196.797 66.0469 197.875 65.0938 198.458 63.3125C198.531 63 198.64 62.849 198.786 62.8594C198.911 62.8698 198.937 63.0469 198.864 63.3906C198.312 65.3906 197.057 66.4792 195.099 66.6562C194.026 66.7396 193.015 66.5156 192.067 65.9844C190.692 65.0677 189.88 63.9219 189.63 62.5469C189.442 61.3906 189.463 60.3854 189.692 59.5312C189.849 58.7188 190.26 57.8854 190.927 57.0312C191.604 56.2083 192.432 55.6771 193.411 55.4375ZM203.534 58.8125C205.055 58.5729 206.242 59.276 207.096 60.9219C207.669 62.3385 207.601 63.6719 206.893 64.9219C206.268 65.9323 205.476 66.5052 204.518 66.6406C203.674 66.7656 202.877 66.5365 202.127 65.9531C201.315 65.1615 200.857 64.3073 200.752 63.3906C200.607 62.4427 200.779 61.5 201.268 60.5625C201.893 59.5417 202.648 58.9583 203.534 58.8125ZM204.627 59.2188C203.367 58.9896 202.523 59.5729 202.096 60.9688C201.836 61.8125 201.81 62.8646 202.018 64.125C202.154 64.8542 202.518 65.4635 203.112 65.9531C203.997 66.4531 204.825 66.3281 205.596 65.5781C206.346 64.5156 206.56 63.1198 206.237 61.3906C206.029 60.2865 205.492 59.5625 204.627 59.2188ZM210.766 58.9844C211.172 58.9635 211.375 59.099 211.375 59.3906V64.3438C211.448 65.2188 211.771 65.8021 212.344 66.0938C213.385 66.4792 214.224 66.1979 214.859 65.25C215.172 64.7708 215.359 64.2344 215.422 63.6406V60.1719C215.359 59.6823 215.115 59.4427 214.687 59.4531C214.396 59.4531 214.245 59.4062 214.234 59.3125C214.234 59.2083 214.396 59.1458 214.719 59.125L215.984 59.0312C216.297 59.0208 216.453 59.1719 216.453 59.4844V65.2031C216.557 65.7344 216.828 65.9948 217.266 65.9844C217.578 65.9844 217.734 66.0312 217.734 66.125C217.734 66.2083 217.568 66.2604 217.234 66.2812C216.818 66.2917 216.396 66.3177 215.969 66.3594C215.656 66.3698 215.5 66.2188 215.5 65.9062V65.2344C215.5 64.8802 215.417 64.8802 215.25 65.2344C214.708 66.151 213.984 66.6302 213.078 66.6719C212.568 66.7344 212.042 66.6562 211.5 66.4375C210.969 66.1458 210.646 65.776 210.531 65.3281C210.437 65.0469 210.38 64.7604 210.359 64.4688V60.1406C210.328 59.8698 210.234 59.6667 210.078 59.5312C209.984 59.4688 209.865 59.4271 209.719 59.4062C209.375 59.4062 209.198 59.3542 209.187 59.25C209.198 59.1562 209.359 59.0938 209.672 59.0625L210.766 58.9844ZM221.763 60.8594C222.617 59.0052 223.872 58.4062 225.529 59.0625C226.081 59.375 226.43 59.7708 226.576 60.25C226.68 60.5104 226.747 60.8125 226.779 61.1562V65.2969C226.779 65.7344 227.029 66.0104 227.529 66.125C227.904 66.125 228.102 66.1771 228.122 66.2812C228.133 66.3958 227.982 66.4531 227.669 66.4531H224.997C224.685 66.4531 224.524 66.401 224.513 66.2969C224.513 66.1719 224.701 66.1094 225.076 66.1094C225.544 66.0156 225.789 65.7396 225.81 65.2812V61.0938C225.675 59.8333 225.024 59.224 223.857 59.2656C223.43 59.3177 223.024 59.5833 222.638 60.0625C222.128 60.7396 221.763 61.5469 221.544 62.4844V65.0156C221.503 65.7552 221.841 66.1198 222.56 66.1094C222.768 66.1094 222.878 66.1615 222.888 66.2656C222.888 66.3802 222.732 66.4375 222.419 66.4375H219.716C219.404 66.4375 219.242 66.3854 219.232 66.2812C219.232 66.1667 219.326 66.1094 219.513 66.1094C220.076 66.1719 220.414 65.901 220.529 65.2969V60.1875C220.57 59.6562 220.3 59.375 219.716 59.3438C219.404 59.3333 219.242 59.2812 219.232 59.1875C219.232 59.0833 219.393 59.0208 219.716 59L221.013 58.9375C221.357 58.9167 221.529 59.0521 221.529 59.3438V60.8594C221.529 61.2135 221.607 61.2135 221.763 60.8594ZM231.557 56.4531C231.578 56.1198 231.651 55.9531 231.776 55.9531C231.932 55.9531 232.011 56.1094 232.011 56.4219V58.5312C232.011 58.7917 232.136 58.9219 232.386 58.9219H234.011C234.334 58.9219 234.495 58.9844 234.495 59.1094C234.495 59.2552 234.339 59.3281 234.026 59.3281H232.401C232.141 59.3281 232.011 59.4531 232.011 59.7031V64.4375C232.042 65.4479 232.516 65.9427 233.432 65.9219C234.089 65.7135 234.5 65.1927 234.667 64.3594C234.698 64.0469 234.766 63.8854 234.87 63.875C234.974 63.875 235.021 64.0312 235.011 64.3438C234.99 64.7083 234.891 65.0781 234.714 65.4531C234.151 66.4948 233.365 66.8698 232.354 66.5781C231.594 66.3281 231.172 65.7708 231.089 64.9062V59.7188C231.089 59.4583 230.964 59.3281 230.714 59.3281H230.073C229.75 59.3281 229.589 59.2604 229.589 59.125C229.589 58.9896 229.745 58.8958 230.057 58.8438C230.953 58.4375 231.453 57.6406 231.557 56.4531ZM236.117 59.125C236.117 58.9896 236.263 58.9219 236.555 58.9219H238.977C239.3 58.9219 239.461 58.9792 239.461 59.0938C239.461 59.2188 239.305 59.2865 238.992 59.2969C238.597 59.3177 238.394 59.4844 238.383 59.7969C238.446 60.1094 238.612 60.526 238.883 61.0469C239.352 62.0573 239.815 63.0833 240.274 64.125C240.399 64.3958 240.524 64.375 240.649 64.0625L242.039 60.4844C242.3 59.9115 242.227 59.526 241.821 59.3281C241.727 59.2865 241.633 59.2656 241.539 59.2656C241.185 59.2656 241.003 59.2135 240.992 59.1094C240.992 58.9844 241.149 58.9219 241.461 58.9219H243.352C243.664 58.9219 243.805 58.974 243.774 59.0781C243.732 59.1823 243.555 59.2708 243.242 59.3438C242.742 59.6562 242.388 60.1979 242.18 60.9688C241.513 62.6354 240.862 64.3021 240.227 65.9688C240.071 66.3646 239.857 66.7812 239.586 67.2188C239.045 68.1562 238.404 68.6823 237.664 68.7969C237.112 68.8281 236.664 68.6979 236.321 68.4062C236.175 68.25 236.097 68.0938 236.086 67.9375C236.034 67.3542 236.279 67.0469 236.821 67.0156C237.466 67.0469 237.659 67.3333 237.399 67.875C237.357 68.3438 237.55 68.5052 237.977 68.3594C238.727 67.974 239.331 67.2344 239.789 66.1406C239.883 65.8906 239.862 65.6094 239.727 65.2969C238.925 63.474 238.102 61.651 237.258 59.8281C237.091 59.5573 236.904 59.3906 236.696 59.3281C236.321 59.2969 236.128 59.2292 236.117 59.125ZM253.816 55.7031C253.816 55.5677 253.967 55.5 254.269 55.5H259.894C260.894 55.5729 261.727 55.8542 262.394 56.3438C263.352 57.3125 263.581 58.4531 263.081 59.7656C262.956 60.1406 262.607 60.5156 262.034 60.8906C261.295 61.3281 260.368 61.5625 259.253 61.5938H256.941C256.68 61.5938 256.55 61.7188 256.55 61.9688V65.1562C256.623 65.7396 257.008 66.0104 257.706 65.9688C258.029 65.9688 258.191 66.0365 258.191 66.1719C258.191 66.3177 258.034 66.3906 257.722 66.3906H254.316C253.993 66.3906 253.831 66.3229 253.831 66.1875C253.831 66.0417 253.987 65.9688 254.3 65.9688C254.987 66.0625 255.368 65.7656 255.441 65.0781V56.8594C255.305 56.1406 254.925 55.8177 254.3 55.8906C253.977 55.8906 253.816 55.8281 253.816 55.7031ZM257.409 55.9219C256.857 56.0469 256.56 56.3594 256.519 56.8594V60.75C256.519 61.0104 256.644 61.1406 256.894 61.1406H258.894C259.758 61.0781 260.54 60.7865 261.237 60.2656C262.029 59.4635 262.258 58.5417 261.925 57.5C261.56 56.4896 260.826 55.9635 259.722 55.9219H257.409ZM266.469 58.9844C266.876 58.9635 267.079 59.099 267.079 59.3906V64.3438C267.152 65.2188 267.475 65.8021 268.047 66.0938C269.089 66.4792 269.928 66.1979 270.563 65.25C270.876 64.7708 271.063 64.2344 271.126 63.6406V60.1719C271.063 59.6823 270.818 59.4427 270.391 59.4531C270.1 59.4531 269.948 59.4062 269.938 59.3125C269.938 59.2083 270.1 59.1458 270.422 59.125L271.688 59.0312C272.001 59.0208 272.157 59.1719 272.157 59.4844V65.2031C272.261 65.7344 272.532 65.9948 272.969 65.9844C273.282 65.9844 273.438 66.0312 273.438 66.125C273.438 66.2083 273.271 66.2604 272.938 66.2812C272.521 66.2917 272.1 66.3177 271.672 66.3594C271.36 66.3698 271.204 66.2188 271.204 65.9062V65.2344C271.204 64.8802 271.12 64.8802 270.954 65.2344C270.412 66.151 269.688 66.6302 268.782 66.6719C268.271 66.7344 267.745 66.6562 267.204 66.4375C266.672 66.1458 266.35 65.776 266.235 65.3281C266.141 65.0469 266.084 64.7604 266.063 64.4688V60.1406C266.032 59.8698 265.938 59.6667 265.782 59.5312C265.688 59.4688 265.568 59.4271 265.422 59.4062C265.079 59.4062 264.902 59.3542 264.891 59.25C264.902 59.1562 265.063 59.0938 265.376 59.0625L266.469 58.9844ZM276.404 55.3906C276.831 55.3698 277.045 55.5052 277.045 55.7969V60.7344C277.045 61.0885 277.118 61.0885 277.264 60.7344C277.701 59.7031 278.347 59.0729 279.201 58.8438C280.222 58.6146 281.123 58.9323 281.904 59.7969C282.8 60.9844 283.055 62.4062 282.67 64.0625C282.087 65.9062 280.967 66.776 279.311 66.6719C278.529 66.6406 277.873 66.1562 277.342 65.2188C277.175 64.9375 277.05 64.9167 276.967 65.1562L276.623 66.1562C276.519 66.4896 276.41 66.6562 276.295 66.6562C276.149 66.6562 276.076 66.5 276.076 66.1875V56.6094C276.076 56.1719 275.852 55.901 275.404 55.7969C275.144 55.776 275.009 55.7188 274.998 55.625C274.998 55.5312 275.154 55.474 275.467 55.4531L276.404 55.3906ZM279.217 59.2031C278.759 59.349 278.363 59.6615 278.029 60.1406C277.206 61.474 277.035 62.9115 277.514 64.4531C277.91 65.5781 278.535 66.1875 279.389 66.2812C280.441 66.3646 281.165 65.8646 281.561 64.7812C281.842 63.9062 281.915 62.849 281.779 61.6094C281.727 60.9219 281.488 60.2969 281.061 59.7344C280.488 59.2031 279.873 59.026 279.217 59.2031ZM285.324 55.4531L286.433 55.3906C286.746 55.3906 286.902 55.5469 286.902 55.8594V57.4688V64.625C286.871 65.0104 286.881 65.3125 286.933 65.5312C287.079 66 287.397 66.2031 287.886 66.1406C288.199 66.1406 288.355 66.1979 288.355 66.3125C288.355 66.4062 288.199 66.4531 287.886 66.4531H284.996C284.683 66.4531 284.522 66.401 284.511 66.2969C284.511 66.1823 284.667 66.125 284.98 66.125C285.48 66.1562 285.792 65.901 285.917 65.3594V56.625C285.917 56.2188 285.735 55.9583 285.371 55.8438C284.996 55.8021 284.808 55.7188 284.808 55.5938C284.808 55.5208 284.98 55.474 285.324 55.4531ZM290.837 56.3281C290.879 55.5365 291.254 55.25 291.962 55.4688C292.191 55.6042 292.321 55.7396 292.352 55.875C292.571 56.5417 292.295 56.9219 291.524 57.0156C291.149 56.974 290.92 56.7448 290.837 56.3281ZM290.696 59.0156L291.806 58.9531C292.118 58.9427 292.274 59.0938 292.274 59.4062V65.3438C292.337 65.875 292.655 66.1406 293.227 66.1406C293.54 66.1406 293.701 66.1875 293.712 66.2812C293.712 66.3854 293.556 66.4375 293.243 66.4375H290.368C290.056 66.4375 289.894 66.3854 289.884 66.2812C289.884 66.1667 289.993 66.1094 290.212 66.1094C290.92 66.2031 291.28 65.8438 291.29 65.0312V60.1875C291.29 59.7812 291.108 59.5208 290.743 59.4062C290.368 59.3646 290.181 59.2812 290.181 59.1562C290.181 59.0938 290.352 59.0469 290.696 59.0156ZM297.506 59.1094C298.756 58.6302 299.798 58.6771 300.631 59.25C301.058 59.5938 301.298 59.9635 301.35 60.3594C301.423 60.7552 301.293 61.1302 300.959 61.4844C300.72 61.6615 300.444 61.6719 300.131 61.5156C299.871 61.3177 299.756 61.1198 299.787 60.9219C299.787 60.6927 299.897 60.4844 300.116 60.2969C300.366 59.8385 300.183 59.4896 299.569 59.25C299.069 59.1042 298.61 59.1302 298.194 59.3281C297.735 59.5156 297.366 59.8542 297.084 60.3438C296.595 61.2812 296.418 62.3073 296.553 63.4219C296.866 65.2552 297.829 66.1302 299.444 66.0469C300.006 65.9635 300.527 65.5469 301.006 64.7969C301.173 64.474 301.303 64.3281 301.397 64.3594C301.501 64.401 301.485 64.5781 301.35 64.8906C300.506 66.4531 299.293 67 297.709 66.5312C297.251 66.375 296.798 66.0573 296.35 65.5781C295.652 64.6198 295.355 63.625 295.459 62.5938C295.511 61.6562 295.798 60.8229 296.319 60.0938C296.735 59.5729 297.131 59.2448 297.506 59.1094ZM312.048 55.75C312.048 55.6042 312.204 55.5312 312.517 55.5312H315.798C316.121 55.5312 316.282 55.599 316.282 55.7344C316.282 55.8802 316.126 55.9531 315.814 55.9531C315.064 55.849 314.689 56.2083 314.689 57.0312V65.2812C314.793 65.8438 315.152 66.0938 315.767 66.0312H317.736C318.465 65.9896 319.09 65.8281 319.611 65.5469C320.267 65.0885 320.715 64.2812 320.954 63.125C321.038 62.7396 321.142 62.5469 321.267 62.5469C321.402 62.5469 321.454 62.7031 321.423 63.0156L321.079 65.9688C321.038 66.2812 320.861 66.4375 320.548 66.4375H312.532C312.21 66.4375 312.048 66.375 312.048 66.25C312.048 66.1042 312.189 66.0312 312.47 66.0312C313.064 66.1458 313.449 65.8854 313.626 65.25V56.7344C313.522 56.1198 313.152 55.8594 312.517 55.9531C312.204 55.9531 312.048 55.8854 312.048 55.75ZM323.874 56.3281C323.915 55.5365 324.29 55.25 324.999 55.4688C325.228 55.6042 325.358 55.7396 325.389 55.875C325.608 56.5417 325.332 56.9219 324.561 57.0156C324.186 56.974 323.957 56.7448 323.874 56.3281ZM323.733 59.0156L324.842 58.9531C325.155 58.9427 325.311 59.0938 325.311 59.4062V65.3438C325.374 65.875 325.691 66.1406 326.264 66.1406C326.577 66.1406 326.738 66.1875 326.749 66.2812C326.749 66.3854 326.592 66.4375 326.28 66.4375H323.405C323.092 66.4375 322.931 66.3854 322.921 66.2812C322.921 66.1667 323.03 66.1094 323.249 66.1094C323.957 66.2031 324.316 65.8438 324.327 65.0312V60.1875C324.327 59.7812 324.145 59.5208 323.78 59.4062C323.405 59.3646 323.217 59.2812 323.217 59.1562C323.217 59.0938 323.389 59.0469 323.733 59.0156ZM329.793 55.3906C330.22 55.3698 330.434 55.5052 330.434 55.7969V60.7344C330.434 61.0885 330.507 61.0885 330.652 60.7344C331.09 59.7031 331.736 59.0729 332.59 58.8438C333.611 58.6146 334.512 58.9323 335.293 59.7969C336.189 60.9844 336.444 62.4062 336.059 64.0625C335.475 65.9062 334.356 66.776 332.699 66.6719C331.918 66.6406 331.262 66.1562 330.731 65.2188C330.564 64.9375 330.439 64.9167 330.356 65.1562L330.012 66.1562C329.908 66.4896 329.798 66.6562 329.684 66.6562C329.538 66.6562 329.465 66.5 329.465 66.1875V56.6094C329.465 56.1719 329.241 55.901 328.793 55.7969C328.533 55.776 328.397 55.7188 328.387 55.625C328.387 55.5312 328.543 55.474 328.856 55.4531L329.793 55.3906ZM332.606 59.2031C332.147 59.349 331.751 59.6615 331.418 60.1406C330.595 61.474 330.423 62.9115 330.902 64.4531C331.298 65.5781 331.923 66.1875 332.777 66.2812C333.83 66.3646 334.554 65.8646 334.949 64.7812C335.231 63.9062 335.304 62.849 335.168 61.6094C335.116 60.9219 334.876 60.2969 334.449 59.7344C333.876 59.2031 333.262 59.026 332.606 59.2031ZM342.462 58.8125C342.942 58.7083 343.358 58.7708 343.712 59C344.15 59.3021 344.296 59.7083 344.15 60.2188C344.046 60.4792 343.864 60.6198 343.603 60.6406C343.218 60.7448 342.942 60.6042 342.775 60.2188C342.692 59.9271 342.754 59.6406 342.962 59.3594C343.108 59.2031 343.025 59.1302 342.712 59.1406C341.785 59.4323 341.129 60.1042 340.744 61.1562C340.275 62.5312 340.082 63.9271 340.166 65.3438C340.322 65.9271 340.692 66.1823 341.275 66.1094C341.546 66.1094 341.686 66.1562 341.697 66.25C341.686 66.3542 341.525 66.4062 341.212 66.4062H338.369C338.056 66.4062 337.895 66.3594 337.884 66.2656C337.895 66.1615 337.999 66.1094 338.197 66.1094C338.978 66.1094 339.322 65.7396 339.228 65V60.2031C339.239 59.776 339.082 59.5 338.759 59.375C338.374 59.3333 338.181 59.2552 338.181 59.1406C338.181 59.0677 338.353 59.0156 338.697 58.9844L339.666 58.9219C339.978 58.9115 340.134 59.0625 340.134 59.375V61.4219C340.134 61.6615 340.192 61.6406 340.306 61.3594C340.671 60.151 341.39 59.3021 342.462 58.8125ZM348.444 58.8281C349.163 58.7344 349.882 58.8125 350.601 59.0625C351.319 59.375 351.71 59.901 351.772 60.6406V65.1719C351.814 65.5781 352.022 65.8229 352.397 65.9062C352.606 65.9688 352.835 65.8854 353.085 65.6562C353.137 65.6875 353.163 65.7292 353.163 65.7812C352.965 66.1875 352.663 66.4271 352.257 66.5C351.465 66.6146 350.986 66.151 350.819 65.1094C350.799 64.8073 350.684 64.8177 350.476 65.1406C349.361 66.6198 348.038 67.0417 346.507 66.4062C345.976 66.1354 345.679 65.7656 345.616 65.2969C345.45 64.3073 345.845 63.5312 346.804 62.9688C347.804 62.4062 349.012 62.0521 350.429 61.9062C350.679 61.875 350.804 61.7344 350.804 61.4844V60.4531C350.731 59.849 350.345 59.4583 349.647 59.2812C348.804 59.0833 348.028 59.1979 347.319 59.625C347.028 59.8646 347.054 60.1875 347.397 60.5938C347.564 61.1354 347.361 61.4531 346.788 61.5469C346.569 61.599 346.371 61.5052 346.194 61.2656C345.996 60.9844 345.965 60.6198 346.101 60.1719C346.507 59.3906 347.288 58.9427 348.444 58.8281ZM350.304 62.375L350.007 62.4219C348.924 62.6094 348.09 62.8802 347.507 63.2344C346.976 63.5677 346.674 63.9635 346.601 64.4219C346.434 65.3698 346.83 65.9479 347.788 66.1562C348.903 66.3333 349.83 65.7396 350.569 64.375C350.809 64.0729 350.887 63.5 350.804 62.6562C350.804 62.3958 350.637 62.3021 350.304 62.375ZM359.145 58.8125C359.624 58.7083 360.041 58.7708 360.395 59C360.832 59.3021 360.978 59.7083 360.832 60.2188C360.728 60.4792 360.546 60.6198 360.286 60.6406C359.9 60.7448 359.624 60.6042 359.457 60.2188C359.374 59.9271 359.437 59.6406 359.645 59.3594C359.791 59.2031 359.707 59.1302 359.395 59.1406C358.468 59.4323 357.812 60.1042 357.426 61.1562C356.957 62.5312 356.765 63.9271 356.848 65.3438C357.004 65.9271 357.374 66.1823 357.957 66.1094C358.228 66.1094 358.369 66.1562 358.379 66.25C358.369 66.3542 358.207 66.4062 357.895 66.4062H355.051C354.739 66.4062 354.577 66.3594 354.567 66.2656C354.577 66.1615 354.681 66.1094 354.879 66.1094C355.661 66.1094 356.004 65.7396 355.911 65V60.2031C355.921 59.776 355.765 59.5 355.442 59.375C355.056 59.3333 354.864 59.2552 354.864 59.1406C354.864 59.0677 355.036 59.0156 355.379 58.9844L356.348 58.9219C356.661 58.9115 356.817 59.0625 356.817 59.375V61.4219C356.817 61.6615 356.874 61.6406 356.989 61.3594C357.353 60.151 358.072 59.3021 359.145 58.8125ZM361.955 59.125C361.955 58.9896 362.101 58.9219 362.392 58.9219H364.814C365.137 58.9219 365.299 58.9792 365.299 59.0938C365.299 59.2188 365.142 59.2865 364.83 59.2969C364.434 59.3177 364.231 59.4844 364.221 59.7969C364.283 60.1094 364.45 60.526 364.721 61.0469C365.189 62.0573 365.653 63.0833 366.111 64.125C366.236 64.3958 366.361 64.375 366.486 64.0625L367.877 60.4844C368.137 59.9115 368.064 59.526 367.658 59.3281C367.564 59.2865 367.471 59.2656 367.377 59.2656C367.023 59.2656 366.84 59.2135 366.83 59.1094C366.83 58.9844 366.986 58.9219 367.299 58.9219H369.189C369.502 58.9219 369.642 58.974 369.611 59.0781C369.57 59.1823 369.392 59.2708 369.08 59.3438C368.58 59.6562 368.226 60.1979 368.017 60.9688C367.351 62.6354 366.7 64.3021 366.064 65.9688C365.908 66.3646 365.695 66.7812 365.424 67.2188C364.882 68.1562 364.241 68.6823 363.502 68.7969C362.95 68.8281 362.502 68.6979 362.158 68.4062C362.012 68.25 361.934 68.0938 361.924 67.9375C361.872 67.3542 362.116 67.0469 362.658 67.0156C363.304 67.0469 363.497 67.3333 363.236 67.875C363.195 68.3438 363.387 68.5052 363.814 68.3594C364.564 67.974 365.168 67.2344 365.627 66.1406C365.721 65.8906 365.7 65.6094 365.564 65.2969C364.762 63.474 363.939 61.651 363.096 59.8281C362.929 59.5573 362.741 59.3906 362.533 59.3281C362.158 59.2969 361.965 59.2292 361.955 59.125Z" fill="black"/>
<g clip-path="url(#clip0_130:4166)">
<path fill-rule="evenodd" clip-rule="evenodd" d="M10.8716 22.0283L5.04563 62.5898C5.04563 62.5898 18.8274 59.7188 27.4648 60.8685C46.45 62.5372 53.6784 75 53.6784 75C53.6784 75 43.2257 65.9272 24.9155 66.1834C9.61335 66.4068 -0.000488281 71.7677 -0.000488281 71.7677L7.75218 23.6445L10.8716 22.0283Z" fill="#003F81"/>
<path fill-rule="evenodd" clip-rule="evenodd" d="M99.4932 21.792L104.867 62.5506C104.867 62.5506 92.8088 59.4102 81.8974 60.7373C62.9122 62.406 56.8175 74.698 56.8175 74.698C56.8175 74.698 65.0355 65.75 83.3391 66.1179C97.442 66.4004 107.993 70.6248 107.993 70.6248L101.603 22.6066L99.4932 21.792Z" fill="#17933D"/>
<path fill-rule="evenodd" clip-rule="evenodd" d="M95.8954 12.6207C95.8954 12.6207 93.818 12.2068 90.3447 12.0623L95.5677 51.4083C95.5677 51.4083 79.1842 50.39 69.6752 56.5524C58.1806 63.5295 55.9786 72.8782 55.9786 72.8782C55.9786 72.8782 63.4036 59.3577 84.8791 57.5182C95.7578 57.1963 102.455 58.9241 102.455 58.9241L95.8954 12.6207Z" fill="#003F81"/>
<path fill-rule="evenodd" clip-rule="evenodd" d="M20.8852 15.8397C20.8852 15.8397 42.6031 15.6426 51.1095 25.057C59.6158 34.4714 54.3272 29.6361 54.3272 29.6361C54.3272 29.6361 61.5097 17.1996 69.4393 13.8491C77.3689 10.4985 82.415 11.2343 82.415 11.2343L86.026 42.4734C86.026 42.4734 66.7983 48.2613 62.958 54.7325C57.8922 63.2797 54.3272 72.878 54.3272 72.878C54.3272 72.878 46.8235 60.0934 38.7825 56.8151C28.8607 52.7747 15.6031 52.4002 15.6031 52.4002L20.8852 15.8397Z" fill="white"/>
<path fill-rule="evenodd" clip-rule="evenodd" d="M13.9779 12.6205C13.9779 12.6205 26.8357 10.3473 36.3578 14.5651C47.8131 19.6501 53.1279 28.4601 53.1279 28.4601C53.1279 28.4601 42.21 19.6172 32.452 18.0996C26.1279 17.1142 20.918 17.6594 20.918 17.6594L16.4879 51.6249C16.4879 51.6249 31.4427 51.3819 40.1915 56.5457C51.6862 63.5227 54.3206 72.8714 54.3206 72.8714C54.3206 72.8714 46.4697 59.3509 24.9942 57.5114C14.1155 57.1895 7.7522 58.9502 7.7522 58.9502L13.9779 12.6205Z" fill="#47A636"/>
<path fill-rule="evenodd" clip-rule="evenodd" d="M86.7796 5.40698C86.7796 5.40698 74.7672 5.40698 65.9267 12.003C55.6379 19.6699 55.343 28.1645 55.343 28.1645C55.343 28.1645 62.224 17.8435 70.5206 14.309C75.8944 12.0227 81.0847 11.9964 81.0847 11.9964L85.0626 42.0858C85.0626 42.0858 71.8772 44.51 63.9214 52.7222C55.9655 61.1708 55.343 70.2436 55.343 70.2436C55.343 70.2436 60.6447 55.6194 76.4777 50.7052C86.026 47.9788 92.3959 48.5044 92.3959 48.5044L86.7796 5.40698Z" fill="#47A636"/>
<path fill-rule="evenodd" clip-rule="evenodd" d="M56.6012 33.0393C54.0585 32.5203 51.5289 31.9225 48.9993 31.3444C48.049 31.1276 47.0922 30.9502 46.1289 30.7991C46.0371 30.7859 45.9388 30.7859 45.8733 30.7137C45.9716 30.4246 46.0961 30.1421 46.1682 29.8465C46.2534 29.472 46.2665 29.0844 46.4959 28.7559C46.5221 28.7165 46.5286 28.6311 46.5024 28.5916C46.3255 28.3223 46.5417 28.1515 46.6597 27.9609C47.0857 27.2514 47.2626 26.4565 47.5051 25.6747C47.5837 25.4185 47.682 25.1688 47.7607 24.9126C47.8065 24.7681 47.9507 24.617 47.7279 24.479C47.6624 24.4396 47.7279 24.341 47.7541 24.2753C48.0621 23.4541 48.3701 22.6329 48.6781 21.8117C48.7175 21.7066 48.7502 21.608 48.8551 21.5358C49.032 21.4044 49.1172 21.2138 49.1959 21.0102C49.7267 19.578 50.3034 18.1655 51.0767 16.845C51.2012 16.0632 51.85 15.5573 52.1056 14.8281C52.2301 14.4602 52.4005 14.0988 52.5381 13.7243C52.6102 13.5273 52.715 13.3564 52.9182 13.2645C52.951 13.2513 53.0099 13.225 53.0099 13.2119C52.9379 12.798 53.3966 12.5944 53.4097 12.2002C53.4163 11.9111 53.5539 11.6615 53.7046 11.3921C53.9798 10.9191 54.3927 10.4986 54.432 9.90077C54.4451 9.73652 54.6155 9.65112 54.74 9.55914C54.9235 9.42118 55.0808 9.27664 55.107 9.02699C55.1201 8.88246 55.2381 8.79048 55.3626 8.71822C55.5199 8.62624 55.6116 8.50141 55.5658 8.30432C55.5199 8.08752 55.6575 7.94299 55.8017 7.83787C56.7388 7.12834 57.3024 6.11003 57.9774 5.19027C58.4755 4.51359 58.9342 3.82377 59.6158 3.30476C59.8124 3.15366 60.0155 3.01569 60.2711 2.96313C60.317 3.14709 60.2449 3.30476 60.199 3.46243C59.9893 4.11284 60.009 4.80266 59.8976 5.4662C59.8189 5.95236 59.7599 6.43852 59.7075 6.93125C59.6092 7.91014 59.4323 8.87589 59.3798 9.86135C59.3602 10.2687 59.3274 10.676 59.2881 11.0833C59.2619 11.3001 59.3274 11.4709 59.5502 11.5826C59.7534 11.6812 59.7796 11.9045 59.6354 12.1082C59.5306 12.2527 59.3864 12.3644 59.3012 12.5155C59.2095 12.6666 59.0915 12.8309 59.3667 12.9885C59.5306 13.0805 59.4912 13.3827 59.3929 13.4747C58.9539 13.9017 58.9801 14.4273 59.0325 14.9595C59.0653 15.3142 59.0718 15.6427 58.8949 15.9778C58.6065 16.5362 58.6196 17.1669 58.5672 17.7713C58.5213 18.264 58.4689 18.7502 58.2789 19.2101C58.2527 19.2758 58.2068 19.3743 58.233 19.4203C58.5148 19.8867 58.1412 20.2941 58.1281 20.7277C58.1216 20.9313 58.1085 21.135 58.0167 21.3255C57.9905 21.3846 58.0102 21.4306 58.0495 21.4766C58.2396 21.7197 58.2592 22.0088 58.2461 22.2978C58.233 22.5212 58.2264 22.7446 58.2789 22.9614C58.3051 23.0796 58.2854 23.2045 58.2264 23.3161C58.1544 23.4541 58.1347 23.5855 58.1675 23.7432C58.2199 24.0125 58.1085 24.1111 57.8463 24.0651C57.7874 24.052 57.7153 23.9731 57.6825 24.0717C57.6497 24.1636 57.7022 24.2425 57.8005 24.2556C57.9578 24.2753 57.9578 24.3804 57.9512 24.4987C57.9381 24.7352 58.0036 24.9849 57.8988 25.2148C57.8529 25.3068 57.8201 25.4579 57.6694 25.3265C57.6039 25.2739 57.5711 25.3265 57.5383 25.3593C57.4728 25.425 57.5187 25.4644 57.5645 25.517C57.9053 25.9112 57.9381 26.5485 57.6497 26.9886C57.6366 27.0018 57.6301 27.028 57.617 27.0346C57.2828 27.1134 57.4204 27.3828 57.4007 27.5865C57.3811 27.8296 57.2369 28.0332 57.2238 28.2829C57.2041 28.6573 57.3811 29.0055 57.368 29.3734C57.3614 29.5114 57.4138 29.6494 57.2959 29.761C57.2762 29.7742 57.2565 29.8202 57.2696 29.8267C57.499 30.1224 57.2041 30.1881 57.0599 30.3326C56.8633 30.5363 56.8764 30.8253 56.8437 31.0881C56.7716 31.64 56.7323 32.1984 56.6733 32.7503C56.6471 32.862 56.6209 32.9539 56.6012 33.0393Z" fill="white"/>
<path fill-rule="evenodd" clip-rule="evenodd" d="M72.2769 26.4498C72.2245 26.417 72.1393 26.3644 72.2376 26.2922C72.349 26.2133 72.2835 26.1608 72.231 26.0951C72.1721 26.0162 72.1196 25.9308 72.0476 25.8651C71.923 25.7534 71.9165 25.6418 72.0082 25.5038C72.0541 25.4381 72.1 25.333 72.0213 25.2738C71.923 25.1884 71.982 25.1293 72.0148 25.057C72.1262 24.8271 72.1655 24.584 72.1393 24.3278C72.1 23.8679 71.9427 23.4015 72.1327 22.935C72.1393 22.9153 72.1393 22.889 72.1327 22.8759C71.9558 22.416 72.0279 21.9299 72.0148 21.4568C72.0082 21.1612 72.0082 20.859 71.8378 20.6028C71.733 20.4451 71.7461 20.3071 71.8313 20.156C71.8772 20.0706 71.9296 19.9918 71.982 19.8998C71.8509 19.8735 71.7658 19.8078 71.7526 19.6699C71.733 19.3677 71.5102 19.1114 71.5691 18.7961C71.5757 18.7633 71.556 18.7304 71.5364 18.6976C71.307 18.2114 71.2284 17.6727 71.0318 17.1734C70.94 16.9369 70.8745 16.6938 70.7369 16.4836C70.7041 16.431 70.6779 16.3719 70.6124 16.3456C70.3175 16.2011 70.3174 16.2011 70.3699 15.8726C70.3895 15.7412 70.4026 15.6032 70.2912 15.5244C70.1405 15.4127 69.9832 15.2944 69.7932 15.2484C69.7932 15.2484 69.7932 15.2484 69.7932 15.255C69.8259 15.301 69.8194 15.347 69.7801 15.393C69.7276 15.4521 69.6621 15.4652 69.59 15.4521C69.5573 15.4455 69.5507 15.4193 69.5507 15.3864C69.5507 15.3076 69.6162 15.2879 69.6752 15.2682C69.708 15.255 69.7473 15.255 69.7866 15.2484C69.7866 15.2484 69.7866 15.2419 69.7932 15.2419C69.7932 15.2419 69.7932 15.2419 69.7997 15.2419C69.7539 15.1302 69.6359 15.0973 69.5573 15.0185C69.4852 14.9462 69.4655 14.7886 69.3672 14.8083C69.282 14.8214 69.2099 14.9397 69.1378 15.0119C69.1313 15.0185 69.1182 15.0185 69.092 15.0251C69.0789 14.8411 68.9412 14.736 68.8495 14.598C68.7905 14.5126 68.7577 14.3747 68.8954 14.3681C69.1247 14.3615 69.0002 14.2104 69.0133 14.1316C69.033 13.9871 68.9019 14.0462 68.8298 14.0396C68.6791 14.0199 68.7315 14.1447 68.7315 14.2104C68.7184 14.3155 68.6594 14.3615 68.5677 14.355C68.4432 14.3484 68.5284 14.2696 68.5218 14.2236C68.5153 14.1842 68.5022 14.1447 68.4825 14.1053C68.3711 13.8819 68.1548 13.8819 67.9582 13.8951C67.8009 13.9082 67.6568 13.9739 67.5781 13.7571C67.5585 13.7046 67.4798 13.7243 67.4208 13.7243C66.9883 13.6849 66.5755 13.79 66.1692 13.9345C65.9529 14.0068 65.7235 14.033 65.5859 14.2433C65.5466 14.3024 65.4679 14.3747 65.3893 14.3287C65.2255 14.2367 65.1665 14.3484 65.1009 14.4535C64.8912 14.8017 64.5242 14.9988 64.2818 15.3141C64.2097 15.3995 64.1114 15.3995 64.0131 15.3601C63.9082 15.3141 63.9607 15.2353 63.9607 15.163C63.9541 15.0448 63.9475 14.9265 63.9475 14.8083C63.9475 14.4272 63.8558 14.033 64.131 13.698C64.1441 13.6783 64.1573 13.6389 64.1507 13.6192C64 13.2841 64.1573 12.995 64.2752 12.6928C64.2883 12.6534 64.3408 12.6074 64.3014 12.5549C64.19 12.3906 64.2359 12.2001 64.2359 12.0227C64.2359 11.9176 64.2359 11.8059 64.1573 11.7271C64.059 11.6285 64.0393 11.5037 64.0262 11.3789C63.9934 11.057 64.0393 10.7548 64.1638 10.4525C64.19 10.3934 64.2359 10.3409 64.1835 10.262C64.059 10.0781 64.0852 9.88098 64.131 9.67732C64.1835 9.48023 64.2293 9.2897 64.19 9.07947C64.1441 8.79697 64.1245 8.50791 64.0983 8.21884C64.0393 7.52245 64.0196 6.81949 63.8492 6.13624C63.8165 6.01141 63.7509 5.89316 63.7772 5.74862C63.8361 5.39386 63.8296 5.03252 63.7837 4.67776C63.6985 4.04049 63.6068 3.40323 63.515 2.7594C63.5085 2.71341 63.5216 2.66742 63.456 2.64771C63.1874 2.56887 63.1153 2.33893 63.0497 2.10899C62.9711 1.81993 62.8597 1.55714 62.65 1.33377C62.3813 1.03813 62.0929 0.755629 61.857 0.433713C61.7456 0.282609 61.5949 0.184063 61.3852 0.210342C61.3327 0.216912 61.2934 0.216912 61.2672 0.157784C61.1558 -0.0590167 60.992 -0.0327378 60.8281 0.0789475C60.4939 0.302318 60.14 0.368016 59.7534 0.223482C59.7075 0.203772 59.6289 0.157784 59.5764 0.230051C59.3864 0.525689 59.0522 0.637374 58.8097 0.873884C58.5541 1.1301 58.2789 1.37318 57.9774 1.57685C57.8988 1.6294 57.7743 1.60969 57.748 1.68196C57.6563 1.95789 57.4073 2.063 57.1975 2.20754C57.0599 2.30608 56.9026 2.37835 56.942 2.59515C56.9485 2.65428 56.8961 2.68056 56.8633 2.71341C56.1556 3.29811 55.5854 4.01421 55.0022 4.71717C54.9039 4.83543 54.8056 4.94055 54.8318 5.1245C54.8514 5.24932 54.7597 5.34787 54.6548 5.41357C54.4976 5.50554 54.3337 5.58438 54.183 5.68292C54.0519 5.76833 53.8881 5.85374 53.9012 6.02455C53.9274 6.24792 53.816 6.35961 53.6587 6.47129C53.3507 6.69466 53.0361 6.91146 52.9968 7.34507C52.9837 7.4896 52.8789 7.58814 52.715 7.54216C52.6298 7.51588 52.6036 7.58157 52.5643 7.62756C52.2628 8.02832 51.9614 8.43564 51.6599 8.83639C51.6337 8.87581 51.5747 8.90866 51.5944 8.96122C51.6534 9.11232 51.5551 9.15174 51.4502 9.17802C51.3192 9.21744 51.2602 9.28313 51.3519 9.41453C51.4175 9.51307 51.3912 9.57877 51.2995 9.6379C51.2274 9.68389 51.1488 9.73645 51.0374 9.74302C51.1946 9.93354 51.116 10.0912 50.9915 10.2555C50.7425 10.5708 50.4803 10.8796 50.2968 11.2409C50.192 11.4446 50.0806 11.6351 49.8446 11.7074C49.7857 11.7271 49.7726 11.7862 49.7463 11.8388C49.4908 12.2921 49.2024 12.7322 48.9599 13.1921C48.5798 13.9082 48.2063 14.6243 47.8786 15.3667C47.4526 16.3456 47.0726 17.3508 46.4696 18.2377C46.3386 18.4282 46.3844 18.6778 46.2141 18.8487C46.1878 18.8749 46.2206 18.9144 46.2337 18.9472C46.2927 19.1377 46.1682 19.2363 46.0371 19.3217C45.8995 19.4137 45.7619 19.4137 45.6374 19.2823C45.4866 19.118 45.4473 18.9144 45.4408 18.6976C45.4342 18.461 45.4342 18.2245 45.3949 17.9815C45.2835 17.2719 44.9492 16.7201 44.3005 16.385C44.2284 16.3456 44.1891 16.2865 44.1497 16.2208C44.0645 16.0697 43.9269 15.9974 43.75 15.9974C43.5141 15.9974 43.2847 16.0959 43.0422 16.0697C42.9963 16.0631 42.9767 16.1025 42.9701 16.1288C42.9308 16.2273 42.8522 16.2865 42.767 16.339C42.6162 16.431 42.7801 16.4441 42.8128 16.4967C42.7211 16.5493 42.6425 16.6084 42.5769 16.6806C42.4852 16.7726 42.3672 16.8449 42.2755 16.7201C42.1837 16.6018 42.3213 16.5427 42.4 16.4836C42.4131 16.4704 42.4262 16.4638 42.4655 16.431C42.2493 16.4047 42.0723 16.431 41.8954 16.5098C41.5022 16.6938 41.1417 16.9303 40.8534 17.2456C40.0801 18.08 39.2806 18.8881 38.4745 19.6896C37.5111 20.6422 36.6068 21.6474 35.7417 22.6919C35.034 23.546 34.3196 24.3869 33.6774 25.2936C32.9369 26.3316 32.2226 27.3893 31.3182 28.3025C31.2723 28.3485 31.2461 28.4076 31.2264 28.4667C31.1412 28.7624 30.9905 29.0186 30.8136 29.2617C30.4335 29.7873 30.0075 30.2866 29.7781 30.9041C29.7585 30.9435 29.7847 30.9567 29.8175 30.9698C29.9026 30.9698 29.9551 30.9107 30.0075 30.8515C30.5449 30.3063 31.1543 29.8727 31.8097 29.4916C31.9866 29.3865 32.2029 29.3274 32.3405 29.1631C32.3471 29.1434 32.3602 29.1303 32.3733 29.1106C32.3536 29.1171 32.3274 29.1237 32.3077 29.1303C32.4519 28.8741 32.6944 28.723 32.9107 28.5324C32.9696 28.4799 33.0483 28.4405 32.9827 28.3288C32.9434 28.2565 32.9762 28.1514 33.0417 28.0988C33.2056 27.974 33.3694 27.8492 33.5463 27.7441C33.6381 27.6915 33.7036 27.7769 33.7036 27.8755C33.7036 27.974 33.6643 28.066 33.5988 28.1383C33.4153 28.3353 33.317 28.6047 33.0942 28.7755C33.1007 28.7887 33.1204 28.8084 33.1531 28.8215C33.2383 28.8346 33.317 28.7887 33.3956 28.7624C35.1388 28.1317 36.9476 27.8755 38.7891 27.7901C39.0053 27.7835 39.2216 27.7901 39.4182 27.6784C39.4247 27.6718 39.4247 27.6718 39.4313 27.6652C39.4182 27.6587 39.4116 27.6587 39.3985 27.6521C39.5427 27.2053 39.7327 26.7783 40.0276 26.4104C40.0604 26.3644 40.0997 26.3184 40.1128 26.2659C40.2636 25.6746 40.7289 25.3133 41.1155 24.8994C41.24 24.768 41.3711 24.6366 41.5087 24.5183C41.5611 24.4723 41.5874 24.3344 41.6988 24.4066C41.8036 24.4789 41.9478 24.5118 41.9478 24.6826C41.9543 24.9388 41.974 25.2016 41.9806 25.4578C41.9937 26.2002 42.0068 26.9491 42.0133 27.6915C42.0068 27.6915 41.9937 27.6915 41.9871 27.6915C41.9937 27.7046 42.0002 27.7178 42.0133 27.7309C42.0985 27.8032 42.1968 27.7901 42.2951 27.7901C42.9636 27.8163 43.6386 27.8689 44.307 27.928C45.3949 28.0331 46.4762 28.1711 47.5575 28.3419C47.6493 28.3551 47.741 28.3748 47.8196 28.3156C48.0097 28.0397 48.1014 27.7244 48.1408 27.3893C48.1539 27.2776 48.1604 27.1659 48.2194 27.0674C48.3243 26.9163 48.3636 26.752 48.3242 26.5681C48.3046 26.4761 48.3505 26.4038 48.3963 26.3316C48.6126 25.9702 48.783 25.5826 48.9009 25.1753C49.032 24.7351 49.1369 24.295 49.3138 23.8679C49.34 23.8022 49.3859 23.7234 49.34 23.6643C49.2352 23.5132 49.3138 23.3818 49.3597 23.2438C49.4252 23.0467 49.4908 22.8562 49.5694 22.6722C49.7791 22.1598 49.884 21.6014 50.2772 21.1809C50.3165 21.1349 50.3427 21.0692 50.3558 21.0101C50.4541 20.6816 50.6048 20.3663 50.7359 20.0509C51.0242 19.348 51.3257 18.6516 51.7058 17.9946C51.7648 17.896 51.8303 17.8041 51.85 17.6924C51.8959 17.4559 52.0138 17.2588 52.1514 17.0683C52.466 16.6347 52.6691 16.1419 52.8395 15.6361C52.8985 15.4521 52.9772 15.2813 53.1475 15.1762C53.2196 15.1302 53.2524 15.0645 53.259 14.9857C53.2721 14.9068 53.2917 14.8346 53.3442 14.7689C53.4818 14.598 53.5408 14.401 53.567 14.1842C53.5932 13.9214 53.7374 13.698 53.8946 13.514C54.0847 13.2841 54.2092 13.0344 54.2813 12.7585C54.3272 12.6008 54.3992 12.476 54.5303 12.384C54.6483 12.2921 54.7597 12.1935 54.8056 12.049C54.8449 11.9242 54.9104 11.8256 55.0153 11.7402C55.1136 11.6614 55.1922 11.5694 55.1791 11.438C55.166 11.2606 55.2512 11.1358 55.3823 11.0438C55.723 10.8073 55.9917 10.5117 56.1752 10.1372C56.2014 10.0846 56.2473 10.0321 56.2866 9.98609C56.6864 9.58534 56.9682 9.09261 57.2827 8.63273C57.5776 8.19913 57.9381 7.83122 58.3837 7.54873C58.4427 7.50931 58.5082 7.43704 58.5672 7.48303C58.6393 7.53559 58.5803 7.62756 58.5607 7.69326C58.5148 7.87064 58.4558 8.04146 58.4361 8.22541C58.3968 8.65901 58.3444 9.09261 58.2789 9.51964C58.1806 10.1898 58.115 10.873 58.0167 11.5431C57.9315 12.1672 57.9119 12.8045 57.8529 13.4286C57.8398 13.5666 57.8594 13.6914 57.9577 13.8031C58.2133 14.0987 58.2068 14.0987 57.9577 14.4141C57.9315 14.4469 57.9053 14.4798 57.8857 14.5192C57.807 14.6637 57.7742 14.8083 57.8988 14.9462C57.9971 15.0579 57.9774 15.1959 57.8988 15.2944C57.6104 15.6558 57.6104 16.0697 57.6694 16.4967C57.6956 16.6938 57.6825 16.8843 57.5908 17.0683C57.4335 17.3967 57.381 17.7515 57.3483 18.1063C57.3024 18.6187 57.2959 19.1312 57.0927 19.6173C57.0403 19.7421 57.0665 19.867 57.1189 19.9852C57.1582 20.0838 57.1386 20.1692 57.1124 20.2677C56.9944 20.6882 56.8175 21.1086 57.0337 21.5488C57.0665 21.6211 57.0534 21.6999 57.0599 21.7788C57.0665 22.2058 57.0927 22.6262 57.0141 23.0533C56.9944 23.165 56.9485 23.2175 56.8371 23.2175C56.7781 23.2175 56.706 23.2044 56.6733 23.2832C56.6471 23.3555 56.6929 23.4015 56.7388 23.4475C56.9223 23.638 56.8437 23.8679 56.8174 24.0847C56.8109 24.1241 56.7781 24.1504 56.7323 24.1701C56.5094 24.2753 56.5094 24.2818 56.6471 24.4921C56.8568 24.814 56.7912 25.2673 56.5029 25.5104C56.4505 25.5563 56.4308 25.6155 56.4308 25.6812C56.4439 25.898 56.3849 26.0951 56.3259 26.2987C56.2801 26.463 56.2997 26.6338 56.3259 26.798C56.4046 27.2316 56.516 27.6718 56.1359 28.0331C56.09 28.0791 56.09 28.1514 56.0769 28.2105C55.9327 28.7821 55.959 29.3668 55.8672 29.9449C55.8607 29.9843 55.8672 30.0303 55.9 30.0632C55.9721 30.1289 56.0638 30.1354 56.1556 30.1552C57.6628 30.4639 59.1701 30.7661 60.6905 31.0026C60.9068 31.0355 61.1296 31.0946 61.359 31.0486C61.3721 31.0421 61.3917 31.0355 61.4048 31.0289C61.3983 31.0224 61.3852 31.0224 61.3721 31.0158C61.5687 30.7924 61.6408 30.5231 61.6276 30.2406C61.6145 29.9909 61.6997 29.7347 61.4769 29.4982C61.3196 29.3274 61.3917 29.0449 61.4245 28.8084C61.5359 28.9069 61.5359 28.9069 61.5293 29.0843C61.5293 29.1368 61.4769 29.2157 61.5687 29.242C61.6473 29.2617 61.7128 29.2485 61.7653 29.1697C61.916 28.9398 61.9291 28.6901 61.8898 28.4405C61.8505 28.1974 61.8242 27.9674 62.0536 27.7966C62.0864 27.7703 62.1257 27.6915 62.1126 27.6718C61.9946 27.5076 62.1519 27.409 62.2043 27.2908C62.3092 27.0608 62.2633 26.8046 62.3551 26.5747C62.3551 26.5681 62.3551 26.5681 62.3551 26.5615C62.3551 26.5549 62.3485 26.5418 62.3485 26.5352C62.3289 26.509 62.2895 26.4892 62.2633 26.4695C62.1323 26.3579 62.165 26.2659 62.2895 26.187C62.3485 26.1476 62.4075 26.1148 62.4665 26.0754C62.5648 26.0031 62.6107 25.9045 62.5124 25.8126C62.4075 25.7206 62.4337 25.6352 62.4861 25.5366C62.5255 25.4578 62.5648 25.3724 62.6041 25.2936C62.7221 25.0373 62.8662 24.7943 62.8859 24.4921C62.9056 24.1964 63.0694 23.9402 63.2201 23.684C63.4167 23.3423 63.6002 23.0007 63.6395 22.6C63.6526 22.462 63.7378 22.3438 63.8099 22.2189C63.9082 22.0547 64 21.8904 63.9607 21.6868C63.9541 21.6605 63.9541 21.6211 63.9672 21.6079C64.1704 21.4437 64.1638 21.2006 64.2228 20.9838C64.249 20.8787 64.308 20.7604 64.4128 20.7539C64.734 20.7342 64.7143 20.4582 64.6946 20.294C64.675 20.11 64.7274 19.9721 64.7995 19.8275C64.8585 19.7093 64.8978 19.5845 64.9568 19.4662C65.1403 19.118 65.5466 19.0852 65.7825 19.3874C65.9398 19.591 65.9725 19.8538 66.0971 20.0706C66.1233 20.1232 66.084 20.1429 66.0446 20.1692C65.8874 20.2809 65.9201 20.3991 66.0315 20.5239C66.0643 20.5568 66.1036 20.5896 66.1364 20.6291C66.2543 20.767 66.3723 20.8984 66.215 21.1021C66.1036 21.2466 66.1495 21.424 66.2085 21.5882C66.2806 21.805 66.4051 22.0087 66.3854 22.2452C66.3854 22.2518 66.3789 22.2649 66.3854 22.2649C66.831 22.6919 66.7131 23.2767 66.7786 23.8022C66.8179 24.1176 66.831 24.4329 66.8114 24.7483C66.7983 24.9585 66.9818 25.0833 66.9818 25.2804C66.9818 25.3527 67.008 25.4184 66.9818 25.4907C66.8245 25.9243 66.9293 26.3513 67.0014 26.7783C67.0145 26.844 67.0407 26.9229 67.0932 26.9623C67.2898 27.1134 67.3094 27.3367 67.3553 27.547C67.3815 27.6718 67.4208 27.8032 67.2242 27.836C67.1194 27.8558 67.1784 27.9149 67.198 27.9609C67.3357 28.2368 67.4012 28.5324 67.3684 28.8346C67.3422 29.0909 67.4798 29.288 67.5388 29.5179C67.6306 29.8727 67.5257 30.1946 67.3488 30.4968C67.1456 30.8581 66.8573 31.1735 66.6869 31.5676H66.6803C66.6803 31.5742 66.6803 31.5808 66.6803 31.5808C66.7786 31.7253 66.9293 31.699 67.0604 31.6859C67.7354 31.6268 68.417 31.6531 69.0854 31.5611C69.9111 31.4494 70.7303 31.318 71.5233 31.0552C71.6216 31.0224 71.733 31.0092 71.7854 30.9041C71.7592 30.6742 71.7985 30.4639 71.9558 30.2734C72.041 30.1683 72.0869 30.0435 72.1262 29.9186C72.2769 29.4719 72.231 29.0186 72.1786 28.5653C72.159 28.3813 72.1262 28.2105 72.2573 28.0463C72.3359 27.9477 72.349 27.8163 72.3752 27.6915C72.4276 27.3893 72.408 27.0871 72.4145 26.7849C72.4342 26.6272 72.408 26.5221 72.2769 26.4498ZM34.5883 26.7126C34.5097 26.706 34.4507 26.6601 34.4376 26.5944C34.431 26.5287 34.49 26.4892 34.5818 26.4892C34.6342 26.4892 34.6801 26.509 34.6801 26.5944C34.6801 26.6601 34.6735 26.7192 34.5883 26.7126ZM41.8167 17.134C41.6529 17.2719 41.5349 17.4427 41.5022 17.6595C41.4891 17.7647 41.4759 17.8763 41.3449 17.8632C41.2138 17.8501 41.2466 17.699 41.2073 17.6135C41.2269 17.4887 41.2728 17.377 41.3645 17.2982C41.4759 17.1997 41.5874 17.1077 41.6922 17.0091C41.7643 16.9434 41.8298 16.9434 41.8888 17.0091C41.9675 17.1011 41.8495 17.1011 41.8167 17.134ZM48.1408 25.1227C48.1276 25.2147 48.0687 25.287 48.0031 25.3527C47.8721 25.4775 47.859 25.6286 47.8459 25.806C47.8393 26.0228 47.7607 26.2527 47.6689 26.4564C47.5509 26.7192 47.5706 27.0017 47.5051 27.271C47.4854 27.3499 47.5444 27.4747 47.4002 27.4813C47.2429 27.4944 47.3019 27.3433 47.2626 27.2645C47.2429 27.2316 47.256 27.1791 47.2495 27.1397C47.2626 26.9097 47.3281 26.6863 47.3871 26.463C47.4199 26.3316 47.4592 26.2067 47.4658 26.0754C47.4723 25.9505 47.4526 25.8257 47.5968 25.7534C47.6492 25.7272 47.6361 25.6615 47.6361 25.6023C47.6427 25.3461 47.7672 25.1556 47.9769 25.0111C48.0097 24.9848 48.0425 24.9519 48.0883 24.9782C48.1604 25.0176 48.1539 25.0768 48.1408 25.1227ZM48.6454 24.2358C48.5929 24.3081 48.534 24.2818 48.4619 24.2621C48.4881 24.157 48.5602 24.1767 48.6257 24.1833C48.6388 24.1898 48.6519 24.2293 48.6454 24.2358ZM49.8512 20.3728C49.707 20.2086 49.7201 20.0772 49.9102 19.9458C49.8905 20.11 49.8709 20.2414 49.8512 20.3728ZM53.5604 12.9096C53.5014 12.8965 53.5342 12.8505 53.5473 12.8242C53.5539 12.8111 53.5735 12.8045 53.6325 12.7651C53.5997 12.8439 53.5735 12.9096 53.5604 12.9096ZM53.5801 12.7848C53.5932 12.5877 53.6391 12.4497 53.7505 12.3381C53.757 12.4892 53.6849 12.6206 53.5801 12.7848ZM55.5068 9.46709C55.474 9.46709 55.4543 9.44081 55.4675 9.41453C55.4806 9.38825 55.5068 9.34883 55.533 9.34226C55.6182 9.32912 55.7099 9.32912 55.8148 9.32255C55.7558 9.53278 55.6182 9.47366 55.5068 9.46709ZM63.823 7.89035C63.7378 8.13343 63.5675 8.32395 63.3971 8.50791C63.3643 8.54076 63.3446 8.5736 63.2988 8.53419C63.1939 8.44221 63.0891 8.50134 62.9842 8.53419C62.9514 8.54733 62.9187 8.59331 62.8793 8.54076C62.84 8.48163 62.8269 8.42907 62.8662 8.36337C62.9318 8.24512 63.0366 8.18599 63.1677 8.15971C63.2398 8.14657 63.2725 8.17942 63.266 8.25169C63.2594 8.30424 63.2857 8.33709 63.3315 8.33709C63.3905 8.33709 63.384 8.27797 63.3774 8.23855C63.3708 8.10715 63.4626 7.96262 63.2725 7.87064C63.5085 7.78524 63.7051 7.67355 63.7772 7.4239C63.8689 7.57501 63.8886 7.71297 63.823 7.89035ZM71.8706 29.623C71.8378 29.5704 71.7789 29.5442 71.8182 29.5048C71.864 29.4522 71.8837 29.4982 71.8772 29.5442C71.8837 29.5573 71.8772 29.577 71.8706 29.623Z" fill="#050A05"/>
<path fill-rule="evenodd" clip-rule="evenodd" d="M69.4328 37.7761C68.8299 38.5579 68.1745 39.2805 67.4733 39.9704C66.4838 40.9492 65.4221 41.8427 64.2884 42.6574C63.6658 43.1107 62.9384 43.3209 62.2044 43.4983C61.1821 43.7414 60.1401 43.7545 59.0915 43.7217C56.7454 43.6363 54.4517 43.2355 52.1777 42.6837C49.8119 42.1121 47.492 41.3697 45.1524 40.7062C43.7304 40.2988 42.2952 39.9244 40.8338 39.6813C39.2413 39.4185 37.6291 39.3528 36.017 39.4382C34.2083 39.5302 32.4323 39.8258 30.7022 40.3645C30.5056 40.4237 30.2172 40.1609 30.2566 39.9572C30.4073 39.1623 30.7743 38.4659 31.292 37.8483C32.3274 36.6067 33.684 35.8314 35.1454 35.1942C35.8335 34.8985 36.5544 34.8131 37.2818 34.7277C38.3566 34.5963 39.4313 34.5503 40.5126 34.57C42.0068 34.5963 43.4879 34.7409 44.9624 34.9905C46.7908 35.3059 48.5799 35.746 50.3296 36.3767C51.1816 36.6789 52.0663 36.8432 52.9444 37.0468C54.6156 37.441 56.3063 37.7695 57.9971 38.052C59.1702 38.2491 60.3432 38.4133 61.5294 38.5316C62.8139 38.663 64.0983 38.7681 65.3893 38.7221C66.5296 38.6893 67.6634 38.5973 68.7381 38.1505C68.9806 38.052 69.1969 37.9075 69.4328 37.7761Z" fill="#003F81"/>
<path fill-rule="evenodd" clip-rule="evenodd" d="M29.8371 30.9304C30.5449 30.2275 31.3444 29.6428 32.2357 29.196C32.2685 29.1763 32.2947 29.1435 32.3274 29.1172C32.5765 28.9727 32.8189 28.8347 33.1073 28.7756C33.2711 28.7756 33.4153 28.6902 33.566 28.6376C34.6473 28.2566 35.7549 28.0398 36.8886 27.8887C37.6816 27.7835 38.4745 27.7376 39.2675 27.6916C39.3199 27.6916 39.3723 27.6653 39.4248 27.6521C39.5034 27.6259 39.5886 27.6193 39.6738 27.6193C40.3488 27.6193 41.0238 27.6193 41.7053 27.6193C41.8233 27.6193 41.9413 27.6127 42.0461 27.685C42.3083 27.7638 42.5901 27.7376 42.8587 27.7507C43.9532 27.8164 45.0476 27.9346 46.1354 28.066C46.6532 28.1317 47.1709 28.2171 47.6886 28.296C47.7476 28.3025 47.8 28.3157 47.8524 28.2894C48.0949 28.2631 48.3243 28.3354 48.5536 28.3748C50.0019 28.6245 51.4306 28.9858 52.8658 29.3077C53.8095 29.5179 54.7532 29.7216 55.6969 29.9318C55.7886 29.9515 55.8738 29.9647 55.9459 30.037C56.7782 30.2078 57.6104 30.3852 58.4427 30.5428C59.3012 30.7005 60.1597 30.845 61.0182 30.9896C61.1493 31.0093 61.2803 31.0158 61.4114 31.0224C61.5228 30.9961 61.6342 31.0158 61.7456 31.029C62.7155 31.1013 63.6723 31.2918 64.6357 31.3903C65.2255 31.4494 65.8153 31.5151 66.4117 31.502C66.51 31.502 66.6083 31.4823 66.7 31.5414C66.759 31.6005 66.8376 31.6005 66.9163 31.6005C68.2663 31.5743 69.6097 31.4889 70.9204 31.1472C71.2153 31.0684 71.5102 30.9699 71.8051 30.8844C72.1721 30.7596 72.526 30.6085 72.8668 30.4377C73.2141 30.2669 73.5418 30.0632 73.8629 29.8464C73.8694 29.8727 73.876 29.8859 73.8694 29.8924C73.1813 31.9947 72.1524 33.8737 70.3896 35.2796C69.1313 36.2848 67.7027 36.8432 66.0971 36.9746C64.5374 37.106 62.9908 36.9877 61.4442 36.7906C59.3209 36.5147 57.2238 36.1337 55.1529 35.5818C53.5015 35.1416 51.8172 34.8526 50.1396 34.4978C48.4291 34.1365 46.7121 33.7948 44.9952 33.4532C43.1471 33.0853 41.2794 32.8948 39.392 32.9671C37.1769 33.0525 34.975 33.2627 32.8386 33.9197C30.9512 34.5044 29.1818 35.3387 27.6155 36.5541C27.5893 36.5738 27.5631 36.5935 27.5041 36.633C27.4779 36.2519 27.5172 35.8972 27.5697 35.549C27.7859 34.097 28.3233 32.7831 29.2211 31.6137C29.3456 31.456 29.4243 31.2589 29.5881 31.1341C29.6864 31.0815 29.7454 30.9896 29.8371 30.9304Z" fill="#47A636"/>
<path fill-rule="evenodd" clip-rule="evenodd" d="M37.6946 13.8426C34.608 13.8426 31.9932 11.7403 31.3641 8.81016C30.7022 5.68954 32.5174 2.50323 35.5844 1.53748C38.1141 0.735971 40.3881 1.27469 42.2689 3.15363C43.5992 4.48072 44.1825 6.13629 44.0187 8.0218C43.7696 10.919 41.6136 13.2644 38.7628 13.744C38.3958 13.8097 38.0223 13.8557 37.6946 13.8426Z" fill="#E17513"/>
</g>
<defs>
<clipPath id="clip0_130:4166">
<rect width="108" height="75" fill="white" transform="translate(-0.000488281)"/>
</clipPath>
</defs>
</svg>
