<svg width="152" height="28" viewBox="0 0 152 28" fill="none" xmlns="http://www.w3.org/2000/svg">
<path d="M32.8925 5.45703C33.0383 5.42057 33.2297 5.51172 33.4667 5.73047C33.8313 5.98568 33.8495 6.25911 33.5214 6.55078C33.2662 6.78776 32.9836 7.15234 32.6738 7.64453C32.5279 7.86328 32.3639 8.07292 32.1816 8.27344C31.9264 8.5651 31.9537 8.82943 32.2636 9.06641C32.6099 9.32161 32.9472 9.58594 33.2753 9.85938C33.8222 10.2604 34.2141 10.6615 34.4511 11.0625C34.5605 11.1901 34.5331 11.3633 34.3691 11.582C34.1321 11.8008 33.8769 11.7643 33.6034 11.4727C33.2024 10.944 32.6191 10.3333 31.8534 9.64062C31.5071 9.34896 31.2063 9.33073 30.9511 9.58594C29.9485 10.5339 28.8821 11.2448 27.7519 11.7188C27.3873 11.8828 27.1959 11.9466 27.1777 11.9102C27.1412 11.8737 27.2961 11.7279 27.6425 11.4727C28.5904 10.7982 29.5292 10.0417 30.4589 9.20312C30.7141 8.92969 30.6685 8.65625 30.3222 8.38281C29.7571 7.92708 29.192 7.48958 28.6269 7.07031C28.2258 6.77865 28.08 6.6237 28.1894 6.60547C28.2805 6.60547 28.4081 6.63281 28.5722 6.6875C29.2831 7.05208 30.0488 7.51693 30.8691 8.08203C31.1425 8.26432 31.4342 8.18229 31.7441 7.83594C32.2909 7.21615 32.6191 6.56901 32.7284 5.89453C32.7467 5.71224 32.8014 5.56641 32.8925 5.45703ZM35.6269 11.7461C35.6269 11.6549 35.7818 11.7461 36.0917 12.0195L36.9667 12.9219C37.3131 13.2135 37.6594 13.2135 38.0058 12.9219C38.3886 12.5391 38.7532 12.1562 39.0995 11.7734C39.1907 11.7005 39.2545 11.6641 39.2909 11.6641C39.3274 11.6641 39.3001 11.8372 39.2089 12.1836L38.1425 14.2344C37.7779 14.9453 37.4042 15.0547 37.0214 14.5625L35.6269 11.7461ZM33.3027 14.3438C33.6855 14.2526 34.0956 14.2253 34.5331 14.2617C34.7336 14.2617 34.8886 14.3711 34.998 14.5898C34.9433 14.8997 34.761 15.0456 34.4511 15.0273C33.6672 14.9727 32.9472 14.9453 32.2909 14.9453C31.9264 14.9818 31.7441 15.1367 31.7441 15.4102V17.4609C31.7258 17.8438 31.58 18.0352 31.3066 18.0352L30.2675 17.7891C29.9758 17.7344 29.6477 17.7617 29.2831 17.8711C28.9732 17.9622 28.7636 18.1628 28.6542 18.4727C28.4172 19.1471 28.6907 19.694 29.4745 20.1133C30.0943 20.3685 30.8599 20.4779 31.7714 20.4414C32.4459 20.3503 33.1386 20.1133 33.8495 19.7305C34.2141 19.5846 34.4146 19.5573 34.4511 19.6484C34.524 19.7578 34.4967 19.8854 34.3691 20.0312C32.9654 21.0521 31.4159 21.3164 29.7206 20.8242C28.8639 20.6237 28.2441 20.1497 27.8613 19.4023C27.6425 18.6914 27.8886 18.0625 28.5995 17.5156C29.0735 17.224 29.6933 17.1146 30.4589 17.1875C30.7506 17.2604 30.9238 17.2695 30.9784 17.2148C31.1607 17.069 31.2245 16.8138 31.1698 16.4492V15.4375C31.1698 15.1641 31.0058 15.0365 30.6777 15.0547C29.9485 15.1276 29.2558 15.2279 28.5995 15.3555C28.1803 15.5013 27.8066 15.4557 27.4784 15.2188C27.3144 15.0547 27.2323 14.9453 27.2323 14.8906C27.2688 14.7995 27.4693 14.7539 27.8339 14.7539C28.1985 14.7721 28.6451 14.7539 29.1738 14.6992C30.2128 14.5898 31.2519 14.5078 32.2909 14.4531C32.6373 14.4349 32.9745 14.3984 33.3027 14.3438ZM14.4355 1.51953C14.4719 0.89974 14.7545 0.644531 15.2831 0.753906C15.5201 0.790365 15.7844 0.854167 16.0761 0.945312C16.9146 0.963542 17.2063 1.27344 16.9511 1.875C16.8235 1.98438 16.5592 2.06641 16.1581 2.12109C16.0488 2.23047 15.9849 2.55859 15.9667 3.10547L15.8847 5.01953V8.13672C15.9211 8.68359 16.1581 8.95703 16.5956 8.95703H19.9316C20.3691 8.95703 20.8613 8.68359 21.4081 8.13672C21.9732 7.57161 22.5292 7.48958 23.0761 7.89062L23.3495 8.10938C24.024 8.67448 24.3066 9.06641 24.1972 9.28516C24.0878 9.54036 23.7688 9.66797 23.2402 9.66797H16.6503C16.2128 9.66797 16.0032 9.94141 16.0214 10.4883C16.149 13.0404 16.5409 15.3008 17.1972 17.2695C17.3977 17.7617 17.662 17.7617 17.9902 17.2695C18.9928 15.5924 19.7037 13.9518 20.123 12.3477C20.2506 11.7461 20.5696 11.5182 21.08 11.6641L21.8456 11.8828C22.7024 11.9922 22.9758 12.3203 22.6659 12.8672C22.5566 12.9948 22.3105 13.0495 21.9277 13.0312C20.9797 15.2188 19.8951 17.1602 18.6738 18.8555C18.3456 19.293 18.3274 19.7852 18.6191 20.332C19.4029 21.6628 20.4055 22.7474 21.6269 23.5859C22.1008 23.8411 22.4745 23.7591 22.748 23.3398C22.9849 22.8659 23.1855 22.3919 23.3495 21.918C23.5501 21.3711 23.7506 21.125 23.9511 21.1797C24.1698 21.2708 24.2336 21.5898 24.1425 22.1367C24.0331 22.7565 23.9602 23.3763 23.9238 23.9961C23.9238 24.4336 23.9967 24.8346 24.1425 25.1992C24.2883 25.3997 24.3248 25.6367 24.2519 25.9102C23.9784 26.4023 23.5227 26.5026 22.8847 26.2109C20.8248 25.4818 19.0292 23.8867 17.498 21.4258C17.2428 20.9883 16.8873 21.0065 16.4316 21.4805C14.6451 23.1576 12.649 24.5156 10.4433 25.5547C9.89641 25.7917 9.5774 25.8464 9.48625 25.7188C9.37688 25.5365 9.63209 25.263 10.2519 24.8984C12.3118 23.6953 14.1894 22.1276 15.8847 20.1953C16.2857 19.7214 16.3951 19.2656 16.2128 18.8281C15.2649 16.4948 14.718 13.6602 14.5722 10.3242C14.5357 9.88672 14.2988 9.66797 13.8613 9.66797H8.11906C7.66334 9.66797 7.43547 9.88672 7.43547 10.3242V14.8086C7.43547 15.2643 7.71802 15.3737 8.28313 15.1367C9.17636 14.7357 10.0969 14.2891 11.0448 13.7969C11.6464 13.4505 11.9928 13.3411 12.0839 13.4688C12.248 13.724 12.0201 14.0794 11.4003 14.5352C10.4706 15.1549 9.39511 15.7747 8.17375 16.3945C7.68156 16.6497 7.43547 16.9688 7.43547 17.3516V24.0781C7.18026 25.099 6.56959 25.7552 5.60344 26.0469C5.05656 26.1745 4.7649 26.1471 4.72844 25.9648C4.52792 25.418 4.04485 25.026 3.27922 24.7891C2.69589 24.5703 2.42245 24.3698 2.45891 24.1875C2.49537 23.9141 2.82349 23.8229 3.44328 23.9141C4.35474 24.0964 5.09302 24.1328 5.65813 24.0234C5.7675 23.9323 5.82219 23.6589 5.82219 23.2031V18.1172C5.82219 17.6615 5.53964 17.543 4.97453 17.7617L2.73235 18.582C2.24016 18.7461 1.98495 18.9284 1.96672 19.1289C1.98495 19.3477 1.95761 19.5299 1.88469 19.6758C1.42896 20.0404 1.05526 19.8216 0.763596 19.0195L0.435471 18.1992C0.216721 17.6523 0.380783 17.3424 0.927658 17.2695C2.40422 17.0143 3.81698 16.6862 5.16594 16.2852C5.60344 16.1393 5.82219 15.8477 5.82219 15.4102V10.3516C5.82219 9.89583 5.60344 9.66797 5.16594 9.66797H1.11906C0.572189 9.66797 0.271408 9.56771 0.216721 9.36719C0.162033 9.09375 0.380783 8.95703 0.872971 8.95703H5.1386C5.59432 8.95703 5.82219 8.73828 5.82219 8.30078V5.04688C5.82219 4.60938 5.54875 4.46354 5.00188 4.60938C4.07219 4.88281 3.13339 5.11068 2.18547 5.29297C1.58391 5.40234 1.25578 5.38411 1.2011 5.23828C1.12818 5.0013 1.41985 4.78255 2.0761 4.58203C4.44589 3.83464 6.63339 2.84115 8.6386 1.60156C9.31307 1.1276 9.93287 1.1276 10.498 1.60156C10.9355 2.09375 11.1178 2.40365 11.0448 2.53125C10.9719 2.71354 10.7532 2.71354 10.3886 2.53125C10.261 2.47656 9.91464 2.59505 9.34953 2.88672C8.93026 3.05078 8.51099 3.24219 8.09172 3.46094C7.65422 3.66146 7.43547 3.98047 7.43547 4.41797V8.27344C7.43547 8.72917 7.65422 8.95703 8.09172 8.95703H13.7792C14.2349 8.95703 14.4537 8.65625 14.4355 8.05469C14.4537 7.79948 14.4446 7.48047 14.4081 7.09766V2.39453C14.4446 2.10286 14.4537 1.8112 14.4355 1.51953ZM18.4003 2.14844C18.5461 1.98438 18.8652 2.05729 19.3573 2.36719C21.0344 3.69792 21.8456 4.84635 21.7909 5.8125C21.6451 6.54167 21.2532 6.76953 20.6152 6.49609C20.3964 6.38672 20.2597 6.16797 20.205 5.83984C19.968 4.85547 19.5579 3.94401 18.9745 3.10547C18.5006 2.57682 18.3092 2.25781 18.4003 2.14844ZM72.192 8.4375C72.3561 8.38281 72.6113 8.40104 72.9577 8.49219C73.1946 8.51042 73.386 8.57422 73.5319 8.68359C73.7871 8.88411 73.7597 9.04818 73.4498 9.17578C73.304 9.23047 73.0306 9.23047 72.6295 9.17578C71.2988 9.06641 69.9407 9.10286 68.5553 9.28516C68.0814 9.41276 67.5618 9.52214 66.9967 9.61328C66.7233 9.61328 66.4498 9.49479 66.1764 9.25781C66.0123 9.05729 65.9303 8.92969 65.9303 8.875C65.9668 8.83854 66.1582 8.82943 66.5045 8.84766C66.8509 8.90234 67.2064 8.91146 67.5709 8.875L71.6998 8.57422C71.791 8.59245 71.9551 8.54688 72.192 8.4375ZM75.0358 12.0195C75.3092 11.7461 75.5644 11.7643 75.8014 12.0742C76.3483 12.7122 76.886 13.3685 77.4147 14.043C77.6152 14.3711 77.7064 14.5534 77.6881 14.5898C77.0501 14.2617 76.166 13.6693 75.0358 12.8125C74.7441 12.5755 74.7441 12.3112 75.0358 12.0195ZM69.403 14.3711C69.3483 14.1159 69.5032 14.0339 69.8678 14.125C70.5241 14.4896 70.597 14.8815 70.0866 15.3008C69.3939 16.0664 68.7285 16.832 68.0905 17.5977C67.8717 17.8711 67.7897 18.0169 67.8444 18.0352C68.0267 18.0898 68.3913 18.0534 68.9381 17.9258L70.4694 17.6797C70.7246 17.6615 70.8978 17.6159 70.9889 17.543C71.5358 17.0872 71.8821 16.6133 72.028 16.1211L72.11 15.5469C72.1465 15.5104 72.3379 15.6107 72.6842 15.8477C72.903 16.0846 73.0215 16.2852 73.0397 16.4492C73.0397 16.5221 72.8756 16.668 72.5475 16.8867L68.9928 20.0312C68.6465 20.3411 68.6647 20.5052 69.0475 20.5234C69.5215 20.487 70.2324 20.3594 71.1803 20.1406C71.472 20.0677 71.4629 19.8854 71.153 19.5938C70.8248 19.2656 70.6972 19.0742 70.7702 19.0195C70.8795 18.9284 71.0345 18.9466 71.235 19.0742C71.8366 19.4206 72.3561 19.7943 72.7936 20.1953C73.1582 20.5234 73.304 20.8333 73.2311 21.125C73.0123 21.4531 72.7024 21.3802 72.3014 20.9062C72.0644 20.5964 71.7819 20.4779 71.4538 20.5508L68.9108 21.043C68.3639 21.0977 67.9446 21.1706 67.653 21.2617C67.3066 21.3893 67.0605 21.4167 66.9147 21.3438C66.7142 21.2344 66.6504 21.0885 66.7233 20.9062C66.7597 20.7422 66.8509 20.6328 66.9967 20.5781C67.9264 20.25 68.8743 19.5938 69.8405 18.6094C70.1868 18.2995 70.1868 18.1719 69.8405 18.2266C68.8014 18.4089 67.7715 18.6914 66.7506 19.0742C66.6413 19.1289 66.541 19.0924 66.4498 18.9648C66.2129 18.6732 66.2676 18.4089 66.6139 18.1719C66.8144 18.0807 67.1152 17.862 67.5163 17.5156C68.1543 16.9323 68.6829 16.2487 69.1022 15.4648C69.3756 15.0091 69.4759 14.6445 69.403 14.3711ZM60.2975 1.35547C60.8626 0.790365 61.4186 0.708333 61.9655 1.10938L63.1959 2.09375C63.2142 2.16667 63.1868 2.30339 63.1139 2.50391C62.9863 2.75911 62.6673 2.88672 62.1569 2.88672H55.3483C54.8926 2.88672 54.6647 3.10547 54.6647 3.54297V5.29297C54.6647 5.7487 54.8834 5.97656 55.3209 5.97656H58.3288C58.7663 5.97656 59.1308 5.84896 59.4225 5.59375C59.7142 5.35677 60.1152 5.41146 60.6256 5.75781C61.1178 6.15885 61.373 6.41406 61.3913 6.52344C61.373 6.83333 61.2181 7.03385 60.9264 7.125C60.7441 7.27083 60.653 7.5625 60.653 8V12.9492C60.653 13.4961 60.6256 13.806 60.5709 13.8789C60.498 13.9336 60.2337 13.9792 59.778 14.0156C59.304 14.0339 59.067 13.7331 59.067 13.1133C59.067 12.4935 58.8483 12.1836 58.4108 12.1836H43.3991C42.9433 12.1836 42.7155 12.4297 42.7155 12.9219C42.8795 13.5234 42.7155 13.8698 42.2233 13.9609C41.8952 14.0156 41.567 14.0339 41.2389 14.0156C41.166 13.9609 41.1295 13.6602 41.1295 13.1133V6.05859C41.1295 5.51172 41.403 5.375 41.9498 5.64844C42.3327 5.97656 42.7519 6.08594 43.2077 5.97656H46.5709C47.0267 5.97656 47.2545 5.75781 47.2545 5.32031V3.57031C47.2545 3.11458 47.0358 2.88672 46.5983 2.88672H39.7897C39.2428 2.88672 38.9329 2.78646 38.86 2.58594C38.7871 2.3125 39.0149 2.17578 39.5436 2.17578H58.8209C59.2584 2.17578 59.7506 1.90234 60.2975 1.35547ZM53.0514 3.59766C53.0514 3.1237 52.8418 2.88672 52.4225 2.88672H49.5514C49.0957 2.88672 48.8678 3.10547 48.8678 3.54297V5.29297C48.8678 5.7487 49.0866 5.97656 49.5241 5.97656H52.3678C52.8235 5.97656 53.0514 5.75781 53.0514 5.32031V3.59766ZM47.2545 7.42578C47.2545 6.95182 47.0449 6.71484 46.6256 6.71484H43.3991C42.9433 6.71484 42.7155 6.93359 42.7155 7.37109V10.7891C42.7155 11.2448 42.9342 11.4727 43.3717 11.4727H46.5709C47.0267 11.4727 47.2545 11.2539 47.2545 10.8164V7.42578ZM53.0514 7.42578C53.0514 6.95182 52.8418 6.71484 52.4225 6.71484H49.5514C49.0957 6.71484 48.8678 6.93359 48.8678 7.37109V10.7891C48.8678 11.2448 49.0866 11.4727 49.5241 11.4727H52.3678C52.8235 11.4727 53.0514 11.2539 53.0514 10.8164V7.42578ZM59.067 7.42578C59.067 6.95182 58.8574 6.71484 58.4381 6.71484H55.3483C54.8926 6.71484 54.6647 6.93359 54.6647 7.37109V10.7891C54.6647 11.2448 54.8834 11.4727 55.3209 11.4727H58.3834C58.8392 11.4727 59.067 11.2539 59.067 10.8164V7.42578ZM48.2116 13.6602C48.5032 13.1133 48.9134 12.9036 49.442 13.0312C50.153 13.1224 50.6087 13.3685 50.8092 13.7695C50.8092 14.207 50.5996 14.3984 50.1803 14.3438C49.998 14.3438 49.7246 14.5716 49.36 15.0273C49.0136 15.556 49.0592 15.8203 49.4967 15.8203H58.8209C59.2584 15.8203 59.7597 15.5469 60.3248 15C60.8717 14.4531 61.4186 14.3802 61.9655 14.7812L62.2389 15C62.8952 15.5286 63.1777 15.9206 63.0866 16.1758C62.9954 16.431 62.6764 16.5586 62.1295 16.5586H57.7819C57.3444 16.5586 57.0071 16.832 56.7702 17.3789C56.2597 18.6732 55.5032 19.9766 54.5006 21.2891C54.209 21.6719 54.3639 21.9453 54.9655 22.1094C56.679 22.5833 58.0735 23.1302 59.1491 23.75C60.2793 24.3516 60.8353 24.9896 60.817 25.6641C60.5983 26.5755 59.9876 26.6211 58.985 25.8008C57.3991 24.8529 55.5944 23.987 53.5709 23.2031C53.1152 23.0208 52.623 23.1211 52.0944 23.5039C48.5397 25.6003 44.666 26.5664 40.4733 26.4023C39.8899 26.3659 39.5983 26.2656 39.5983 26.1016C39.5801 25.8646 39.817 25.737 40.3092 25.7188C43.9368 25.5365 47.2728 24.5521 50.317 22.7656C50.8092 22.4557 50.7728 22.2188 50.2077 22.0547C48.3118 21.5625 46.5709 21.2617 44.985 21.1523C44.5475 21.8997 44.0735 22.1732 43.5631 21.9727C42.9069 21.6263 42.6061 21.3893 42.6608 21.2617C42.7155 21.1341 42.9433 20.8698 43.3444 20.4688C44.2558 19.4661 45.1035 18.3997 45.8873 17.2695C46.1972 16.7956 46.1334 16.5586 45.6959 16.5586H39.6803C39.1334 16.5586 38.8327 16.4583 38.778 16.2578C38.7051 15.9661 38.9147 15.8203 39.4069 15.8203H46.2155C46.653 15.8203 47.054 15.5469 47.4186 15L48.2116 13.6602ZM55.0202 17.2695C55.2207 16.7956 55.1022 16.5586 54.6647 16.5586H49.0592C48.6217 16.5586 48.1933 16.832 47.7741 17.3789L45.9967 19.7852C45.6139 20.2773 45.6868 20.5508 46.2155 20.6055C47.7649 20.6966 49.4694 20.9336 51.3288 21.3164C51.8209 21.4076 52.2493 21.2617 52.6139 20.8789C53.4889 20.0039 54.291 18.8008 55.0202 17.2695ZM107.992 4.91016C108.447 4.80078 108.775 4.97396 108.976 5.42969C109.012 5.57552 108.994 5.7487 108.921 5.94922C108.812 6.53255 108.766 7.36198 108.785 8.4375C108.766 8.76562 108.93 8.92057 109.277 8.90234L110.042 8.875C110.316 8.875 110.462 8.73828 110.48 8.46484C110.516 8.04557 110.525 7.61719 110.507 7.17969C110.452 6.88802 110.425 6.6875 110.425 6.57812C110.443 6.50521 110.516 6.46875 110.644 6.46875C111.154 6.59635 111.355 6.8151 111.245 7.125C111.154 7.52604 111.1 7.8724 111.081 8.16406C111.063 8.83854 111.027 9.30339 110.972 9.55859C110.808 9.79557 110.699 9.91406 110.644 9.91406C110.498 9.8776 110.425 9.75911 110.425 9.55859C110.425 9.43099 110.252 9.36719 109.906 9.36719L109.222 9.39453C108.912 9.41276 108.757 9.54948 108.757 9.80469V10.8438C108.757 11.1354 108.93 11.2721 109.277 11.2539C110.206 11.2721 110.844 11.2448 111.191 11.1719C111.683 10.9531 112.148 11.026 112.585 11.3906C112.768 11.5911 112.731 11.7734 112.476 11.9375L112.148 11.8828C111.893 11.8099 111.637 11.7552 111.382 11.7188C109.596 11.7005 107.736 11.8646 105.804 12.2109C105.64 12.2292 105.467 12.2109 105.285 12.1562C104.883 11.8828 104.692 11.7279 104.71 11.6914C104.765 11.5456 104.902 11.5 105.12 11.5547C105.357 11.6276 105.704 11.6185 106.16 11.5273C106.706 11.4544 107.262 11.3997 107.827 11.3633C108.119 11.3451 108.265 11.1992 108.265 10.9258V9.88672C108.265 9.61328 108.092 9.48568 107.745 9.50391C107.308 9.54036 106.761 9.72266 106.105 10.0508C105.941 10.069 105.831 9.96875 105.777 9.75C105.722 9.60417 105.777 9.33984 105.941 8.95703C106.05 8.55599 106.068 8.0638 105.995 7.48047C105.886 7.13411 105.841 6.95182 105.859 6.93359C106.023 6.89714 106.178 6.94271 106.324 7.07031C106.506 7.23438 106.597 7.44401 106.597 7.69922C106.524 8.28255 106.497 8.68359 106.515 8.90234C106.606 9.15755 106.834 9.22135 107.199 9.09375L107.8 9.03906C108.092 9.0026 108.229 8.8112 108.21 8.46484C108.229 8.41016 108.229 8.33724 108.21 8.24609V6.71484C108.174 6.13151 108.101 5.70312 107.992 5.42969C107.919 5.26562 107.882 5.14714 107.882 5.07422C107.882 5.0013 107.919 4.94661 107.992 4.91016ZM113.187 11.7461C113.187 11.6549 113.342 11.7461 113.652 12.0195L114.527 12.9219C114.873 13.2135 115.219 13.2135 115.566 12.9219C115.949 12.5391 116.313 12.1562 116.66 11.7734C116.751 11.7005 116.814 11.6641 116.851 11.6641C116.887 11.6641 116.86 11.8372 116.769 12.1836L115.702 14.2344C115.338 14.9453 114.964 15.0547 114.581 14.5625L113.187 11.7461ZM108.183 14.5898C108.128 14.3346 108.156 14.207 108.265 14.207C108.702 14.3164 109.003 14.526 109.167 14.8359C109.24 14.9635 109.222 15.1003 109.113 15.2461C108.383 16.0299 107.645 16.8776 106.898 17.7891C106.679 18.0625 106.597 18.2174 106.652 18.2539C106.87 18.3268 107.071 18.3268 107.253 18.2539L109.577 17.8438C109.687 17.8255 109.769 17.7891 109.824 17.7344C110.37 17.2422 110.708 16.75 110.835 16.2578C110.872 15.8932 110.926 15.7201 110.999 15.7383C111.291 15.8294 111.528 16.0482 111.71 16.3945C111.801 16.6497 111.683 16.8776 111.355 17.0781L107.8 20.2227C107.49 20.5143 107.363 20.6784 107.417 20.7148C107.618 20.7513 108.001 20.7148 108.566 20.6055L109.96 20.3594C110.234 20.3047 110.216 20.1042 109.906 19.7578C109.614 19.4661 109.477 19.3021 109.495 19.2656C109.605 19.1016 109.824 19.1289 110.152 19.3477C110.99 19.8581 111.61 20.3776 112.011 20.9062C112.139 21.1797 112.066 21.3893 111.792 21.5352C111.555 21.5534 111.3 21.3893 111.027 21.043C110.808 20.7695 110.525 20.6693 110.179 20.7422C109.012 20.9974 108.028 21.1797 107.226 21.2891C106.916 21.3255 106.57 21.4167 106.187 21.5625C106.023 21.6901 105.85 21.681 105.667 21.5352C105.412 21.2799 105.43 21.043 105.722 20.8242C106.652 20.4961 107.654 19.8034 108.73 18.7461C109.04 18.4544 109.012 18.3451 108.648 18.418C107.39 18.6549 106.324 18.9466 105.449 19.293C105.321 19.3112 105.221 19.2292 105.148 19.0469C105.02 18.7552 105.13 18.5182 105.476 18.3359C106.624 17.5521 107.472 16.5951 108.019 15.4648C108.201 15.1185 108.256 14.8268 108.183 14.5898ZM81.4408 1.4375C81.4408 0.854167 81.696 0.608073 82.2064 0.699219L82.7806 0.808594C83.364 0.89974 83.7103 1 83.8197 1.10938C84.166 1.58333 84.0476 1.92057 83.4642 2.12109C83.1726 2.2487 83.0267 2.53125 83.0267 2.96875V6.08594C83.0267 6.54167 83.2181 6.76953 83.6009 6.76953C84.002 6.76953 84.403 6.49609 84.8041 5.94922C85.1869 5.4388 85.6426 5.44792 86.1712 5.97656C86.6999 6.50521 86.9369 6.86979 86.8822 7.07031C86.8275 7.34375 86.5358 7.48047 86.0072 7.48047H83.7103C83.2546 7.48047 83.0267 7.69922 83.0267 8.13672V13.1953C83.0267 13.6328 83.3002 13.7331 83.847 13.4961L85.7611 12.375C86.2715 12.0104 86.5905 11.8919 86.7181 12.0195C86.9186 12.2201 86.6999 12.612 86.0619 13.1953C85.3327 13.7604 84.6035 14.2799 83.8744 14.7539C83.3093 15.1003 83.0267 15.4922 83.0267 15.9297V24.2148C83.2455 25.1992 82.8171 25.901 81.7416 26.3203C81.0489 26.5026 80.6569 26.4479 80.5658 26.1562C80.347 25.6276 79.9916 25.2904 79.4994 25.1445C78.9525 24.9258 78.6973 24.7161 78.7337 24.5156C78.7702 24.3151 79.0619 24.2695 79.6087 24.3789L81.1127 24.6797C81.4408 24.5703 81.5502 24.2422 81.4408 23.6953V16.8594C81.4408 16.4036 81.1582 16.3125 80.5931 16.5859C80.028 16.8229 79.6817 17.1055 79.5541 17.4336C79.6452 18.0534 79.4082 18.2721 78.8431 18.0898C78.5697 17.8346 78.2689 17.3698 77.9408 16.6953C77.6127 16.1302 77.7311 15.7839 78.2962 15.6562C79.0983 15.4375 79.9278 15.1732 80.7845 14.8633C81.222 14.6628 81.4408 14.3438 81.4408 13.9062V8.16406C81.4408 7.70833 81.222 7.48047 80.7845 7.48047H78.3783C77.8314 7.48047 77.5215 7.38021 77.4486 7.17969C77.3757 6.90625 77.6035 6.76953 78.1322 6.76953H80.7572C81.2129 6.76953 81.4408 6.55078 81.4408 6.11328V1.4375ZM90.847 1.62891C90.8288 1.08203 91.084 0.826823 91.6127 0.863281L92.433 0.972656C93.1986 0.954427 93.5267 1.22786 93.4173 1.79297C93.2533 2.01172 92.989 2.13021 92.6244 2.14844C92.5332 2.23958 92.4877 2.50391 92.4877 2.94141C92.4877 4.39974 92.5515 5.88542 92.6791 7.39844C92.7155 7.8724 92.9981 8.07292 93.5267 8C95.2403 7.74479 96.9538 7.52604 98.6673 7.34375C99.0866 7.27083 99.4239 7.08854 99.6791 6.79688L99.8978 6.49609C100.317 5.91276 100.791 5.82161 101.32 6.22266C101.939 6.71484 102.222 7.05208 102.167 7.23438C102.076 7.47135 101.757 7.6263 101.21 7.69922C98.6582 8.00911 96.097 8.34635 93.5267 8.71094C93.0163 8.78385 92.7793 9.01172 92.8158 9.39453C93.0892 11.7643 93.627 14.2435 94.4291 16.832C94.5931 17.3424 94.8119 17.4062 95.0853 17.0234C96.3796 15.1276 97.2364 13.3867 97.6556 11.8008C97.8197 11.2539 98.1934 11.0807 98.7767 11.2812C99.1778 11.3906 99.5788 11.5365 99.9798 11.7188C100.272 12.2109 100.126 12.4844 99.5423 12.5391C99.1778 12.5755 98.959 12.8034 98.8861 13.2227C98.1022 14.8997 97.1087 16.5404 95.9056 18.1445C95.4864 18.6914 95.4226 19.2383 95.7142 19.7852C96.7533 21.5716 98.0567 22.9206 99.6244 23.832C100.226 24.2695 100.609 24.0964 100.773 23.3125L101.292 21.918C101.456 21.3529 101.639 21.1068 101.839 21.1797C102.094 21.2526 102.167 21.6081 102.058 22.2461L101.785 24.4336C101.785 24.6159 101.848 24.7982 101.976 24.9805C102.596 26.0195 102.341 26.4844 101.21 26.375C98.6035 25.6458 96.4343 23.8685 94.7025 21.043C94.3744 20.4596 93.9551 20.4049 93.4447 20.8789C91.3848 22.8112 89.1153 24.2422 86.6361 25.1719C86.0892 25.3724 85.7702 25.3815 85.6791 25.1992C85.6061 25.0716 85.8796 24.862 86.4994 24.5703C88.5775 23.6224 90.765 21.9544 93.0619 19.5664C93.4265 19.1654 93.5085 18.6732 93.308 18.0898C92.3418 15.4466 91.7038 12.6302 91.3939 9.64062C91.3574 9.20312 91.0567 9.02083 90.4916 9.09375L86.5814 9.61328C85.9798 9.6862 85.6153 9.63151 85.4877 9.44922C85.3236 9.19401 85.515 9.02083 86.0619 8.92969L90.6283 8.35547C91.0658 8.28255 91.2572 7.97266 91.2025 7.42578C91.0202 5.49349 90.9017 3.5612 90.847 1.62891ZM94.8119 1.98438C94.9395 1.83854 95.2767 1.91146 95.8236 2.20312C96.8991 2.93229 97.6556 3.74349 98.0931 4.63672C98.239 4.92839 98.239 5.22917 98.0931 5.53906C97.8015 5.99479 97.4369 6.09505 96.9994 5.83984C96.8718 5.73047 96.7715 5.58464 96.6986 5.40234C96.3887 4.4362 95.9694 3.61589 95.4408 2.94141C94.9121 2.44922 94.7025 2.13021 94.8119 1.98438ZM149.479 5.67578C149.861 5.60286 150.262 5.70312 150.682 5.97656C150.755 6.03125 150.8 6.09505 150.818 6.16797C150.855 6.24089 150.764 6.44141 150.545 6.76953C150.399 7.09766 150.272 7.42578 150.162 7.75391C149.962 8.3737 149.624 8.64714 149.15 8.57422C148.385 8.61068 147.501 8.69271 146.498 8.82031C146.225 8.85677 146.061 9.01172 146.006 9.28516C145.915 9.92318 145.723 10.5794 145.432 11.2539C145.14 11.9648 144.593 12.6393 143.791 13.2773C143.7 13.3685 143.581 13.3776 143.436 13.3047C143.399 13.2682 143.527 13.1133 143.818 12.8398C144.675 11.819 145.195 10.6432 145.377 9.3125C145.395 8.92969 145.368 8.64714 145.295 8.46484C145.204 8.30078 145.167 8.20052 145.186 8.16406C145.222 8.1276 145.413 8.16406 145.76 8.27344C145.924 8.38281 146.152 8.39193 146.443 8.30078C147.318 8.20964 148.184 8.13672 149.041 8.08203C149.26 8.0638 149.406 7.95443 149.479 7.75391C149.606 7.40755 149.697 7.08854 149.752 6.79688C149.825 6.41406 149.679 6.22266 149.315 6.22266L145.678 6.71484C145.514 6.7513 145.259 6.70573 144.912 6.57812C144.712 6.50521 144.657 6.3776 144.748 6.19531C146.589 6.08594 148.166 5.91276 149.479 5.67578ZM149.096 14.8906C149.187 14.5443 149.26 14.362 149.315 14.3438C149.533 14.362 149.761 14.5169 149.998 14.8086C150.199 15.0273 150.135 15.2826 149.807 15.5742C149.624 15.793 149.369 16.1393 149.041 16.6133L148.658 17.1328C148.348 17.4792 148.367 17.7799 148.713 18.0352C149.46 18.5638 150.117 19.138 150.682 19.7578C150.919 20.0312 150.9 20.2956 150.627 20.5508C150.354 20.7331 150.044 20.5599 149.697 20.0312C149.333 19.5938 148.859 19.1107 148.275 18.582C147.929 18.2904 147.592 18.2995 147.264 18.6094C146.134 19.6667 145.094 20.3685 144.147 20.7148C143.928 20.7878 143.791 20.8242 143.736 20.8242C143.627 20.806 143.746 20.6784 144.092 20.4414C144.967 19.8581 145.897 19.0924 146.881 18.1445C147.154 17.8711 147.118 17.5885 146.772 17.2969C146.261 16.8594 145.742 16.4583 145.213 16.0938C144.812 15.7474 144.648 15.556 144.721 15.5195C144.885 15.5013 145.076 15.5651 145.295 15.7109C145.878 16.0573 146.553 16.4857 147.318 16.9961C147.592 17.1966 147.865 17.1237 148.139 16.7773C148.649 16.1211 148.968 15.4922 149.096 14.8906ZM127.44 1.35547C127.44 0.808594 127.704 0.571615 128.232 0.644531C128.415 0.644531 128.597 0.671875 128.779 0.726562C129.326 0.835938 129.645 0.927083 129.736 1C129.791 1.10938 129.691 1.36458 129.436 1.76562C129.144 2.13021 129.007 2.39453 129.025 2.55859C129.044 2.66797 129.272 2.72266 129.709 2.72266H134.522C134.959 2.72266 135.351 2.56771 135.697 2.25781C136.007 2.0026 136.454 2.04818 137.037 2.39453L138.022 2.99609C138.204 3.39714 138.094 3.6888 137.693 3.87109C137.165 3.94401 136.973 4.30859 137.119 4.96484C137.119 5.49349 137.201 5.76693 137.365 5.78516C137.529 5.78516 137.867 5.52995 138.377 5.01953C138.906 4.49089 139.443 4.42708 139.99 4.82812C140.081 4.9375 140.173 5.01953 140.264 5.07422C140.829 5.52995 141.057 5.8763 140.947 6.11328C140.82 6.36849 140.482 6.49609 139.936 6.49609H137.803C137.347 6.49609 137.119 6.71484 137.119 7.15234V9.36719C137.119 9.95052 136.855 10.2604 136.326 10.2969C135.798 10.3333 135.533 10.224 135.533 9.96875C135.533 9.69531 135.315 9.55859 134.877 9.55859H129.709C129.253 9.55859 129.025 9.77734 129.025 10.2148V11.2266C129.025 11.6823 129.244 11.9102 129.682 11.9102H134.658C135.096 11.9102 135.579 11.6458 136.107 11.1172C136.636 10.6068 137.183 10.5703 137.748 11.0078L138.076 11.2812C138.568 11.6823 138.76 12.0013 138.65 12.2383C138.523 12.4935 138.186 12.6211 137.639 12.6211H129.709C129.253 12.6211 129.025 12.8398 129.025 13.2773V14.043C129.025 14.4987 129.244 14.7266 129.682 14.7266H136.49C136.928 14.7266 137.429 14.4531 137.994 13.9062C138.541 13.3594 139.088 13.2865 139.635 13.6875L139.908 13.9062C140.583 14.4349 140.865 14.8177 140.756 15.0547C140.628 15.3281 140.309 15.4648 139.799 15.4648H117.24C116.693 15.4648 116.393 15.3646 116.338 15.1641C116.265 14.8724 116.475 14.7266 116.967 14.7266H126.756C127.212 14.7266 127.44 14.5078 127.44 14.0703V13.3047C127.44 12.849 127.221 12.6211 126.783 12.6211H119.1C118.553 12.6211 118.243 12.5208 118.17 12.3203C118.097 12.0469 118.325 11.9102 118.854 11.9102H126.756C127.212 11.9102 127.44 11.6914 127.44 11.2539V10.2422C127.44 9.78646 127.221 9.55859 126.783 9.55859H119.975C119.428 9.55859 119.118 9.45833 119.045 9.25781C118.972 8.96615 119.182 8.82031 119.674 8.82031H126.756C127.212 8.82031 127.44 8.60156 127.44 8.16406V7.17969C127.44 6.72396 127.221 6.49609 126.783 6.49609H116.912C116.365 6.49609 116.065 6.39583 116.01 6.19531C115.955 5.92188 116.174 5.78516 116.666 5.78516H126.756C127.212 5.78516 127.44 5.56641 127.44 5.12891V4.11719C127.44 3.66146 127.221 3.43359 126.783 3.43359H120.357C119.811 3.43359 119.51 3.33333 119.455 3.13281C119.4 2.85938 119.628 2.72266 120.139 2.72266H126.756C127.212 2.72266 127.44 2.50391 127.44 2.06641V1.35547ZM135.533 4.14453C135.533 3.67057 135.324 3.43359 134.904 3.43359H129.709C129.253 3.43359 129.025 3.65234 129.025 4.08984V5.10156C129.025 5.55729 129.244 5.78516 129.682 5.78516H134.85C135.305 5.78516 135.533 5.56641 135.533 5.12891V4.14453ZM135.533 7.17969C135.533 6.72396 135.315 6.49609 134.877 6.49609H129.709C129.253 6.49609 129.025 6.71484 129.025 7.15234V8.13672C129.025 8.59245 129.244 8.82031 129.682 8.82031H134.85C135.305 8.82031 135.533 8.60156 135.533 8.16406V7.17969ZM135.67 17.4883C135.998 17.2148 136.436 17.2331 136.982 17.543C137.821 17.944 138.186 18.3177 138.076 18.6641C138.022 18.9375 137.867 19.0742 137.611 19.0742C137.156 19.2018 136.992 19.5117 137.119 20.0039V25.6094C137.302 26.2656 137.119 26.5938 136.572 26.5938C135.88 26.6302 135.533 26.4661 135.533 26.1016C135.533 25.7188 135.315 25.5273 134.877 25.5273H122.408C121.953 25.5273 121.725 25.6367 121.725 25.8555C121.725 26.0924 121.706 26.2474 121.67 26.3203C121.597 26.4115 121.333 26.5026 120.877 26.5938C120.367 26.612 120.111 26.3294 120.111 25.7461V18.0898C120.111 17.543 120.385 17.4062 120.932 17.6797C121.205 17.8438 121.533 17.9258 121.916 17.9258H134.522C134.959 17.9258 135.342 17.7799 135.67 17.4883ZM135.533 19.3477C135.533 18.8737 135.324 18.6367 134.904 18.6367H122.408C121.953 18.6367 121.725 18.8555 121.725 19.293V20.6328C121.725 21.0885 121.943 21.3164 122.381 21.3164H134.85C135.305 21.3164 135.533 21.0977 135.533 20.6602V19.3477ZM135.533 22.7383C135.533 22.2643 135.324 22.0273 134.904 22.0273H122.408C121.953 22.0273 121.725 22.2461 121.725 22.6836V24.1328C121.725 24.5885 121.943 24.8164 122.381 24.8164H134.85C135.305 24.8164 135.533 24.5977 135.533 24.1602V22.7383Z" fill="white"/>
</svg>
