<svg width="266" height="416" viewBox="0 0 266 416" fill="none" xmlns="http://www.w3.org/2000/svg">
<path d="M127.44 48.3656C131.396 55.8042 139.117 58.7312 156.462 57.0186C186.742 53.2687 224.331 42.7529 224.331 42.7529C224.331 42.7529 218.194 43.9489 211.922 35.9302C205.626 27.9781 212.484 22.0288 212.484 22.0288C212.484 22.0288 186.557 25.7432 165.231 29.3617C155.492 31.0175 149.013 30.8817 141.761 32.6516C126.806 37.0081 123.867 41.6324 127.44 48.3656Z" fill="#F4EBD4"/>
<path d="M99.5856 156.796L139.666 56.819C133.465 55.6152 129.778 52.8007 127.394 48.3866C123.8 41.6079 126.76 37.029 141.736 32.718C133.15 34.8317 125.459 36.2532 123.284 40.854C119.223 49.3689 109.5 66.6454 99.0358 97.0787C88.5503 127.467 78.7549 143.397 86.2091 152.412C88.5509 155.189 92.9946 156.657 99.5856 156.796Z" fill="#5BB354"/>
<path d="M175.876 140.658C181.209 122.386 224.331 42.7524 224.331 42.7524C224.331 42.7524 186.742 53.2683 156.416 57.0393C149.376 57.7169 143.905 57.6092 139.666 56.8187L99.5859 156.796C114.088 157.178 139.041 151.487 175.876 140.658Z" fill="#FECB27"/>
<path d="M213.198 42.957C213.198 42.957 212.158 43.2194 210.307 43.6384C208.501 44.0362 205.925 44.6815 202.743 45.3324C199.561 45.9832 195.949 46.7789 191.933 47.541C187.985 48.3273 183.746 49.0831 179.573 49.8632C175.313 50.5736 171.119 51.3083 167.153 51.9372C163.141 52.5873 159.447 53.0894 156.248 53.5829C153.072 54.0098 150.394 54.3161 148.524 54.5777C146.634 54.7939 145.576 54.8989 145.576 54.8989C145.576 54.8989 146.616 54.6365 148.468 54.2175C150.319 53.7985 152.895 53.1532 156.077 52.5024C159.214 51.8727 162.917 51.0347 166.886 50.2938C170.835 49.5075 175.074 48.7517 179.292 47.9504C183.441 47.2369 187.68 46.4811 191.667 45.8976C195.634 45.2686 199.373 44.7454 202.527 44.273C205.748 43.825 208.426 43.5187 210.295 43.2571C212.141 43.062 213.198 42.957 213.198 42.957Z" fill="#D3C7AB"/>
<path d="M211.922 35.9297C211.922 35.9297 210.724 36.21 208.6 36.7559C206.454 37.2563 203.427 38.0011 199.748 38.7725C196.09 39.5894 191.823 40.5237 187.22 41.4487C182.638 42.419 177.72 43.38 172.847 44.3199C167.954 45.2143 163.014 46.1299 158.414 46.9429C153.815 47.7559 149.467 48.3966 145.77 49.0106C142.073 49.6247 138.943 50.0305 136.825 50.3524C134.641 50.6501 133.38 50.7942 133.38 50.7942C133.38 50.7942 134.623 50.4927 136.747 49.9468C138.893 49.4464 141.921 48.7016 145.533 47.9059C149.212 47.1345 153.457 46.1547 158.061 45.2298C162.642 44.2594 167.536 43.365 172.454 42.404C177.348 41.5096 182.288 40.594 186.887 39.781C191.487 38.968 195.835 38.3273 199.532 37.7132C203.25 37.1446 206.334 36.7599 208.498 36.4169C210.682 36.1192 211.922 35.9297 211.922 35.9297Z" fill="#D3C7AB"/>
<path d="M208.65 31.9839C208.65 31.9839 207.814 32.2071 206.277 32.59C204.832 32.9307 202.683 33.5431 200.11 34.0765C197.558 34.6552 194.531 35.4 191.303 36.072C188.076 36.7439 184.624 37.4097 181.173 38.0754C177.7 38.6957 174.249 39.3614 171.004 39.876C167.78 40.436 164.695 40.8207 162.08 41.2632C159.49 41.6392 157.284 41.8914 155.775 42.0959C154.245 42.2549 153.345 42.3419 153.345 42.3419C153.345 42.3419 154.227 42.0975 155.697 41.6903C157.188 41.3285 159.292 40.7372 161.91 40.1827C164.461 39.604 167.489 38.8592 170.671 38.2084C173.898 37.5364 177.35 36.8707 180.801 36.2049C184.274 35.5846 187.746 34.9643 191.016 34.3832C194.24 33.8231 197.324 33.4385 199.939 32.996C202.576 32.5989 204.736 32.3678 206.245 32.1633C207.796 32.0497 208.65 31.9839 208.65 31.9839Z" fill="#D3C7AB"/>
<path d="M209.552 26.4287C209.552 26.4287 208.309 26.7302 206.23 27.2549C204.063 27.7099 201.057 28.5001 197.423 29.2504C193.745 30.0219 189.499 31.0016 184.941 31.9054C180.359 32.8758 175.487 33.8156 170.614 34.7555C165.72 35.6499 160.847 36.5897 156.226 37.3573C151.56 38.146 147.279 38.811 143.627 39.404C139.931 40.018 136.846 40.4026 134.683 40.7457C132.498 41.0434 131.304 41.2118 131.304 41.2118C131.304 41.2118 132.501 40.9314 134.626 40.3856C136.772 39.8851 139.799 39.1403 143.432 38.39C147.111 37.6186 151.357 36.6389 155.915 35.7351C160.451 34.7858 165.345 33.8914 170.263 32.9304C175.115 31.9452 180.009 31.0507 184.63 30.2831C189.229 29.4702 193.532 28.8506 197.208 28.1911C200.859 27.5982 203.989 27.1924 206.107 26.8705C208.312 26.6182 209.552 26.4287 209.552 26.4287Z" fill="#D3C7AB"/>
<path d="M175.876 140.659C175.879 140.547 175.974 140.392 175.977 140.28C94.3699 162.59 136.94 75.7023 146.601 57.4604C143.978 57.4097 141.674 57.211 139.666 56.8189L99.5858 156.796C114.088 157.178 139.041 151.487 175.876 140.659Z" fill="#FECB27"/>
<path d="M144.904 72.6078C148.688 79.7951 156.122 82.5796 172.836 80.9391C202.014 77.3154 238.223 67.1645 238.223 67.1645C238.223 67.1645 232.335 68.3001 226.278 60.6236C220.22 52.9471 226.848 47.2155 226.848 47.2155C226.848 47.2155 201.89 50.7552 181.306 54.3048C171.928 55.9034 165.673 55.7738 158.69 57.5288C144.282 61.6316 141.483 66.0805 144.904 72.6078Z" fill="#F4EBD4"/>
<path d="M118.085 177.078L156.692 80.7129C150.715 79.5154 147.158 76.8614 144.949 72.5866C141.482 66.0804 144.348 61.6558 158.735 57.5076C150.489 59.5187 143.068 60.9254 140.966 65.3265C137.048 73.554 127.702 90.2135 117.585 119.491C107.469 148.769 98.0257 164.148 105.244 172.776C107.453 175.504 111.697 176.9 118.085 177.078Z" fill="#A13623"/>
<path d="M191.578 161.468C196.734 143.885 238.223 67.1643 238.223 67.1643C238.223 67.1643 202.014 77.3152 172.836 80.9389C166.02 81.6228 160.773 81.5214 156.646 80.734L118.064 177.033C132.027 177.445 156.102 171.886 191.578 161.468Z" fill="#E30613"/>
<path d="M227.539 67.3816C227.539 67.3816 226.545 67.6228 224.76 68.066C222.999 68.4428 220.49 69.1123 217.444 69.6997C214.375 70.3537 210.853 71.1071 207.041 71.83C203.25 72.5983 199.169 73.3361 195.087 74.0739C190.984 74.7663 186.948 75.483 183.118 76.0485C179.309 76.6594 175.728 77.1646 172.619 77.6158C169.51 78.067 166.944 78.3764 165.165 78.5958C163.366 78.7697 162.308 78.8747 162.308 78.8747C162.308 78.8747 163.324 78.6789 165.109 78.2356C166.869 77.8589 169.4 77.2347 172.424 76.6019C175.449 75.9691 179.015 75.1945 182.827 74.4716C186.639 73.7487 190.7 72.9655 194.782 72.2277C198.839 71.5565 202.921 70.8187 206.751 70.2532C210.559 69.6422 214.207 69.1613 217.271 68.7312C220.313 68.2558 222.9 67.9918 224.724 67.7513C226.527 67.4654 227.539 67.3816 227.539 67.3816Z" fill="#D3C7AB"/>
<path d="M226.277 60.6238C226.277 60.6238 225.08 60.9041 223.047 61.4077C220.992 61.8659 218.076 62.6138 214.555 63.3672C211.034 64.1206 206.924 65.0369 202.479 65.9438C198.1 66.875 193.364 67.7515 188.649 68.6733C183.912 69.5497 179.176 70.4261 174.734 71.2211C170.292 72.0161 166.101 72.6388 162.562 73.2348C158.977 73.852 156.005 74.2397 153.932 74.5405C151.839 74.7959 150.645 74.9643 150.645 74.9643C150.645 74.9643 151.842 74.6839 153.876 74.1804C155.93 73.7222 158.846 72.9743 162.367 72.2209C165.888 71.4675 169.998 70.5512 174.398 69.6654C178.843 68.7584 183.558 67.8366 188.274 66.9148C193.01 66.0384 197.746 65.162 202.209 64.4124C206.652 63.6174 210.842 62.9947 214.381 62.3987C217.966 61.7815 220.96 61.4391 223.011 61.093C225.083 60.7922 226.277 60.6238 226.277 60.6238Z" fill="#D3C7AB"/>
<path d="M223.159 56.771C223.159 56.771 222.322 56.9942 220.898 57.3803C219.452 57.7209 217.395 58.2911 214.934 58.8275C212.473 59.364 209.558 60.1119 206.467 60.7205C203.351 61.3956 200.036 61.9978 196.697 62.6667C193.382 63.269 190.067 63.8713 186.888 64.4102C183.755 64.9279 180.804 65.361 178.325 65.7401C175.78 66.095 173.665 66.3049 172.202 66.4882C170.739 66.6715 169.884 66.7374 169.884 66.7374C169.884 66.7374 170.696 66.5807 172.121 66.1946C173.566 65.854 175.624 65.2838 178.085 64.7474C180.591 64.1897 183.482 63.5084 186.552 62.8544C189.667 62.1793 192.961 61.5316 196.322 60.9082C199.637 60.3059 202.997 59.6825 206.131 59.1647C209.264 58.647 212.215 58.2139 214.694 57.8348C217.218 57.4345 219.332 57.2246 220.796 57.0412C222.305 56.8368 223.159 56.771 223.159 56.771Z" fill="#D3C7AB"/>
<path d="M223.964 51.4822C223.964 51.4822 222.812 51.7414 220.779 52.245C218.724 52.7031 215.809 53.451 212.287 54.2044C208.766 54.9579 204.657 55.8742 200.257 56.76C195.902 57.6246 191.141 58.5676 186.472 59.4683C181.781 60.3235 177.045 61.2 172.602 61.9949C168.16 62.7899 164.015 63.3915 160.476 63.9875C156.937 64.5836 153.943 64.9259 151.892 65.2721C149.798 65.5274 148.604 65.6959 148.604 65.6959C148.604 65.6959 149.756 65.4366 151.79 64.9331C153.844 64.4749 156.76 63.727 160.281 62.9736C163.802 62.2202 167.912 61.3039 172.266 60.4392C176.666 59.5534 181.382 58.6316 186.097 57.7098C190.857 56.7668 195.548 55.9115 200.011 55.162C204.408 54.3881 208.599 53.7654 212.138 53.1694C215.677 52.5733 218.649 52.1856 220.722 51.8848C222.816 51.6294 223.964 51.4822 223.964 51.4822Z" fill="#D3C7AB"/>
<path d="M191.579 161.468C191.582 161.356 191.631 161.223 191.679 161.09C113.058 182.563 154.056 98.8371 163.382 81.303C160.871 81.2554 158.612 81.0355 156.671 80.6676L118.088 176.966C132.027 177.445 156.102 171.886 191.579 161.468Z" fill="#C70613"/>
<g clip-path="url(#clip0_210:668)">
<path d="M147.881 355.699L139.863 356.967L142.726 374.871L150.744 373.602L147.881 355.699Z" fill="#925F2D"/>
<path d="M152.916 372.421L140.322 374.413L140.872 377.849L153.465 375.858L152.916 372.421Z" fill="#FECB27"/>
<path d="M115.099 400.232C115.099 400.232 143.586 407.54 184.998 390.06C184.998 390.06 173.846 371.661 145.586 376.42C118.404 381.017 115.099 400.232 115.099 400.232Z" fill="#E8960E"/>
<path d="M140.66 379.979C140.66 379.979 128.649 385.488 124.214 397.504L118.211 396.561C118.256 396.572 125.233 382.254 140.66 379.979Z" fill="white"/>
<g opacity="0.5">
<path opacity="0.5" d="M145.631 376.431C143.308 376.855 141.164 377.323 139.132 377.912C148.415 376.826 167.229 376.929 178.518 392.629C180.649 391.828 182.835 390.994 185.043 390.071C184.998 390.06 173.846 371.661 145.631 376.431Z" fill="#E8960E"/>
</g>
<path d="M155.258 331.622L159.467 338.581L165.014 336.351L160.953 328.204L155.258 331.622Z" fill="#925F2D"/>
<path d="M91.9413 203.735C91.9413 203.735 82.7094 187.923 80.903 184.092C79.9444 182.21 83.9182 179.268 85.7684 181.366C87.6186 183.465 96.8296 201.109 96.8296 201.109L91.9413 203.735Z" fill="#925F2D"/>
<path d="M199.18 227.754C217.76 263.363 200.783 308.879 161.228 329.401C121.673 349.924 74.5604 337.66 55.9803 302.052C37.4003 266.443 54.3765 220.926 93.9318 200.404C133.476 179.926 180.6 192.145 199.18 227.754Z" fill="#5ACFE6"/>
<path d="M80.2051 320.475C80.924 319.849 81.6186 318.935 81.3516 317.315C81.0846 315.696 79.0591 312.377 80.8128 311.767C82.5665 311.158 81.9549 309.596 80.3636 304.687C78.7722 299.778 80.5834 291.363 85.181 290.126C89.8231 288.901 90.2792 285.667 90.0196 281.883C89.7599 278.099 90.4753 275.352 93.5031 273.969C98.9156 271.518 104.526 271.941 106.862 268.741C109.199 265.541 107.401 261.288 104.469 257.231C101.537 253.173 103.18 252.631 105.597 246.577C108.015 240.524 104.318 236.893 101.662 232.478C98.9507 228.097 93.923 226.638 89.467 229.04C85.011 231.441 81.0042 231.22 77.2506 228.988C73.4971 226.756 68.4542 236.033 63.5671 233.996C62.0801 232.928 60.5657 232.748 59.1553 233.111C46.6182 254.366 44.5144 280.091 55.9802 302.052C61.5943 312.744 69.742 321.368 79.475 327.551C79.7386 327.05 80.0022 326.549 80.0658 326.094C80.5215 324.414 79.4417 321.09 80.2051 320.475Z" fill="#7EC054"/>
<path d="M199.18 227.754C189.269 208.715 171.161 196.396 150.482 192.118C154.106 194.884 158.235 199.845 151.742 205.378C144.49 210.538 146.474 212.669 149.654 218.813C152.833 224.956 154.924 232.86 150.03 236.285C145.146 239.666 138.752 246.542 141.524 254.942C143.293 259.705 146.951 256.12 149.071 255.364C151.179 254.653 154.434 258.742 156.369 261.85C158.259 264.948 161.142 265.131 163.93 261.241C166.763 257.361 169.29 249.497 174.17 252.145C179.05 254.792 179.561 253.08 181.374 253.003C183.187 252.925 186.891 255.946 188.287 258.358C189.683 260.771 183.516 265.158 188.1 268.44C192.674 271.767 196.945 266.824 198.436 270.013C199.666 272.526 200.386 276.94 203.641 279.475C208.731 262.437 207.681 244.047 199.18 227.754Z" fill="#7EC054"/>
<path d="M92.605 201.588C92.605 201.588 93.4096 203.715 94.8257 207.404C96.2417 211.093 98.3139 216.354 100.838 222.668C102.106 225.803 103.442 229.237 104.98 232.814C105.727 234.597 106.496 236.48 107.277 238.318C108.091 240.212 108.905 242.106 109.708 244.044C111.348 247.976 113.122 251.94 114.908 256.049C116.705 260.113 118.581 264.243 120.467 268.329C122.397 272.426 124.273 276.556 126.18 280.553C128.133 284.561 130.007 288.502 131.924 292.266C133.886 296.041 135.68 299.727 137.539 303.147C139.398 306.567 141.112 309.81 142.756 312.754C144.446 315.708 145.966 318.386 147.362 320.799C147.689 321.396 148.027 321.949 148.353 322.547C148.691 323.1 148.995 323.598 149.332 324.151C149.984 325.158 150.514 326.087 151.065 326.928C153.124 330.302 154.305 332.238 154.305 332.238C154.305 332.238 153.113 330.347 151.009 326.962C150.503 326.132 149.885 325.181 149.277 324.185C148.973 323.687 148.635 323.134 148.287 322.625C147.95 322.072 147.612 321.519 147.285 320.921C145.878 318.553 144.313 315.865 142.624 312.91C140.979 309.966 139.221 306.712 137.362 303.293C135.503 299.873 133.653 296.22 131.691 292.445C129.774 288.681 127.856 284.729 125.903 280.721C123.951 276.713 122.065 272.628 120.134 268.531C118.304 264.411 116.428 260.281 114.631 256.217C112.845 252.108 111.082 248.1 109.476 244.223C108.672 242.285 107.824 240.336 107.055 238.453C106.285 236.57 105.505 234.731 104.769 232.904C103.287 229.293 101.94 225.903 100.683 222.724C98.2031 216.421 96.1863 211.126 94.8257 207.404C93.365 203.704 92.605 201.588 92.605 201.588Z" fill="white"/>
<path d="M77.8965 211.198C77.8965 211.198 78.2674 213.361 78.9945 217.165C79.7662 220.98 80.9156 226.347 82.5174 232.766C83.3405 235.98 84.2433 239.45 85.2474 243.086C86.2515 246.722 87.446 250.545 88.708 254.479C89.3667 256.429 90.0037 258.468 90.707 260.429C91.0701 261.46 91.3995 262.435 91.7626 263.465C92.1257 264.496 92.4996 265.482 92.8627 266.512C94.326 270.589 95.9784 274.665 97.6753 278.752C98.5569 280.757 99.4277 282.806 100.309 284.81C101.246 286.781 102.117 288.83 103.109 290.767C104.057 292.693 104.994 294.664 106.008 296.512C107.011 298.405 107.97 300.287 109.006 302.046C109.501 302.92 110.031 303.85 110.526 304.724C111.022 305.598 111.573 306.439 112.068 307.313C112.574 308.143 113.07 309.017 113.576 309.847C114.083 310.677 114.645 311.473 115.162 312.258C116.196 313.828 117.186 315.388 118.253 316.825C119.319 318.262 120.242 319.712 121.252 320.994C122.251 322.32 123.228 323.547 124.159 324.763C125.102 325.934 126.066 327.017 126.897 328.066C127.727 329.116 128.59 330.033 129.375 330.883C130.16 331.734 130.866 332.518 131.538 333.247C132.905 334.615 133.969 335.675 134.731 336.426C135.448 337.165 135.874 337.552 135.874 337.552C135.874 337.552 135.448 337.165 134.731 336.426C134.014 335.686 132.894 334.66 131.528 333.291C130.855 332.562 130.138 331.823 129.353 330.972C128.569 330.122 127.706 329.205 126.831 328.145C125.945 327.128 125.036 326.012 124.038 324.874C123.095 323.703 122.13 322.432 121.13 321.105C120.076 319.812 119.153 318.363 118.086 316.926C117.02 315.489 116.03 313.929 114.996 312.359C114.478 311.574 113.917 310.777 113.41 309.948C112.904 309.118 112.397 308.288 111.857 307.403C111.362 306.529 110.811 305.688 110.315 304.814C109.82 303.94 109.335 303.021 108.795 302.136C107.77 300.332 106.756 298.484 105.797 296.602C104.783 294.754 103.846 292.783 102.854 290.846C101.862 288.909 100.98 286.904 100.054 284.889C99.1278 282.874 98.2907 280.88 97.3754 278.821C95.6784 274.734 94.0815 270.624 92.5736 266.536C92.2105 265.506 91.8366 264.52 91.4735 263.489C91.1104 262.459 90.781 261.484 90.4179 260.453C89.7254 258.448 89.0776 256.453 88.4297 254.458C87.1677 250.524 86.0286 246.667 85.0245 243.032C84.0204 239.396 83.1177 235.926 82.2945 232.711C79.2139 219.951 77.8965 211.198 77.8965 211.198Z" fill="white"/>
<path d="M102.063 196.871C102.063 196.871 104.019 198.147 107.107 200.783C108.63 202.095 110.499 203.728 112.526 205.681C113.512 206.675 114.631 207.701 115.719 208.86C116.806 210.02 117.982 211.201 119.081 212.504C120.225 213.819 121.414 215.144 122.603 216.659C123.804 218.128 125.005 219.598 126.162 221.246C127.33 222.849 128.587 224.473 129.723 226.21C130.903 227.957 132.128 229.715 133.231 231.585C134.334 233.455 135.537 235.302 136.563 237.295C137.082 238.269 137.645 239.254 138.153 240.272L138.975 241.744L139.731 243.294C140.239 244.313 140.736 245.375 141.199 246.383C141.695 247.446 142.258 248.431 142.655 249.517C143.549 251.665 144.454 253.77 145.347 255.918C146.935 260.261 148.522 264.604 150.076 268.892C150.88 271.019 151.53 273.202 152.245 275.307C152.96 277.413 153.631 279.507 154.302 281.601C154.621 282.621 154.984 283.651 155.302 284.671C155.621 285.691 155.895 286.699 156.213 287.719C156.817 289.703 157.375 291.676 157.945 293.604C158.23 294.568 158.525 295.488 158.765 296.442C159.016 297.35 159.257 298.304 159.508 299.213C160.01 301.031 160.433 302.782 160.923 304.456C161.141 305.31 161.369 306.119 161.597 306.928C161.78 307.726 161.964 308.524 162.158 309.278C162.536 310.83 162.846 312.272 163.178 313.624C163.831 316.374 164.282 318.792 164.751 320.743C165.165 322.728 165.443 324.303 165.662 325.345C165.825 326.421 165.973 326.975 165.973 326.975C165.973 326.975 165.87 326.432 165.662 325.345C165.443 324.303 165.165 322.728 164.707 320.732C164.237 318.781 163.742 316.352 163.034 313.636C162.702 312.284 162.347 310.832 161.969 309.279C161.775 308.526 161.591 307.727 161.363 306.918C161.135 306.109 160.907 305.3 160.69 304.446C160.244 302.783 159.776 301.021 159.274 299.203C159.023 298.294 158.772 297.385 158.532 296.432C158.236 295.512 157.996 294.559 157.7 293.639C157.131 291.71 156.561 289.782 155.958 287.798C155.639 286.778 155.365 285.77 155.047 284.75C154.728 283.731 154.365 282.7 154.047 281.681C153.365 279.631 152.65 277.525 151.979 275.431C151.264 273.326 150.614 271.142 149.81 269.015C148.256 264.728 146.613 260.418 145.026 256.075C144.132 253.927 143.283 251.789 142.378 249.685C141.982 248.599 141.418 247.614 140.966 246.562C140.459 245.544 139.962 244.481 139.499 243.473L138.787 241.934L137.976 240.418C137.413 239.433 136.905 238.414 136.386 237.44C135.36 235.448 134.157 233.601 133.054 231.731C131.951 229.861 130.771 228.113 129.59 226.366C128.455 224.63 127.253 222.971 126.085 221.368C124.917 219.765 123.727 218.251 122.526 216.781C121.37 215.322 120.193 213.952 119.049 212.638C117.916 211.279 116.784 210.108 115.697 208.949C114.61 207.79 113.546 206.73 112.56 205.736C110.543 203.738 108.719 202.117 107.207 200.76C103.963 198.181 102.063 196.871 102.063 196.871Z" fill="white"/>
<path d="M63.7037 226.257C63.7037 226.257 63.4951 228.279 63.5414 231.775C63.5323 235.306 63.7673 240.356 64.5316 246.336C64.8861 249.342 65.4755 252.548 66.1109 255.952C66.5008 257.649 66.8353 259.379 67.3036 261.141C67.5101 262.039 67.7273 262.893 67.9783 263.802C68.2294 264.711 68.4912 265.575 68.7422 266.484C69.2442 268.302 69.8354 270.142 70.4266 271.981C71.0624 273.832 71.6981 275.682 72.3785 277.543C73.1142 279.371 73.7837 281.276 74.6195 283.081C75.0042 284.023 75.3998 284.92 75.7845 285.861L77.105 288.585C78.8101 292.25 80.7369 295.78 82.6853 299.222C83.6318 300.959 84.7445 302.596 85.7573 304.256C86.77 305.915 87.9043 307.463 88.9387 309.034C91.1182 312.107 93.2748 315.081 95.4625 317.733C96.0014 318.43 96.551 319.082 97.0561 319.723C97.6057 320.374 98.1662 320.982 98.6821 321.578C99.7584 322.782 100.779 324.02 101.788 325.113C102.842 326.217 103.817 327.255 104.747 328.283C105.678 329.31 106.596 330.193 107.514 331.075C109.273 332.775 110.785 334.321 112.106 335.49C114.737 337.873 116.215 339.174 116.215 339.174C116.215 339.174 114.693 337.862 112.051 335.524C110.675 334.388 109.207 332.853 107.393 331.187C105.579 329.521 103.718 327.467 101.611 325.259C100.558 324.154 99.5706 322.972 98.4605 321.713C97.9 321.106 97.3949 320.464 96.8345 319.857C96.2848 319.205 95.7798 318.564 95.241 317.868C93.0086 315.205 90.8412 312.275 88.6725 309.157C87.6382 307.587 86.5038 306.039 85.4465 304.368C84.4338 302.709 83.3211 301.072 82.3746 299.335C80.3816 295.882 78.4548 292.352 76.7051 288.676L75.44 285.919C75.0553 284.977 74.6597 284.08 74.275 283.139C73.4501 281.29 72.7697 279.428 72.0448 277.556C71.3645 275.695 70.7287 273.845 70.0929 271.994C69.5571 270.121 68.9106 268.315 68.4193 266.453C68.1683 265.544 67.9173 264.635 67.6663 263.726C67.4599 262.828 67.2534 261.93 66.9916 261.065C66.5233 259.303 66.2442 257.539 65.8542 255.843C65.2189 252.438 64.6848 249.199 64.3304 246.193C63.5769 240.168 63.4311 235.14 63.4847 231.62C63.4951 228.279 63.7037 226.257 63.7037 226.257Z" fill="white"/>
<path d="M115.953 192.761C115.953 192.761 118.095 193.659 121.68 195.615C125.209 197.604 130.226 200.662 135.619 205.083C141.012 209.503 146.87 215.309 151.837 222.453C154.365 226.035 156.628 229.93 158.537 234.116C159.486 236.231 160.346 238.324 161.084 240.529C161.823 242.735 162.516 244.929 163.255 247.134C164.787 251.51 165.897 256.067 167.096 260.457C167.393 261.565 167.745 262.64 167.942 263.771C168.194 264.869 168.446 265.967 168.654 267.053C169.114 269.238 169.619 271.433 170.056 273.518C170.482 275.647 170.819 277.755 171.167 279.818C171.515 281.881 171.919 283.91 172.154 285.851C172.424 287.848 172.671 289.745 172.917 291.642C173.024 292.563 173.175 293.495 173.281 294.416C173.388 295.337 173.461 296.202 173.533 297.068C173.869 300.541 174.18 303.725 174.344 306.544C174.508 309.363 174.714 311.816 174.784 313.858C174.934 317.898 175.028 320.229 175.028 320.229C175.028 320.229 174.934 317.898 174.694 313.836C174.625 311.794 174.374 309.331 174.21 306.512C174.046 303.693 173.68 300.542 173.344 297.069C173.272 296.203 173.154 295.327 173.092 294.417C172.975 293.54 172.869 292.62 172.718 291.688C172.46 289.835 172.224 287.894 171.944 285.941C171.674 283.945 171.26 281.96 170.912 279.897C170.519 277.823 170.227 275.726 169.756 273.586C169.285 271.446 168.814 269.306 168.31 267.111C168.057 266.013 167.805 264.916 167.553 263.818C167.3 262.72 166.959 261.601 166.707 260.503C165.464 256.103 164.387 251.602 162.81 247.214C162.072 245.009 161.378 242.815 160.64 240.61C159.901 238.405 159.052 236.267 158.137 234.207C156.273 230.032 154.009 226.137 151.526 222.566C146.559 215.422 140.756 209.583 135.408 205.173C130.015 200.752 125.109 197.627 121.546 195.582C118.084 193.704 115.953 192.761 115.953 192.761Z" fill="white"/>
<path d="M137.447 190.972C137.447 190.972 139.675 191.325 143.322 192.637C146.969 193.948 152.114 196.283 157.515 200.282C162.882 204.226 168.495 209.878 173.016 216.913C175.277 220.43 177.317 224.271 179.035 228.269C180.788 232.322 182.119 236.556 183.394 240.823C184.669 245.09 185.745 249.402 186.731 253.693C187.247 255.844 187.584 257.951 188.01 260.08C188.347 262.188 188.729 264.306 188.988 266.348C189.191 268.422 189.495 270.475 189.63 272.439C189.715 273.449 189.755 274.448 189.851 275.413C189.891 276.412 189.898 277.356 189.949 278.31C190.051 280.219 189.975 282.085 189.965 283.872C189.9 285.693 189.811 287.415 189.689 289.081C189.401 292.402 188.988 295.457 188.483 298.114C188.365 298.792 188.258 299.425 188.107 300.048C187.955 300.67 187.859 301.259 187.719 301.837C187.482 303.004 187.233 304.027 186.995 305.006C186.768 305.939 186.562 306.784 186.334 307.53C186.105 308.275 185.954 308.897 185.79 309.376C185.497 310.388 185.367 310.921 185.367 310.921C185.367 310.921 185.497 310.388 185.79 309.376C185.909 308.886 186.105 308.275 186.289 307.519C186.473 306.763 186.679 305.918 186.906 304.984C187.133 304.05 187.348 302.972 187.619 301.86C187.759 301.282 187.855 300.693 188.007 300.07C188.114 299.437 188.221 298.804 188.338 298.126C188.799 295.458 189.156 292.437 189.489 289.126C189.611 287.46 189.7 285.739 189.765 283.918C189.775 282.13 189.851 280.265 189.749 278.356C189.698 277.401 189.691 276.458 189.651 275.459C189.556 274.493 189.515 273.494 189.43 272.484C189.305 270.476 188.991 268.468 188.743 266.382C188.44 264.33 188.103 262.223 187.766 260.115C187.328 258.03 186.958 255.868 186.476 253.772C185.423 249.559 184.303 245.236 183.028 240.969C181.797 236.713 180.466 232.479 178.714 228.426C177.006 224.384 175.01 220.554 172.739 217.081C168.263 210.057 162.695 204.416 157.327 200.472C151.97 196.484 146.892 194.07 143.255 192.715C139.664 191.37 137.447 190.972 137.447 190.972Z" fill="white"/>
<path d="M49.1702 261.345C49.1702 261.345 49.1836 261.678 49.3213 262.277C49.4035 262.909 49.6099 263.807 49.8068 264.939C50.0929 266.092 50.3695 267.478 50.8027 268.996C51.1805 270.548 51.7488 272.288 52.3183 274.217C52.6031 275.181 52.9878 276.122 53.3509 277.153C53.714 278.183 54.0771 279.214 54.4848 280.255C54.8925 281.296 55.334 282.393 55.7646 283.534C56.206 284.63 56.7366 285.749 57.2672 286.867C58.2622 289.182 59.468 291.406 60.6412 293.764C61.2056 294.938 61.9253 296.055 62.5451 297.195C63.2094 298.346 63.8737 299.496 64.5381 300.647C65.9775 302.882 67.4062 305.16 68.8118 307.339C70.3283 309.451 71.8448 311.563 73.2938 313.564C74.8536 315.498 76.3796 317.377 77.7827 319.178C78.4565 320.096 79.252 320.902 79.9583 321.686C80.6646 322.47 81.3709 323.254 82.0435 323.983C83.3886 325.441 84.5554 326.855 85.7425 327.992C86.8851 329.118 87.8602 330.156 88.7002 330.973C90.3357 332.595 91.277 333.578 91.277 333.578C91.277 333.578 90.3249 332.64 88.634 331.051C87.794 330.234 86.7527 329.274 85.6101 328.148C84.4121 327.056 83.19 325.675 81.8448 324.217C81.1723 323.489 80.466 322.704 79.7597 321.92C79.0534 321.136 78.2579 320.33 77.5395 319.402C76.081 317.634 74.555 315.755 72.9952 313.821C71.5016 311.809 69.9851 309.697 68.4686 307.586C67.0184 305.396 65.5789 303.161 64.1395 300.927C63.4751 299.776 62.8108 298.625 62.1465 297.475C61.4821 296.324 60.8178 295.173 60.2535 294C59.0802 291.641 57.8407 289.362 56.8903 287.058C56.3705 285.895 55.8291 284.821 55.3984 283.68C54.9678 282.539 54.5264 281.443 54.1187 280.401C53.6664 279.349 53.3141 278.274 52.9956 277.255C52.6325 276.224 52.3032 275.249 52.0184 274.285C51.4488 272.357 50.9252 270.628 50.5582 269.031C50.1358 267.468 49.9038 266.093 49.6623 264.951C49.4654 263.819 49.3143 262.888 49.2213 262.3C49.1836 261.678 49.1702 261.345 49.1702 261.345Z" fill="white"/>
<path d="M63.421 227.224C63.421 227.224 64.6168 226.385 66.6881 225.052C67.7069 224.358 69.0365 223.551 70.4876 222.632C71.9833 221.724 73.6115 220.66 75.5179 219.617C76.4597 219.045 77.4014 218.473 78.3877 217.913C79.3741 217.352 80.4604 216.768 81.5021 216.174C83.641 214.951 85.9581 213.772 88.2969 212.504C90.6803 211.247 93.1528 210.012 95.7145 208.798C96.9899 208.213 98.2762 207.584 99.5516 206.999C100.838 206.37 102.113 205.786 103.478 205.223C106.107 204.12 108.713 202.917 111.365 201.913C112.675 201.384 113.973 200.899 115.282 200.37C116.581 199.885 117.868 199.445 119.156 199.004C120.443 198.564 121.686 198.113 122.874 197.695C124.106 197.288 125.327 196.926 126.504 196.553C128.847 195.851 131.056 195.117 133.155 194.638C135.221 194.105 137.131 193.627 138.842 193.196C140.541 192.808 142.064 192.566 143.308 192.304C145.786 191.823 147.174 191.549 147.174 191.549C147.174 191.549 145.775 191.868 143.342 192.359C142.097 192.622 140.609 192.919 138.909 193.306C137.199 193.738 135.322 194.27 133.256 194.804C131.157 195.283 128.982 196.072 126.594 196.763C125.418 197.136 124.196 197.499 123.009 197.916C121.766 198.367 120.534 198.774 119.291 199.225C118.048 199.677 116.716 200.106 115.462 200.602C114.163 201.087 112.899 201.627 111.59 202.156C108.982 203.17 106.342 204.318 103.747 205.477C102.437 206.006 101.107 206.624 99.8312 207.209C98.4895 207.872 97.1587 208.49 95.8833 209.074C93.3662 210.299 90.8491 211.524 88.4765 212.736C86.0931 213.994 83.776 215.173 81.648 216.351C80.6062 216.945 79.5199 217.529 78.5336 218.089C77.5473 218.65 76.5609 219.211 75.63 219.738C73.7573 220.837 72.0954 221.846 70.5997 222.753C69.104 223.661 67.8298 224.435 66.7665 225.118C64.606 226.429 63.421 227.224 63.421 227.224Z" fill="white"/>
<path d="M50.029 256.844C50.029 256.844 51.6438 255.447 54.5759 253.099C57.4973 250.795 61.736 247.54 66.9732 243.868C69.5864 242.055 72.4657 240.118 75.545 238.135C78.6243 236.152 81.9482 234.134 85.3828 232.05C88.8511 230.02 92.4195 227.968 96.1108 225.993C97.0309 225.51 97.9618 224.983 98.9265 224.511C99.8466 224.028 100.811 223.557 101.776 223.085C103.672 222.086 105.59 221.187 107.52 220.243C109.449 219.299 111.401 218.455 113.32 217.556C115.272 216.712 117.224 215.868 119.132 215.014C121.074 214.214 123.004 213.459 124.935 212.704C126.855 211.994 128.786 211.239 130.65 210.562C132.559 209.896 134.368 209.253 136.222 208.62C138.065 208.032 139.852 207.478 141.595 206.913C143.371 206.403 145.048 205.916 146.725 205.429C148.401 204.942 150.001 204.578 151.567 204.158C152.322 203.965 153.122 203.783 153.832 203.579C154.588 203.386 155.332 203.237 156.032 203.077C157.476 202.769 158.82 202.484 160.075 202.177C162.642 201.718 164.875 201.272 166.698 200.962C170.377 200.397 172.488 200.063 172.488 200.063C172.488 200.063 170.377 200.397 166.687 201.007C164.865 201.317 162.621 201.807 160.087 202.321C158.832 202.628 157.488 202.914 156.033 203.266C155.333 203.426 154.589 203.574 153.834 203.767C153.078 203.96 152.323 204.153 151.568 204.347C150.002 204.766 148.403 205.131 146.726 205.618C145.049 206.105 143.373 206.592 141.585 207.146C139.842 207.711 138.055 208.266 136.212 208.854C134.359 209.486 132.55 210.129 130.64 210.795C128.776 211.472 126.845 212.227 124.925 212.937C123.039 213.703 121.098 214.503 119.156 215.302C117.249 216.157 115.296 217.001 113.344 217.845C111.425 218.744 109.473 219.588 107.544 220.531C105.614 221.475 103.696 222.374 101.811 223.329C100.846 223.801 99.9262 224.283 98.9615 224.755C98.0414 225.238 97.1105 225.765 96.1904 226.248C92.4546 228.212 88.8862 230.264 85.4286 232.249C82.0048 234.29 78.681 236.307 75.6017 238.29C72.5224 240.273 69.6539 242.165 66.9853 244.013C61.7144 247.629 57.4419 250.829 54.4759 253.122C51.6438 255.447 50.029 256.844 50.029 256.844Z" fill="white"/>
<path d="M49.591 282.126C49.591 282.126 51.3368 280.384 54.6217 277.556C57.9066 274.729 62.6413 270.793 68.6082 266.451C71.597 264.258 74.852 261.941 78.3516 259.59C81.8957 257.249 85.606 254.807 89.5946 252.386C93.5386 249.955 97.6947 247.621 101.951 245.266C104.079 244.088 106.241 242.965 108.413 241.798C110.62 240.686 112.792 239.519 115.021 238.507C117.262 237.45 119.457 236.383 121.731 235.382C122.84 234.898 123.96 234.37 125.07 233.886C126.179 233.402 127.333 232.929 128.442 232.446C129.551 231.962 130.705 231.489 131.803 231.05C132.902 230.61 134.045 230.182 135.143 229.742C136.197 229.292 137.34 228.864 138.438 228.425C139.526 228.03 140.614 227.635 141.701 227.24C142.789 226.845 143.876 226.45 144.919 226.045C145.996 225.694 147.073 225.344 148.105 224.983C150.259 224.282 152.323 223.56 154.355 222.971C156.387 222.382 158.341 221.727 160.262 221.205C162.183 220.683 164.06 220.15 165.825 219.685C167.602 219.175 169.346 218.799 171.001 218.401C172.656 218.003 174.166 217.617 175.655 217.319C178.588 216.714 181.143 216.111 183.265 215.732C187.51 214.975 189.933 214.528 189.933 214.528C189.933 214.528 187.51 214.975 183.255 215.777C181.132 216.155 178.567 216.803 175.634 217.408C174.145 217.705 172.624 218.136 170.969 218.534C169.314 218.932 167.603 219.364 165.837 219.829C164.061 220.339 162.195 220.827 160.263 221.394C158.342 221.915 156.388 222.57 154.346 223.204C152.314 223.793 150.249 224.515 148.14 225.227C147.108 225.588 146.031 225.938 144.944 226.333C143.856 226.728 142.813 227.134 141.725 227.529C140.638 227.923 139.55 228.318 138.463 228.713C137.364 229.152 136.266 229.592 135.167 230.031C134.069 230.47 132.971 230.91 131.828 231.338C130.718 231.822 129.62 232.261 128.511 232.745C127.401 233.229 126.292 233.712 125.138 234.185C124.029 234.669 122.909 235.197 121.8 235.681C119.526 236.682 117.33 237.75 115.09 238.806C112.85 239.863 110.688 240.985 108.482 242.097C106.32 243.22 104.148 244.387 101.986 245.51C97.7297 247.865 93.5737 250.199 89.6405 252.586C85.6627 254.963 81.9524 257.404 78.4083 259.745C74.9087 262.096 71.6091 264.403 68.6203 266.596C62.6534 270.938 57.8404 274.807 54.5663 277.59C51.3368 280.384 49.591 282.126 49.591 282.126Z" fill="white"/>
<path d="M54.2892 298.719C54.2892 298.719 54.8094 298.327 55.739 297.611C56.6687 296.896 58.0969 295.877 59.9129 294.623C61.7288 293.369 63.9434 291.835 66.5241 290.155C69.0711 288.42 72.018 286.593 75.2418 284.599C76.8592 283.579 78.5657 282.581 80.3276 281.549C82.0894 280.518 83.9175 279.408 85.7794 278.354C87.6967 277.266 89.6139 276.178 91.6312 275.067C93.6038 273.946 95.6994 272.901 97.772 271.757C99.8784 270.668 101.962 269.479 104.157 268.412C106.319 267.289 108.57 266.188 110.776 265.076C111.907 264.504 112.983 263.965 114.158 263.403C115.278 262.874 116.443 262.357 117.574 261.784C119.869 260.694 122.154 259.649 124.45 258.558C129.064 256.478 133.745 254.508 138.293 252.506C142.942 250.669 147.502 248.811 151.895 247.054C156.323 245.352 160.662 243.817 164.757 242.317C165.79 241.956 166.777 241.584 167.765 241.212C168.786 240.895 169.763 240.568 170.74 240.24C172.694 239.585 174.547 238.953 176.335 238.398C178.133 237.799 179.876 237.234 181.519 236.692C182.34 236.421 183.161 236.15 183.927 235.912C184.694 235.675 185.504 235.448 186.215 235.244C189.168 234.361 191.755 233.624 193.887 233.013C198.151 231.789 200.594 231.064 200.594 231.064C200.594 231.064 198.151 231.789 193.921 233.068C191.778 233.724 189.236 234.472 186.282 235.355C185.516 235.592 184.761 235.785 183.995 236.023C183.218 236.305 182.408 236.531 181.586 236.803C179.943 237.345 178.2 237.91 176.402 238.509C174.604 239.108 172.75 239.74 170.797 240.395C169.82 240.723 168.843 241.05 167.822 241.367C166.834 241.739 165.802 242.1 164.814 242.472C160.719 243.973 156.413 245.563 151.986 247.265C147.592 249.022 143.032 250.88 138.428 252.727C133.88 254.729 129.199 256.699 124.629 258.791C122.345 259.836 120.049 260.926 117.764 261.972C116.6 262.489 115.48 263.018 114.36 263.546C113.239 264.074 112.109 264.647 110.978 265.22C108.771 266.331 106.52 267.432 104.369 268.51C102.174 269.578 100.09 270.767 97.9395 271.845C95.8669 272.989 93.7713 274.034 91.7541 275.144C89.7814 276.266 87.8196 277.343 85.9023 278.431C83.9959 279.474 82.1678 280.584 80.4059 281.616C78.644 282.647 76.9375 283.645 75.3202 284.665C72.0963 286.659 69.1049 288.475 66.5241 290.155C63.9097 291.78 61.6951 293.314 59.8791 294.568C58.0631 295.822 56.6349 296.84 55.6607 297.545C54.8094 298.327 54.2892 298.719 54.2892 298.719Z" fill="white"/>
<path d="M61.4939 311.024C61.4939 311.024 63.7677 310.022 67.7615 308.356C71.7661 306.646 77.4677 304.171 84.3231 301.222C98.0001 295.271 116.202 287.217 134.167 278.776C143.173 274.561 152.144 270.29 160.526 266.112C162.622 265.067 164.662 264.056 166.657 263.035C168.653 262.013 170.593 261.025 172.489 260.026C174.384 259.027 176.225 258.061 177.965 257.119C179.75 256.187 181.445 255.234 183.086 254.314C184.715 253.438 186.255 252.541 187.74 251.678C189.214 250.859 190.599 250.018 191.874 249.245C193.148 248.472 194.366 247.732 195.485 247.015C196.604 246.298 197.601 245.693 198.509 245.066C199.417 244.439 200.203 243.924 200.89 243.431C201.576 242.939 202.152 242.514 202.617 242.156C203.546 241.44 204.056 241.093 204.056 241.093C204.056 241.093 203.535 241.484 202.617 242.156C202.152 242.514 201.576 242.939 200.89 243.431C200.203 243.924 199.406 244.483 198.498 245.11C197.635 245.748 196.582 246.387 195.508 247.115C194.434 247.843 193.215 248.582 191.93 249.4C190.645 250.218 189.271 251.014 187.786 251.878C186.301 252.741 184.761 253.638 183.165 254.569C181.525 255.489 179.829 256.442 178.045 257.374C176.294 258.361 174.453 259.326 172.558 260.325C170.662 261.324 168.711 262.357 166.715 263.379C164.72 264.4 162.669 265.456 160.573 266.5C152.236 270.689 143.298 275.015 134.293 279.23C116.249 287.605 98.0581 295.614 84.3473 301.511C77.4919 304.459 71.7674 306.835 67.7182 308.534C63.8015 310.078 61.4939 311.024 61.4939 311.024Z" fill="white"/>
<path d="M76.0869 324.984C76.0869 324.984 78.2864 324.482 82.0733 323.473C83.9836 322.995 86.2709 322.327 88.9027 321.601C91.5007 320.82 94.4879 319.993 97.6628 318.975C99.2503 318.467 100.938 317.935 102.67 317.414C104.368 316.838 106.166 316.24 108.009 315.652C108.93 315.358 109.863 315.019 110.784 314.725C111.716 314.387 112.649 314.049 113.625 313.721C115.534 313.055 117.499 312.355 119.463 311.656C121.439 310.912 123.414 310.167 125.444 309.39C127.475 308.612 129.495 307.879 131.547 307.012C135.596 305.312 139.813 303.701 143.861 301.812C145.924 300.901 147.976 300.034 149.995 299.112C152.058 298.201 153.998 297.213 156.017 296.291C157.991 295.358 159.975 294.381 161.939 293.492C163.879 292.504 165.774 291.505 167.615 290.54C169.455 289.575 171.295 288.609 173.08 287.677C174.831 286.69 176.537 285.693 178.233 284.739C179.929 283.786 181.524 282.855 183.109 281.969C183.497 281.733 183.885 281.498 184.262 281.307C184.65 281.072 184.993 280.826 185.381 280.59C186.112 280.109 186.832 279.671 187.552 279.234C190.388 277.475 193.013 275.806 195.34 274.393C197.599 272.87 199.537 271.505 201.176 270.396C204.409 268.168 206.225 266.915 206.225 266.915C206.225 266.915 204.398 268.213 201.21 270.452C199.615 271.571 197.678 272.937 195.452 274.515C193.159 275.982 190.545 277.607 187.698 279.411C186.978 279.848 186.247 280.33 185.527 280.767C185.139 281.002 184.796 281.249 184.408 281.484C184.02 281.719 183.643 281.91 183.255 282.146C181.67 283.032 180.075 283.962 178.379 284.916C176.728 285.88 174.977 286.867 173.226 287.854C171.441 288.786 169.601 289.751 167.76 290.717C165.92 291.682 164.025 292.681 162.084 293.669C160.155 294.613 158.181 295.546 156.152 296.512C154.178 297.445 152.182 298.467 150.164 299.389C148.101 300.3 146.082 301.222 144.03 302.089C139.937 303.966 135.776 305.545 131.682 307.233C129.63 308.1 127.566 308.822 125.579 309.611C123.549 310.389 121.574 311.133 119.598 311.877C117.634 312.577 115.669 313.276 113.76 313.942C112.784 314.27 111.851 314.608 110.919 314.947C109.998 315.241 109.066 315.579 108.144 315.873C106.301 316.461 104.548 317.071 102.805 317.636C101.073 318.156 99.3853 318.688 97.7978 319.197C94.5783 320.203 91.6466 320.997 89.004 321.767C86.3722 322.493 84.0511 323.106 82.1854 323.594C78.2864 324.482 76.0869 324.984 76.0869 324.984Z" fill="white"/>
<path d="M98.872 336.321C98.872 336.321 100.605 335.989 103.649 335.317C105.149 334.975 107.004 334.531 109.08 333.953C111.157 333.375 113.522 332.773 116.076 331.981C118.652 331.289 121.383 330.352 124.291 329.458C125.768 329.017 127.222 328.475 128.72 327.945C130.219 327.415 131.806 326.906 133.326 326.286C134.891 325.678 136.455 325.069 138.064 324.472C138.852 324.145 139.673 323.874 140.461 323.548C141.249 323.221 142.047 322.85 142.879 322.534C144.51 321.848 146.096 321.15 147.727 320.464C149.313 319.766 150.921 318.98 152.518 318.238C154.115 317.496 155.757 316.765 157.32 315.968C158.883 315.17 160.446 314.373 162.01 313.576C165.17 312.037 168.095 310.299 170.999 308.65C173.936 307.057 176.583 305.299 179.197 303.674C180.482 302.856 181.712 302.072 182.941 301.288C184.137 300.448 185.233 299.631 186.307 298.904C188.477 297.359 190.515 295.971 192.197 294.684C193.89 293.353 195.362 292.157 196.579 291.228C199.025 289.327 200.385 288.198 200.385 288.198C200.385 288.198 199.025 289.327 196.613 291.284C195.429 292.267 193.958 293.464 192.265 294.795C190.572 296.126 188.534 297.514 186.409 299.069C185.324 299.842 184.183 300.648 183.032 301.498C181.847 302.293 180.573 303.066 179.288 303.884C176.718 305.52 174.016 307.312 171.123 308.916C168.219 310.565 165.283 312.347 162.168 313.897C160.604 314.694 159.03 315.536 157.467 316.333C155.904 317.13 154.262 317.862 152.665 318.604C151.068 319.345 149.46 320.132 147.83 320.818C146.199 321.505 144.568 322.192 142.982 322.889C142.194 323.216 141.351 323.576 140.564 323.902C139.776 324.229 138.954 324.5 138.167 324.826C136.558 325.424 134.993 326.033 133.429 326.641C131.864 327.25 130.332 327.725 128.789 328.244C127.246 328.764 125.792 329.305 124.36 329.757C121.452 330.651 118.687 331.533 116.145 332.28C113.602 333.028 111.236 333.63 109.126 334.153C107.016 334.676 105.172 335.075 103.672 335.416C100.595 336.034 98.872 336.321 98.872 336.321Z" fill="white"/>
<g opacity="0.6">
<path opacity="0.6" d="M204.321 240.78C211.82 289.331 152.709 320.169 111.216 314.501C64.4668 308.12 50.2692 267.501 50.9989 252.276C46.5065 268.799 47.7958 286.4 55.9806 302.051C74.5607 337.66 121.684 349.879 161.229 329.401C196.083 311.315 213.426 273.801 204.321 240.78Z" fill="#5ACFE6"/>
</g>
<path d="M103.739 188.8C103.739 188.8 17.8251 220.936 46.9127 294.475C67.2352 340.777 109.933 363.035 168.469 332.811L175.661 344.971C175.661 344.971 110.023 382.652 62.4009 338.329C19.7755 299.083 2.06592 223.413 98.0548 177.62L103.739 188.8Z" fill="#FECB27"/>
<path d="M158.855 341.872C158.665 341.873 158.532 341.84 158.43 341.674L156.716 338.242C156.625 338.032 156.679 337.81 156.89 337.72C157.101 337.63 157.324 337.684 157.414 337.894L159.173 341.337C159.264 341.547 159.21 341.77 158.999 341.86C158.954 341.849 158.899 341.882 158.855 341.872Z" fill="#925F2D"/>
<path d="M143.535 346.811C143.335 346.857 143.134 346.713 143.088 346.514L142.153 343.177C142.107 342.978 142.206 342.766 142.416 342.676C142.616 342.631 142.828 342.729 142.919 342.94L143.854 346.276C143.934 346.531 143.78 346.776 143.535 346.811C143.58 346.822 143.58 346.822 143.535 346.811Z" fill="#925F2D"/>
<path d="M126.262 350.663C126.062 350.709 125.816 350.555 125.826 350.321L125.255 346.65C125.209 346.45 125.363 346.205 125.597 346.215C125.797 346.169 126.043 346.323 126.033 346.557L126.604 350.228C126.605 350.417 126.462 350.617 126.262 350.663Z" fill="#925F2D"/>
<path d="M109.59 349.904C109.546 349.893 109.49 349.927 109.446 349.916C109.223 349.861 109.088 349.64 109.142 349.418L109.9 346.494C109.955 346.271 110.176 346.137 110.399 346.191C110.622 346.245 110.757 346.466 110.703 346.689L109.944 349.613C109.901 349.791 109.735 349.892 109.59 349.904Z" fill="#925F2D"/>
<path d="M94.4149 346.683C94.3149 346.705 94.2703 346.695 94.192 346.628C93.9799 346.53 93.9003 346.275 94.0436 346.074L95.4709 343.313C95.5696 343.101 95.8249 343.022 96.0262 343.165C96.2383 343.264 96.3179 343.519 96.1746 343.719L94.7473 346.481C94.6702 346.604 94.5594 346.671 94.4149 346.683Z" fill="#925F2D"/>
<path d="M78.3852 339.014C78.2852 339.037 78.1961 339.016 78.1623 338.96C77.9503 338.862 77.9152 338.617 78.0139 338.406L79.6615 335.321C79.7602 335.11 80.0047 335.075 80.2168 335.174C80.4288 335.272 80.4639 335.516 80.3652 335.728L78.7176 338.813C78.6405 338.935 78.5298 339.003 78.3852 339.014Z" fill="#925F2D"/>
<path d="M65.0536 328.8C64.9536 328.823 64.8199 328.79 64.7416 328.724C64.5849 328.591 64.5607 328.303 64.7377 328.158L67.1336 325.49C67.266 325.334 67.5552 325.31 67.7118 325.443C67.8685 325.575 67.8927 325.864 67.7157 326.009L65.3198 328.676C65.2198 328.699 65.1536 328.777 65.0536 328.8Z" fill="#925F2D"/>
<path d="M53.2474 315.611C53.1028 315.623 52.9691 315.591 52.857 315.469C52.7111 315.293 52.7652 315.07 52.9422 314.925L56.4284 312.24C56.6054 312.095 56.8283 312.149 56.9849 312.281C57.1308 312.458 57.0767 312.681 56.8997 312.826L53.4136 315.511C53.4027 315.555 53.3473 315.589 53.2474 315.611Z" fill="#925F2D"/>
<path d="M41.7623 295.672C41.5623 295.717 41.3611 295.574 41.3152 295.375C41.2693 295.175 41.368 294.964 41.5788 294.874L46.4641 293.424C46.6749 293.334 46.8761 293.477 46.9666 293.688C47.0125 293.887 46.9138 294.099 46.703 294.189L41.8177 295.638C41.7623 295.672 41.7623 295.672 41.7623 295.672Z" fill="#925F2D"/>
<path d="M41.119 271.728L41.0744 271.717L36.6353 271.72C36.4016 271.711 36.2557 271.534 36.2099 271.334C36.2194 271.101 36.3964 270.956 36.5963 270.91L41.0463 270.862C41.28 270.872 41.4258 271.049 41.4717 271.249C41.4959 271.537 41.3081 271.727 41.119 271.728Z" fill="#925F2D"/>
<path d="M41.9911 254.559C41.9465 254.548 41.8911 254.582 41.8466 254.571L37.3551 253.431C37.1322 253.377 36.9971 253.156 37.0512 252.933C37.1053 252.711 37.3269 252.577 37.5498 252.631L42.0305 253.815C42.2534 253.869 42.3884 254.091 42.2897 254.302C42.3127 254.402 42.1357 254.547 41.9911 254.559Z" fill="#925F2D"/>
<path d="M48.955 235.057C48.8996 235.09 48.8104 235.068 48.7213 235.047L44.2584 233.207C44.0463 233.109 43.9558 232.898 44.0545 232.687C44.1532 232.475 44.364 232.385 44.576 232.484L49.0389 234.323C49.251 234.422 49.3415 234.632 49.2428 234.844C49.2211 234.933 49.0995 235.045 48.955 235.057Z" fill="#925F2D"/>
<path d="M56.6809 222.711C56.581 222.734 56.4472 222.701 56.3243 222.624L52.8655 219.569C52.7088 219.437 52.6846 219.148 52.817 218.992C52.9494 218.836 53.2385 218.812 53.3952 218.944L56.8432 222.044C56.9999 222.176 57.0241 222.465 56.8471 222.61C56.8363 222.655 56.7809 222.688 56.6809 222.711Z" fill="#925F2D"/>
<path d="M70.4515 209.387C70.307 209.399 70.1287 209.356 70.0611 209.245L67.4791 205.885C67.3778 205.719 67.3982 205.442 67.5752 205.296C67.7522 205.151 68.0197 205.216 68.1209 205.382L70.6584 208.731C70.8042 208.908 70.7393 209.175 70.5731 209.276C70.5623 209.32 70.5069 209.354 70.4515 209.387Z" fill="#925F2D"/>
<path d="M88.3099 196.728C88.1654 196.74 87.9871 196.696 87.8858 196.53L85.5106 192.514C85.4094 192.348 85.4743 192.081 85.6405 191.98C85.8067 191.88 86.0741 191.945 86.1754 192.111L88.5843 196.182C88.6856 196.348 88.6207 196.615 88.4545 196.716C88.4099 196.705 88.3545 196.739 88.3099 196.728Z" fill="#925F2D"/>
<path d="M35.8419 279.252C44.296 322.713 93.321 380.096 172.356 339.362L168.506 332.868C109.97 363.091 67.2727 340.833 46.9503 294.532C17.8181 220.981 103.777 188.856 103.777 188.856L101.6 184.606C88.1192 189.946 25.0786 218.697 35.8419 279.252Z" fill="#FECB27"/>
</g>
<defs>
<clipPath id="clip0_210:668">
<rect width="183.97" height="212.273" fill="white" transform="translate(50.1823 165.972) rotate(13.6744)"/>
</clipPath>
</defs>
</svg>
