<svg width="35" height="35" viewBox="0 0 35 35" fill="none" xmlns="http://www.w3.org/2000/svg">
<path d="M17.5 20.4166V32.0833H5.83331C5.83331 28.9891 7.06248 26.0216 9.2504 23.8337C11.4383 21.6457 14.4058 20.4166 17.5 20.4166ZM17.5 18.9583C12.6656 18.9583 8.74998 15.0426 8.74998 10.2083C8.74998 5.37388 12.6656 1.45825 17.5 1.45825C22.3344 1.45825 26.25 5.37388 26.25 10.2083C26.25 15.0426 22.3344 18.9583 17.5 18.9583ZM21.2844 27.4341C21.0994 26.656 21.0994 25.8453 21.2844 25.0672L19.8377 24.2316L21.296 21.7058L22.7427 22.5414C23.3233 21.9914 24.0252 21.5858 24.7916 21.3572V19.6874H27.7083V21.3572C28.4841 21.5876 29.1841 21.9989 29.7573 22.5414L31.2039 21.7058L32.6623 24.2316L31.2156 25.0672C31.4003 25.8449 31.4003 26.655 31.2156 27.4326L32.6623 28.2683L31.2039 30.7941L29.7573 29.9585C29.1766 30.5084 28.4747 30.9141 27.7083 31.1426V32.8124H24.7916V31.1426C24.0252 30.9141 23.3233 30.5084 22.7427 29.9585L21.296 30.7941L19.8377 28.2683L21.2844 27.4341ZM26.25 24.7916C25.8632 24.7916 25.4923 24.9452 25.2188 25.2187C24.9453 25.4922 24.7916 25.8631 24.7916 26.2499C24.7916 26.6367 24.9453 27.0076 25.2188 27.2811C25.4923 27.5546 25.8632 27.7083 26.25 27.7083C26.6368 27.7083 27.0077 27.5546 27.2812 27.2811C27.5547 27.0076 27.7083 26.6367 27.7083 26.2499C27.7083 25.8631 27.5547 25.4922 27.2812 25.2187C27.0077 24.9452 26.6368 24.7916 26.25 24.7916Z" fill="#333333"/>
</svg>
