<svg width="98" height="97" viewBox="0 0 98 97" fill="none" xmlns="http://www.w3.org/2000/svg">
<g clip-path="url(#clip0_137:6878)">
<path d="M92.9608 25.666L83.2209 25.666C80.531 25.666 78.3509 27.82 78.3509 30.4776L78.3509 38.7925C77.8316 38.6027 77.2818 38.5031 76.7282 38.4975L60.4956 38.4975C60.1951 38.4993 59.8945 38.5294 59.5977 38.5877C65.9287 24.8973 59.8298 8.72976 45.9732 2.47475C32.1167 -3.78026 15.7509 2.24357 9.41997 15.9339C7.77445 19.4918 6.92411 23.358 6.92411 27.2693C6.92031 32.6277 8.52397 37.8678 11.5335 42.326L2.16638 52.3006C-0.274305 54.8887 -0.129727 58.9428 2.48978 61.3542C3.69396 62.4631 5.2786 63.0777 6.92411 63.0739C8.72942 63.0758 10.4548 62.3353 11.6856 61.0309L21.0603 51.0488C23.7312 52.528 26.6361 53.5542 29.6513 54.0842L29.6513 91.4226C29.6513 94.0802 31.8313 96.2342 34.5212 96.2342L54.0011 96.2342C55.2033 96.2304 56.36 95.7849 57.2484 94.9824C58.1348 95.7831 59.2934 96.2285 60.4956 96.2342L76.7282 96.2342C77.9305 96.2304 79.0871 95.7849 79.9755 94.9824C80.862 95.7831 82.0205 96.2285 83.2228 96.2342L92.9627 96.2342C95.6526 96.2342 97.8327 94.0802 97.8327 91.4226L97.8327 30.4776C97.8308 27.82 95.6507 25.666 92.9608 25.666ZM9.30963 58.8469C8.08834 60.1419 6.03953 60.2227 4.71741 59.0273C3.4029 57.832 3.31729 55.8115 4.52718 54.5128C4.53288 54.5071 4.53859 54.5015 4.5443 54.494L13.5271 44.9291C14.9386 46.5587 16.5404 48.0209 18.2962 49.284L9.30963 58.8469ZM55.6238 80.1963L55.6238 91.4226C55.6238 92.3078 54.8971 93.0258 54.0011 93.0258L34.5212 93.0258C33.6252 93.0258 32.8985 92.3078 32.8985 91.4226L32.8985 60.9501L55.6257 60.9501L55.6257 80.1963L55.6238 80.1963ZM55.6238 57.7436L32.8966 57.7436L32.8966 54.5353L55.6238 54.5353L55.6238 57.7436ZM55.6238 48.1205L55.6238 51.3289L47.4799 51.3289C50.5902 49.6843 53.3543 47.4702 55.6238 44.8051L55.6238 48.1205ZM34.5212 51.327C21.0736 51.327 10.1714 40.5555 10.1714 27.2693C10.1714 13.983 21.0736 3.21152 34.5212 3.21152C47.9688 3.21152 58.871 13.983 58.871 27.2693C58.8558 40.5499 47.9631 51.312 34.5212 51.327ZM78.3509 91.4245C78.3509 92.3097 77.6242 93.0277 76.7282 93.0277L60.4956 93.0277C59.5996 93.0277 58.8729 92.3097 58.8729 91.4245L58.8729 88.2161L78.3528 88.2161L78.3528 91.4245L78.3509 91.4245ZM78.3509 85.0078L58.871 85.0078L58.871 81.7995L78.3509 81.7995L78.3509 85.0078ZM78.3509 78.5931L58.871 78.5931L58.871 56.1385L78.3509 56.1385L78.3509 78.5931ZM78.3509 52.9321L58.871 52.9321L58.871 49.7238L78.3509 49.7238L78.3509 52.9321ZM78.3509 46.5154L58.871 46.5154L58.871 43.3071C58.871 42.4219 59.5977 41.7039 60.4937 41.7039L76.7263 41.7039C77.6223 41.7039 78.349 42.4219 78.349 43.3071L78.349 46.5154L78.3509 46.5154ZM94.5835 91.4245C94.5835 92.3097 93.8568 93.0277 92.9608 93.0277L83.2209 93.0277C82.3249 93.0277 81.5982 92.3097 81.5982 91.4245L81.5982 30.4776C81.5982 29.5923 82.3249 28.8744 83.2209 28.8744L92.9608 28.8744C93.8568 28.8744 94.5835 29.5923 94.5835 30.4776L94.5835 91.4245Z" fill="white"/>
<path d="M63.7401 65.7601L73.4801 65.7601C74.3761 65.7601 75.1028 65.0422 75.1028 64.1569C75.1028 63.2717 74.3761 62.5537 73.4801 62.5537L63.7401 62.5537C62.8441 62.5537 62.1174 63.2717 62.1174 64.1569C62.1155 65.0422 62.8422 65.7601 63.7401 65.7601Z" fill="white"/>
<path d="M63.7401 72.1769L73.4801 72.1769C74.3761 72.1769 75.1028 71.4589 75.1028 70.5737C75.1028 69.6884 74.3761 68.9705 73.4801 68.9705L63.7401 68.9705C62.8441 68.9705 62.1174 69.6884 62.1174 70.5737C62.1155 71.4589 62.8422 72.1769 63.7401 72.1769Z" fill="white"/>
<path d="M88.09 40.0991C87.194 40.0991 86.4673 40.8171 86.4673 41.7023L86.4673 44.9107C86.4673 45.7959 87.194 46.5139 88.09 46.5139C88.986 46.5139 89.7127 45.7959 89.7127 44.9107L89.7127 41.7023C89.7127 40.8171 88.986 40.0991 88.09 40.0991Z" fill="white"/>
<path d="M88.09 49.7224C87.194 49.7224 86.4673 50.4404 86.4673 51.3256L86.4673 80.1949C86.4673 81.0802 87.194 81.7981 88.09 81.7981C88.986 81.7981 89.7127 81.0802 89.7127 80.1949L89.7127 51.3256C89.7127 50.4404 88.986 49.7224 88.09 49.7224Z" fill="white"/>
<path d="M37.7658 83.4032L50.753 83.4032C51.649 83.4032 52.3756 82.6852 52.3756 81.8C52.3756 80.9147 51.649 80.1968 50.753 80.1968L37.7658 80.1968C36.8698 80.1968 36.1431 80.9147 36.1431 81.8C36.1431 82.6852 36.8698 83.4032 37.7658 83.4032Z" fill="white"/>
<path d="M34.5205 6.41846C22.8649 6.41846 13.4179 15.754 13.4179 27.2679C13.4179 38.7817 22.8668 48.1173 34.5205 48.1173C46.1741 48.1173 55.623 38.7817 55.623 27.2679C55.6097 15.7596 46.1684 6.43161 34.5205 6.41846ZM52.2939 25.6646L29.6505 25.6646L29.6505 24.0614C29.6505 22.289 31.1039 20.8531 32.8978 20.8531L51.1373 20.8531C51.7518 22.3943 52.1417 24.0144 52.2939 25.6646ZM26.4032 24.0614L26.4032 42.9637C17.6221 38.543 14.1313 27.9257 18.6056 19.2499C23.0798 10.5741 33.8261 7.12515 42.6073 11.5458C45.3961 12.9498 47.7607 15.0529 49.4671 17.6448L32.8959 17.6448C29.31 17.6448 26.4032 20.5185 26.4032 24.0614ZM34.5205 44.9108C32.873 44.9071 31.2332 44.6778 29.6505 44.2267L29.6505 38.4942L48.2838 38.4942C44.8958 42.5577 39.847 44.9108 34.5205 44.9108ZM50.4049 35.2877L29.6505 35.2877L29.6505 28.873L52.2939 28.873C52.0885 31.1115 51.4474 33.2898 50.4049 35.2877Z" fill="white"/>
</g>
<defs>
<clipPath id="clip0_137:6878">
<rect width="97.405" height="96.2347" fill="white" transform="translate(0.425171)"/>
</clipPath>
</defs>
</svg>
