<svg width="118" height="116" viewBox="0 0 118 116" fill="none" xmlns="http://www.w3.org/2000/svg">
<path d="M107.213 57.2441C99.1619 55.5958 90.8488 55.7001 82.8414 57.5507C74.8356 55.7017 66.5242 55.5958 58.4749 57.2441C56.7116 57.6534 55.4502 59.2022 55.4116 61.0078L55.4116 100.344C55.4213 100.407 55.4358 100.466 55.4518 100.525C55.4502 100.609 55.4551 100.694 55.4679 100.776L56.8403 106.011C57.2522 107.602 58.8482 108.582 60.4571 108.234C67.7485 106.905 75.2395 107.115 82.444 108.849C82.7063 108.913 82.9814 108.913 83.242 108.849C90.4498 107.115 97.9392 106.905 105.232 108.234C106.84 108.582 108.437 107.6 108.846 106.011L110.218 100.776C110.229 100.691 110.234 100.606 110.231 100.519C110.249 100.461 110.263 100.402 110.274 100.342L110.274 61.0078C110.234 59.2038 108.974 57.655 107.213 57.2441ZM106.527 60.5953C106.695 60.6723 106.814 60.8264 106.844 61.0078L106.844 98.2191C99.4869 96.7602 91.9139 96.7602 84.5565 98.2191L84.5565 60.6643C91.7949 59.1332 99.2729 59.1091 106.521 60.5937L106.527 60.5937L106.527 60.5953ZM58.8401 61.0078C58.8739 60.8232 58.9962 60.6691 59.1667 60.5937C66.4148 59.1091 73.8896 59.1332 81.128 60.6643L81.128 98.2175C73.7706 96.7586 66.1976 96.7586 58.8401 98.2175L58.8401 61.0078ZM60.0726 104.825L59.2392 101.651C66.4646 100.179 73.9154 100.206 81.128 101.732L81.128 105.058C74.1857 103.663 67.0438 103.585 60.0726 104.825ZM105.612 104.825C98.6423 103.581 91.4988 103.662 84.5565 105.058L84.5565 101.732C91.7691 100.206 99.2199 100.177 106.444 101.651L105.612 104.825Z" fill="#C6D963"/>
<path d="M77.6996 64.428C77.6996 65.3734 76.9322 66.1389 75.9845 66.1389C75.0385 66.1389 74.2711 65.3734 74.2711 64.428C74.2711 63.4843 75.0385 62.7188 75.9845 62.7188C76.9322 62.7171 77.6996 63.4843 77.6996 64.428Z" fill="#C6D963"/>
<path d="M64.3829 66.0907C65.8099 65.752 67.2982 65.752 68.7268 66.0907C68.8572 66.1228 68.9923 66.1388 69.1258 66.1388C69.993 66.1356 70.7219 65.4872 70.8232 64.6286C70.9246 63.7699 70.3663 62.9706 69.5232 62.7668C67.5701 62.2997 65.5332 62.2997 63.58 62.7668C62.6855 63.0091 62.1465 63.9176 62.3637 64.8163C62.5793 65.7151 63.4722 66.2801 64.3796 66.0923L64.3829 66.0923L64.3829 66.0907Z" fill="#C6D963"/>
<path d="M77.6996 71.2686C77.6996 72.2123 76.9322 72.9795 75.9845 72.9795C75.0385 72.9795 74.2711 72.214 74.2711 71.2686C74.2711 70.3249 75.0385 69.5593 75.9845 69.5593C76.9322 69.5593 77.6996 70.3249 77.6996 71.2686Z" fill="#C6D963"/>
<path d="M64.3829 72.9312C65.8099 72.5909 67.2982 72.5909 68.7268 72.9312C68.8572 72.9633 68.9923 72.9793 69.1258 72.9793C69.993 72.9761 70.7219 72.3277 70.8232 71.469C70.9246 70.6088 70.3663 69.8095 69.5232 69.6057C67.5701 69.1386 65.5332 69.1386 63.58 69.6057C62.6855 69.848 62.1465 70.7548 62.3637 71.6536C62.5809 72.5524 63.4722 73.1173 64.3796 72.9296L64.3829 72.9296L64.3829 72.9312Z" fill="#C6D963"/>
<path d="M77.6996 78.1106C77.6996 79.0543 76.9322 79.8199 75.9845 79.8199C75.0385 79.8199 74.2711 79.0543 74.2711 78.1106C74.2711 77.1668 75.0385 76.3997 75.9845 76.3997C76.9322 76.3997 77.6996 77.1652 77.6996 78.1106Z" fill="#C6D963"/>
<path d="M64.3829 79.7732C65.8099 79.4346 67.2982 79.4346 68.7268 79.7732C68.8572 79.8053 68.9923 79.8213 69.1258 79.8213C69.993 79.8197 70.7219 79.1697 70.8232 78.3111C70.9246 77.4524 70.3663 76.6515 69.5232 76.4477C67.5701 75.9807 65.5332 75.9807 63.58 76.4477C62.6855 76.69 62.1465 77.5985 62.3637 78.4972C62.5793 79.396 63.4722 79.961 64.3796 79.7732L64.3829 79.7732Z" fill="#C6D963"/>
<path d="M77.6996 84.9526C77.6996 85.8963 76.9322 86.6619 75.9845 86.6619C75.0385 86.6619 74.2711 85.8963 74.2711 84.9526C74.2711 84.0073 75.0385 83.2417 75.9845 83.2417C76.9322 83.2417 77.6996 84.0073 77.6996 84.9526Z" fill="#C6D963"/>
<path d="M64.3829 86.6138C65.8099 86.2735 67.2982 86.2735 68.7268 86.6138C68.8572 86.6459 68.9923 86.6619 69.1258 86.6619C69.993 86.6587 70.7219 86.0119 70.8232 85.1516C70.9246 84.2914 70.3663 83.4921 69.5232 83.2883C67.5701 82.8212 65.5332 82.8212 63.58 83.2883C62.6855 83.5306 62.1465 84.4374 62.3637 85.3362C62.5793 86.235 63.4722 86.7999 64.3796 86.6122L64.3829 86.6122L64.3829 86.6138Z" fill="#C6D963"/>
<path d="M77.6996 91.7929C77.6996 92.7367 76.9322 93.5022 75.9845 93.5022C75.0385 93.5022 74.2711 92.7367 74.2711 91.7929C74.2711 90.8492 75.0385 90.082 75.9845 90.082C76.9322 90.082 77.6996 90.8476 77.6996 91.7929Z" fill="#C6D963"/>
<path d="M70.7942 92.1909C71.0082 91.2745 70.4419 90.3596 69.5265 90.1381C67.5733 89.6711 65.5364 89.6711 63.5849 90.1381C62.6903 90.3805 62.1513 91.2873 62.3685 92.1861C62.5841 93.0849 63.4771 93.6498 64.3845 93.462C65.8115 93.1234 67.2998 93.1234 68.7284 93.462C68.8588 93.4909 68.9939 93.5038 69.1275 93.5006C69.919 93.5022 70.6076 92.9597 70.7942 92.1909Z" fill="#C6D963"/>
<path d="M91.4154 64.428C91.4154 65.3734 90.648 66.1389 89.702 66.1389C88.7544 66.1389 87.9869 65.3734 87.9869 64.428C87.9869 63.4843 88.7544 62.7188 89.702 62.7188C90.6464 62.7171 91.4154 63.4843 91.4154 64.428Z" fill="#C6D963"/>
<path d="M96.9579 66.0907C98.3866 65.752 99.8732 65.752 101.302 66.0907C101.434 66.1228 101.567 66.1388 101.701 66.1388C102.57 66.1356 103.297 65.4872 103.398 64.6285C103.501 63.7699 102.941 62.9706 102.098 62.7668C100.145 62.2997 98.1083 62.2997 96.1567 62.7668C95.5453 62.8936 95.0498 63.343 94.8664 63.9384C94.683 64.5355 94.8374 65.1839 95.2734 65.6317C95.7078 66.0778 96.353 66.2544 96.9579 66.0907Z" fill="#C6D963"/>
<path d="M91.4154 71.2686C91.4154 72.2123 90.648 72.9795 89.702 72.9795C88.7544 72.9795 87.9869 72.214 87.9869 71.2686C87.9869 70.3249 88.7544 69.5593 89.702 69.5593C90.6464 69.5593 91.4154 70.3249 91.4154 71.2686Z" fill="#C6D963"/>
<path d="M96.9579 72.9312C98.3866 72.5909 99.8732 72.5909 101.302 72.9312C101.434 72.9633 101.567 72.9793 101.701 72.9793C102.57 72.9761 103.297 72.3277 103.398 71.469C103.501 70.6088 102.941 69.8095 102.098 69.6057C100.145 69.1386 98.1083 69.1386 96.1567 69.6057C95.5453 69.7325 95.0498 70.1818 94.8664 70.7773C94.683 71.3744 94.8374 72.0212 95.2734 72.4689C95.7078 72.9183 96.353 73.0949 96.9579 72.9312Z" fill="#C6D963"/>
<path d="M91.4154 78.1106C91.4154 79.0543 90.648 79.8199 89.702 79.8199C88.7544 79.8199 87.9869 79.0543 87.9869 78.1106C87.9869 77.1668 88.7544 76.3997 89.702 76.3997C90.6464 76.3997 91.4154 77.1652 91.4154 78.1106Z" fill="#C6D963"/>
<path d="M96.9579 79.7732C98.3866 79.4346 99.8732 79.4346 101.302 79.7732C101.434 79.8053 101.567 79.8214 101.701 79.8214C102.57 79.8198 103.297 79.1697 103.398 78.3111C103.501 77.4524 102.941 76.6515 102.098 76.4477C100.145 75.9807 98.1083 75.9807 96.1567 76.4477C95.5453 76.5745 95.0498 77.0239 94.8664 77.6209C94.683 78.2164 94.8374 78.8648 95.2734 79.3126C95.7078 79.7588 96.353 79.9353 96.9579 79.7732Z" fill="#C6D963"/>
<path d="M91.4154 84.9526C91.4154 85.8963 90.648 86.6619 89.702 86.6619C88.7544 86.6619 87.9869 85.8963 87.9869 84.9526C87.9869 84.0073 88.7544 83.2417 89.702 83.2417C90.6464 83.2417 91.4154 84.0073 91.4154 84.9526Z" fill="#C6D963"/>
<path d="M96.9579 86.6138C98.3866 86.2735 99.8732 86.2735 101.302 86.6138C101.434 86.6459 101.567 86.6619 101.701 86.6619C102.57 86.6587 103.297 86.0119 103.398 85.1517C103.501 84.2914 102.941 83.4921 102.098 83.2883C100.145 82.8212 98.1083 82.8212 96.1567 83.2883C95.5453 83.4151 95.0498 83.8645 94.8664 84.4599C94.683 85.0554 94.8374 85.7038 95.2734 86.1515C95.7078 86.6009 96.353 86.7775 96.9579 86.6138Z" fill="#C6D963"/>
<path d="M91.4154 91.7929C91.4154 92.7367 90.648 93.5022 89.702 93.5022C88.7544 93.5022 87.9869 92.7367 87.9869 91.7929C87.9869 90.8492 88.7544 90.082 89.702 90.082C90.6464 90.082 91.4154 90.8476 91.4154 91.7929Z" fill="#C6D963"/>
<path d="M96.9579 93.4555C98.3866 93.1169 99.8732 93.1169 101.302 93.4555C101.434 93.4876 101.567 93.5037 101.701 93.5037C102.57 93.5021 103.297 92.8537 103.398 91.9934C103.501 91.1348 102.941 90.3339 102.098 90.1301C100.145 89.663 98.1083 89.663 96.1567 90.1301C95.5453 90.2569 95.0498 90.7063 94.8664 91.3033C94.683 91.8987 94.8374 92.5471 95.2734 92.9949C95.7078 93.4427 96.353 93.6177 96.9579 93.4555Z" fill="#C6D963"/>
<path d="M105.131 28.5111L62.2687 28.5111L62.2687 23.5517C62.2719 21.637 61.2037 19.8811 59.4999 19L38.0036 7.84384C36.0198 6.81345 33.6564 6.81345 31.671 7.84384L10.1748 19.0064C8.47257 19.886 7.40588 21.6386 7.40588 23.5517L7.40588 100.343C7.40588 103.178 9.70819 105.474 12.5495 105.474L50.2665 105.474C51.2141 105.474 51.9815 104.709 51.9815 103.765C51.9815 102.821 51.2141 102.054 50.2665 102.054L48.553 102.054L48.553 83.2407C48.553 81.3516 47.0181 79.8189 45.1245 79.8189L36.5524 79.8189C35.949 79.8221 35.357 79.9874 34.8389 80.2939C34.3192 79.9858 33.7272 79.8221 33.1239 79.8189L24.5517 79.8189C22.6581 79.8189 21.1232 81.35 21.1232 83.2407L21.1232 102.054L12.5495 102.054C11.6018 102.054 10.8344 101.289 10.8344 100.343L10.8344 38.7717L106.844 38.7717L106.844 52.4541C106.844 53.3978 107.612 54.1634 108.558 54.1634C109.505 54.1634 110.273 53.3978 110.273 52.4541L110.273 33.6422C110.275 30.8078 107.971 28.5111 105.131 28.5111ZM45.1245 83.2407L45.1245 102.054L36.5524 102.054L36.5524 83.2407L45.1245 83.2407ZM24.5501 83.2407L33.1222 83.2407L33.1222 102.054L24.5501 102.054L24.5501 83.2407ZM10.8344 23.5517C10.836 22.9145 11.1916 22.3303 11.7595 22.0366L33.2542 10.8804C34.2468 10.3669 35.4278 10.3669 36.4204 10.8804L57.9183 22.043C58.483 22.3367 58.837 22.9161 58.8402 23.5517L58.8402 35.3531L10.8344 35.3531L10.8344 23.5517ZM62.2687 35.3515L62.2687 31.9313L105.131 31.9313C106.077 31.9313 106.846 32.6968 106.846 33.6422L106.846 35.3515L62.2687 35.3515Z" fill="#C6D963"/>
<path d="M34.837 14.8296C30.1021 14.8296 26.2649 18.6591 26.2649 23.3809C26.2649 28.1043 30.1021 31.9322 34.837 31.9322C39.5703 31.9322 43.4091 28.1027 43.4091 23.3809C43.4043 18.6607 39.5687 14.8344 34.837 14.8296ZM34.837 28.512C31.9957 28.512 29.6934 26.2153 29.6934 23.3809C29.6934 20.5481 31.9957 18.2514 34.837 18.2514C37.6767 18.2514 39.9806 20.5481 39.9806 23.3809C39.9806 24.7419 39.4384 26.0467 38.4747 27.0097C37.5094 27.9711 36.2013 28.512 34.837 28.512Z" fill="#C6D963"/>
<path d="M41.6962 93.5023C41.6962 94.4476 40.9287 95.2132 39.9811 95.2132C39.0335 95.2132 38.2676 94.4476 38.2676 93.5023C38.2676 92.5585 39.0351 91.793 39.9811 91.793C40.9271 91.793 41.6962 92.5585 41.6962 93.5023Z" fill="#C6D963"/>
<path d="M31.4089 93.5023C31.4089 94.4476 30.6415 95.2132 29.6954 95.2132C28.7478 95.2132 27.9804 94.4476 27.9804 93.5023C27.9804 92.5585 28.7478 91.793 29.6954 91.793C30.6399 91.793 31.4089 92.5585 31.4089 93.5023Z" fill="#C6D963"/>
<path d="M36.5507 72.9793C36.5507 74.8684 38.0856 76.3995 39.9808 76.3995L48.5529 76.3995C50.4466 76.3995 51.9831 74.8684 51.9831 72.9793L51.9831 59.2969C51.9831 57.4079 50.4482 55.8767 48.5529 55.8767L39.9808 55.8767C38.0872 55.8767 36.5507 57.4079 36.5507 59.2969L36.5507 72.9793ZM39.9808 59.2969L48.5529 59.2969L48.5529 72.9793L39.9808 72.9793L39.9808 59.2969Z" fill="#C6D963"/>
<path d="M29.6938 55.8767L21.1217 55.8767C19.228 55.8767 17.6931 57.4079 17.6931 59.2969L17.6931 72.9793C17.6931 74.8684 19.228 76.3995 21.1217 76.3995L29.6938 76.3995C31.5874 76.3995 33.1223 74.8684 33.1223 72.9793L33.1223 59.2969C33.1223 57.4079 31.5874 55.8767 29.6938 55.8767ZM29.6938 72.9793L21.1217 72.9793L21.1217 59.2969L29.6938 59.2969L29.6938 72.9793Z" fill="#C6D963"/>
<path d="M39.9808 52.4564L48.5529 52.4564C50.4466 52.4564 51.9831 50.9237 51.9831 49.0346L51.9831 45.6144C51.9831 43.7254 50.4482 42.1926 48.5529 42.1926L39.9808 42.1926C38.0872 42.1926 36.5507 43.7238 36.5507 45.6144L36.5507 49.0346C36.5507 50.9237 38.0872 52.4564 39.9808 52.4564ZM39.9808 45.6144L48.5529 45.6144L48.5529 49.0346L39.9808 49.0346L39.9808 45.6144Z" fill="#C6D963"/>
<path d="M77.6995 52.4564C79.5932 52.4564 81.128 50.9237 81.128 49.0346L81.128 45.6144C81.128 43.7254 79.5932 42.1926 77.6995 42.1926L69.1274 42.1926C67.2338 42.1926 65.6989 43.7238 65.6989 45.6144L65.6989 49.0346C65.6989 50.9237 67.2338 52.4564 69.1274 52.4564L77.6995 52.4564ZM69.1258 45.6144L77.6979 45.6144L77.6979 49.0346L69.1258 49.0346L69.1258 45.6144Z" fill="#C6D963"/>
<path d="M96.559 52.4564C98.4526 52.4564 99.9875 50.9237 99.9875 49.0346L99.9875 45.6144C99.9875 43.7254 98.4526 42.1926 96.559 42.1926L87.9868 42.1926C86.0932 42.1926 84.5583 43.7238 84.5583 45.6144L84.5583 49.0346C84.5583 50.9237 86.0932 52.4564 87.9868 52.4564L96.559 52.4564ZM87.9852 45.6144L96.5573 45.6144L96.5573 49.0346L87.9852 49.0346L87.9852 45.6144Z" fill="#C6D963"/>
<path d="M33.1223 45.6144C33.1223 43.7254 31.5874 42.1926 29.6938 42.1926L21.1217 42.1926C19.228 42.1926 17.6931 43.7238 17.6931 45.6144L17.6931 49.0346C17.6931 50.9237 19.228 52.4564 21.1217 52.4564L29.6938 52.4564C31.5874 52.4564 33.1223 50.9237 33.1223 49.0346L33.1223 45.6144ZM29.6938 49.0346L21.1217 49.0346L21.1217 45.6144L29.6938 45.6144L29.6938 49.0346Z" fill="#C6D963"/>
</svg>
