<svg width="109" height="114" viewBox="0 0 109 114" fill="none" xmlns="http://www.w3.org/2000/svg">
<g clip-path="url(#clip0_137:6911)">
<path d="M105.23 39.8461C105.814 38.0978 105.794 36.1928 105.14 34.4269C105.138 34.4203 105.136 34.4159 105.131 34.4092L106.854 31.4094C108.265 28.9525 107.424 25.7981 104.98 24.3787C102.535 22.9594 99.4018 23.8048 97.9909 26.2639L96.2684 29.2637C96.2618 29.266 96.2552 29.266 96.2508 29.266C93.8656 29.6699 91.8051 31.1069 90.5983 33.2106L80.4847 50.8346L80.4847 16.975C80.4847 13.3063 77.518 10.3219 73.871 10.3219L64.9599 10.3219C64.6659 8.23588 62.8841 6.62225 60.7293 6.62225L45.6587 6.62225L45.6587 4.30447C45.6587 1.93149 43.7387 4.00959e-09 41.3798 3.79242e-09L39.2908 3.6001e-09C36.9319 3.38294e-09 35.0119 1.93149 35.0119 4.30447L35.0119 6.62225L19.9414 6.62225C17.7866 6.62225 16.0026 8.23588 15.7085 10.3219L6.79963 10.3219C3.15269 10.3219 0.185974 13.3063 0.185974 16.975L0.185974 106.367C0.185974 110.035 3.15269 113.02 6.79963 113.02L73.871 113.02C77.518 113.02 80.4847 110.035 80.4847 106.367L80.4847 79.6679L87.4187 67.5845C88.7133 67.5978 89.8785 66.9223 90.5127 65.8164L103.696 42.846C105.217 44.155 105.91 45.9386 105.226 47.1306L95.2875 64.4456C94.8333 65.238 95.1032 66.249 95.8887 66.706C96.6765 67.1629 97.6837 66.8914 98.1357 66.1011L108.074 48.7861C109.702 45.9518 108.447 42.1926 105.23 39.8461ZM64.9665 13.633L73.871 13.633C75.7033 13.633 77.1932 15.1319 77.1932 16.975L77.1932 56.5673C76.5568 57.6754 75.3763 59.2648 76.5678 61.2801L73.9017 65.9245L73.9017 23.6547C73.9017 21.8424 72.4359 20.3701 70.6366 20.3701L53.4156 20.3701L53.4156 17.3349L60.7293 17.3349C62.8841 17.3349 64.6768 15.6992 64.9665 13.633ZM38.3034 4.30447C38.3034 3.76586 38.7554 3.31113 39.2908 3.31113L41.3798 3.31113C41.9152 3.31113 42.3673 3.76586 42.3673 4.30447L42.3673 6.62225L38.3034 6.62225L38.3034 4.30447ZM18.9539 10.9267C18.9539 10.3881 19.406 9.93338 19.9414 9.93338L60.7293 9.93338C61.2647 9.93338 61.7167 10.3881 61.7167 10.9267L61.7167 13.0304C61.7167 13.569 61.2647 14.0237 60.7293 14.0237C59.2086 14.0237 21.4598 14.0237 19.9414 14.0237C19.406 14.0237 18.9539 13.569 18.9539 13.0304C18.9539 12.2688 18.9539 11.6883 18.9539 10.9267ZM30.5465 20.3701L30.5465 17.3349L50.122 17.3349L50.122 20.3701L30.5465 20.3701ZM50.122 23.6812L50.122 24.9394C50.122 25.3941 49.7401 25.7782 49.2881 25.7782L31.3803 25.7782C30.9283 25.7782 30.5465 25.3941 30.5465 24.9394L30.5465 23.6812L50.122 23.6812ZM77.1932 106.367C77.1932 108.21 75.7033 109.709 73.871 109.709L6.79963 109.709C4.96738 109.709 3.47744 108.21 3.47744 106.367L3.47744 16.975C3.47744 15.1319 4.96738 13.633 6.79963 13.633L15.7042 13.633C15.996 15.7124 17.7975 17.3326 19.9414 17.3326L27.255 17.3326L27.255 20.3678L10.0341 20.3678C8.23252 20.3678 6.76891 21.8424 6.76891 23.6525L6.76891 103.111C6.76891 104.923 8.23471 106.395 10.0341 106.395L36.2868 106.395C37.1953 106.395 37.9325 105.654 37.9325 104.74C37.9325 103.826 37.1953 103.084 36.2868 103.084L10.0604 103.084L10.0604 23.679L27.255 23.679L27.255 24.9372C27.255 27.2263 29.1048 29.0872 31.3803 29.0872L49.2881 29.0872C51.5636 29.0872 53.4134 27.2263 53.4134 24.9372L53.4134 23.679L70.6081 23.679L70.6081 71.6572L66.8887 78.1426L66.8887 72.2024C66.8887 70.5071 65.5173 69.1297 63.8342 69.1297L34.6147 69.1297C32.9295 69.1297 31.5603 70.5094 31.5603 72.2024L31.5603 94.9168C31.5603 96.6121 32.9317 97.9895 34.6147 97.9895L60.2685 97.9895C60.1214 100.166 62.7919 101.422 64.3565 99.8106L70.6103 93.3716L70.6103 103.086L43.9669 103.086C43.0585 103.086 42.3212 103.828 42.3212 104.742C42.3212 105.656 43.0585 106.398 43.9669 106.398L70.6366 106.398C72.4381 106.398 73.9017 104.923 73.9017 103.113L73.9017 91.1222C74.0224 90.9346 73.6099 91.6454 77.1932 85.4006L77.1932 106.367ZM68.2558 91.056L64.4793 94.9455L65.9386 89.7117C66.779 90.1973 67.4175 90.5704 68.2558 91.056ZM62.8358 86.9193C62.8994 87.1577 62.9938 87.3851 63.1123 87.5948L61.1352 94.6806L34.8517 94.6806L34.8517 72.4386L63.5972 72.4386L63.5972 83.8775L63.3449 84.319C63.1298 84.6898 62.4869 85.6103 62.8358 86.9193ZM71.319 89.0119L66.1668 86.0187C66.1712 86.0098 72.5895 74.8271 72.6532 74.7167L79.1922 63.3242L84.3445 66.3175L71.319 89.0119ZM101.719 39.6673L87.6601 64.163C87.6008 64.2668 87.4933 64.3109 87.3222 64.2248L79.5016 59.682C79.3787 59.6003 79.3173 59.4877 79.3897 59.3597L93.4487 34.864C94.164 33.619 95.3819 32.7691 96.795 32.5307C96.8674 32.5175 96.9705 32.5506 97.032 32.5859L101.89 35.407L101.892 35.407C101.96 35.4467 102.031 35.5129 102.055 35.5836C102.555 36.9345 102.434 38.4223 101.719 39.6673ZM104.003 29.7538L102.689 32.0451C102.406 31.8795 99.8758 30.4116 99.5269 30.2085L100.841 27.9172C101.344 27.0409 102.463 26.7385 103.334 27.244C104.207 27.7517 104.506 28.8774 104.003 29.7538Z" fill="#C6D963"/>
<path d="M22.1138 70.0081C21.484 68.8073 19.7878 68.8603 19.1975 70.0258L13.997 80.1866C13.5801 80.9989 13.8982 81.9966 14.7058 82.416C15.5155 82.8355 16.5073 82.5132 16.922 81.7031L18.1333 79.3345L23.1846 79.3345L24.3958 81.7031C24.8128 82.5154 25.8046 82.8355 26.6121 82.416C27.4196 81.9966 27.7378 80.9989 27.3209 80.1866C27.277 80.0938 22.162 70.1009 22.1138 70.0081ZM19.8295 76.0234L20.6611 74.3987L21.4928 76.0234L19.8295 76.0234Z" fill="#C6D963"/>
<path d="M20.6612 35.5549C16.4525 35.5549 13.0294 38.9985 13.0294 43.2323C13.0294 48.3425 17.9381 52.062 22.8424 50.5874L23.301 51.3512C23.7706 52.1348 24.7822 52.3865 25.5589 51.9163C26.3379 51.4439 26.5881 50.4285 26.1207 49.6449L25.7191 48.9738C27.2968 47.5655 28.2931 45.5148 28.2931 43.2323C28.2909 38.9985 24.8677 35.5549 20.6612 35.5549ZM23.9681 46.049L23.3602 45.0314C22.8907 44.2477 21.8791 43.9961 21.1023 44.4663C20.3233 44.9387 20.0732 45.9541 20.5406 46.7377L21.0409 47.5743C18.4625 47.8017 16.3209 45.7466 16.3209 43.2279C16.3209 40.8196 18.2672 38.8616 20.6612 38.8616C23.0552 38.8616 25.0016 40.8196 25.0016 43.2279C24.9994 44.3051 24.611 45.2896 23.9681 46.049Z" fill="#C6D963"/>
<path d="M58.322 42.0735L40.1268 42.0735C39.2183 42.0735 38.481 42.8152 38.481 43.729C38.481 44.6429 39.2183 45.3846 40.1268 45.3846L58.322 45.3846C59.2304 45.3846 59.9677 44.6429 59.9677 43.729C59.9677 42.8152 59.2304 42.0735 58.322 42.0735Z" fill="#C6D963"/>
<path d="M59.9677 49.9407C59.9677 49.0268 59.2304 48.2852 58.322 48.2852L40.1268 48.2852C39.2183 48.2852 38.481 49.0268 38.481 49.9407C38.481 50.8546 39.2183 51.5963 40.1268 51.5963L58.322 51.5963C59.2304 51.5963 59.9677 50.8546 59.9677 49.9407Z" fill="#C6D963"/>
<path d="M40.1268 54.4968C39.2183 54.4968 38.481 55.2385 38.481 56.1524C38.481 57.0663 39.2183 57.8079 40.1268 57.8079L49.2244 57.8079C50.1328 57.8079 50.8701 57.0663 50.8701 56.1524C50.8701 55.2385 50.1328 54.4968 49.2244 54.4968L40.1268 54.4968Z" fill="#C6D963"/>
<path d="M58.322 75.6924L40.1268 75.6924C39.2183 75.6924 38.481 76.4341 38.481 77.3479C38.481 78.2618 39.2183 79.0035 40.1268 79.0035L58.322 79.0035C59.2304 79.0035 59.9677 78.2618 59.9677 77.3479C59.9677 76.4341 59.2304 75.6924 58.322 75.6924Z" fill="#C6D963"/>
<path d="M58.322 81.9041L40.1268 81.9041C39.2183 81.9041 38.481 82.6457 38.481 83.5596C38.481 84.4735 39.2183 85.2152 40.1268 85.2152L58.322 85.2152C59.2304 85.2152 59.9677 84.4735 59.9677 83.5596C59.9677 82.6457 59.2304 81.9041 58.322 81.9041Z" fill="#C6D963"/>
<path d="M49.2244 88.1157L40.1268 88.1157C39.2183 88.1157 38.481 88.8574 38.481 89.7713C38.481 90.6852 39.2183 91.4268 40.1268 91.4268L49.2244 91.4268C50.1328 91.4268 50.8701 90.6852 50.8701 89.7713C50.8701 88.8574 50.1328 88.1157 49.2244 88.1157Z" fill="#C6D963"/>
<path d="M34.6147 64.3264L63.832 64.3264C65.5172 64.3264 66.8865 62.9468 66.8865 61.2537L66.8865 54.5851C66.8865 53.6712 66.1492 52.9295 65.2407 52.9295C64.3323 52.9295 63.595 53.6712 63.595 54.5851L63.595 61.0153L34.8495 61.0153L34.8495 38.866L63.595 38.866L63.595 46.8613C63.595 47.7752 64.3323 48.5169 65.2407 48.5169C66.1492 48.5169 66.8865 47.7752 66.8865 46.8613L66.8865 38.6299C66.8865 36.9346 65.515 35.5571 63.832 35.5571L34.6147 35.5571C32.9295 35.5571 31.5602 36.9368 31.5602 38.6299L31.5602 61.2559C31.5602 62.949 32.9295 64.3264 34.6147 64.3264Z" fill="#C6D963"/>
</g>
<defs>
<clipPath id="clip0_137:6911">
<rect width="108.601" height="113.02" fill="#C6D963" transform="translate(0.185974)"/>
</clipPath>
</defs>
</svg>
