<svg width="108" height="96" viewBox="0 0 108 96" fill="none" xmlns="http://www.w3.org/2000/svg">
<path d="M29.8014 45.2255C30.8395 45.2255 31.6821 44.3786 31.6821 43.3351L31.6821 38.2803L35.733 44.1763C36.2577 44.9381 37.1755 45.2727 38.018 45.0081C38.8869 44.7359 39.4473 43.9306 39.4473 42.94L39.3439 32.1764C39.3345 31.1386 38.4938 30.3049 37.4632 30.3049L37.4444 30.3049C36.4063 30.3144 35.5713 31.1688 35.5825 32.2142L35.6314 37.3767L31.3473 31.1424C30.879 30.4618 30.0252 30.1669 29.2391 30.4127C28.453 30.6584 27.9189 31.39 27.9189 32.218L27.9189 43.3351C27.9208 44.3805 28.7633 45.2255 29.8014 45.2255Z" fill="#C6D963"/>
<path d="M43.8878 45.2255L48.5142 45.2255C49.5523 45.2255 50.3949 44.3786 50.3949 43.3352C50.3949 42.2917 49.5523 41.4448 48.5142 41.4448L45.7684 41.4448L45.7684 39.7076L48.1738 39.7076C49.2119 39.7076 50.0545 38.8607 50.0545 37.8172C50.0545 36.7737 49.2119 35.9269 48.1738 35.9269L45.7684 35.9269L45.7684 34.1896L48.5142 34.1896C49.5523 34.1896 50.3949 33.3428 50.3949 32.2993C50.3949 31.2558 49.5523 30.4089 48.5142 30.4089L43.8878 30.4089C42.8497 30.4089 42.0071 31.2558 42.0071 32.2993L42.0071 43.337C42.0071 44.3805 42.8497 45.2255 43.8878 45.2255Z" fill="#C6D963"/>
<path d="M74.5426 45.2255C77.119 45.2255 79.2837 43.5544 79.6937 41.2538C80.004 39.5015 79.2385 37.2236 76.1562 36.08C74.8848 35.6093 73.6963 35.097 73.2411 34.8985C73.2035 34.8531 73.1697 34.7813 73.1866 34.6679C73.2167 34.4524 73.4123 34.2747 73.7207 34.182C74.6159 33.9117 75.4885 34.2917 75.9587 34.5639C75.9925 34.5847 76.0565 34.6263 76.1392 34.6849C76.963 35.2652 78.0951 35.0913 78.7063 34.2898L78.7251 34.2652C79.3269 33.4751 79.2235 32.3408 78.4675 31.6962C78.46 31.6906 78.4543 31.6849 78.4506 31.683C77.3052 30.8399 75.0466 29.8323 72.6337 30.562C70.9167 31.0819 69.7018 32.4505 69.461 34.131C69.2335 35.7208 69.9199 37.2501 71.2514 38.1234C71.3342 38.1782 71.4207 38.2255 71.5128 38.2671C71.5768 38.2955 73.1189 38.9854 74.8529 39.6281C75.5863 39.9004 76.0433 40.286 75.9888 40.5903C75.9248 40.9495 75.387 41.4467 74.5407 41.4467C73.5778 41.4467 72.6544 41.061 72.0733 40.4164C71.3586 39.6225 70.1249 39.5809 69.3595 40.3408C68.6204 41.0724 68.673 42.3068 69.3877 43.0648C70.6872 44.4391 72.5566 45.2255 74.5426 45.2255Z" fill="#C6D963"/>
<path d="M53.9003 43.5355C53.9191 43.6263 53.9436 43.7151 53.9737 43.8021C54.2764 44.6546 55.0814 45.2255 55.9803 45.2255L55.9954 45.2255C56.9018 45.2198 57.7068 44.6357 57.9983 43.7737C58.0039 43.7567 58.0095 43.7397 58.0152 43.7227L59.5893 38.6131L61.1559 43.7246C61.1634 43.7492 61.1728 43.7756 61.1803 43.8002C61.4812 44.6546 62.288 45.2255 63.1889 45.2255L63.2039 45.2255C64.1104 45.2198 64.9153 44.6357 65.2068 43.7718C65.2331 43.6943 65.2538 43.613 65.2707 43.5337L67.4391 32.5866C67.6423 31.5621 66.9803 30.5677 65.9609 30.3636C64.9416 30.1594 63.9524 30.8248 63.7493 31.8475L62.8485 36.4014L61.3891 31.6396C61.0825 30.6415 60.0313 30.0819 59.0383 30.39C58.3688 30.598 57.8986 31.1462 57.7557 31.787L56.3339 36.4033L55.4331 31.8286C55.2318 30.804 54.2426 30.1386 53.2233 30.3409C52.204 30.5432 51.542 31.5375 51.7432 32.5621L53.9003 43.5355Z" fill="#C6D963"/>
<path d="M94.3361 5.66626L13.3439 5.66626C9.12744 5.66626 5.69525 9.11615 5.69525 13.3543L5.69525 83.1895C5.69525 87.4296 9.12744 90.8776 13.3439 90.8776L94.3342 90.8776C98.5525 90.8776 101.983 87.4277 101.983 83.1895L101.983 13.3543C101.985 9.11615 98.5525 5.66626 94.3361 5.66626ZM9.45656 13.3543C9.45656 11.1993 11.1999 9.44696 13.3439 9.44696L94.3342 9.44696C96.4781 9.44696 98.2215 11.1993 98.2215 13.3543L98.2215 20.3732L9.45656 20.3732L9.45656 13.3543ZM98.2234 83.1895C98.2234 85.3445 96.48 87.0969 94.3361 87.0969L13.3439 87.0969C11.1999 87.0969 9.45656 85.3445 9.45656 83.1895L9.45656 24.1539L98.2234 24.1539L98.2234 83.1895Z" fill="#C6D963"/>
<path d="M19.6271 13.114L17.0356 13.114C15.9975 13.114 15.1549 13.9609 15.1549 15.0044C15.1549 16.0478 15.9975 16.8947 17.0356 16.8947L19.629 16.8947C20.6671 16.8947 21.5097 16.0478 21.5097 15.0044C21.5078 13.9609 20.6671 13.114 19.6271 13.114Z" fill="#C6D963"/>
<path d="M31.0804 13.114L28.487 13.114C27.4489 13.114 26.6064 13.9609 26.6064 15.0044C26.6064 16.0478 27.4489 16.8947 28.487 16.8947L31.0804 16.8947C32.1185 16.8947 32.9611 16.0478 32.9611 15.0044C32.9611 13.9609 32.1185 13.114 31.0804 13.114Z" fill="#C6D963"/>
<path d="M42.5318 13.114L39.9384 13.114C38.9003 13.114 38.0577 13.9609 38.0577 15.0044C38.0577 16.0478 38.9003 16.8947 39.9384 16.8947L42.5318 16.8947C43.5699 16.8947 44.4125 16.0478 44.4125 15.0044C44.4125 13.9609 43.5699 13.114 42.5318 13.114Z" fill="#C6D963"/>
<path d="M90.6444 13.114L61.1144 13.114C60.0762 13.114 59.2337 13.9609 59.2337 15.0044C59.2337 16.0478 60.0762 16.8947 61.1144 16.8947L90.6444 16.8947C91.6825 16.8947 92.525 16.0478 92.525 15.0044C92.525 13.9609 91.6844 13.114 90.6444 13.114Z" fill="#C6D963"/>
<path d="M20.2571 80.7247L40.177 80.7247C42.272 80.7247 43.9759 79.012 43.9759 76.9062L43.9759 56.0272C43.9759 53.9214 42.272 52.2087 40.177 52.2087L20.2571 52.2087C18.162 52.2087 16.4582 53.9214 16.4582 56.0272L16.4582 76.9062C16.4582 79.012 18.162 80.7247 20.2571 80.7247ZM20.2195 56.0272C20.2195 56.0065 20.2364 55.9894 20.2571 55.9894L40.177 55.9894C40.1976 55.9894 40.2146 56.0065 40.2146 56.0272L40.2146 76.9062C40.2146 76.927 40.1976 76.944 40.177 76.944L20.2571 76.944C20.2364 76.944 20.2195 76.927 20.2195 76.9062L20.2195 56.0272Z" fill="#C6D963"/>
<path d="M26.0042 73.3068C26.5082 73.6036 27.0611 73.751 27.6159 73.751C28.1519 73.751 28.6898 73.613 29.1806 73.3351L36.3892 69.2671C37.3953 68.7 38.0197 67.6263 38.0197 66.4675C38.0197 65.3087 37.3953 64.2369 36.3892 63.6679L29.1806 59.5998C28.1801 59.0365 26.9934 59.046 26.0042 59.6282C25.015 60.2104 24.4245 61.2463 24.4245 62.3995L24.4245 70.5374C24.4245 71.6886 25.015 72.7246 26.0042 73.3068ZM34.548 65.9684C34.548 65.9703 34.548 65.9703 34.548 65.9684V65.9684ZM28.1839 63.373L33.666 66.4675L28.1839 69.5601L28.1839 63.373Z" fill="#C6D963"/>
<path d="M52.1871 54.0991C52.1871 55.1426 53.0297 55.9894 54.0678 55.9894L89.3395 55.9894C90.3776 55.9894 91.2201 55.1426 91.2201 54.0991C91.2201 53.0556 90.3776 52.2087 89.3395 52.2087L54.0678 52.2087C53.0297 52.2087 52.1871 53.0556 52.1871 54.0991Z" fill="#C6D963"/>
<path d="M89.3413 60.4541L54.0678 60.4541C53.0297 60.4541 52.1871 61.301 52.1871 62.3445C52.1871 63.3879 53.0297 64.2348 54.0678 64.2348L89.3395 64.2348C90.3776 64.2348 91.2201 63.3879 91.2201 62.3445C91.2201 61.301 90.3794 60.4541 89.3413 60.4541Z" fill="#C6D963"/>
<path d="M89.3413 76.9438L54.0678 76.9438C53.0297 76.9438 52.1871 77.7907 52.1871 78.8342C52.1871 79.8777 53.0297 80.7246 54.0678 80.7246L89.3395 80.7246C90.3776 80.7246 91.2201 79.8777 91.2201 78.8342C91.2201 77.7907 90.3794 76.9438 89.3413 76.9438Z" fill="#C6D963"/>
<path d="M89.3412 68.698L80.2069 68.698C79.1688 68.698 78.3263 69.5449 78.3263 70.5884C78.3263 71.6318 79.1688 72.4787 80.2069 72.4787L89.3412 72.4787C90.3794 72.4787 91.2219 71.6318 91.2219 70.5884C91.2219 69.5449 90.3794 68.698 89.3412 68.698Z" fill="#C6D963"/>
<path d="M54.0678 72.4787L63.2021 72.4787C64.2402 72.4787 65.0828 71.6318 65.0828 70.5884C65.0828 69.5449 64.2402 68.698 63.2021 68.698L54.0678 68.698C53.0297 68.698 52.1871 69.5449 52.1871 70.5884C52.1871 71.6318 53.0297 72.4787 54.0678 72.4787Z" fill="#C6D963"/>
<path d="M70.1756 71.6394C70.6044 72.2859 71.4131 72.6073 72.1672 72.4296C72.9289 72.25 73.5156 71.594 73.6059 70.8114C73.6962 70.0345 73.2881 69.267 72.5979 68.9079C71.9002 68.5468 71.0257 68.6697 70.4539 69.2084C69.7863 69.836 69.6791 70.8757 70.1756 71.6394Z" fill="#C6D963"/>
</svg>
