<svg width="196" height="27" viewBox="0 0 196 27" fill="none" xmlns="http://www.w3.org/2000/svg">
<path d="M33.7213 5.40234C34.1405 5.34766 34.5142 5.58464 34.8423 6.11328C34.897 6.22266 34.8606 6.44141 34.733 6.76953C34.5507 7.71745 34.4504 8.77474 34.4322 9.94141C34.3775 10.5977 34.2681 11.1992 34.1041 11.7461C34.0494 11.9466 33.9309 12.0742 33.7486 12.1289C33.6757 12.0924 33.6119 12.0013 33.5572 11.8555C33.5207 11.6914 33.3658 11.5729 33.0923 11.5C32.8007 11.4271 32.4908 11.4089 32.1627 11.4453C31.397 11.5182 30.6223 11.6094 29.8384 11.7188C29.7473 11.7188 29.6197 11.8008 29.4556 11.9648C29.2551 12.2201 29.1002 12.1471 28.9908 11.7461L28.9634 11.5C28.9634 9.65885 28.8267 7.95443 28.5533 6.38672C28.4804 6.04036 28.4713 5.85807 28.5259 5.83984C28.6718 5.80339 28.8358 5.80339 29.0181 5.83984C29.1457 5.89453 29.3189 5.91276 29.5377 5.89453C31.1418 5.7487 32.5364 5.58464 33.7213 5.40234ZM32.7369 6.03125L30.6861 6.19531L29.647 6.30469C29.3736 6.39583 29.2825 6.6237 29.3736 6.98828L29.5103 10.8438C29.5103 11.099 29.6653 11.2083 29.9752 11.1719C31.4335 10.9714 32.5181 10.9076 33.2291 10.9805C33.5025 10.9987 33.6666 10.8346 33.7213 10.4883C33.8489 9.44922 33.9127 8.17318 33.9127 6.66016C33.9491 6.38672 33.9035 6.1862 33.7759 6.05859C33.5936 5.96745 33.2473 5.95833 32.7369 6.03125ZM30.3853 7.72656C30.4582 7.61719 30.5767 7.59896 30.7408 7.67188C31.0142 7.74479 31.3606 7.91797 31.7798 8.19141C32.2173 8.41016 32.4543 8.68359 32.4908 9.01172C32.4179 9.44922 32.2082 9.54948 31.8619 9.3125C31.5884 8.98438 31.2785 8.64714 30.9322 8.30078C30.5311 7.95443 30.3489 7.76302 30.3853 7.72656ZM36.8658 12.0195C37.1392 11.7461 37.3944 11.7643 37.6314 12.0742C38.1783 12.7122 38.716 13.3685 39.2447 14.043C39.4452 14.3711 39.5364 14.5534 39.5181 14.5898C38.8801 14.2617 37.996 13.6693 36.8658 12.8125C36.5741 12.5755 36.5741 12.3112 36.8658 12.0195ZM29.4556 14.1523C29.6561 14.043 29.9387 14.1341 30.3033 14.4258C30.4309 14.5169 30.44 14.6901 30.3306 14.9453L29.4283 17.0234C29.3007 17.2969 29.246 17.4427 29.2642 17.4609C29.3007 17.4974 29.4921 17.4883 29.8384 17.4336C30.9869 17.2148 32.1262 17.1146 33.2564 17.1328C33.4205 17.0964 33.5936 17.0781 33.7759 17.0781C34.0676 17.0234 34.2864 17.0143 34.4322 17.0508C34.7239 17.1784 34.9061 17.4154 34.9791 17.7617C34.9791 17.7982 34.9426 17.9076 34.8697 18.0898L34.3775 19.1289C34.1588 19.7852 33.7759 20.4323 33.2291 21.0703C33.0468 21.2344 32.9101 21.2617 32.8189 21.1523C32.8007 21.0977 32.8736 20.9062 33.0377 20.5781C33.3476 20.0312 33.621 19.3841 33.858 18.6367C34.0038 18.2357 34.0403 17.9531 33.9673 17.7891C33.7851 17.625 33.539 17.5612 33.2291 17.5977C32.5728 17.6341 31.9166 17.6888 31.2603 17.7617C30.3124 17.8346 29.6288 17.944 29.2095 18.0898C29.1184 18.1081 28.9726 18.1901 28.772 18.3359C28.2069 18.4818 28.0338 18.2812 28.2525 17.7344C28.927 16.987 29.3371 15.9844 29.483 14.7266C29.4465 14.362 29.4374 14.1706 29.4556 14.1523ZM6.13141 1.41016C6.69651 0.88151 7.23427 0.817708 7.74469 1.21875L7.99078 1.41016C8.59235 1.90234 8.82933 2.28516 8.70172 2.55859C8.59235 2.77734 8.26422 2.88672 7.71735 2.88672H2.16656C1.61969 2.88672 1.30979 2.78646 1.23688 2.58594C1.16396 2.3125 1.39183 2.17578 1.92047 2.17578H4.70953C5.14703 2.17578 5.62099 1.92057 6.13141 1.41016ZM23.0572 1.79297C23.44 1.51953 23.9413 1.61979 24.5611 2.09375C25.0533 2.51302 25.2994 2.76823 25.2994 2.85938C25.2082 3.15104 25.0168 3.33333 24.7252 3.40625C24.4335 3.55208 24.2968 3.88932 24.315 4.41797C24.0963 7.48047 23.6588 10.0326 23.0025 12.0742C22.5832 13.1315 21.7994 13.7604 20.6509 13.9609C19.9947 14.0521 19.6301 13.9245 19.5572 13.5781C19.4296 13.2682 19.2838 13.0404 19.1197 12.8945C18.427 12.5846 18.108 12.3203 18.1627 12.1016C18.2173 11.901 18.5181 11.8555 19.065 11.9648C19.4843 12.0742 19.9035 12.1471 20.3228 12.1836C20.7603 12.1836 21.1796 11.9102 21.5806 11.3633C22.2369 9.55859 22.6379 6.96094 22.7838 3.57031C22.802 3.11458 22.5923 2.88672 22.1548 2.88672H18.7642C18.3267 2.88672 18.0715 3.16016 17.9986 3.70703C17.7798 6.09505 17.1692 8.19141 16.1666 9.99609C14.8723 12.293 13.1041 13.9336 10.8619 14.918C10.315 15.1185 9.98688 15.1367 9.8775 14.9727C9.78636 14.7904 10.0233 14.5352 10.5884 14.207C12.0103 13.4049 13.2499 12.1745 14.3072 10.5156C15.4921 8.36458 16.203 6.04036 16.44 3.54297C16.4582 3.10547 16.2486 2.88672 15.8111 2.88672H11.7369C11.19 2.88672 10.8892 2.78646 10.8345 2.58594C10.7798 2.3125 11.0077 2.17578 11.5181 2.17578H21.9088C22.3463 2.17578 22.7291 2.04818 23.0572 1.79297ZM7.22516 5.01953C7.7538 4.49089 8.29156 4.42708 8.83844 4.82812C9.7499 5.39323 10.078 5.82161 9.82281 6.11328C9.69521 6.36849 9.35797 6.49609 8.8111 6.49609H1.07281C0.52594 6.49609 0.216044 6.39583 0.143127 6.19531C0.0702108 5.92188 0.298075 5.78516 0.826721 5.78516H5.80328C6.24078 5.78516 6.71474 5.52995 7.22516 5.01953ZM12.8033 6.22266C12.9856 5.56641 13.1405 5.23828 13.2681 5.23828C13.414 5.29297 13.4686 5.59375 13.4322 6.14062C13.3957 7.14323 13.0767 8.14583 12.4752 9.14844C12.1106 9.60417 11.7551 9.85026 11.4088 9.88672C10.953 9.99609 10.6431 9.82292 10.4791 9.36719C10.4061 8.98438 10.6249 8.63802 11.1353 8.32812C11.9739 7.72656 12.5298 7.02474 12.8033 6.22266ZM5.61188 8.82031C6.14052 8.3099 6.67828 8.26432 7.22516 8.68359C8.15485 9.2487 8.47386 9.66797 8.18219 9.94141C8.05459 10.1966 7.71735 10.3242 7.17047 10.3242H2.16656C1.61969 10.3242 1.30979 10.224 1.23688 10.0234C1.16396 9.75 1.39183 9.61328 1.92047 9.61328H4.16266C4.60016 9.61328 5.08323 9.34896 5.61188 8.82031ZM5.58453 12.7578C6.13141 12.2474 6.67828 12.2018 7.22516 12.6211C8.13662 13.1497 8.46474 13.569 8.20953 13.8789C8.0637 14.1341 7.71735 14.2617 7.17047 14.2617H2.05719C1.51031 14.2617 1.20953 14.1615 1.15485 13.9609C1.08193 13.6693 1.29156 13.5234 1.78375 13.5234H4.16266C4.60016 13.5234 5.07412 13.2682 5.58453 12.7578ZM15.7838 14.0703C15.8567 13.9062 16.1483 13.9154 16.6588 14.0977C17.2785 14.3346 17.8983 14.6536 18.5181 15.0547C19.8671 15.7656 20.4504 16.6315 20.2681 17.6523C20.1405 17.9258 19.9035 18.026 19.5572 17.9531C19.3749 17.9167 19.1015 17.625 18.7369 17.0781C18.19 16.2031 17.47 15.4466 16.5767 14.8086C15.9569 14.4805 15.6926 14.2344 15.7838 14.0703ZM14.0064 17.0234C14.0064 16.4583 14.2798 16.2305 14.8267 16.3398C15.5741 16.3398 16.039 16.4857 16.2213 16.7773C16.2395 16.8867 16.1483 17.069 15.9478 17.3242C15.7108 17.6159 15.5923 17.9714 15.5923 18.3906V22.7109C15.4283 23.6771 15.8931 24.2057 16.9869 24.2969C18.0077 24.4245 19.1015 24.3789 20.2681 24.1602C20.7603 24.1602 21.0793 23.9505 21.2252 23.5312C21.3892 23.0755 21.5168 22.6198 21.608 22.1641C21.7356 21.6172 21.8996 21.3438 22.1002 21.3438C22.3554 21.362 22.483 21.6719 22.483 22.2734C22.5377 23.1849 22.6744 23.8047 22.8931 24.1328C23.2213 24.3333 23.2577 24.6888 23.0025 25.1992C22.7838 25.4909 22.3098 25.6823 21.5806 25.7734C18.9921 26.1198 16.7772 26.0286 14.9361 25.5C14.3345 25.2448 14.0246 24.7435 14.0064 23.9961V17.0234ZM0.881409 17.625C0.881409 17.0781 1.15485 16.9505 1.70172 17.2422C2.08453 17.5703 2.5038 17.6797 2.95953 17.5703H5.44781C5.88531 17.5703 6.27724 17.4245 6.6236 17.1328C6.93349 16.8776 7.38011 16.9141 7.96344 17.2422C8.07281 17.3333 8.18219 17.3971 8.29156 17.4336C8.65615 17.6523 8.8749 17.7982 8.94781 17.8711C9.14834 18.3451 8.99339 18.6458 8.48297 18.7734C8.08193 18.901 7.9361 19.2201 8.04547 19.7305V25.1172C8.04547 25.7005 7.79026 26.0195 7.27985 26.0742C6.73297 26.1107 6.45953 25.8646 6.45953 25.3359C6.45953 24.8073 6.24078 24.543 5.80328 24.543H3.17828C2.72255 24.543 2.49469 24.8073 2.49469 25.3359C2.65875 25.9922 2.49469 26.3568 2.0025 26.4297C1.03636 26.7943 0.662659 26.5391 0.881409 25.6641V17.625ZM22.1548 17.5703C22.3007 17.4245 22.647 17.5703 23.1939 18.0078C24.6158 19.4844 25.4634 20.8516 25.7369 22.1094C25.8463 22.474 25.7733 22.8385 25.5181 23.2031C25.3176 23.513 25.0077 23.5768 24.5884 23.3945C24.315 23.2487 24.1874 23.0391 24.2056 22.7656C24.0051 21.3073 23.5129 19.9219 22.7291 18.6094C22.2369 18.026 22.0455 17.6797 22.1548 17.5703ZM11.19 18.6367C11.2082 18.0716 11.2994 17.7982 11.4634 17.8164C11.591 17.8711 11.6913 18.2266 11.7642 18.8828C11.8371 19.849 11.7369 20.7786 11.4634 21.6719C11.3176 22.3828 10.953 23.0208 10.3697 23.5859C9.76813 23.9323 9.32151 23.9141 9.02985 23.5312C8.73818 23.1667 8.77464 22.8021 9.13922 22.4375C10.3606 21.3438 11.0442 20.0768 11.19 18.6367ZM6.45953 19.0469C6.45953 18.5547 6.25901 18.3086 5.85797 18.3086H3.17828C2.72255 18.3086 2.49469 18.5273 2.49469 18.9648V23.1484C2.49469 23.6042 2.71344 23.832 3.15094 23.832H5.77594C6.23167 23.832 6.45953 23.6133 6.45953 23.1758V19.0469ZM75.4817 7.97266C75.8281 7.46224 76.1835 7.47135 76.5481 8C77.0039 8.51042 77.4322 9.02995 77.8333 9.55859C78.0703 9.8138 78.2343 10.0508 78.3255 10.2695C78.289 10.306 78.2617 10.3242 78.2434 10.3242C77.8242 10.1237 77.1497 9.66797 76.22 8.95703C76.0377 8.82943 75.8645 8.72005 75.7005 8.62891C75.4453 8.42839 75.3723 8.20964 75.4817 7.97266ZM72.5559 9.47656C72.8658 9.40365 73.2213 9.49479 73.6223 9.75C73.914 9.89583 73.9687 10.069 73.7864 10.2695C73.7317 10.3242 73.6861 10.3971 73.6497 10.4883L73.2395 11.5C73.0572 12.2292 72.6471 12.5299 72.0091 12.4023C71.2434 12.457 70.4322 12.5391 69.5755 12.6484C69.2838 12.6667 69.1015 12.849 69.0286 13.1953C68.8281 14.4896 68.3997 15.5195 67.7434 16.2852C67.3424 16.7591 66.9869 17.069 66.677 17.2148L66.513 17.1875C66.4401 17.1328 66.595 16.9323 66.9778 16.5859C67.4882 15.9661 67.871 15.2734 68.1263 14.5078C68.4179 13.6693 68.4999 12.9492 68.3723 12.3477C68.2265 12.2201 68.1901 12.0924 68.263 11.9648C68.3177 11.9466 68.5182 12.0013 68.8645 12.1289C69.0651 12.2383 69.2747 12.2474 69.4934 12.1562C70.1497 12.0651 70.9244 11.9922 71.8177 11.9375C72.0729 11.901 72.246 11.8646 72.3372 11.8281C72.4283 11.737 72.4921 11.6549 72.5286 11.582C72.6927 11.1081 72.7747 10.7617 72.7747 10.543C72.8294 10.3789 72.7929 10.2331 72.6653 10.1055C72.6106 10.0872 72.4101 10.0872 72.0638 10.1055L70.013 10.3516C69.6666 10.388 69.3203 10.4427 68.9739 10.5156C68.5182 10.5885 68.1171 10.5065 67.7708 10.2695C67.7343 10.0326 67.9075 9.93229 68.2903 9.96875C69.7851 9.91406 71.207 9.75 72.5559 9.47656ZM50.8177 1.21875C50.8177 0.671875 51.082 0.434896 51.6106 0.507812L52.4309 0.671875C52.9049 0.671875 53.1692 0.826823 53.2239 1.13672C52.513 1.8112 52.2486 2.42188 52.4309 2.96875C52.4309 3.53385 52.6406 3.81641 53.0598 3.81641C53.4973 3.81641 53.9166 3.54297 54.3177 2.99609C54.6822 2.48568 55.1289 2.49479 55.6575 3.02344C56.2044 3.57031 56.4414 3.94401 56.3684 4.14453C56.3138 4.39974 56.0312 4.52734 55.5208 4.52734H47.7552C47.2083 4.52734 46.8984 4.42708 46.8255 4.22656C46.7526 3.95312 46.9804 3.81641 47.5091 3.81641H50.1341C50.5898 3.81641 50.8177 3.59766 50.8177 3.16016V1.21875ZM43.4075 1.27344C43.9544 0.763021 44.4921 0.717448 45.0208 1.13672C45.9505 1.70182 46.2695 2.12109 45.9778 2.39453C45.832 2.64974 45.4856 2.77734 44.9388 2.77734H40.7278C40.1809 2.77734 39.871 2.67708 39.7981 2.47656C39.7252 2.20312 39.9531 2.06641 40.4817 2.06641H41.9583C42.3958 2.06641 42.8789 1.80208 43.4075 1.27344ZM57.4895 1.49219C57.4895 0.945312 57.7539 0.708333 58.2825 0.78125L59.1028 0.945312C59.5403 0.945312 59.8046 1.09115 59.8958 1.38281C59.8593 1.7474 59.6497 1.9388 59.2669 1.95703C59.1575 2.06641 59.1028 2.33984 59.1028 2.77734V5.97656C59.121 7.2526 59.1666 8.52865 59.2395 9.80469C59.276 10.2422 59.513 10.4609 59.9505 10.4609H60.8255C61.263 10.4609 61.6822 10.1875 62.0833 9.64062C62.4479 9.13021 62.8945 9.13932 63.4231 9.66797C63.9518 10.2148 64.1979 10.5885 64.1614 10.7891C64.1067 11.0625 63.8151 11.1992 63.2864 11.1992H59.9778C59.5403 11.1992 59.3307 11.4727 59.3489 12.0195C59.4218 13.4049 59.6132 14.9362 59.9231 16.6133C60.0507 17.1055 60.2421 17.069 60.4973 16.5039C60.8984 15.5924 61.2265 14.6172 61.4817 13.5781C61.6093 13.0312 61.9557 12.8672 62.5208 13.0859L63.6145 13.5781C63.9427 13.724 64.0611 13.9062 63.97 14.125C63.9153 14.3255 63.7239 14.4531 63.3958 14.5078C63.2135 14.526 62.9947 14.8177 62.7395 15.3828C62.2109 16.5312 61.6367 17.6797 61.0169 18.8281C60.7799 19.2474 60.7526 19.7396 60.9348 20.3047C61.2812 21.2708 61.664 22.1003 62.0833 22.793C62.4479 23.2669 62.7669 23.2943 63.0403 22.875L63.5872 21.4531C63.7877 20.9062 63.9791 20.6693 64.1614 20.7422C64.3437 20.8151 64.3984 21.125 64.3255 21.6719C64.1979 22.3828 64.0976 23.1211 64.0247 23.8867C63.8789 24.4701 63.9609 25.0169 64.2708 25.5273C64.526 26.2565 64.2708 26.6302 63.5052 26.6484C63.0677 26.6484 62.5208 26.2474 61.8645 25.4453C61.0807 24.4792 60.3789 23.2578 59.7591 21.7812C59.595 21.3438 59.2486 21.4076 58.72 21.9727C56.8606 23.8503 54.9374 25.181 52.9505 25.9648C52.3671 26.2018 52.0299 26.2565 51.9388 26.1289C51.8476 25.9648 52.0755 25.737 52.6223 25.4453C54.9921 24.1146 56.9609 22.319 58.5286 20.0586C58.8385 19.6211 58.9205 19.1289 58.7747 18.582C58.2643 16.194 57.9453 13.9518 57.8177 11.8555C57.7812 11.418 57.5442 11.1992 57.1067 11.1992H47.0989C46.552 11.1992 46.2513 11.099 46.1966 10.8984C46.1236 10.6068 46.3333 10.4609 46.8255 10.4609H51.5286C51.9661 10.4609 52.3033 10.1875 52.5403 9.64062C52.9778 8.45573 53.2421 7.34375 53.3333 6.30469C53.388 5.72135 53.6796 5.45703 54.2083 5.51172C55.0833 5.52995 55.6393 5.65755 55.8763 5.89453C56.0221 6.25911 55.8489 6.48698 55.3567 6.57812C55.1927 6.61458 54.983 6.92448 54.7278 7.50781C54.3997 8.27344 53.9986 9.03906 53.5247 9.80469C53.2695 10.2422 53.3606 10.4609 53.7981 10.4609H57.052C57.4895 10.4609 57.6992 10.1875 57.6809 9.64062C57.5716 6.63281 57.5078 3.91667 57.4895 1.49219ZM60.0598 3.46094C60.2057 3.3151 60.552 3.46094 61.0989 3.89844C62.539 5.39323 63.1132 6.56901 62.8216 7.42578C62.4752 8.08203 62.0195 8.15495 61.4544 7.64453L61.2903 6.96094C61.1627 6.01302 60.8984 5.18359 60.4973 4.47266C60.0963 3.90755 59.9505 3.57031 60.0598 3.46094ZM43.9817 5.07422C44.4921 4.58203 45.0208 4.54557 45.5677 4.96484C46.4973 5.52995 46.8164 5.94922 46.5247 6.22266C46.3789 6.47786 46.0325 6.60547 45.4856 6.60547H39.6341C39.0872 6.60547 38.7864 6.50521 38.7317 6.30469C38.6588 6.01302 38.8684 5.86719 39.3606 5.86719H42.5052C42.9427 5.86719 43.4348 5.60286 43.9817 5.07422ZM48.3567 5.75781C48.5026 5.64844 48.8216 5.83984 49.3138 6.33203C49.6783 6.78776 50.0156 7.42578 50.3255 8.24609C50.5078 8.79297 50.4804 9.23958 50.2434 9.58594C49.97 9.95052 49.6966 10.069 49.4231 9.94141C48.9309 9.72266 48.7395 9.28516 48.8489 8.62891C48.8854 7.95443 48.7851 7.31641 48.5481 6.71484C48.2747 6.16797 48.2109 5.84896 48.3567 5.75781ZM43.0794 8.71094C43.5898 8.20052 44.1002 8.1276 44.6106 8.49219C44.6835 8.58333 44.7565 8.64714 44.8294 8.68359C45.4856 9.21224 45.7591 9.59505 45.6497 9.83203C45.5403 10.0872 45.2213 10.2148 44.6927 10.2148H40.6184C40.0716 10.2148 39.7708 10.1146 39.7161 9.91406C39.6432 9.6224 39.8528 9.47656 40.345 9.47656H41.6302C42.0677 9.47656 42.5507 9.22135 43.0794 8.71094ZM43.1067 12.7305C43.6171 12.2383 44.1458 12.2018 44.6927 12.6211L44.9388 12.8125C45.5039 13.2682 45.7408 13.6237 45.6497 13.8789C45.5221 14.1341 45.1848 14.2617 44.638 14.2617H40.5091C39.9622 14.2617 39.6614 14.1615 39.6067 13.9609C39.5338 13.6693 39.7434 13.5234 40.2356 13.5234H41.6302C42.0677 13.5234 42.5598 13.2591 43.1067 12.7305ZM53.7981 13.4688C54.1627 13.1771 54.6002 13.1862 55.1106 13.4961C55.3658 13.6784 55.621 13.8242 55.8763 13.9336C56.2044 14.0977 56.3229 14.3073 56.2317 14.5625C56.0859 14.9089 55.9036 15.082 55.6848 15.082C55.2838 15.1732 55.1471 15.4922 55.2747 16.0391V21.9727C55.457 22.6289 55.2747 22.9661 54.7278 22.9844C54.0169 23.0208 53.6614 22.8568 53.6614 22.4922C53.6614 22.1094 53.4427 21.918 53.0052 21.918H50.2434C49.7877 21.918 49.5598 22.2096 49.5598 22.793C49.5598 23.3945 49.5416 23.7318 49.5052 23.8047C49.4322 23.8958 49.1953 23.9779 48.7942 24.0508C48.3932 24.1055 48.1653 24.1237 48.1106 24.1055C48.0195 24.0326 47.9739 23.7318 47.9739 23.2031V14.043C47.9739 13.4961 48.2473 13.3685 48.7942 13.6602C49.0677 13.806 49.3958 13.8789 49.7786 13.8789H52.6497C53.0872 13.8789 53.47 13.7422 53.7981 13.4688ZM53.6614 15.2734C53.6614 14.8177 53.4427 14.5898 53.0052 14.5898H50.2434C49.7877 14.5898 49.5598 14.8086 49.5598 15.2461V16.8867C49.5598 17.3424 49.7786 17.5703 50.2161 17.5703H52.9778C53.4335 17.5703 53.6614 17.3516 53.6614 16.9141V15.2734ZM44.3919 17.4883C44.72 17.2148 45.1575 17.2331 45.7044 17.543C46.5429 17.944 46.9075 18.3177 46.7981 18.6641C46.7434 18.9375 46.5885 19.0742 46.3333 19.0742C45.8776 19.2018 45.7135 19.5208 45.8411 20.0312V25.418C45.8411 25.9831 45.5768 26.3112 45.0481 26.4023C44.5195 26.4388 44.2552 26.1654 44.2552 25.582V25.1172C44.2552 24.6615 44.0364 24.4336 43.5989 24.4336H41.4934C41.0377 24.4336 40.8098 24.7253 40.8098 25.3086C40.8098 25.9102 40.7916 26.2474 40.7552 26.3203C40.6822 26.4115 40.4453 26.4935 40.0442 26.5664C39.6432 26.6211 39.4153 26.6393 39.3606 26.6211C39.2695 26.5482 39.2239 26.2474 39.2239 25.7188V17.9805C39.2239 17.4336 39.4973 17.2969 40.0442 17.5703C40.427 17.9349 40.8463 18.0534 41.302 17.9258H43.2434C43.6809 17.9258 44.0638 17.7799 44.3919 17.4883ZM53.6614 19.0469C53.6614 18.5547 53.4609 18.3086 53.0598 18.3086H50.2434C49.7877 18.3086 49.5598 18.5273 49.5598 18.9648V20.5234C49.5598 20.9792 49.7786 21.207 50.2161 21.207H52.9778C53.4335 21.207 53.6614 20.9883 53.6614 20.5508V19.0469ZM44.2552 19.3477C44.2552 18.8737 44.0455 18.6367 43.6263 18.6367H41.4934C41.0377 18.6367 40.8098 18.8555 40.8098 19.293V23.0391C40.8098 23.4948 41.0286 23.7227 41.4661 23.7227H43.5716C44.0273 23.7227 44.2552 23.5039 44.2552 23.0664V19.3477ZM108.875 4.82812C109.076 4.70052 109.312 4.77344 109.586 5.04688C109.732 5.28385 109.768 5.49349 109.695 5.67578C109.513 6.35026 109.294 6.98828 109.039 7.58984C108.93 7.86328 109.039 7.99089 109.367 7.97266C110.242 7.91797 111.108 7.84505 111.965 7.75391C112.311 7.60807 112.658 7.66276 113.004 7.91797C113.241 8.0638 113.25 8.23698 113.031 8.4375C112.995 8.45573 112.803 8.4375 112.457 8.38281C111.91 8.21875 110.798 8.21875 109.121 8.38281C108.848 8.40104 108.638 8.58333 108.492 8.92969C108.273 9.38542 108.073 9.85026 107.891 10.3242C107.745 10.6159 107.663 10.8164 107.645 10.9258C107.663 11.1628 107.836 11.2539 108.164 11.1992C108.893 11.1081 109.622 10.9987 110.352 10.8711C110.643 10.8164 110.689 10.625 110.488 10.2969C110.27 9.8776 110.188 9.66797 110.242 9.66797C110.497 9.6862 110.853 9.95052 111.309 10.4609C111.983 11.1719 112.202 11.7096 111.965 12.0742C111.874 12.1654 111.764 12.1471 111.637 12.0195L111.309 11.6094C111.145 11.3359 110.917 11.2174 110.625 11.2539L108.656 11.5547C108.383 11.5911 108.036 11.6823 107.617 11.8281C107.216 11.8646 106.961 11.6914 106.852 11.3086C106.852 11.1628 106.906 11.0078 107.016 10.8438C107.362 10.4062 107.699 9.75911 108.027 8.90234C108.118 8.61068 108 8.48307 107.672 8.51953C107.234 8.59245 106.806 8.68359 106.387 8.79297C106.004 8.95703 105.648 8.85677 105.32 8.49219C105.211 8.32812 105.339 8.21875 105.703 8.16406L107.918 8.05469C108.191 8.05469 108.392 7.88151 108.52 7.53516C108.866 6.71484 108.984 6.00391 108.875 5.40234C108.839 5.05599 108.839 4.86458 108.875 4.82812ZM116.449 12.1836C116.832 11.9102 117.005 11.8646 116.969 12.0469C116.714 12.5208 116.203 13.2044 115.438 14.0977C115.018 14.7539 114.626 14.8268 114.262 14.3164C114.152 14.1341 114.189 13.9701 114.371 13.8242L116.449 12.1836ZM110.926 14.8906C111.017 14.5443 111.09 14.362 111.145 14.3438C111.363 14.362 111.591 14.5169 111.828 14.8086C112.029 15.0273 111.965 15.2826 111.637 15.5742C111.454 15.793 111.199 16.1393 110.871 16.6133L110.488 17.1328C110.178 17.4792 110.197 17.7799 110.543 18.0352C111.29 18.5638 111.947 19.138 112.512 19.7578C112.749 20.0312 112.73 20.2956 112.457 20.5508C112.184 20.7331 111.874 20.5599 111.527 20.0312C111.163 19.5938 110.689 19.1107 110.105 18.582C109.759 18.2904 109.422 18.2995 109.094 18.6094C107.964 19.6667 106.924 20.3685 105.977 20.7148C105.758 20.7878 105.621 20.8242 105.566 20.8242C105.457 20.806 105.576 20.6784 105.922 20.4414C106.797 19.8581 107.727 19.0924 108.711 18.1445C108.984 17.8711 108.948 17.5885 108.602 17.2969C108.091 16.8594 107.572 16.4583 107.043 16.0938C106.642 15.7474 106.478 15.556 106.551 15.5195C106.715 15.5013 106.906 15.5651 107.125 15.7109C107.708 16.0573 108.383 16.4857 109.148 16.9961C109.422 17.1966 109.695 17.1237 109.969 16.7773C110.479 16.1211 110.798 15.4922 110.926 14.8906ZM100.152 0.808594C100.572 0.334635 101.027 0.34375 101.52 0.835938C102.741 1.72917 102.878 2.3763 101.93 2.77734C101.547 2.88672 101.355 3.13281 101.355 3.51562V25.2266C101.538 26.2109 101.109 26.6211 100.07 26.457C99.8698 26.4023 99.7695 26.0924 99.7695 25.5273C99.7695 24.944 99.5508 24.6523 99.1133 24.6523H80.8477C80.3919 24.6523 80.1641 24.8893 80.1641 25.3633C80.3281 26.3477 79.8086 26.7122 78.6055 26.457C78.5508 26.4023 78.5234 26.1016 78.5234 25.5547V1.10938C78.5234 0.5625 78.7969 0.480469 79.3438 0.863281C79.7995 1.3737 80.2552 1.55599 80.7109 1.41016H98.8945C99.332 1.41016 99.7513 1.20964 100.152 0.808594ZM99.7695 2.80469C99.7695 2.34896 99.5508 2.12109 99.1133 2.12109H80.8477C80.3919 2.12109 80.1641 2.33984 80.1641 2.77734V23.2305C80.1641 23.6862 80.3828 23.9141 80.8203 23.9141H99.0859C99.5417 23.9141 99.7695 23.6953 99.7695 23.2578V2.80469ZM85.0039 4.19922C85.0039 3.63411 85.2682 3.4974 85.7969 3.78906C86.0885 3.95312 86.4167 4.03516 86.7812 4.03516H92.7969C93.2344 4.03516 93.599 3.90755 93.8906 3.65234C94.1823 3.41536 94.5833 3.46094 95.0938 3.78906C95.6042 4.22656 95.8685 4.5 95.8867 4.60938C95.8685 4.77344 95.7409 4.95573 95.5039 5.15625C95.2487 5.30208 95.1211 5.59375 95.1211 6.03125V8.02734C95.1211 8.57422 95.0938 8.88411 95.0391 8.95703C94.9661 9.01172 94.7109 9.05729 94.2734 9.09375C93.7812 9.11198 93.5352 8.95703 93.5352 8.62891C93.5352 8.30078 93.3164 8.13672 92.8789 8.13672H91.5391C91.0833 8.13672 90.8555 8.35547 90.8555 8.79297V9.58594C90.8555 10.0417 91.0742 10.2695 91.5117 10.2695H94.9844C95.4219 10.2695 95.8411 9.99609 96.2422 9.44922C96.6068 8.9388 97.0534 8.94792 97.582 9.47656C98.1289 10.0234 98.375 10.3971 98.3203 10.5977C98.2656 10.8529 97.9831 10.9805 97.4727 10.9805H82.2695C81.7227 10.9805 81.4219 10.8802 81.3672 10.6797C81.3125 10.4062 81.5312 10.2695 82.0234 10.2695H88.5859C89.0417 10.2695 89.2695 10.0508 89.2695 9.61328V8.82031C89.2695 8.36458 89.0508 8.13672 88.6133 8.13672H87.2734C86.8177 8.13672 86.5898 8.23698 86.5898 8.4375C86.6445 8.91146 86.3711 9.13021 85.7695 9.09375C85.2591 9.11198 85.0039 8.82943 85.0039 8.24609V4.19922ZM93.5352 5.42969C93.5352 4.97396 93.3164 4.74609 92.8789 4.74609H87.2734C86.8177 4.74609 86.5898 4.96484 86.5898 5.40234V6.74219C86.5898 7.19792 86.8086 7.42578 87.2461 7.42578H92.8516C93.3073 7.42578 93.5352 7.20703 93.5352 6.76953V5.42969ZM95.4219 12.2656C95.7865 11.974 96.224 11.9831 96.7344 12.293L96.9805 12.457C97.5091 12.7852 97.7917 12.9948 97.8281 13.0859C97.8828 13.487 97.7279 13.7422 97.3633 13.8516C96.8711 14.0339 96.707 14.3711 96.8711 14.8633V21.9453C96.8711 22.5286 96.6068 22.8477 96.0781 22.9023C95.5495 22.9388 95.2852 22.8021 95.2852 22.4922C95.2852 22.1823 95.0664 22.0273 94.6289 22.0273H85.4414C85.0039 22.0273 84.776 22.1185 84.7578 22.3008C84.7578 22.6836 84.5755 22.8568 84.2109 22.8203C83.5 22.875 83.1445 22.6107 83.1445 22.0273V12.8398C83.1445 12.293 83.418 12.1562 83.9648 12.4297C84.2383 12.5938 84.5664 12.6758 84.9492 12.6758H94.2734C94.7109 12.6758 95.0938 12.5391 95.4219 12.2656ZM95.2852 14.125C95.2852 13.6328 95.0846 13.3867 94.6836 13.3867H85.4414C84.9857 13.3867 84.7578 13.6055 84.7578 14.043V20.6328C84.7578 21.0885 84.9766 21.3164 85.4141 21.3164H94.6016C95.0573 21.3164 95.2852 21.0977 95.2852 20.6602V14.125ZM86.5898 15.5469C86.5898 14.9818 86.8542 14.8451 87.3828 15.1367C87.6927 15.4102 88.0755 15.5013 88.5312 15.4102H91.2109C91.6484 15.4102 91.9948 15.3008 92.25 15.082C92.5234 14.8633 92.9427 14.9362 93.5078 15.3008C94.237 15.6836 94.319 16.0664 93.7539 16.4492C93.5534 16.5951 93.4531 16.8776 93.4531 17.2969V19.293C93.4531 19.8398 93.4258 20.1406 93.3711 20.1953C93.3164 20.25 93.0703 20.3047 92.6328 20.3594C92.1771 20.3229 91.9492 20.1589 91.9492 19.8672C91.9492 19.5573 91.7305 19.4023 91.293 19.4023H88.75C88.3125 19.4023 88.0846 19.4935 88.0664 19.6758C88.0846 20.1133 87.8203 20.3047 87.2734 20.25C86.8177 20.2682 86.5898 19.9948 86.5898 19.4297V15.5469ZM91.9492 16.8594C91.9492 16.3672 91.7487 16.1211 91.3477 16.1211H88.75C88.2943 16.1211 88.0664 16.3398 88.0664 16.7773V17.9805C88.0664 18.4362 88.2852 18.6641 88.7227 18.6641H91.2656C91.7214 18.6641 91.9492 18.4453 91.9492 18.0078V16.8594ZM150.089 5.67578C150.471 5.60286 150.872 5.70312 151.292 5.97656C151.365 6.03125 151.41 6.09505 151.428 6.16797C151.465 6.24089 151.374 6.44141 151.155 6.76953C151.009 7.09766 150.882 7.42578 150.772 7.75391C150.572 8.3737 150.234 8.64714 149.76 8.57422C148.995 8.61068 148.111 8.69271 147.108 8.82031C146.835 8.85677 146.671 9.01172 146.616 9.28516C146.525 9.92318 146.333 10.5794 146.042 11.2539C145.75 11.9648 145.203 12.6393 144.401 13.2773C144.31 13.3685 144.191 13.3776 144.046 13.3047C144.009 13.2682 144.137 13.1133 144.428 12.8398C145.285 11.819 145.805 10.6432 145.987 9.3125C146.005 8.92969 145.978 8.64714 145.905 8.46484C145.814 8.30078 145.777 8.20052 145.796 8.16406C145.832 8.1276 146.023 8.16406 146.37 8.27344C146.534 8.38281 146.762 8.39193 147.053 8.30078C147.928 8.20964 148.794 8.13672 149.651 8.08203C149.87 8.0638 150.016 7.95443 150.089 7.75391C150.216 7.40755 150.307 7.08854 150.362 6.79688C150.435 6.41406 150.289 6.22266 149.925 6.22266L146.288 6.71484C146.124 6.7513 145.869 6.70573 145.522 6.57812C145.322 6.50521 145.267 6.3776 145.358 6.19531C147.199 6.08594 148.776 5.91276 150.089 5.67578ZM149.706 14.8906C149.797 14.5443 149.87 14.362 149.925 14.3438C150.143 14.362 150.371 14.5169 150.608 14.8086C150.809 15.0273 150.745 15.2826 150.417 15.5742C150.234 15.793 149.979 16.1393 149.651 16.6133L149.268 17.1328C148.958 17.4792 148.977 17.7799 149.323 18.0352C150.07 18.5638 150.727 19.138 151.292 19.7578C151.529 20.0312 151.51 20.2956 151.237 20.5508C150.964 20.7331 150.654 20.5599 150.307 20.0312C149.943 19.5938 149.469 19.1107 148.885 18.582C148.539 18.2904 148.202 18.2995 147.874 18.6094C146.744 19.6667 145.704 20.3685 144.757 20.7148C144.538 20.7878 144.401 20.8242 144.346 20.8242C144.237 20.806 144.356 20.6784 144.702 20.4414C145.577 19.8581 146.507 19.0924 147.491 18.1445C147.764 17.8711 147.728 17.5885 147.382 17.2969C146.871 16.8594 146.352 16.4583 145.823 16.0938C145.422 15.7474 145.258 15.556 145.331 15.5195C145.495 15.5013 145.686 15.5651 145.905 15.7109C146.488 16.0573 147.163 16.4857 147.928 16.9961C148.202 17.1966 148.475 17.1237 148.749 16.7773C149.259 16.1211 149.578 15.4922 149.706 14.8906ZM128.05 1.35547C128.05 0.808594 128.314 0.571615 128.842 0.644531C129.025 0.644531 129.207 0.671875 129.389 0.726562C129.936 0.835938 130.255 0.927083 130.346 1C130.401 1.10938 130.301 1.36458 130.046 1.76562C129.754 2.13021 129.617 2.39453 129.635 2.55859C129.654 2.66797 129.882 2.72266 130.319 2.72266H135.132C135.569 2.72266 135.961 2.56771 136.307 2.25781C136.617 2.0026 137.064 2.04818 137.647 2.39453L138.632 2.99609C138.814 3.39714 138.704 3.6888 138.303 3.87109C137.775 3.94401 137.583 4.30859 137.729 4.96484C137.729 5.49349 137.811 5.76693 137.975 5.78516C138.139 5.78516 138.477 5.52995 138.987 5.01953C139.516 4.49089 140.053 4.42708 140.6 4.82812C140.691 4.9375 140.783 5.01953 140.874 5.07422C141.439 5.52995 141.667 5.8763 141.557 6.11328C141.43 6.36849 141.092 6.49609 140.546 6.49609H138.413C137.957 6.49609 137.729 6.71484 137.729 7.15234V9.36719C137.729 9.95052 137.465 10.2604 136.936 10.2969C136.408 10.3333 136.143 10.224 136.143 9.96875C136.143 9.69531 135.925 9.55859 135.487 9.55859H130.319C129.863 9.55859 129.635 9.77734 129.635 10.2148V11.2266C129.635 11.6823 129.854 11.9102 130.292 11.9102H135.268C135.706 11.9102 136.189 11.6458 136.717 11.1172C137.246 10.6068 137.793 10.5703 138.358 11.0078L138.686 11.2812C139.178 11.6823 139.37 12.0013 139.26 12.2383C139.133 12.4935 138.796 12.6211 138.249 12.6211H130.319C129.863 12.6211 129.635 12.8398 129.635 13.2773V14.043C129.635 14.4987 129.854 14.7266 130.292 14.7266H137.1C137.538 14.7266 138.039 14.4531 138.604 13.9062C139.151 13.3594 139.698 13.2865 140.245 13.6875L140.518 13.9062C141.193 14.4349 141.475 14.8177 141.366 15.0547C141.238 15.3281 140.919 15.4648 140.409 15.4648H117.85C117.303 15.4648 117.003 15.3646 116.948 15.1641C116.875 14.8724 117.085 14.7266 117.577 14.7266H127.366C127.822 14.7266 128.05 14.5078 128.05 14.0703V13.3047C128.05 12.849 127.831 12.6211 127.393 12.6211H119.71C119.163 12.6211 118.853 12.5208 118.78 12.3203C118.707 12.0469 118.935 11.9102 119.464 11.9102H127.366C127.822 11.9102 128.05 11.6914 128.05 11.2539V10.2422C128.05 9.78646 127.831 9.55859 127.393 9.55859H120.585C120.038 9.55859 119.728 9.45833 119.655 9.25781C119.582 8.96615 119.792 8.82031 120.284 8.82031H127.366C127.822 8.82031 128.05 8.60156 128.05 8.16406V7.17969C128.05 6.72396 127.831 6.49609 127.393 6.49609H117.522C116.975 6.49609 116.675 6.39583 116.62 6.19531C116.565 5.92188 116.784 5.78516 117.276 5.78516H127.366C127.822 5.78516 128.05 5.56641 128.05 5.12891V4.11719C128.05 3.66146 127.831 3.43359 127.393 3.43359H120.967C120.421 3.43359 120.12 3.33333 120.065 3.13281C120.01 2.85938 120.238 2.72266 120.749 2.72266H127.366C127.822 2.72266 128.05 2.50391 128.05 2.06641V1.35547ZM136.143 4.14453C136.143 3.67057 135.934 3.43359 135.514 3.43359H130.319C129.863 3.43359 129.635 3.65234 129.635 4.08984V5.10156C129.635 5.55729 129.854 5.78516 130.292 5.78516H135.46C135.915 5.78516 136.143 5.56641 136.143 5.12891V4.14453ZM136.143 7.17969C136.143 6.72396 135.925 6.49609 135.487 6.49609H130.319C129.863 6.49609 129.635 6.71484 129.635 7.15234V8.13672C129.635 8.59245 129.854 8.82031 130.292 8.82031H135.46C135.915 8.82031 136.143 8.60156 136.143 8.16406V7.17969ZM136.28 17.4883C136.608 17.2148 137.046 17.2331 137.592 17.543C138.431 17.944 138.796 18.3177 138.686 18.6641C138.632 18.9375 138.477 19.0742 138.221 19.0742C137.766 19.2018 137.602 19.5117 137.729 20.0039V25.6094C137.912 26.2656 137.729 26.5938 137.182 26.5938C136.49 26.6302 136.143 26.4661 136.143 26.1016C136.143 25.7188 135.925 25.5273 135.487 25.5273H123.018C122.563 25.5273 122.335 25.6367 122.335 25.8555C122.335 26.0924 122.316 26.2474 122.28 26.3203C122.207 26.4115 121.943 26.5026 121.487 26.5938C120.977 26.612 120.721 26.3294 120.721 25.7461V18.0898C120.721 17.543 120.995 17.4062 121.542 17.6797C121.815 17.8438 122.143 17.9258 122.526 17.9258H135.132C135.569 17.9258 135.952 17.7799 136.28 17.4883ZM136.143 19.3477C136.143 18.8737 135.934 18.6367 135.514 18.6367H123.018C122.563 18.6367 122.335 18.8555 122.335 19.293V20.6328C122.335 21.0885 122.553 21.3164 122.991 21.3164H135.46C135.915 21.3164 136.143 21.0977 136.143 20.6602V19.3477ZM136.143 22.7383C136.143 22.2643 135.934 22.0273 135.514 22.0273H123.018C122.563 22.0273 122.335 22.2461 122.335 22.6836V24.1328C122.335 24.5885 122.553 24.8164 122.991 24.8164H135.46C135.915 24.8164 136.143 24.5977 136.143 24.1602V22.7383ZM185.642 2.88672C185.624 2.64974 185.651 2.50391 185.724 2.44922C185.888 2.39453 186.134 2.51302 186.462 2.80469C186.663 2.89583 186.672 3.06901 186.49 3.32422C186.034 4.03516 185.551 4.71875 185.04 5.375C184.639 5.86719 184.375 6.23177 184.247 6.46875C184.266 6.61458 184.348 6.76953 184.494 6.93359C185.533 7.89974 186.134 8.61979 186.298 9.09375C186.225 9.40365 186.034 9.47656 185.724 9.3125C185.633 9.23958 185.533 9.11198 185.423 8.92969C185.077 8.27344 184.594 7.63542 183.974 7.01562C183.755 6.66927 183.755 6.32292 183.974 5.97656C184.703 4.97396 185.241 4.15365 185.587 3.51562C185.66 3.35156 185.678 3.14193 185.642 2.88672ZM188.787 2.72266C189.096 2.63151 189.379 2.76823 189.634 3.13281C189.671 3.22396 189.57 3.44271 189.333 3.78906L187.611 5.92188C187.41 6.19531 187.31 6.35026 187.31 6.38672C187.328 6.49609 187.401 6.60547 187.529 6.71484C188.513 7.60807 189.087 8.33724 189.251 8.90234C189.288 9.01172 189.206 9.10286 189.005 9.17578C188.841 9.2487 188.677 9.16667 188.513 8.92969C188.149 8.21875 187.647 7.52604 187.009 6.85156C186.626 6.54167 186.636 6.20443 187.037 5.83984C187.565 5.11068 188.076 4.3724 188.568 3.625C188.714 3.33333 188.768 3.13281 188.732 3.02344C188.695 2.85938 188.714 2.75911 188.787 2.72266ZM188.65 10.7344C188.796 10.6068 188.987 10.6341 189.224 10.8164C189.425 10.9987 189.543 11.1628 189.58 11.3086C189.561 11.3997 189.379 11.582 189.033 11.8555L188.294 12.5938C188.021 12.849 188.03 13.0677 188.322 13.25C188.85 13.5234 189.333 13.806 189.771 14.0977C190.063 14.3711 190.218 14.5443 190.236 14.6172C190.126 15.1276 189.862 15.2188 189.443 14.8906C189.188 14.6354 188.841 14.3529 188.404 14.043L187.884 13.6602C187.556 13.4414 187.255 13.4323 186.982 13.6328C185.633 14.5443 184.448 15.0911 183.427 15.2734C183.391 15.237 183.546 15.1185 183.892 14.918C184.84 14.4258 185.697 13.8971 186.462 13.332C186.754 13.1315 186.727 12.931 186.38 12.7305L184.822 11.8828C184.402 11.6458 184.229 11.5091 184.302 11.4727C184.448 11.4727 184.649 11.5182 184.904 11.6094L186.872 12.457C187.182 12.6029 187.492 12.5299 187.802 12.2383C188.094 11.9648 188.331 11.6367 188.513 11.2539C188.568 11.0898 188.613 10.9167 188.65 10.7344ZM191.658 15.875C191.402 15.401 191.475 15.2917 191.876 15.5469L192.806 16.2852C193.098 16.431 193.408 16.3854 193.736 16.1484C194.137 15.875 194.465 15.6198 194.72 15.3828L195.048 15.2188C195.067 15.2188 195.012 15.3919 194.884 15.7383C194.52 16.3945 194.128 17.0508 193.708 17.707C193.289 18.1628 192.906 18.0625 192.56 17.4062L191.658 15.875ZM188.54 17.9531C188.777 17.7891 189.014 17.7435 189.251 17.8164C189.634 17.9987 189.853 18.2539 189.908 18.582C189.962 18.7096 189.88 18.819 189.662 18.9102C189.57 18.9466 189.443 19.056 189.279 19.2383C189.06 19.5299 188.823 19.8945 188.568 20.332C188.458 20.6237 188.54 20.7695 188.814 20.7695C189.251 20.7513 189.57 20.7057 189.771 20.6328C190.136 20.6146 190.491 20.8607 190.837 21.3711C190.856 21.4622 190.71 21.6628 190.4 21.9727C190.181 22.319 189.981 22.6654 189.798 23.0117C189.561 23.4128 189.096 23.9232 188.404 24.543C188.112 24.9622 187.884 25.0169 187.72 24.707C187.702 24.6159 187.857 24.4062 188.185 24.0781C188.969 23.276 189.479 22.4193 189.716 21.5078C189.625 21.2344 189.37 21.1341 188.951 21.207C187.401 21.1888 186.098 21.2891 185.04 21.5078C184.822 21.5625 184.475 21.7174 184.001 21.9727C183.837 22.0456 183.728 22.0456 183.673 21.9727C183.436 21.5716 183.5 21.2526 183.865 21.0156C184.484 20.5964 184.822 20.0586 184.876 19.4023C184.876 19.1107 184.721 18.8464 184.412 18.6094C184.284 18.5365 184.202 18.4544 184.165 18.3633C184.165 18.3268 184.339 18.2812 184.685 18.2266C186.471 18.1536 187.757 18.0625 188.54 17.9531ZM188.158 18.4453C186.918 18.4635 186.07 18.5456 185.615 18.6914C185.305 18.8008 185.205 18.9193 185.314 19.0469C185.587 19.4297 185.496 19.9401 185.04 20.5781C184.767 20.9245 184.803 21.0703 185.15 21.0156C185.861 20.888 186.563 20.8242 187.255 20.8242C187.438 20.8242 187.556 20.806 187.611 20.7695C187.994 20.2044 188.34 19.6302 188.65 19.0469C188.759 18.7734 188.805 18.6185 188.787 18.582C188.659 18.4362 188.449 18.3906 188.158 18.4453ZM172.626 1.16406C172.626 0.580729 172.882 0.334635 173.392 0.425781C173.866 0.480469 174.34 0.5625 174.814 0.671875C175.142 0.927083 175.069 1.22786 174.595 1.57422C174.212 1.86589 174.085 2.48568 174.212 3.43359C174.212 3.88932 174.431 4.11719 174.869 4.11719H177.384C177.822 4.11719 178.232 3.96224 178.615 3.65234C179.034 3.34245 179.499 3.41536 180.009 3.87109C180.994 4.49089 181.249 5.04688 180.775 5.53906C180.647 5.61198 180.465 5.64844 180.228 5.64844C179.809 5.42969 179.28 5.76693 178.642 6.66016C178.095 7.17057 177.749 7.37109 177.603 7.26172C177.439 7.11589 177.521 6.74219 177.849 6.14062L178.068 5.62109C178.214 5.11068 178.095 4.85547 177.712 4.85547H168.853C168.415 4.85547 168.16 5.12891 168.087 5.67578C167.96 6.66016 167.586 7.47135 166.966 8.10938C166.602 8.40104 166.201 8.4375 165.763 8.21875C165.253 7.70833 165.335 7.19792 166.009 6.6875C166.939 5.92188 167.477 5.08333 167.622 4.17188C167.714 3.625 167.841 3.35156 168.005 3.35156C168.151 3.36979 168.224 3.4974 168.224 3.73438C168.224 3.98958 168.443 4.11719 168.88 4.11719H171.943C172.399 4.11719 172.626 3.89844 172.626 3.46094V1.16406ZM159.994 1.35547C160.176 0.772135 160.531 0.589844 161.06 0.808594C161.826 1.08203 162.272 1.35547 162.4 1.62891C162.382 1.72005 162.655 1.9388 163.22 2.28516C164.04 2.77734 164.751 3.37891 165.353 4.08984C165.772 4.61849 165.945 5.07422 165.872 5.45703C165.854 5.82161 165.69 6.04036 165.38 6.11328C164.979 6.27734 164.66 6.1224 164.423 5.64844C163.931 4.66406 163.193 3.6888 162.208 2.72266C161.716 2.33984 161.352 2.33984 161.115 2.72266C159.948 4.92839 158.317 6.88802 156.22 8.60156C155.619 9.23958 155.236 9.33984 155.072 8.90234C155.072 8.79297 155.336 8.47396 155.865 7.94531C157.961 5.70312 159.337 3.50651 159.994 1.35547ZM162.455 5.92188C162.819 5.41146 163.247 5.41146 163.74 5.92188C164.232 6.41406 164.46 6.76042 164.423 6.96094C164.369 7.23438 164.077 7.37109 163.548 7.37109H159.611C159.064 7.37109 158.754 7.27083 158.681 7.07031C158.608 6.79688 158.836 6.66016 159.365 6.66016H161.251C161.689 6.66016 162.09 6.41406 162.455 5.92188ZM168.443 8C168.443 7.4349 168.716 7.35286 169.263 7.75391C169.81 8.33724 170.293 8.55599 170.712 8.41016H175.607C176.044 8.41016 176.409 8.28255 176.701 8.02734C176.992 7.77214 177.393 7.81771 177.904 8.16406C178.797 8.54688 178.934 9.0026 178.314 9.53125C178.059 9.67708 177.931 9.96875 177.931 10.4062V14.8359C177.931 15.3828 177.913 15.6836 177.876 15.7383C177.803 15.793 177.539 15.8385 177.083 15.875C176.591 15.9115 176.345 15.7018 176.345 15.2461C176.345 14.8086 176.126 14.5898 175.689 14.5898H170.74C170.284 14.5898 170.056 14.8086 170.056 15.2461V17.2422C170.056 17.6979 170.275 17.9258 170.712 17.9258H176.072C176.509 17.9258 176.901 17.7799 177.247 17.4883C177.594 17.2148 178.04 17.2422 178.587 17.5703C179.408 17.8802 179.763 18.263 179.654 18.7188C179.544 18.9557 179.371 19.0833 179.134 19.1016C178.733 19.2474 178.587 19.5755 178.697 20.0859V25.2539C178.879 25.9102 178.697 26.2383 178.15 26.2383C177.457 26.293 177.111 26.0469 177.111 25.5C177.111 24.9349 176.892 24.6523 176.455 24.6523H170.74C170.284 24.6523 170.056 24.8984 170.056 25.3906C170.056 25.8828 170.038 26.1654 170.001 26.2383C169.947 26.3112 169.682 26.4023 169.208 26.5117C168.698 26.5299 168.443 26.2383 168.443 25.6367V8ZM156.849 9.42188C156.849 8.875 157.122 8.79297 157.669 9.17578C158.198 9.75911 158.69 9.97786 159.146 9.83203H162.974C163.412 9.83203 163.803 9.67708 164.15 9.36719C164.46 9.11198 164.906 9.15755 165.49 9.50391L166.474 10.1055C166.675 10.6159 166.52 10.9167 166.009 11.0078C165.608 11.1536 165.462 11.4818 165.572 11.9922V17.5703C165.572 18.1354 165.307 18.4544 164.779 18.5273C164.25 18.5456 163.986 18.3359 163.986 17.8984C163.986 17.4427 163.767 17.2148 163.33 17.2148H159.146C158.69 17.2148 158.462 17.4336 158.462 17.8711V19.4297C158.462 19.8854 158.681 20.1133 159.119 20.1133H161.005C161.443 20.1133 161.917 19.8581 162.427 19.3477C162.956 18.819 163.494 18.7552 164.04 19.1562L164.314 19.375C164.843 19.8307 165.07 20.1862 164.997 20.4414C164.906 20.6966 164.587 20.8242 164.04 20.8242H159.146C158.69 20.8242 158.462 21.043 158.462 21.4805V22.793C158.462 23.2487 158.681 23.4766 159.119 23.4766H160.869C161.306 23.4766 161.78 23.2214 162.29 22.7109C162.819 22.1823 163.357 22.1276 163.904 22.5469L164.177 22.7656C164.724 23.2031 164.961 23.5495 164.888 23.8047C164.797 24.0781 164.478 24.2148 163.931 24.2148H159.146C158.69 24.2148 158.462 24.4336 158.462 24.8711C158.481 25.3268 158.462 25.7826 158.408 26.2383C158.043 26.5117 157.578 26.6029 157.013 26.5117C156.904 26.4388 156.849 26.1289 156.849 25.582V9.42188ZM176.345 9.80469C176.345 9.34896 176.126 9.12109 175.689 9.12109H170.74C170.284 9.12109 170.056 9.33984 170.056 9.77734V13.1953C170.056 13.651 170.275 13.8789 170.712 13.8789H175.662C176.117 13.8789 176.345 13.6602 176.345 13.2227V9.80469ZM163.986 11.2539C163.986 10.7799 163.776 10.543 163.357 10.543H159.146C158.69 10.543 158.462 10.7617 158.462 11.1992V12.5391C158.462 12.9948 158.681 13.2227 159.119 13.2227H163.302C163.758 13.2227 163.986 13.0039 163.986 12.5664V11.2539ZM163.986 14.6719C163.986 14.1797 163.785 13.9336 163.384 13.9336H159.146C158.69 13.9336 158.462 14.1523 158.462 14.5898V15.793C158.462 16.2487 158.681 16.4766 159.119 16.4766H163.302C163.758 16.4766 163.986 16.2578 163.986 15.8203V14.6719ZM177.111 19.3477C177.111 18.8737 176.901 18.6367 176.482 18.6367H170.74C170.284 18.6367 170.056 18.8555 170.056 19.293V23.2305C170.056 23.6862 170.275 23.9141 170.712 23.9141H176.427C176.883 23.9141 177.111 23.6953 177.111 23.2578V19.3477Z" fill="#C6D963"/>
</svg>
