<svg width="41" height="129" viewBox="0 0 41 129" fill="none" xmlns="http://www.w3.org/2000/svg">
<path d="M30.5 5.67578C30.6094 5.32943 30.6732 5.14714 30.6914 5.12891C31.0013 5.03776 31.1927 5.12891 31.2656 5.40234C31.4115 5.63932 31.4023 5.83984 31.2383 6.00391L30.1445 7.50781L30.1719 7.58984C30.2083 7.6263 30.3997 7.61719 30.7461 7.5625C31.4023 7.45312 32.1224 7.38932 32.9062 7.37109L34.4375 7.23438C34.9479 7.21615 35.1393 7.53516 35.0117 8.19141C34.7018 9.77734 34.1458 11.1536 33.3438 12.3203C33.0339 12.6667 32.7878 12.7943 32.6055 12.7031C32.5508 12.6667 32.4596 12.4844 32.332 12.1562C32.168 11.7552 32.1133 11.5456 32.168 11.5273C32.7695 12.0013 33.2799 11.7005 33.6992 10.625C34.0091 9.89583 34.1914 9.21224 34.2461 8.57422C34.3919 7.9362 34.1458 7.65365 33.5078 7.72656L32.4688 7.75391C32.1953 7.79036 31.9766 7.98177 31.8125 8.32812C31.2109 9.71354 30.1901 10.9805 28.75 12.1289C28.4036 12.3294 28.2214 12.4023 28.2031 12.3477C28.2031 12.2747 28.3854 12.0742 28.75 11.7461C29.8073 10.7435 30.5729 9.60417 31.0469 8.32812C31.1198 8.03646 31.0195 7.91797 30.7461 7.97266C30.0534 8.11849 29.4336 8.27344 28.8867 8.4375C28.7773 8.4375 28.7044 8.36458 28.668 8.21875C28.6497 8.1276 28.7865 7.94531 29.0781 7.67188C29.862 6.94271 30.3359 6.27734 30.5 5.67578ZM38.9492 12.1836C39.332 11.9102 39.5052 11.8646 39.4688 12.0469C39.2135 12.5208 38.7031 13.2044 37.9375 14.0977C37.5182 14.7539 37.1263 14.8268 36.7617 14.3164C36.6523 14.1341 36.6888 13.9701 36.8711 13.8242L38.9492 12.1836ZM33.7539 14.7812C33.8633 14.3802 33.9453 14.1615 34 14.125C34.1823 14.1615 34.4102 14.3255 34.6836 14.6172C34.793 14.7266 34.8203 14.8451 34.7656 14.9727L34.1641 15.6562L33.207 16.9414C32.9154 17.2695 32.9245 17.5339 33.2344 17.7344C34.0365 18.3177 34.6745 18.8372 35.1484 19.293C35.4036 19.5117 35.5495 19.7031 35.5859 19.8672C35.5677 20.3594 35.3398 20.5234 34.9023 20.3594C34.0273 19.3932 33.3164 18.6914 32.7695 18.2539C32.4961 18.0169 32.1862 18.0443 31.8398 18.3359C30.7096 19.3203 29.7161 19.9857 28.8594 20.332C28.5312 20.5143 28.2578 20.6055 28.0391 20.6055C28.0026 20.569 28.1576 20.4323 28.5039 20.1953C29.4883 19.5573 30.4727 18.7917 31.457 17.8984C31.7305 17.6432 31.7031 17.3789 31.375 17.1055C30.7552 16.6315 30.1445 16.1849 29.543 15.7656C29.1966 15.5104 29.0326 15.3646 29.0508 15.3281C29.1966 15.2734 29.388 15.3099 29.625 15.4375C30.2995 15.7656 31.0378 16.2031 31.8398 16.75C32.1315 16.9688 32.4232 16.9232 32.7148 16.6133C33.2617 15.9935 33.6081 15.3828 33.7539 14.7812ZM16.6914 1.21875C16.6914 0.671875 16.9648 0.44401 17.5117 0.535156C18.1497 0.608073 18.6419 0.726562 18.9883 0.890625C19.0612 0.981771 18.8971 1.3099 18.4961 1.875C18.3685 2.05729 18.3047 2.25781 18.3047 2.47656C18.3047 2.71354 18.5234 2.83203 18.9609 2.83203H21.2578C21.6953 2.83203 22.1875 2.55859 22.7344 2.01172C23.2995 1.44661 23.8555 1.36458 24.4023 1.76562L24.6758 1.98438C25.3503 2.53125 25.6419 2.92318 25.5508 3.16016C25.4232 3.41536 25.0951 3.54297 24.5664 3.54297H18.9883C18.5326 3.54297 18.3047 3.83464 18.3047 4.41797C18.3047 5.01953 18.5234 5.32031 18.9609 5.32031H19.9453C20.3828 5.32031 20.875 5.04688 21.4219 4.5C21.9688 3.95312 22.5156 3.88021 23.0625 4.28125L24.3203 5.26562C24.3385 5.33854 24.3021 5.47526 24.2109 5.67578C24.1016 5.93099 23.7826 6.05859 23.2539 6.05859H12.0703C11.5234 6.05859 11.2227 5.95833 11.168 5.75781C11.0951 5.46615 11.3047 5.32031 11.7969 5.32031H16.0078C16.4635 5.32031 16.6914 5.02865 16.6914 4.44531C16.6914 3.84375 16.4727 3.54297 16.0352 3.54297H10.8672C10.3203 3.54297 10.0195 3.44271 9.96484 3.24219C9.91016 2.96875 10.1289 2.83203 10.6211 2.83203H16.0078C16.4635 2.83203 16.6914 2.61328 16.6914 2.17578V1.21875ZM5.78125 1.27344C6.32812 0.763021 6.86589 0.717448 7.39453 1.13672C8.32422 1.70182 8.64323 2.12109 8.35156 2.39453C8.20573 2.64974 7.85938 2.77734 7.3125 2.77734H2.22656C1.67969 2.77734 1.36979 2.67708 1.29688 2.47656C1.22396 2.20312 1.45182 2.06641 1.98047 2.06641H4.33203C4.76953 2.06641 5.2526 1.80208 5.78125 1.27344ZM6.76562 5.21094C7.29427 4.68229 7.82292 4.6276 8.35156 5.04688L8.57031 5.21094C9.20833 5.70312 9.46354 6.08594 9.33594 6.35938C9.22656 6.59635 8.89844 6.71484 8.35156 6.71484H1.02344C0.476562 6.71484 0.175781 6.61458 0.121094 6.41406C0.0481771 6.1224 0.257812 5.97656 0.75 5.97656H5.31641C5.75391 5.97656 6.23698 5.72135 6.76562 5.21094ZM10.2383 7.72656C10.2383 7.14323 10.4935 6.98828 11.0039 7.26172C11.4414 7.6263 11.8789 7.74479 12.3164 7.61719H22.625C23.0625 7.61719 23.4271 7.48958 23.7188 7.23438C24.0104 6.9974 24.4115 7.0612 24.9219 7.42578C25.7604 7.79036 25.9062 8.22786 25.3594 8.73828C25.0859 8.90234 24.9492 9.20312 24.9492 9.64062C24.9674 10.8073 24.9492 12.0013 24.8945 13.2227C24.8216 13.2773 24.5573 13.3229 24.1016 13.3594C23.6094 13.3776 23.3633 13.1862 23.3633 12.7852C23.3633 12.3841 23.1445 12.1836 22.707 12.1836H12.5352C12.0794 12.1836 11.8516 12.3203 11.8516 12.5938C11.8516 12.8672 11.8333 13.0404 11.7969 13.1133C11.724 13.1862 11.4596 13.2682 11.0039 13.3594C10.4935 13.3776 10.2383 13.1042 10.2383 12.5391V7.72656ZM14.6133 9.06641C14.6133 8.59245 14.4036 8.35547 13.9844 8.35547H12.5352C12.0794 8.35547 11.8516 8.57422 11.8516 9.01172V10.7891C11.8516 11.2448 12.0703 11.4727 12.5078 11.4727H13.9297C14.3854 11.4727 14.6133 11.2539 14.6133 10.8164V9.06641ZM18.9883 9.06641C18.9883 8.59245 18.7786 8.35547 18.3594 8.35547H16.8828C16.4271 8.35547 16.1992 8.57422 16.1992 9.01172V10.7891C16.1992 11.2448 16.418 11.4727 16.8555 11.4727H18.3047C18.7604 11.4727 18.9883 11.2539 18.9883 10.8164V9.06641ZM23.3633 9.06641C23.3633 8.59245 23.1536 8.35547 22.7344 8.35547H21.2852C20.8294 8.35547 20.6016 8.57422 20.6016 9.01172V10.7891C20.6016 11.2448 20.8203 11.4727 21.2578 11.4727H22.6797C23.1354 11.4727 23.3633 11.2539 23.3633 10.8164V9.06641ZM5.64453 9.25781C6.19141 8.7474 6.72005 8.69271 7.23047 9.09375L7.44922 9.25781C8.10547 9.76823 8.37891 10.1419 8.26953 10.3789C8.14193 10.6341 7.8138 10.7617 7.28516 10.7617H2.11719C1.57031 10.7617 1.26953 10.6615 1.21484 10.4609C1.14193 10.1693 1.35156 10.0234 1.84375 10.0234H4.22266C4.66016 10.0234 5.13411 9.76823 5.64453 9.25781ZM5.75391 13.1133C6.31901 12.5846 6.84766 12.5117 7.33984 12.8945L7.55859 13.0586C8.19661 13.569 8.46094 13.9518 8.35156 14.207C8.22396 14.4622 7.89583 14.5898 7.36719 14.5898H2.00781C1.46094 14.5898 1.15104 14.4896 1.07812 14.2891C1.00521 14.0156 1.23307 13.8789 1.76172 13.8789H4.33203C4.76953 13.8789 5.24349 13.6237 5.75391 13.1133ZM20.9844 13.6602C21.3125 13.3867 21.75 13.4049 22.2969 13.7148C23.1354 14.043 23.5 14.4167 23.3906 14.8359C23.4271 14.9635 23.2904 15.1003 22.9805 15.2461C22.543 15.3008 22.3698 15.6471 22.4609 16.2852V22.5742C22.4609 23.1393 22.1966 23.4674 21.668 23.5586C21.1211 23.5951 20.8477 23.4401 20.8477 23.0938C20.8477 22.7474 20.6289 22.5742 20.1914 22.5742H14.3945C13.9388 22.5742 13.7109 22.7109 13.7109 22.9844C13.7109 23.2578 13.6927 23.431 13.6562 23.5039C13.5833 23.5768 13.319 23.6589 12.8633 23.75C12.3529 23.7682 12.0977 23.4948 12.0977 22.9297V14.125C12.0977 13.5781 12.3711 13.4505 12.918 13.7422C13.3008 14.0703 13.7201 14.1797 14.1758 14.0703H19.8359C20.2734 14.0703 20.6562 13.9336 20.9844 13.6602ZM20.8477 15.5195C20.8477 15.0456 20.638 14.8086 20.2188 14.8086H14.3945C13.9388 14.8086 13.7109 15.0273 13.7109 15.4648V16.0391C13.7109 16.4948 13.9297 16.7227 14.3672 16.7227H20.1641C20.6198 16.7227 20.8477 16.5039 20.8477 16.0664V15.5195ZM0.941406 17.625C0.941406 17.0781 1.21484 16.9505 1.76172 17.2422C2.14453 17.5703 2.5638 17.6797 3.01953 17.5703H5.83594C6.27344 17.5703 6.65625 17.4336 6.98438 17.1602C7.27604 16.9049 7.72266 16.9779 8.32422 17.3789C8.67057 17.5612 8.90755 17.7526 9.03516 17.9531C9.16276 18.4271 8.9349 18.7552 8.35156 18.9375C8.29688 18.9922 8.26953 19.2383 8.26953 19.6758V24.4336C8.26953 24.9805 8.2513 25.2812 8.21484 25.3359C8.14193 25.3906 7.85938 25.4453 7.36719 25.5C6.83854 25.5365 6.57422 25.2721 6.57422 24.707C6.57422 24.1602 6.35547 23.8867 5.91797 23.8867H3.23828C2.78255 23.8867 2.55469 24.1055 2.55469 24.543C2.57292 24.9987 2.55469 25.4544 2.5 25.9102C2.40885 26.0195 2.18099 26.0924 1.81641 26.1289C1.23307 26.1654 0.941406 25.901 0.941406 25.3359V17.625ZM20.8477 18.3359C20.8477 17.7344 20.6289 17.4336 20.1914 17.4336H14.3945C13.9388 17.4336 13.7109 17.7253 13.7109 18.3086C13.7109 18.9102 13.9297 19.2109 14.3672 19.2109H20.1641C20.6198 19.2109 20.8477 18.9193 20.8477 18.3359ZM6.57422 19.0469C6.57422 18.5547 6.3737 18.3086 5.97266 18.3086H3.23828C2.78255 18.3086 2.55469 18.5273 2.55469 18.9648V22.4922C2.55469 22.9479 2.77344 23.1758 3.21094 23.1758H5.89062C6.34635 23.1758 6.57422 22.957 6.57422 22.5195V19.0469ZM20.8477 20.6875C20.8477 20.1953 20.6471 19.9492 20.2461 19.9492H14.3945C13.9388 19.9492 13.7109 20.168 13.7109 20.6055V21.1797C13.7109 21.6354 13.9297 21.8633 14.3672 21.8633H20.1641C20.6198 21.8633 20.8477 21.6445 20.8477 21.207V20.6875ZM13.7383 24.2969C14.3398 23.8958 14.8867 23.832 15.3789 24.1055C15.6523 24.2513 15.9258 24.4336 16.1992 24.6523C16.2904 25.1628 16.0898 25.3451 15.5977 25.1992C15.4518 25.1628 15.2695 25.1901 15.0508 25.2812C13.319 26.0104 11.4779 26.4206 9.52734 26.5117C8.98047 26.5117 8.67969 26.4206 8.625 26.2383C8.55208 26.056 8.77995 25.9284 9.30859 25.8555C10.8945 25.6185 12.3711 25.099 13.7383 24.2969ZM18.3594 24.3789C18.3594 24.1237 18.5964 23.9961 19.0703 23.9961C20.7109 24.0326 22.1693 24.224 23.4453 24.5703C23.8464 24.6979 24.2109 24.8711 24.5391 25.0898C24.9401 25.3268 25.1224 25.6367 25.0859 26.0195C24.7396 26.8034 24.2109 26.8945 23.5 26.293C22.1328 25.582 20.7383 25.0625 19.3164 24.7344C18.6966 24.625 18.3776 24.5065 18.3594 24.3789ZM31.1016 38.9102C31.5573 38.8008 31.8854 38.974 32.0859 39.4297C32.1224 39.5755 32.1042 39.7487 32.0312 39.9492C31.9219 40.5326 31.8763 41.362 31.8945 42.4375C31.8763 42.7656 32.0404 42.9206 32.3867 42.9023L33.1523 42.875C33.4258 42.875 33.5716 42.7383 33.5898 42.4648C33.6263 42.0456 33.6354 41.6172 33.6172 41.1797C33.5625 40.888 33.5352 40.6875 33.5352 40.5781C33.5534 40.5052 33.6263 40.4688 33.7539 40.4688C34.2643 40.5964 34.4648 40.8151 34.3555 41.125C34.2643 41.526 34.2096 41.8724 34.1914 42.1641C34.1732 42.8385 34.1367 43.3034 34.082 43.5586C33.918 43.7956 33.8086 43.9141 33.7539 43.9141C33.6081 43.8776 33.5352 43.7591 33.5352 43.5586C33.5352 43.431 33.362 43.3672 33.0156 43.3672L32.332 43.3945C32.0221 43.4128 31.8672 43.5495 31.8672 43.8047V44.8438C31.8672 45.1354 32.0404 45.2721 32.3867 45.2539C33.3164 45.2721 33.9544 45.2448 34.3008 45.1719C34.793 44.9531 35.2578 45.026 35.6953 45.3906C35.8776 45.5911 35.8411 45.7734 35.5859 45.9375L35.2578 45.8828C35.0026 45.8099 34.7474 45.7552 34.4922 45.7188C32.7057 45.7005 30.8464 45.8646 28.9141 46.2109C28.75 46.2292 28.5768 46.2109 28.3945 46.1562C27.9935 45.8828 27.8021 45.7279 27.8203 45.6914C27.875 45.5456 28.0117 45.5 28.2305 45.5547C28.4674 45.6276 28.8138 45.6185 29.2695 45.5273C29.8164 45.4544 30.3724 45.3997 30.9375 45.3633C31.2292 45.3451 31.375 45.1992 31.375 44.9258V43.8867C31.375 43.6133 31.2018 43.4857 30.8555 43.5039C30.418 43.5404 29.8711 43.7227 29.2148 44.0508C29.0508 44.069 28.9414 43.9688 28.8867 43.75C28.832 43.6042 28.8867 43.3398 29.0508 42.957C29.1602 42.556 29.1784 42.0638 29.1055 41.4805C28.9961 41.1341 28.9505 40.9518 28.9688 40.9336C29.1328 40.8971 29.2878 40.9427 29.4336 41.0703C29.6159 41.2344 29.707 41.444 29.707 41.6992C29.6341 42.2826 29.6068 42.6836 29.625 42.9023C29.7161 43.1576 29.944 43.2214 30.3086 43.0938L30.9102 43.0391C31.2018 43.0026 31.3385 42.8112 31.3203 42.4648C31.3385 42.4102 31.3385 42.3372 31.3203 42.2461V40.7148C31.2839 40.1315 31.2109 39.7031 31.1016 39.4297C31.0286 39.2656 30.9922 39.1471 30.9922 39.0742C30.9922 39.0013 31.0286 38.9466 31.1016 38.9102ZM36.2969 45.7461C36.2969 45.6549 36.4518 45.7461 36.7617 46.0195L37.6367 46.9219C37.9831 47.2135 38.3294 47.2135 38.6758 46.9219C39.0586 46.5391 39.4232 46.1562 39.7695 45.7734C39.8607 45.7005 39.9245 45.6641 39.9609 45.6641C39.9974 45.6641 39.9701 45.8372 39.8789 46.1836L38.8125 48.2344C38.4479 48.9453 38.0742 49.0547 37.6914 48.5625L36.2969 45.7461ZM30.9648 47.9883C31.3659 47.8424 31.7214 47.8607 32.0312 48.043C32.1771 48.1706 32.2682 48.4076 32.3047 48.7539C32.3047 49.1003 32.332 49.4648 32.3867 49.8477C32.4232 50.1211 32.6146 50.2487 32.9609 50.2305C33.5443 50.194 34.1367 50.1758 34.7383 50.1758C35.0846 50.1393 35.3581 50.194 35.5586 50.3398C35.7591 50.6133 35.6589 50.7865 35.2578 50.8594C34.7839 50.75 33.9818 50.7318 32.8516 50.8047C32.5964 50.8047 32.487 50.9961 32.5234 51.3789C32.5781 51.8711 32.5872 52.263 32.5508 52.5547C32.4596 52.8828 32.3867 53.0469 32.332 53.0469C32.0039 52.9375 31.6667 52.8464 31.3203 52.7734C30.3724 52.5729 29.7253 52.901 29.3789 53.7578C29.2331 54.2318 29.4518 54.6328 30.0352 54.9609C30.3086 55.125 30.6549 55.207 31.0742 55.207C32.0039 55.2982 33.0065 55.1432 34.082 54.7422C34.5013 54.5964 34.7383 54.5417 34.793 54.5781C34.8659 54.651 34.8932 54.7331 34.875 54.8242C34.875 54.8789 34.7018 55.0156 34.3555 55.2344C33.6992 55.5078 33.0156 55.6992 32.3047 55.8086C31.4844 55.8815 30.7005 55.7812 29.9531 55.5078C29.2969 55.2344 28.8958 54.8333 28.75 54.3047C28.7318 53.3932 29.1419 52.737 29.9805 52.3359C30.2721 52.1901 30.6094 52.1628 30.9922 52.2539H31.375C31.6667 52.3268 31.849 52.2812 31.9219 52.1172C31.9583 51.8802 31.9674 51.625 31.9492 51.3516C31.9128 51.0234 31.7487 50.8685 31.457 50.8867C30.6549 50.9779 29.8346 51.1055 28.9961 51.2695C28.7044 51.3607 28.4401 51.3789 28.2031 51.3242C28.0208 51.2513 27.8932 51.1328 27.8203 50.9688C27.7292 50.8229 27.8659 50.7227 28.2305 50.668C29.2148 50.6315 30.2812 50.5312 31.4297 50.3672C31.7214 50.3307 31.849 50.1484 31.8125 49.8203C31.776 49.3281 31.6393 48.9089 31.4023 48.5625C31.056 48.2161 30.9102 48.0247 30.9648 47.9883ZM10.3477 35.4648C10.3477 34.8815 10.612 34.6354 11.1406 34.7266L11.9336 34.8906C12.3529 34.8542 12.6263 35 12.7539 35.3281C12.0794 36.0026 11.8151 36.5677 11.9609 37.0234V37.543C11.9609 37.9987 12.1797 38.2266 12.6172 38.2266H13.2734C13.7109 38.2266 14.2122 37.9531 14.7773 37.4062C15.3242 36.8594 15.8711 36.7865 16.418 37.1875L16.6914 37.4062C17.3659 37.9349 17.6576 38.3177 17.5664 38.5547C17.4388 38.8281 17.1198 38.9648 16.6094 38.9648H12.6445C12.1888 38.9648 11.9609 39.1836 11.9609 39.6211V42.6016C11.9609 43.0573 12.1797 43.2852 12.6172 43.2852H14.4492C14.8867 43.2852 15.3789 43.0208 15.9258 42.4922C17.9492 40.4505 19.4714 38.418 20.4922 36.3945C20.7839 35.793 21.2487 35.6745 21.8867 36.0391C22.6523 36.4036 23.0625 36.7682 23.1172 37.1328C22.9167 37.5885 22.5794 37.6888 22.1055 37.4336C22.0143 37.4883 21.832 37.6979 21.5586 38.0625C20.5195 39.6484 19.2708 41.1706 17.8125 42.6289C17.4297 43.0664 17.457 43.2852 17.8945 43.2852H20.7109C21.1484 43.2852 21.6406 43.0117 22.1875 42.4648C22.7526 41.8997 23.3086 41.8177 23.8555 42.2188L24.1289 42.4375C24.8034 43.0026 25.0859 43.3945 24.9766 43.6133C24.8672 43.8685 24.5482 43.9961 24.0195 43.9961H17.1016C16.6641 43.9961 16.1719 44.2513 15.625 44.7617C14.0391 46.1289 12.3438 47.3229 10.5391 48.3438C10.4479 48.4714 10.6576 48.5352 11.168 48.5352H17.7578C18.1953 48.5352 18.5872 48.3802 18.9336 48.0703C19.2435 47.8151 19.6901 47.8607 20.2734 48.207L20.6016 48.3984C20.9661 48.6172 21.1849 48.763 21.2578 48.8359C21.4583 49.3099 21.3034 49.6016 20.793 49.7109C20.3919 49.8568 20.2461 50.1849 20.3555 50.6953V59.5547C20.3555 60.1198 20.0911 60.4388 19.5625 60.5117C19.0339 60.5482 18.7695 60.2839 18.7695 59.7188C18.7695 59.1536 18.5508 58.8711 18.1133 58.8711H9.03516C8.57943 58.8711 8.35156 59.099 8.35156 59.5547C8.57031 60.3021 8.27865 60.6211 7.47656 60.5117C6.98438 60.5299 6.73828 60.2565 6.73828 59.6914V50.7773C6.73828 50.3398 6.46484 50.2031 5.91797 50.3672C4.6237 50.7865 3.32943 51.1602 2.03516 51.4883C1.45182 51.5977 1.14193 51.5703 1.10547 51.4062C1.05078 51.2422 1.29688 51.0781 1.84375 50.9141C5.65365 49.8932 9.57292 47.7878 13.6016 44.5977C14.0755 44.1966 14.0938 43.9961 13.6562 43.9961H1.57031C1.02344 43.9961 0.713542 43.8958 0.640625 43.6953C0.567708 43.4219 0.795573 43.2852 1.32422 43.2852H9.66406C10.1198 43.2852 10.3477 43.0664 10.3477 42.6289V39.6484C10.3477 39.1927 10.1289 38.9648 9.69141 38.9648H4.74219C4.19531 38.9648 3.89453 38.8646 3.83984 38.6641C3.76693 38.3724 3.97656 38.2266 4.46875 38.2266H9.66406C10.1198 38.2266 10.3477 38.0078 10.3477 37.5703V35.4648ZM9.33594 49.2461C8.53385 49.1003 8.20573 49.3919 8.35156 50.1211V52.6367C8.35156 53.0924 8.57031 53.3203 9.00781 53.3203H18.0859C18.5417 53.3203 18.7695 53.1016 18.7695 52.6641V49.9297C18.7695 49.474 18.5508 49.2461 18.1133 49.2461H9.33594ZM18.7695 54.7422C18.7695 54.2865 18.5508 54.0586 18.1133 54.0586H9.03516C8.57943 54.0586 8.35156 54.2773 8.35156 54.7148V57.4766C8.35156 57.9323 8.57031 58.1602 9.00781 58.1602H18.0859C18.5417 58.1602 18.7695 57.9414 18.7695 57.5039V54.7422ZM30.5 73.6758C30.6094 73.3294 30.6732 73.1471 30.6914 73.1289C31.0013 73.0378 31.1927 73.1289 31.2656 73.4023C31.4115 73.6393 31.4023 73.8398 31.2383 74.0039L30.1445 75.5078L30.1719 75.5898C30.2083 75.6263 30.3997 75.6172 30.7461 75.5625C31.4023 75.4531 32.1224 75.3893 32.9062 75.3711L34.4375 75.2344C34.9479 75.2161 35.1393 75.5352 35.0117 76.1914C34.7018 77.7773 34.1458 79.1536 33.3438 80.3203C33.0339 80.6667 32.7878 80.7943 32.6055 80.7031C32.5508 80.6667 32.4596 80.4844 32.332 80.1562C32.168 79.7552 32.1133 79.5456 32.168 79.5273C32.7695 80.0013 33.2799 79.7005 33.6992 78.625C34.0091 77.8958 34.1914 77.2122 34.2461 76.5742C34.3919 75.9362 34.1458 75.6536 33.5078 75.7266L32.4688 75.7539C32.1953 75.7904 31.9766 75.9818 31.8125 76.3281C31.2109 77.7135 30.1901 78.9805 28.75 80.1289C28.4036 80.3294 28.2214 80.4023 28.2031 80.3477C28.2031 80.2747 28.3854 80.0742 28.75 79.7461C29.8073 78.7435 30.5729 77.6042 31.0469 76.3281C31.1198 76.0365 31.0195 75.918 30.7461 75.9727C30.0534 76.1185 29.4336 76.2734 28.8867 76.4375C28.7773 76.4375 28.7044 76.3646 28.668 76.2188C28.6497 76.1276 28.7865 75.9453 29.0781 75.6719C29.862 74.9427 30.3359 74.2773 30.5 73.6758ZM31.6484 82.6719C31.7396 82.4714 31.9036 82.4349 32.1406 82.5625C32.3411 82.6536 32.487 82.7448 32.5781 82.8359C32.8698 83.1276 32.9336 83.3828 32.7695 83.6016C31.7487 85.0781 30.7461 86.5638 29.7617 88.0586C29.5794 88.332 29.4974 88.487 29.5156 88.5234C29.6068 88.6328 29.7708 88.6693 30.0078 88.6328C31.4479 88.5417 32.8333 88.3776 34.1641 88.1406C34.3281 88.1224 34.4922 88.1224 34.6562 88.1406C35.0208 88.1224 35.2943 88.3229 35.4766 88.7422C35.4219 88.888 35.3216 88.9518 35.1758 88.9336C34.8477 88.9336 34.5104 88.9062 34.1641 88.8516C32.4505 88.7786 30.7096 88.9883 28.9414 89.4805C28.6315 89.6263 28.431 89.4987 28.3398 89.0977C28.3034 88.8971 28.3034 88.7513 28.3398 88.6602C28.832 88.2773 29.3151 87.7669 29.7891 87.1289C30.4453 86.181 31.056 85.1419 31.6211 84.0117C31.8398 83.7201 31.849 83.2734 31.6484 82.6719ZM11.5508 69.5742C11.8607 69.2826 12.2799 69.2734 12.8086 69.5469C13.1003 69.6927 13.3919 69.8659 13.6836 70.0664C13.8841 70.3398 13.8385 70.5768 13.5469 70.7773C13.401 70.9049 13.5013 71.2422 13.8477 71.7891C14.1029 72.2266 14.3854 72.6641 14.6953 73.1016C15.0234 73.5938 15.4518 73.6029 15.9805 73.1289C16.7096 72.3997 17.3294 71.5339 17.8398 70.5312C18.1315 69.9661 18.5508 69.8112 19.0977 70.0664C19.918 70.3398 20.2643 70.6953 20.1367 71.1328C20.0456 71.3516 19.8451 71.4245 19.5352 71.3516C19.3346 71.3698 18.9974 71.6523 18.5234 72.1992C17.9401 72.8737 17.1836 73.4479 16.2539 73.9219C15.8346 74.1953 15.8438 74.5964 16.2812 75.125L17.3477 76.1914C17.7487 76.556 18.2409 76.5195 18.8242 76.082C20.1367 75.0612 21.1211 73.9766 21.7773 72.8281C22.1237 72.1536 22.5794 72.0078 23.1445 72.3906C23.4727 72.5182 23.8008 72.7917 24.1289 73.2109C24.1471 73.5573 23.9557 73.694 23.5547 73.6211C23.2812 73.6211 22.8984 73.8945 22.4062 74.4414C21.4401 75.4258 20.3646 76.2005 19.1797 76.7656C18.7422 77.0208 18.7422 77.3307 19.1797 77.6953C21.2031 79.0443 23.1172 79.9648 24.9219 80.457C25.4688 80.6393 25.7331 80.7669 25.7148 80.8398C25.7148 80.931 25.5781 81.0495 25.3047 81.1953C25.0312 81.3411 24.7487 81.5417 24.457 81.7969C24.2565 82.1615 23.8464 82.2253 23.2266 81.9883C19.9089 80.5299 16.9922 77.9505 14.4766 74.25C13.9115 73.4115 13.4193 72.5638 13 71.707C12.7448 71.2148 12.5898 71.1146 12.5352 71.4062C11.0039 74.724 8.42448 77.6133 4.79688 80.0742C3.70312 80.8034 2.5 81.4688 1.1875 82.0703C0.622396 82.3255 0.294271 82.362 0.203125 82.1797C0.130208 82.0156 0.367188 81.7786 0.914062 81.4688C5.90885 78.4062 9.23568 75.0247 10.8945 71.3242C11.0586 70.8867 10.9219 70.668 10.4844 70.668H3.375C2.82812 70.668 2.52734 70.5677 2.47266 70.3672C2.41797 70.0938 2.64583 69.957 3.15625 69.957H10.457C10.8945 69.957 11.2591 69.8294 11.5508 69.5742ZM3.23828 72.2812C3.38411 72.1172 3.73047 72.2083 4.27734 72.5547C5.79036 73.6667 6.51042 74.6419 6.4375 75.4805C6.34635 76.1732 5.96354 76.3919 5.28906 76.1367C5.08854 76.0273 4.96094 75.8086 4.90625 75.4805C4.74219 74.7878 4.39583 74.0586 3.86719 73.293C3.33854 72.7643 3.12891 72.4271 3.23828 72.2812ZM14.6953 77.0938C15.0781 76.5833 15.543 76.6016 16.0898 77.1484C16.6003 77.6953 16.8281 78.0781 16.7734 78.2969C16.7005 78.5339 16.3906 78.6523 15.8438 78.6523H9.03516C8.48828 78.6523 8.1875 78.5521 8.13281 78.3516C8.0599 78.0599 8.26953 77.9141 8.76172 77.9141H13.4648C13.9023 77.9141 14.3125 77.6406 14.6953 77.0938ZM17.7031 81.1133C18.0312 80.8398 18.4688 80.8581 19.0156 81.168C19.6354 81.5143 20.0091 81.7969 20.1367 82.0156C20.1914 82.4349 19.9271 82.7083 19.3438 82.8359C19.2161 82.9453 19.1523 83.2188 19.1523 83.6562V87.5391C19.1523 88.1042 18.888 88.4232 18.3594 88.4961C17.8307 88.5143 17.5664 88.3047 17.5664 87.8672C17.5664 87.4115 17.3477 87.1836 16.9102 87.1836H8.13281C7.67708 87.1836 7.44922 87.3568 7.44922 87.7031C7.57682 88.1953 7.41276 88.4688 6.95703 88.5234C6.35547 88.5964 6.02734 88.6146 5.97266 88.5781C5.89974 88.5234 5.86328 88.2227 5.86328 87.6758V81.6875C5.86328 81.1406 6.13672 81.013 6.68359 81.3047C6.95703 81.4505 7.28516 81.5234 7.66797 81.5234H16.5547C16.9922 81.5234 17.375 81.3867 17.7031 81.1133ZM17.5664 82.9727C17.5664 82.4987 17.3568 82.2617 16.9375 82.2617H8.13281C7.67708 82.2617 7.44922 82.4805 7.44922 82.918V85.7891C7.44922 86.2448 7.66797 86.4727 8.10547 86.4727H16.8828C17.3385 86.4727 17.5664 86.2539 17.5664 85.8164V82.9727ZM15.5703 89.3984C15.7161 88.8151 16.0443 88.5964 16.5547 88.7422C17.4479 88.9062 17.9766 89.1523 18.1406 89.4805C18.1953 89.7174 18.0404 89.8815 17.6758 89.9727C17.3477 89.8633 17.056 90.1185 16.8008 90.7383C16.4909 91.2305 16.1445 91.7227 15.7617 92.2148C15.3789 92.6888 15.4062 92.9258 15.8438 92.9258H19.9453C20.3828 92.9258 20.875 92.6523 21.4219 92.1055C21.987 91.5404 22.543 91.4674 23.0898 91.8867L23.3633 92.1055C24.0195 92.6159 24.3021 92.9987 24.2109 93.2539C24.1198 93.5091 23.8008 93.6367 23.2539 93.6367H1.57031C1.02344 93.6367 0.713542 93.5365 0.640625 93.3359C0.567708 93.0625 0.795573 92.9258 1.32422 92.9258H13.5195C13.957 92.9258 14.3216 92.6523 14.6133 92.1055C14.9232 91.4492 15.2422 90.5469 15.5703 89.3984ZM7.69531 89.0703C7.84115 88.9062 8.16927 88.9883 8.67969 89.3164C9.84635 90.319 10.3932 91.1393 10.3203 91.7773C10.1745 92.6523 9.70964 92.8346 8.92578 92.3242C8.77995 91.6497 8.5612 90.9661 8.26953 90.2734C7.75911 89.599 7.56771 89.1979 7.69531 89.0703ZM33.7812 107.402C34.2005 107.348 34.5742 107.585 34.9023 108.113C34.957 108.223 34.9206 108.441 34.793 108.77C34.6107 109.717 34.5104 110.775 34.4922 111.941C34.4375 112.598 34.3281 113.199 34.1641 113.746C34.1094 113.947 33.9909 114.074 33.8086 114.129C33.7357 114.092 33.6719 114.001 33.6172 113.855C33.5807 113.691 33.4258 113.573 33.1523 113.5C32.8607 113.427 32.5508 113.409 32.2227 113.445C31.457 113.518 30.6823 113.609 29.8984 113.719C29.8073 113.719 29.6797 113.801 29.5156 113.965C29.3151 114.22 29.1602 114.147 29.0508 113.746L29.0234 113.5C29.0234 111.659 28.8867 109.954 28.6133 108.387C28.5404 108.04 28.5312 107.858 28.5859 107.84C28.7318 107.803 28.8958 107.803 29.0781 107.84C29.2057 107.895 29.3789 107.913 29.5977 107.895C31.2018 107.749 32.5964 107.585 33.7812 107.402ZM32.7969 108.031L30.7461 108.195L29.707 108.305C29.4336 108.396 29.3424 108.624 29.4336 108.988L29.5703 112.844C29.5703 113.099 29.7253 113.208 30.0352 113.172C31.4935 112.971 32.5781 112.908 33.2891 112.98C33.5625 112.999 33.7266 112.835 33.7812 112.488C33.9089 111.449 33.9727 110.173 33.9727 108.66C34.0091 108.387 33.9635 108.186 33.8359 108.059C33.6536 107.967 33.3073 107.958 32.7969 108.031ZM30.4453 109.727C30.5182 109.617 30.6367 109.599 30.8008 109.672C31.0742 109.745 31.4206 109.918 31.8398 110.191C32.2773 110.41 32.5143 110.684 32.5508 111.012C32.4779 111.449 32.2682 111.549 31.9219 111.312C31.6484 110.984 31.3385 110.647 30.9922 110.301C30.5911 109.954 30.4089 109.763 30.4453 109.727ZM36.9258 114.02C37.1992 113.746 37.4544 113.764 37.6914 114.074C38.2383 114.712 38.776 115.368 39.3047 116.043C39.5052 116.371 39.5964 116.553 39.5781 116.59C38.9401 116.262 38.056 115.669 36.9258 114.812C36.6341 114.576 36.6341 114.311 36.9258 114.02ZM33.4258 116.891C33.5169 116.544 33.5898 116.362 33.6445 116.344C33.8633 116.362 34.0911 116.517 34.3281 116.809C34.5286 117.027 34.4648 117.283 34.1367 117.574C33.9544 117.793 33.6992 118.139 33.3711 118.613L32.9883 119.133C32.6784 119.479 32.6966 119.78 33.043 120.035C33.7904 120.564 34.4466 121.138 35.0117 121.758C35.2487 122.031 35.2305 122.296 34.957 122.551C34.6836 122.733 34.3737 122.56 34.0273 122.031C33.6628 121.594 33.1888 121.111 32.6055 120.582C32.2591 120.29 31.9219 120.299 31.5938 120.609C30.4635 121.667 29.4245 122.368 28.4766 122.715C28.2578 122.788 28.1211 122.824 28.0664 122.824C27.957 122.806 28.0755 122.678 28.4219 122.441C29.2969 121.858 30.2266 121.092 31.2109 120.145C31.4844 119.871 31.4479 119.589 31.1016 119.297C30.5911 118.859 30.0716 118.458 29.543 118.094C29.1419 117.747 28.9779 117.556 29.0508 117.52C29.2148 117.501 29.4062 117.565 29.625 117.711C30.2083 118.057 30.8828 118.486 31.6484 118.996C31.9219 119.197 32.1953 119.124 32.4688 118.777C32.9792 118.121 33.2982 117.492 33.4258 116.891ZM12.918 103.383C13.3008 103.091 13.7656 103.164 14.3125 103.602C15.0417 103.966 15.1875 104.404 14.75 104.914C14.6771 104.969 14.5404 105.023 14.3398 105.078C13.9023 105.06 13.7292 105.379 13.8203 106.035C14.0208 111.887 15.7253 116.9 18.9336 121.074C20.6654 123.335 22.6615 124.984 24.9219 126.023C25.5417 126.279 25.8151 126.479 25.7422 126.625C25.7057 126.734 25.5417 126.816 25.25 126.871C24.9401 127.017 24.6029 127.227 24.2383 127.5C23.8008 127.992 23.2904 128.029 22.707 127.609C19.3346 125.039 16.9466 122.104 15.543 118.805C14.7044 116.854 14.0938 115.095 13.7109 113.527C13.6016 113.053 13.4284 113.145 13.1914 113.801C11.2227 119.889 7.29427 124.529 1.40625 127.719C0.822917 127.992 0.485677 128.056 0.394531 127.91C0.266927 127.71 0.485677 127.445 1.05078 127.117C3.76693 125.568 6.27344 123.079 8.57031 119.652C10.6484 116.553 12.0794 113.272 12.8633 109.809C13.0091 109.371 13.0547 109.007 13 108.715C12.8906 107.548 12.8177 106.382 12.7812 105.215C12.7448 104.777 12.5078 104.559 12.0703 104.559H7.09375C6.54688 104.559 6.24609 104.458 6.19141 104.258C6.11849 103.966 6.33724 103.82 6.84766 103.82H11.7148C12.1523 103.82 12.5534 103.674 12.918 103.383Z" fill="#333333"/>
</svg>
