<svg width="562" height="859" viewBox="0 0 562 859" fill="none" xmlns="http://www.w3.org/2000/svg">
<path d="M-3.75481e-05 0L0 859L561.801 859L561.801 -2.45571e-05L-3.75481e-05 0Z" fill="#85582D"/>
<path d="M0.272378 -3.67849e-05L-3.75481e-05 -3.6773e-05L0 859L423.152 429.529L0.272378 -3.67849e-05Z" fill="#99692B"/>
<path d="M560.758 -0.000124844L155.756 429.458L561.801 858.162L561.801 -0.00012489L560.758 -0.000124844Z" fill="#99692B"/>
<path opacity="0.4" d="M12.0022 11.0128L12.0022 847.988L549.798 847.988L549.798 11.0128L12.0022 11.0128Z" fill="#85582D"/>
<path d="M23.5654 22.7214L23.5654 836.279L538.236 836.279L538.236 22.7214L23.5654 22.7214Z" fill="#003E27"/>
<path d="M25.8283 28.5755L25.8284 830.425L528.37 830.425L528.37 28.5755L25.8283 28.5755Z" fill="#1D4A2D"/>
</svg>
