<svg width="630" height="439" viewBox="0 0 630 439" fill="none" xmlns="http://www.w3.org/2000/svg">
<g clip-path="url(#clip0_210:145)">
<path d="M353.016 333.276C359.95 334.612 363.478 334.552 365.12 333.215C348.333 327.443 337.628 325.863 332.701 325.438C333.37 327.868 339.757 330.663 353.016 333.276Z" fill="#545B9B"/>
<path d="M344.137 323.857C349.185 324.465 352.044 324.951 352.165 321.123C348.516 320.637 344.076 320.272 340.305 320.637C340.244 321.913 340.852 323.492 344.137 323.857Z" fill="#DFEFE7"/>
<path d="M357.214 325.923C355.633 325.315 355.207 322.946 355.086 321.548C354.173 321.427 353.2 321.244 352.105 321.123C352.044 324.951 349.125 324.404 344.077 323.857C340.853 323.492 340.184 321.913 340.245 320.637C336.474 321.001 333.432 322.156 332.642 324.647C332.581 324.89 332.642 325.133 332.642 325.437C337.508 325.862 348.273 327.503 365.061 333.214C366.52 332.06 366.459 329.872 365.973 326.956C362.993 327.442 359.039 326.652 357.214 325.923Z" fill="#8286C1"/>
<path d="M363.965 270.995L359.769 314.075C361.654 314.257 364.33 314.622 366.459 315.533C367.858 298.642 370.048 271.603 370.048 271.603L363.965 270.995Z" fill="#F4D9BF"/>
<path d="M358.977 322.278C358.977 322.278 357.457 321.914 355.085 321.549C355.206 322.947 355.632 325.316 357.214 325.924C359.038 326.653 362.992 327.443 366.033 326.957C365.911 326.288 365.79 325.62 365.668 324.891C365.85 322.521 366.155 319.24 366.459 315.473C364.33 314.561 361.654 314.197 359.768 314.015L358.977 322.278Z" fill="#DFEFE7"/>
<path d="M417.307 327.32C417.307 327.32 422.599 327.563 425.761 327.381C427.829 327.259 429.411 325.74 430.262 324.707C429.837 324.586 429.411 324.403 428.924 324.282C424.788 323.006 420.652 322.702 417.368 322.702C417.185 324.16 417.064 326.105 417.307 327.32Z" fill="#DFEFE7"/>
<path d="M408.062 313.345L397.782 268.625L392.248 269.597L401.736 314.864C403.135 314.317 405.446 313.588 408.062 313.345Z" fill="#F4D9BF"/>
<path d="M430.322 324.707C429.471 325.74 427.828 327.259 425.821 327.381C422.658 327.563 417.367 327.32 417.367 327.32C417.124 326.044 417.245 324.16 417.428 322.702C416.15 322.702 415.056 322.763 414.082 322.824C413.474 323.857 412.866 325.376 412.805 327.442C409.277 328.171 405.446 328.839 403.438 329.143C403.499 330.237 403.621 331.452 403.986 332.849C404.594 335.827 415.116 335.28 427.707 332.789C439.567 330.48 438.412 327.442 430.322 324.707Z" fill="#8286C1"/>
<path d="M414.021 322.885C411.771 323.068 410.372 323.311 410.372 323.311L408.061 313.346C405.506 313.589 403.134 314.318 401.796 314.804L403.864 324.526C403.864 324.526 403.256 326.167 403.377 329.083C405.324 328.779 409.216 328.111 412.744 327.382C412.805 325.377 413.352 323.918 414.021 322.885Z" fill="#DFEFE7"/>
<g opacity="0.5">
<path opacity="0.5" d="M363.966 270.994L363.54 275.247C365.061 275.612 367.129 275.977 369.622 276.22C369.866 273.364 369.987 271.663 369.987 271.663L363.966 270.994Z" fill="#F4D9BF"/>
<path opacity="0.5" d="M397.785 268.625L392.25 269.597L393.284 274.397C395.048 273.972 396.872 273.486 398.819 272.878L397.785 268.625Z" fill="#F4D9BF"/>
</g>
<path d="M371.264 176.633C371.264 176.633 366.459 177.787 364.391 178.881C366.824 188.116 365.668 222.872 343.954 265.344C362.505 278.408 405.994 271.481 416.273 261.577C398.999 219.53 392.795 196.805 390.18 179.185C386.53 176.268 378.441 175.782 371.264 176.633Z" fill="#F6B9C6"/>
<path d="M364.938 182.101C373.393 184.532 382.09 183.985 390.667 182.466C390.484 181.312 390.302 180.218 390.119 179.185C386.47 176.329 378.38 175.843 371.203 176.633C371.203 176.633 366.398 177.787 364.33 178.881C364.634 179.732 364.817 180.825 364.938 182.101Z" fill="#F6B9C6"/>
<path d="M384.341 230.406C390.666 230.042 396.931 228.887 403.013 227.004C401.797 223.54 400.702 220.32 399.668 217.221C393.282 219.53 386.469 220.502 379.596 220.988C373.392 221.414 366.884 221.353 361.349 218.619C360.68 221.414 359.951 224.391 359.038 227.368C366.215 231.075 377.346 230.832 384.341 230.406Z" fill="#A5C627"/>
<path d="M384.889 255.987C394.013 254.893 403.014 252.888 411.408 249.364C409.887 245.475 408.428 241.708 407.09 238.184C406.056 238.548 405.082 238.913 404.048 239.277C396.81 242.072 389.694 244.017 381.97 244.989C372.968 246.083 362.141 247.541 353.504 243.834C352.349 246.933 351.011 250.032 349.612 253.252C360.621 257.87 373.211 257.323 384.889 255.987Z" fill="#A5C627"/>
<path d="M380.144 259.693C369.378 260.665 358.126 260.848 348.09 256.655C346.813 259.511 345.414 262.367 343.954 265.283C362.505 278.347 405.994 271.42 416.273 261.516C414.874 258.113 413.536 254.832 412.319 251.733C402.223 256.291 391.214 258.66 380.144 259.693Z" fill="#A5C627"/>
<path d="M383.368 241.648C390.301 240.736 396.809 239.278 403.378 236.726C404.291 236.361 405.264 236.058 406.176 235.693C405.386 233.627 404.656 231.561 403.987 229.617C397.843 231.804 391.335 233.263 384.888 233.627C378.502 233.992 371.994 233.809 365.668 232.716C362.992 232.23 360.376 231.865 358.004 230.893C357.092 233.931 355.997 237.091 354.841 240.311C363.478 244.139 374.427 242.802 383.368 241.648Z" fill="#A5C627"/>
<path d="M379.598 217.707C386.166 217.282 392.614 216.492 398.818 214.548C397.601 210.659 396.506 207.074 395.533 203.672C390.059 205.494 384.585 207.013 378.746 207.56C373.941 207.986 368.284 208.533 363.662 206.649C363.236 209.262 362.75 211.996 362.141 214.791C367.433 217.707 373.637 218.072 379.598 217.707Z" fill="#A5C627"/>
<path d="M381.362 204.097C385.985 203.611 390.425 202.396 394.804 201.059C394.257 198.932 393.709 196.866 393.223 194.861C384.403 197.96 374.124 197.474 365.001 195.469C364.818 197.717 364.575 200.208 364.271 202.821C369.258 205.434 376.01 204.705 381.362 204.097Z" fill="#A5C627"/>
<path d="M392.613 192.188C392.065 189.818 391.64 187.631 391.214 185.443C382.577 187.144 373.758 187.995 365.242 185.99C365.303 187.752 365.303 189.696 365.242 191.823C373.879 193.828 383.854 194.679 392.613 192.188Z" fill="#A5C627"/>
<g opacity="0.5">
<path opacity="0.5" d="M390.18 179.124C386.531 176.268 378.441 175.782 371.264 176.572C371.264 176.572 369.257 177.058 367.311 177.726C367.067 180.947 367.189 186.962 371.629 187.934C375.279 188.785 376.252 185.139 376.252 185.139C376.252 185.139 382.334 190.365 386.105 183.499C386.105 183.499 393.221 235.936 409.826 265.526C412.502 264.25 414.753 262.914 416.273 261.455C399 219.469 392.796 196.745 390.18 179.124Z" fill="#F6B9C6"/>
</g>
<path d="M364.392 178.82C364.392 178.82 359.77 185.2 347.362 204.886C337.022 218.193 335.319 219.955 335.319 219.955C335.319 219.955 327.898 217.525 327.412 218.801C326.925 220.077 332.825 221.353 332.825 221.353C332.825 221.353 325.952 223.722 326.073 224.573C326.195 225.424 333.311 223.297 333.311 223.297C333.311 223.297 327.655 229.373 329.297 230.285C330.939 231.196 334.954 224.087 334.954 224.087C334.954 224.087 334.832 233.383 336.292 233.14C337.752 232.897 337.752 223.662 337.752 223.662C337.752 223.662 341.705 229.798 342.435 229.009C343.165 228.219 339.15 220.381 339.15 220.381C339.15 220.381 359.952 200.451 365.426 186.658C365.304 182.891 364.392 178.82 364.392 178.82Z" fill="#F4D9BF"/>
<path d="M390.18 179.125L421.018 193.768L425.883 182.284C425.883 182.284 418.037 182.77 417.794 181.312C417.551 179.854 425.518 179.975 425.518 179.975C425.518 179.975 420.166 170.983 421.382 170.497C422.66 169.95 427.708 177.97 427.708 177.97C427.708 177.97 426.917 168.309 428.803 168.188C430.628 168.066 431.479 178.092 431.479 178.092C431.479 178.092 433.243 170.557 435.068 170.497C436.892 170.375 433.973 179.064 433.973 179.064C433.973 179.064 439.629 176.208 440.298 177.302C440.968 178.396 432.027 182.71 432.027 182.71C432.027 182.71 424.91 198.082 423.45 198.629C421.991 199.176 391.153 185.444 391.153 185.444L390.18 179.125Z" fill="#F4D9BF"/>
<path d="M380.025 175.478C377.348 175.842 374.064 176.085 371.327 175.903C371.57 178.091 372.482 181.979 376.132 181.919C380.268 181.797 380.876 178.516 380.025 175.478Z" fill="#D4A87F"/>
<path d="M371.326 175.903C370.596 175.842 369.927 175.782 369.258 175.66C369.258 175.66 366.46 184.896 371.387 186.536C374.672 187.266 375.705 184.471 376.131 181.919C372.482 182.04 371.57 178.151 371.326 175.903Z" fill="#8286C1"/>
<path d="M384.403 174.506C383.491 174.871 381.848 175.235 380.024 175.478C380.875 178.516 380.328 181.797 376.192 181.858C377.652 185.929 380.693 186.415 383.065 185.322C385.437 184.349 387.14 179.367 384.403 174.506Z" fill="#8286C1"/>
<path d="M377.165 189.576C377.286 190.487 376.922 191.338 376.374 191.398C375.766 191.459 375.218 190.791 375.036 189.879C374.914 188.968 375.279 188.117 375.827 188.057C376.435 187.996 376.982 188.664 377.165 189.576Z" fill="#8286C1"/>
<path d="M406.542 141.635C405.508 133.614 405.751 127.842 405.751 127.842C401.433 126.141 383.551 127.052 383.551 127.052L382.091 116.176L381.057 126.991L360.377 129.3L359.708 118.424L357.458 129.422L342.008 132.034C342.008 132.034 344.989 140.663 343.529 148.562C340.062 166 357.458 172.441 357.458 172.441C357.458 172.441 365.06 176.998 375.826 176.572C386.592 176.147 392.431 172.015 392.431 172.015C408.671 158.04 407.576 149.594 406.542 141.635Z" fill="#F4D9BF"/>
<path d="M400.581 102.565C400.581 102.565 385.862 88.5289 363.479 94.3013C311.658 109.613 323.336 163.448 323.336 163.448L330.27 166.303L331.912 158.101C331.912 158.101 331.608 160.106 332.459 166.911C346.023 172.136 357.397 172.379 357.397 172.379C357.397 172.379 340.001 165.939 343.468 148.5C344.928 140.601 341.948 131.973 341.948 131.973L357.397 129.36L359.647 118.363L360.316 129.239L380.996 126.93L382.03 116.115L383.49 126.991C383.49 126.991 401.372 126.079 405.69 127.781C405.69 127.781 405.447 133.614 406.481 141.573C407.515 149.533 408.61 157.979 392.309 171.954L411.225 169.888L412.138 160.896C412.138 160.896 412.502 161.564 414.57 169.22C427.891 167.822 435.25 161.928 435.25 161.928C428.499 92.1138 400.581 102.565 400.581 102.565Z" fill="#EC7B23"/>
<g opacity="0.5">
<path opacity="0.5" d="M355.936 128.084L342.555 130.089C342.555 130.089 339.757 124.682 343.163 114.109C329.843 134.282 333.674 158.343 336.107 168.247C347.968 172.197 357.335 172.44 357.335 172.44C357.335 172.44 339.939 165.999 343.406 148.561C344.866 140.662 341.886 132.034 341.886 132.034L357.335 129.421L359.585 118.423L360.254 129.299L362.018 129.117L360.254 110.585L355.936 128.084Z" fill="#D05723"/>
<path opacity="0.5" d="M402.466 112.105C403.804 116.905 404.594 124.864 404.594 124.864L388.172 125.29L383.002 108.155L378.684 127.234L381.056 126.991L382.09 116.176L383.55 127.052C383.55 127.052 401.432 126.14 405.75 127.842C405.75 127.842 405.507 133.675 406.541 141.634C407.575 149.594 408.67 158.04 392.369 172.015L411.285 169.949L412.197 160.957C412.197 160.957 412.562 161.625 414.63 169.281C415.664 169.159 416.698 169.038 417.671 168.856C418.949 140.176 401.188 107.426 402.466 112.105Z" fill="#D05723"/>
</g>
<path d="M343.469 148.5C343.469 148.5 338.603 144.186 336.961 149.958C336.17 154.272 341.158 157.189 343.165 155.791C342.8 153.3 343.469 148.5 343.469 148.5Z" fill="#EFCAA6"/>
<path d="M407.029 144.672C407.029 144.672 407.638 148.683 406.725 152.085C412.078 153.483 415.788 149.959 414.328 146.252C412.808 142.546 408.732 142.424 407.029 144.672Z" fill="#EFCAA6"/>
<path d="M338.237 150.809C338.237 150.809 338.541 150.687 339.028 150.748C339.271 150.748 339.514 150.809 339.818 150.93C340.123 151.052 340.366 151.234 340.609 151.477C340.731 151.599 340.852 151.72 340.913 151.902C341.035 152.024 341.035 152.206 341.096 152.328C341.157 152.449 341.157 152.632 341.157 152.753C341.217 152.875 341.157 153.057 341.157 153.118C341.157 153.361 341.035 153.543 341.035 153.665C340.974 153.786 340.974 153.847 340.974 153.847C340.974 153.847 340.913 153.786 340.913 153.665C340.913 153.604 340.913 153.543 340.853 153.421C340.853 153.361 340.792 153.239 340.792 153.118C340.731 152.996 340.731 152.935 340.67 152.814C340.609 152.753 340.609 152.632 340.548 152.571C340.427 152.389 340.305 152.145 340.123 151.963C340.062 151.842 339.94 151.781 339.879 151.72C339.758 151.659 339.697 151.538 339.575 151.477C339.393 151.356 339.149 151.234 338.967 151.113C338.541 150.93 338.237 150.809 338.237 150.809Z" fill="#C39368"/>
<path d="M411.833 147.102C411.833 147.102 411.529 146.981 411.043 146.981C410.799 146.981 410.556 146.981 410.252 147.102C409.948 147.163 409.644 147.346 409.4 147.528C409.279 147.649 409.157 147.771 409.036 147.892C408.914 148.014 408.853 148.196 408.792 148.318C408.731 148.439 408.731 148.622 408.671 148.743C408.61 148.865 408.671 148.986 408.671 149.108C408.671 149.351 408.731 149.533 408.731 149.654C408.792 149.776 408.792 149.837 408.792 149.837C408.792 149.837 408.792 149.776 408.853 149.654C408.853 149.594 408.914 149.533 408.914 149.411C408.914 149.351 408.975 149.229 409.036 149.168C409.096 149.047 409.096 148.986 409.157 148.865C409.218 148.743 409.279 148.682 409.34 148.561C409.461 148.378 409.644 148.196 409.826 148.014C409.887 147.953 410.009 147.892 410.13 147.771C410.252 147.71 410.374 147.649 410.434 147.589C410.678 147.467 410.86 147.406 411.104 147.285C411.59 147.163 411.833 147.102 411.833 147.102Z" fill="#C39368"/>
<path d="M355.937 138.171C355.937 138.171 355.755 137.685 355.816 136.895C355.876 136.531 355.937 136.045 356.181 135.619C356.302 135.376 356.485 135.133 356.667 134.951C356.91 134.769 357.154 134.586 357.519 134.465C357.823 134.404 358.188 134.404 358.492 134.465C358.796 134.526 359.039 134.647 359.283 134.769C359.769 135.012 360.012 135.376 360.256 135.68C360.499 135.984 360.621 136.227 360.742 136.47C360.864 136.652 360.864 136.774 360.864 136.774C360.864 136.774 360.377 136.531 359.769 136.227C359.587 136.166 359.465 136.105 359.283 135.984C359.1 135.862 358.918 135.862 358.735 135.741C358.553 135.619 358.37 135.68 358.188 135.619C358.127 135.558 358.005 135.619 357.944 135.619C357.884 135.619 357.762 135.619 357.762 135.619C357.64 135.619 357.519 135.741 357.397 135.802C357.275 135.923 357.154 136.045 357.032 136.166C356.789 136.47 356.606 136.774 356.424 137.077C356.181 137.746 355.937 138.171 355.937 138.171Z" fill="#DC6E23"/>
<path d="M383.186 135.74C383.186 135.74 383.004 135.254 383.064 134.464C383.064 134.282 383.125 134.1 383.125 133.857C383.186 133.614 383.247 133.371 383.369 133.188C383.49 132.945 383.673 132.702 383.855 132.459C384.098 132.277 384.342 132.034 384.707 131.973C384.889 131.912 385.011 131.912 385.193 131.912C385.376 131.912 385.558 131.912 385.68 131.973C385.984 132.034 386.227 132.155 386.47 132.338C386.957 132.581 387.2 132.945 387.444 133.249C387.687 133.553 387.809 133.857 387.93 134.039C388.052 134.221 388.113 134.343 388.113 134.343C388.113 134.343 387.626 134.1 387.018 133.735C386.835 133.674 386.714 133.553 386.531 133.492C386.349 133.371 386.166 133.31 385.984 133.249C385.801 133.128 385.619 133.128 385.436 133.128C385.315 133.067 385.254 133.128 385.193 133.128C385.132 133.128 385.011 133.128 384.95 133.188C384.828 133.188 384.707 133.31 384.585 133.371C384.463 133.492 384.342 133.614 384.22 133.796C383.977 134.1 383.794 134.464 383.612 134.768C383.369 135.315 383.186 135.74 383.186 135.74Z" fill="#DC6E23"/>
<path d="M359.039 148.378C359.039 148.378 358.857 148.014 358.857 147.406C358.857 147.102 358.857 146.738 359.039 146.373C359.1 146.191 359.222 146.008 359.404 145.826C359.587 145.644 359.769 145.462 360.073 145.401C360.316 145.34 360.621 145.34 360.864 145.34C361.107 145.34 361.35 145.462 361.472 145.522C361.837 145.705 362.08 145.948 362.263 146.191C362.445 146.434 362.567 146.616 362.628 146.798C362.689 146.981 362.749 147.041 362.749 147.041C362.749 147.041 362.324 146.92 361.837 146.738C361.715 146.677 361.594 146.677 361.472 146.616C361.35 146.555 361.168 146.555 361.046 146.495C360.925 146.434 360.803 146.495 360.681 146.434C360.56 146.434 360.499 146.434 360.438 146.495C360.377 146.495 360.256 146.555 360.195 146.616C360.134 146.677 360.012 146.738 359.951 146.859C359.769 147.041 359.647 147.284 359.526 147.527C359.222 148.014 359.039 148.378 359.039 148.378Z" fill="#C39368"/>
<path d="M383.674 145.887C383.674 145.887 383.613 145.461 383.856 144.854C383.978 144.55 384.221 144.246 384.586 143.942C384.768 143.821 384.951 143.699 385.255 143.639C385.498 143.578 385.742 143.578 385.985 143.578C386.472 143.699 386.897 143.882 387.201 144.185C387.506 144.429 387.749 144.732 387.87 145.036C387.992 145.279 388.114 145.522 388.175 145.705C388.235 145.887 388.235 145.948 388.235 145.948C388.235 145.948 387.87 145.826 387.445 145.522C387.201 145.401 386.958 145.218 386.654 145.097C386.532 145.036 386.411 144.975 386.228 144.915C386.107 144.854 385.985 144.854 385.863 144.793C385.437 144.672 384.89 144.915 384.464 145.279C384.039 145.583 383.674 145.887 383.674 145.887Z" fill="#C39368"/>
<path d="M372.723 156.217C372.723 156.217 372.662 156.157 372.479 156.035C372.297 155.913 372.114 155.792 371.932 155.67C371.81 155.61 371.689 155.61 371.689 155.61C371.689 155.61 371.75 155.67 371.81 155.61C371.75 155.731 371.628 155.974 371.628 156.035C371.567 156.157 371.567 156.278 371.567 156.4C371.506 156.521 371.506 156.643 371.506 156.764C371.567 156.886 371.506 157.007 371.567 157.129C371.628 157.25 371.628 157.372 371.689 157.493C371.749 157.615 371.81 157.736 371.871 157.858C371.993 158.101 372.175 158.222 372.236 158.405C372.358 158.526 372.419 158.648 372.419 158.648C372.419 158.648 372.297 158.648 372.175 158.648C371.993 158.587 371.749 158.587 371.445 158.465C371.324 158.405 371.141 158.283 371.02 158.162C370.898 158.04 370.776 157.858 370.594 157.676C370.472 157.493 370.411 157.25 370.351 157.007C370.351 156.764 370.29 156.521 370.351 156.278C370.411 156.035 370.411 155.792 370.594 155.61C370.715 155.367 370.837 155.245 370.959 155.124C371.202 154.82 371.628 154.698 371.932 154.82C372.236 154.941 372.297 155.063 372.419 155.245C372.601 155.549 372.662 155.792 372.723 155.974C372.723 156.096 372.723 156.217 372.723 156.217Z" fill="#C39368"/>
<path d="M361.714 164.055C362.991 164.602 364.207 165.149 365.546 165.513C366.215 165.695 366.823 165.878 367.492 166.06L369.499 166.485L371.506 166.789L373.513 166.911C374.183 166.911 374.852 166.911 375.521 166.911C376.19 166.911 376.859 166.789 377.528 166.728L378.501 166.607L379.474 166.425C380.143 166.303 380.812 166.181 381.42 165.999L383.306 165.392C383.975 165.209 384.522 164.845 385.131 164.602C385.739 164.298 386.347 164.116 386.955 163.751L388.719 162.718C389.328 162.414 389.814 161.928 390.422 161.564L392.065 160.409V160.591C391.76 160.045 391.456 159.437 391.213 158.89C391.578 159.437 392.004 159.923 392.308 160.47L392.369 160.591L392.247 160.652L390.726 162.05C390.179 162.536 389.692 163.022 389.145 163.386L387.442 164.541C386.895 164.966 386.226 165.27 385.617 165.574C385.009 165.878 384.401 166.242 383.732 166.485L381.725 167.154C381.056 167.397 380.386 167.457 379.717 167.64L378.683 167.883L377.649 168.004C376.98 168.065 376.251 168.187 375.581 168.187C374.912 168.187 374.183 168.187 373.513 168.126L371.445 167.883C370.776 167.761 370.047 167.579 369.377 167.457L367.37 166.911C366.701 166.668 366.032 166.485 365.424 166.181C364.086 165.513 362.869 164.845 361.714 164.055Z" fill="#C39368"/>
<path d="M359.586 153.848C359.525 155.124 357.031 156.035 353.99 155.914C350.949 155.792 348.516 154.638 348.577 153.362C348.637 152.086 351.131 151.174 354.172 151.356C357.213 151.417 359.646 152.572 359.586 153.848Z" fill="#F9CBC0"/>
<path d="M399.607 149.168C399.789 150.444 397.539 151.842 394.558 152.389C391.578 152.935 388.902 152.328 388.719 151.113C388.476 149.837 390.726 148.439 393.767 147.892C396.748 147.345 399.363 147.892 399.607 149.168Z" fill="#F9CBC0"/>
<path d="M601.906 193.524C601.906 193.524 622.586 179.124 631.588 159.741C627.939 160.045 624.107 156.885 624.35 155.062C624.533 153.179 631.588 155.548 631.588 155.548C631.588 155.548 625.141 147.649 627.391 145.401C629.581 143.153 634.568 153.604 634.568 153.604C634.568 153.604 634.143 142.788 636.393 142.91C638.643 143.092 638.096 153.847 638.096 153.847C638.096 153.847 643.205 146.738 645.638 147.649C648.132 148.561 641.198 155.609 641.198 155.609C641.198 155.609 647.949 154.819 648.314 156.46C648.679 158.1 641.746 159.072 641.746 159.072C641.746 159.072 638.948 162.84 635.542 162.05C627.513 175.296 615.348 192.066 604.339 198.75L601.906 193.524Z" fill="#F4D9BF"/>
<path d="M530.379 192.674C530.379 192.674 517.059 177.97 511.281 148.744C514.018 147.711 519.249 142.85 518.154 140.906C517.059 138.961 511.463 143.883 511.463 143.883C511.463 143.883 514.748 132.764 512.254 131.366C509.76 130.03 509.213 141.21 509.213 141.21C509.213 141.21 507.631 130.212 505.077 130.394C502.583 130.637 505.259 141.088 505.259 141.088C505.259 141.088 499.42 133.918 497.656 135.802C495.953 137.685 502.522 144.308 502.522 144.308C502.522 144.308 496.257 141.392 495.467 142.729C494.615 144.065 502.157 149.048 506.476 149.473C510.003 168.005 520.891 190.852 527.825 197.9C529.102 195.105 530.379 192.674 530.379 192.674Z" fill="#F4D9BF"/>
<path d="M541.146 285.761L534.394 283.513C534.394 283.513 534.577 314.562 543.031 344.031C544.917 343.545 547.472 342.816 549.661 342.087C544.43 324.101 539.199 299.189 541.146 285.761Z" fill="#F4D9BF"/>
<path d="M550.085 358.127C551.849 359.038 553.491 357.823 554.282 356.547C552.883 352.841 551.241 347.797 549.598 342.086C547.47 342.815 544.854 343.544 542.969 344.03C544.368 348.83 545.949 353.57 547.774 358.127C548.686 357.884 549.538 357.823 550.085 358.127Z" fill="#006AB0"/>
<path d="M559.514 359.525C557.568 356.062 555.561 355.454 554.344 356.548C553.553 357.824 551.911 359.039 550.147 358.128C549.6 357.824 548.748 357.885 547.897 358.128C547.897 358.188 547.958 358.188 547.958 358.249C536.766 366.756 528.494 373.561 529.285 377.754C535.975 376.599 551.364 373.257 561.217 365.541C561.582 363.353 560.609 361.409 559.514 359.525Z" fill="#FECB27"/>
<path d="M529.224 377.814C530.075 382.068 549.113 377.389 556.169 371.981C559.392 369.551 560.73 367.485 561.095 365.601C551.242 373.318 535.914 376.66 529.224 377.814Z" fill="#E8EBCA"/>
<path d="M599.837 348.527L594.546 333.641L590.167 336.071C592.539 342.208 594.728 347.798 596.431 351.991C596.431 351.991 597.891 349.378 599.837 348.527Z" fill="#006AB0"/>
<path d="M577.76 286.49L571.738 287.037C571.738 287.037 582.078 314.926 590.228 336.071L594.608 333.641L577.76 286.49Z" fill="#F4D9BF"/>
<path d="M602.028 368.275C605.312 368.943 610.908 367.728 619.971 360.315C627.695 353.996 632.804 346.948 631.527 343.181C623.377 347.312 607.867 362.442 602.028 368.275Z" fill="#B1B568"/>
<path d="M602.82 349.134C601.543 347.797 599.839 348.527 599.839 348.527C597.893 349.377 596.433 351.99 596.433 351.99C594.913 354.177 596.798 364.324 598.988 366.755C603.489 362.016 615.897 349.499 629.704 341.235C624.595 338.683 612.43 345.549 602.82 349.134Z" fill="#FECB27"/>
<path d="M629.763 341.236C629.763 341.236 629.702 341.236 629.763 341.236C615.896 349.499 603.488 362.016 598.987 366.755C599.048 366.816 599.169 366.938 599.23 366.999C599.838 367.485 600.751 368.031 602.028 368.214C607.867 362.381 623.438 347.251 631.527 343.18C631.223 342.39 630.676 341.722 629.763 341.236Z" fill="#E8EBCA"/>
<path d="M541.146 285.761L534.395 283.513C534.395 283.513 534.395 285.761 534.577 289.528L540.781 290.865C540.781 289.042 540.903 287.341 541.146 285.761Z" fill="#F4D9BF"/>
<path d="M577.76 286.49L571.738 287.037C571.738 287.037 572.407 288.86 573.502 291.837L579.28 290.743L577.76 286.49Z" fill="#F4D9BF"/>
<path d="M533.723 252.706C533.723 252.706 528.675 269.173 527.276 282.722C541.569 287.401 551.18 289.406 551.18 289.406L554.221 276.586L557.383 289.71L585.545 286.49L581.591 262.853L533.723 252.706Z" fill="#009A9A"/>
<g opacity="0.5">
<path opacity="0.5" d="M547.349 288.494C549.782 289.102 551.181 289.406 551.181 289.406L554.222 276.585L554.587 278.104L553.918 270.752L547.349 288.494Z" fill="#009A9A"/>
<path opacity="0.5" d="M581.593 262.914L570.767 260.605C571.861 266.013 573.99 276.829 575.754 287.644L585.547 286.49L581.593 262.914Z" fill="#009A9A"/>
</g>
<path d="M580.924 199.297C578.308 200.026 575.45 200.573 572.408 200.816C571.739 206.771 569.489 212.908 562.555 212.482C555.864 212.118 554.891 204.766 555.135 199.115C552.762 198.507 550.33 197.657 547.836 196.624C543.274 203.976 539.868 212.969 539.868 212.969C539.868 212.969 530.44 243.288 528.859 251.856C544.308 259.937 568.272 265.527 584.147 264.13C587.797 236.544 586.58 218.194 586.58 218.194C585.242 210.113 582.444 202.882 580.924 199.297Z" fill="#F1F1EB"/>
<path d="M600.509 188.177C600.509 188.177 593.392 195.833 580.924 199.296C582.444 202.881 585.242 210.112 586.58 218.193L608.537 205.555L600.509 188.177Z" fill="#F1F1EB"/>
<path d="M537.313 191.276L532.447 187.023L524.297 205.312L539.868 212.968C539.868 212.968 543.274 203.975 547.835 196.623C544.429 195.226 540.962 193.464 537.313 191.276Z" fill="#F1F1EB"/>
<path d="M584.755 198.082L592.175 214.973L598.987 211.085L591.871 194.74C589.742 195.894 587.431 197.049 584.755 198.082Z" fill="#E30613"/>
<path d="M608.536 205.555L600.507 188.238C600.507 188.238 599.412 189.393 597.344 191.033L604.704 207.803L608.536 205.555Z" fill="#E30613"/>
<path d="M532.447 187.023L524.297 205.312L526.912 206.588L534.758 189.028L532.447 187.023Z" fill="#E30613"/>
<path d="M538.224 191.762L530.804 208.472L535.427 210.72L542.725 194.254C541.205 193.525 539.745 192.674 538.224 191.762Z" fill="#E30613"/>
<path d="M528.859 251.856C544.308 259.938 568.272 265.528 584.147 264.13C584.39 262.368 584.573 260.606 584.816 258.905C563.711 259.573 538.226 250.702 529.893 247.542C529.406 249.244 529.102 250.702 528.859 251.856Z" fill="#E30613"/>
<path d="M580.923 199.297C578.308 200.026 575.449 200.573 572.408 200.816C572.226 202.7 571.861 204.583 571.192 206.284L584.208 208.229C583.052 204.462 581.775 201.302 580.923 199.297Z" fill="#E30613"/>
<path d="M531.597 240.858C540.051 244.2 566.266 253.983 585.365 253.314C585.669 250.337 585.912 247.542 586.034 244.929C560.974 245.051 539.565 235.936 533.726 233.263C532.996 235.815 532.266 238.428 531.597 240.858Z" fill="#E30613"/>
<path d="M555.074 199.176C552.702 198.568 550.269 197.718 547.775 196.685C546.619 198.568 545.525 200.513 544.552 202.396L555.196 203.976C555.074 202.335 555.013 200.695 555.074 199.176Z" fill="#E30613"/>
<path d="M537.921 219.288C537.252 221.475 536.461 224.088 535.609 226.883C542.726 229.435 567.177 237.82 586.458 237.941C586.579 234.903 586.701 232.169 586.701 229.739C571.86 229.07 547.227 222.083 537.921 219.288Z" fill="#E30613"/>
<path d="M586.579 218.194C586.397 217.1 586.214 216.067 585.971 215.034L567.238 211.51C565.96 212.239 564.44 212.604 562.554 212.543C560.06 212.421 558.357 211.267 557.202 209.626L542.483 206.831C541.084 209.869 540.171 212.178 539.928 212.786L586.762 222.447C586.64 219.652 586.579 218.194 586.579 218.194Z" fill="#E30613"/>
<path d="M568.212 200.998C567.908 206.771 566.083 210.173 561.704 209.14C558.419 208.29 557.629 203.915 557.69 199.844C556.838 199.662 555.987 199.419 555.074 199.176C554.831 204.826 555.804 212.118 562.495 212.543C569.428 212.968 571.679 206.831 572.348 200.877C571.01 200.938 569.611 200.998 568.212 200.998Z" fill="#005D75"/>
<path d="M561.704 209.141C566.083 210.235 567.908 206.832 568.212 200.999C564.927 200.999 561.4 200.634 557.75 199.784C557.689 203.855 558.419 208.29 561.704 209.141Z" fill="#D4A87F"/>
<path d="M600.508 188.177C600.508 188.177 593.392 195.833 580.923 199.297C578.308 200.026 575.449 200.573 572.408 200.816C571.739 206.77 569.489 212.907 562.555 212.482C555.864 212.117 554.891 204.765 555.134 199.114C552.762 198.507 550.329 197.656 547.836 196.623C544.49 195.226 540.962 193.464 537.374 191.215L532.508 186.962L531.778 188.603C534.576 192.917 541.388 201.12 552.884 202.396C553.675 211.084 558.115 215.155 564.258 214.609C570.401 214.062 573.32 207.378 573.807 204.036L580.254 203.428C580.254 203.428 585.12 238.366 577.456 264.311C579.829 264.372 582.079 264.311 584.147 264.129C587.796 236.543 586.58 218.193 586.58 218.193L608.537 205.555L600.508 188.177Z" fill="#C0C0C0"/>
<path d="M603.851 152.389C600.02 152.267 589.923 144.004 589.923 144.004C589.923 144.004 591.018 151.417 587.673 151.538C584.327 151.72 581.347 144.307 581.347 144.307C581.347 144.307 574.17 149.715 571.25 149.533C568.331 149.351 570.399 145.34 570.399 145.34C570.399 145.34 557.078 149.29 552.395 149.533C547.651 149.776 546.13 148.257 550.753 144.915C539.805 149.715 533.418 148.439 533.418 148.439L530.803 169.584C530.681 192.613 540.413 199.661 563.465 202.152C595.275 204.4 605.311 187.266 606.649 172.318L607.683 148.743C607.623 148.682 606.284 152.328 603.851 152.389Z" fill="#F4D9BF"/>
<path d="M613.098 127.356C604.886 116.783 591.627 116.236 591.627 116.236C591.627 116.236 596.371 114.11 593.087 113.381C589.802 112.652 585.301 117.148 585.301 117.148L581.348 112.591C581.348 112.591 581.348 112.591 580.983 116.176C554.525 100.256 524.417 136.227 523.201 141.756C521.984 147.285 526.303 144.369 526.303 144.369C525.086 145.827 522.106 154.394 523.566 155.245C525.026 156.157 527.154 153.422 527.154 153.422C527.154 153.422 526.911 161.868 530.743 169.463L533.358 148.318C533.358 148.318 539.745 149.594 550.693 144.794C546.07 148.136 547.591 149.655 552.335 149.412C557.079 149.169 570.339 145.22 570.339 145.22C570.339 145.22 568.271 149.23 571.19 149.412C574.11 149.594 581.287 144.187 581.287 144.187C581.287 144.187 584.267 151.599 587.613 151.417C590.958 151.296 589.863 143.883 589.863 143.883C589.863 143.883 599.96 152.207 603.792 152.268C606.224 152.207 607.623 148.561 607.623 148.561L606.589 172.137C623.985 160.288 616.808 146.07 616.808 146.07L619.119 148.926C619.119 148.987 621.369 137.989 613.098 127.356Z" fill="#925F2D"/>
<path d="M550.39 167.58C550.45 169.282 549.903 170.618 549.173 170.679C548.443 170.679 547.774 169.342 547.713 167.702C547.653 166.001 548.2 164.664 548.93 164.603C549.721 164.542 550.329 165.879 550.39 167.58Z" fill="#3D1A0B"/>
<path d="M548.809 166.365C548.809 166.851 548.566 167.277 548.383 167.277C548.14 167.277 548.018 166.851 548.018 166.365C548.018 165.879 548.201 165.454 548.444 165.454C548.687 165.454 548.87 165.818 548.809 166.365Z" fill="white"/>
<path d="M580.618 167.276C580.678 168.977 580.131 170.314 579.401 170.374C578.671 170.374 578.002 169.098 577.941 167.397C577.88 165.696 578.428 164.359 579.158 164.298C579.888 164.298 580.557 165.635 580.618 167.276Z" fill="#3D1A0B"/>
<path d="M579.037 166.06C579.037 166.546 578.793 166.971 578.611 166.971C578.367 166.971 578.246 166.546 578.246 166.06C578.246 165.574 578.428 165.148 578.672 165.148C578.915 165.148 579.037 165.574 579.037 166.06Z" fill="white"/>
<path d="M562.737 174.385C562.737 174.385 562.129 174.264 561.338 174.142C560.973 174.082 560.486 174.142 560.243 174.264C560.121 174.325 560.061 174.446 560 174.568C560 174.568 559.878 174.811 559.878 174.871C559.878 174.932 559.878 174.993 559.878 175.114C559.817 175.965 560.243 176.937 560.608 177.606C560.79 177.909 561.034 178.153 561.216 178.335C561.399 178.456 561.581 178.517 561.52 178.517C561.52 178.517 561.399 178.578 561.095 178.578C560.79 178.578 560.426 178.396 560.061 178.153C559.696 177.849 559.331 177.484 559.027 176.937C558.723 176.39 558.54 175.783 558.54 175.054C558.54 174.871 558.601 174.689 558.662 174.507C558.722 174.264 558.722 174.264 558.844 174.021C559.027 173.656 559.392 173.413 559.756 173.292C560.486 173.109 561.095 173.352 561.459 173.535C562.372 173.899 562.737 174.385 562.737 174.385Z" fill="#C39368"/>
<path d="M545.158 159.438C545.158 159.438 545.036 158.77 545.341 157.737C545.523 157.251 545.827 156.643 546.435 156.218C546.739 156.035 547.104 155.853 547.469 155.732C547.652 155.732 547.834 155.671 548.017 155.671H548.321H548.442H548.503H548.564C548.868 155.732 549.172 155.792 549.476 155.914C549.841 156.035 550.206 156.279 550.51 156.461C550.754 156.704 550.997 156.947 551.18 157.19C551.362 157.433 551.484 157.676 551.605 157.919C551.97 158.891 551.849 159.62 551.849 159.62C551.849 159.62 551.788 159.438 551.605 159.256C551.423 159.013 551.24 158.709 550.936 158.344C550.815 158.162 550.571 158.041 550.45 157.858C550.267 157.676 550.024 157.554 549.841 157.433C549.598 157.372 549.416 157.251 549.233 157.129C548.929 157.068 548.625 157.008 548.26 156.947C548.199 156.947 548.382 156.947 548.321 156.947H548.26H548.138H547.956C547.834 156.947 547.713 156.947 547.591 157.008C547.348 157.068 547.104 157.129 546.922 157.251C546.739 157.372 546.496 157.494 546.314 157.676C546.131 157.858 545.949 157.98 545.827 158.162C545.462 158.77 545.158 159.438 545.158 159.438Z" fill="#925F2D"/>
<path d="M575.935 159.438C575.935 159.438 575.996 159.256 576.056 158.952C576.178 158.648 576.361 158.223 576.725 157.798C576.908 157.615 577.09 157.372 577.334 157.129C577.577 156.947 577.881 156.704 578.185 156.522C578.55 156.4 578.854 156.157 579.219 156.096L579.827 155.975C579.949 155.975 579.949 155.914 580.132 155.914H580.375H580.618L580.922 155.975C581.166 156.036 581.348 156.096 581.531 156.218C581.895 156.339 582.2 156.643 582.504 156.886C583.051 157.372 583.355 157.98 583.538 158.527C583.903 159.56 583.903 160.289 583.903 160.289C583.903 160.289 583.538 159.681 582.929 158.891C582.625 158.527 582.26 158.101 581.774 157.737C581.531 157.555 581.287 157.433 581.044 157.312C580.922 157.251 580.801 157.19 580.679 157.19L580.497 157.129H580.253H580.01C580.071 157.129 579.888 157.129 579.827 157.19L579.402 157.251C579.098 157.251 578.854 157.372 578.55 157.494C578.246 157.615 578.064 157.737 577.759 157.858C577.516 157.98 577.334 158.162 577.09 158.284C576.725 158.588 576.361 158.831 576.178 159.074C576.056 159.317 575.935 159.438 575.935 159.438Z" fill="#925F2D"/>
<path d="M551.3 185.565C551.3 185.565 559.268 193.828 577.089 185.322C573.014 200.026 559.328 203.732 551.3 185.565Z" fill="white"/>
<path d="M548.017 174.87C547.896 176.207 545.159 176.997 541.935 176.693C538.711 176.329 536.218 174.992 536.4 173.655C536.522 172.319 539.259 171.529 542.482 171.832C545.706 172.197 548.2 173.534 548.017 174.87Z" fill="#F9CBC0"/>
<path d="M592.6 175.601C592.539 176.938 589.863 177.91 586.64 177.788C583.416 177.667 580.862 176.452 580.922 175.115C580.983 173.778 583.659 172.806 586.883 172.927C590.107 173.11 592.661 174.264 592.6 175.601Z" fill="#F9CBC0"/>
<g opacity="0.5">
<path opacity="0.5" d="M575.205 137.443C572.224 141.574 569.244 144.369 567.054 146.192C569.001 145.645 570.339 145.22 570.339 145.22C570.339 145.22 568.271 149.23 571.19 149.413C571.373 149.413 571.555 149.413 571.798 149.352C571.251 146.618 573.258 142.243 575.205 137.443Z" fill="#925F2D"/>
<path opacity="0.5" d="M556.472 140.724C543.577 147.165 532.933 146.496 530.257 143.033C531.352 151.539 530.196 161.504 529.527 166.547C529.892 167.52 530.318 168.492 530.804 169.403L533.42 148.258C533.42 148.258 539.806 149.534 550.754 144.734C546.618 147.711 547.409 149.23 550.937 149.352C550.754 147.59 552.761 144.613 556.472 140.724Z" fill="#925F2D"/>
<path opacity="0.5" d="M610.786 144.734C602.393 157.373 586.7 136.471 586.7 136.471L590.046 146.193C590.046 144.917 589.863 143.944 589.863 143.944C589.863 143.944 599.96 152.269 603.792 152.329C606.225 152.269 607.624 148.623 607.624 148.623L606.59 172.198C607.259 171.712 607.928 171.287 608.475 170.801C607.684 164.785 608.962 155.793 610.786 144.734Z" fill="#925F2D"/>
<path opacity="0.5" d="M579.219 145.767C580.435 144.916 581.287 144.309 581.287 144.309C581.287 144.309 584.085 151.296 587.308 151.539C584.45 148.684 582.078 143.276 580.618 136.167C580.861 139.995 580.07 143.276 579.219 145.767Z" fill="#925F2D"/>
</g>
<path d="M606.833 164.116L606.468 174.385C606.468 174.385 612.976 174.931 613.28 169.524C613.645 164.177 606.833 164.116 606.833 164.116Z" fill="#EFCAA6"/>
<path d="M610.848 168.795C610.848 168.795 610.544 168.612 610.057 168.491C609.814 168.43 609.51 168.43 609.206 168.43C608.902 168.43 608.537 168.551 608.233 168.734C608.05 168.855 607.929 168.916 607.807 169.038C607.685 169.159 607.564 169.281 607.503 169.463C607.381 169.584 607.32 169.767 607.32 169.888C607.259 170.01 607.259 170.192 607.199 170.314C607.138 170.557 607.199 170.8 607.199 170.921C607.199 171.043 607.199 171.164 607.199 171.164C607.199 171.164 607.259 171.103 607.32 170.982C607.381 170.921 607.381 170.86 607.442 170.739C607.503 170.678 607.564 170.557 607.624 170.496C607.685 170.374 607.746 170.314 607.807 170.192C607.868 170.07 607.929 170.01 608.05 169.888C608.233 169.706 608.415 169.524 608.658 169.402C608.78 169.341 608.902 169.281 609.023 169.22C609.145 169.159 609.267 169.098 609.388 169.098C609.632 169.038 609.875 168.977 610.118 168.916C610.544 168.855 610.848 168.795 610.848 168.795Z" fill="#C39368"/>
<path d="M531.29 164.845C531.29 164.845 526.364 162.293 524.478 167.944C523.322 172.744 528.614 175.478 530.743 174.81C530.682 169.828 531.29 164.845 531.29 164.845Z" fill="#EFCAA6"/>
<path d="M526.97 168.188C526.97 168.188 527.275 168.066 527.761 168.005C528.004 168.005 528.309 168.005 528.613 168.066C528.917 168.127 529.221 168.309 529.525 168.491C529.647 168.613 529.768 168.735 529.89 168.856C530.012 168.978 530.072 169.16 530.194 169.281C530.316 169.403 530.316 169.585 530.376 169.707C530.437 169.828 530.437 170.01 530.437 170.132C530.437 170.375 530.376 170.557 530.376 170.74C530.316 170.861 530.316 170.983 530.316 170.983C530.316 170.983 530.255 170.922 530.255 170.8C530.255 170.74 530.194 170.679 530.194 170.557C530.194 170.497 530.133 170.375 530.072 170.254C530.012 170.132 530.012 170.01 529.951 169.95C529.89 169.828 529.829 169.707 529.768 169.646C529.586 169.464 529.464 169.221 529.221 169.099C529.099 168.978 528.978 168.917 528.856 168.856C528.734 168.795 528.613 168.735 528.491 168.674C528.248 168.552 528.004 168.491 527.822 168.37C527.275 168.248 526.97 168.188 526.97 168.188Z" fill="#C39368"/>
<path d="M227.54 87.9818C227.54 87.9818 251.504 78.7461 266.71 60.0924C266.71 60.0924 269.569 56.2037 272.61 50.4314C275.651 44.6591 277.841 42.3501 279.118 42.5932C279.666 42.7147 280.395 43.2616 279.361 45.0844C278.327 46.968 275.165 53.2264 274.739 54.6847C274.739 54.6847 278.327 51.039 281.673 48.6086C285.079 46.2389 286.539 46.2996 287.268 47.5148C287.937 48.7301 285.14 50.1276 283.315 51.8897C281.429 53.6517 277.962 57.0544 277.962 57.0544C277.962 57.0544 284.531 53.6517 287.816 52.9834C289.032 52.7403 289.762 52.9834 290.005 53.6517C290.249 54.3201 290.005 54.9885 287.573 56.0214C285.14 57.0544 280.395 59.6671 280.395 59.6671C280.395 59.6671 283.68 58.9987 285.991 58.8772C288.302 58.7557 290.492 59.424 290.492 60.457C290.492 61.0646 289.276 61.6722 286.234 61.6722C283.132 61.6722 280.639 62.5229 280.639 62.5229C280.639 62.5229 277.415 69.2674 271.029 66.8977C271.029 66.8977 259.472 84.0931 230.277 94.1187L227.54 87.9818Z" fill="#EFCAA6"/>
<path d="M273.524 56.2036C272.611 55.2922 270.848 54.5631 269.266 54.5631C269.205 54.2593 269.145 53.8947 269.205 53.5909C269.266 52.1934 269.449 50.7959 269.266 49.3376C269.023 47.211 267.198 45.2059 265.009 46.6034C264.887 46.6641 264.826 46.8464 264.826 46.9072C264.583 47.211 264.704 47.6363 264.948 47.8186C266.955 49.0946 265.678 52.3149 265.191 54.077C264.522 56.4467 264.035 58.3911 265.252 60.7C265.799 61.7329 266.894 62.8874 268.111 63.738L275.227 59.9708C275.044 58.5733 274.375 57.1151 273.524 56.2036Z" fill="#EFCAA6"/>
<path d="M275.166 60.0312L274.861 58.9375C274.74 58.573 274.557 58.2692 274.436 57.9654L274.132 57.4793C274.01 57.3577 273.949 57.1755 273.827 57.0539L273.462 56.6286C273.341 56.5071 273.28 56.3856 273.098 56.264C272.976 56.1425 272.793 56.021 272.672 55.9602C272.55 55.8387 272.368 55.7779 272.246 55.7172C271.942 55.5349 271.577 55.4134 271.273 55.2919C270.908 55.1703 270.604 55.1096 270.239 55.0488L269.691 54.9881H269.205H268.962V54.745C268.901 54.2589 268.901 53.7121 268.962 53.226L269.083 51.7677C269.144 51.5247 269.083 51.2816 269.144 51.0386V50.3094C269.144 49.8233 269.144 49.3373 269.022 48.8512C268.962 48.6081 268.901 48.3651 268.779 48.1828C268.718 47.9397 268.536 47.7575 268.414 47.5752C268.11 47.2106 267.806 46.846 267.38 46.6638C267.198 46.5422 266.954 46.4815 266.711 46.4815C266.589 46.4815 266.468 46.4815 266.346 46.4815C266.224 46.4815 266.103 46.4815 265.981 46.5422C265.738 46.603 265.555 46.6638 265.373 46.7853H265.13C265.13 46.846 265.069 46.846 265.008 46.9068V46.9676L264.947 47.0891C264.886 47.1499 264.826 47.2714 264.886 47.3929C264.886 47.4537 264.947 47.5144 265.008 47.5752L265.069 47.6359L265.19 47.7575L265.434 47.9397L265.677 48.1828C265.86 48.3651 265.92 48.5474 266.042 48.7296C266.224 49.155 266.285 49.5803 266.346 50.0056C266.346 50.431 266.346 50.8563 266.285 51.2209C266.164 52.0108 265.981 52.8007 265.738 53.5298C265.495 54.2589 265.312 55.0488 265.13 55.778C265.069 56.1425 264.947 56.5071 264.886 56.8716L264.826 57.4185V57.9654C264.826 58.3299 264.886 58.6945 264.947 59.0591C265.069 59.4236 265.13 59.7882 265.312 60.1528C265.373 60.335 265.434 60.5173 265.555 60.6388L265.86 61.1249C266.042 61.4895 266.285 61.7325 266.529 62.0364L267.319 62.887L268.171 63.6769L268.11 63.7377L267.137 63.0693C266.833 62.8263 266.529 62.5832 266.224 62.2794C265.981 61.9756 265.677 61.6718 265.434 61.368L265.069 60.8819C264.947 60.6996 264.886 60.5173 264.765 60.335C264.582 59.9705 264.461 59.6059 264.339 59.1806C264.217 58.7552 264.156 58.3907 264.156 57.9654C264.096 57.54 264.096 57.1147 264.156 56.7501C264.217 56.3248 264.278 55.9602 264.339 55.5349C264.521 54.745 264.704 54.0159 264.947 53.226C265.19 52.4968 265.434 51.7677 265.555 50.9778C265.616 50.6132 265.677 50.2487 265.677 49.8841C265.616 49.5195 265.616 49.155 265.495 48.8512C265.434 48.7904 265.373 48.6081 265.251 48.4866L265.069 48.3043L264.826 48.122L264.704 48.0613C264.643 48.0005 264.582 48.0005 264.521 47.9397C264.4 47.8182 264.339 47.7575 264.339 47.6359C264.278 47.3929 264.339 47.0283 264.521 46.846L264.582 46.9068C264.582 46.7853 264.643 46.7245 264.704 46.6638C264.765 46.603 264.826 46.603 264.826 46.5422C265.008 46.4207 265.069 46.4207 265.19 46.36C265.434 46.2384 265.677 46.1777 265.92 46.1169C266.042 46.1169 266.164 46.0562 266.285 46.0562C266.407 46.0562 266.529 46.0562 266.65 46.1169C266.894 46.1169 267.137 46.2384 267.38 46.36C267.867 46.603 268.232 46.9676 268.475 47.3929C268.597 47.5752 268.779 47.8182 268.84 48.0613C268.962 48.3043 269.022 48.5474 269.083 48.7904C269.266 49.2765 269.205 49.7626 269.266 50.2487L269.326 50.9778C269.326 51.2209 269.387 51.4639 269.387 51.7069V53.1652C269.387 53.7121 269.387 54.1374 269.448 54.5627L269.144 54.3197C269.57 54.3197 269.935 54.3197 270.3 54.3804C270.665 54.4412 271.03 54.5627 271.394 54.6842C271.759 54.8058 272.124 54.9881 272.428 55.1703C272.611 55.2311 272.733 55.3526 272.915 55.4741C273.098 55.5957 273.219 55.7172 273.341 55.8387C273.462 55.9602 273.584 56.1425 273.706 56.264L274.01 56.7501C274.132 56.8717 274.192 57.0539 274.314 57.2362L274.557 57.7223C274.679 58.0869 274.801 58.4514 274.922 58.816C274.983 59.1806 275.044 59.5451 275.105 59.9097L275.166 60.0312Z" fill="#C9976D"/>
<path d="M159.174 91.0205C159.174 91.0205 135.696 80.5695 121.524 61.1259C121.524 61.1259 118.848 57.0549 116.111 51.1611C113.374 45.2672 111.306 42.776 110.029 43.0191C109.481 43.1406 108.691 43.6267 109.664 45.5103C110.637 47.4546 113.435 53.8346 113.8 55.2928C113.8 55.2928 110.455 51.4649 107.17 48.8522C103.886 46.3002 102.426 46.3002 101.635 47.5154C100.905 48.6699 103.642 50.2497 105.406 52.0725C107.17 53.8953 110.515 57.541 110.515 57.541C110.515 57.541 104.129 53.8346 100.844 52.9232C99.628 52.6194 98.8981 52.8624 98.594 53.5308C98.2899 54.1991 98.5332 54.8675 100.905 56.022C103.277 57.1764 107.9 60.0322 107.9 60.0322C107.9 60.0322 104.676 59.1816 102.365 58.9993C100.054 58.7562 97.8641 59.3031 97.8033 60.336C97.7425 60.9436 98.959 61.6728 102 61.7943C105.102 61.9158 107.535 62.888 107.535 62.888C107.535 62.888 110.394 69.754 116.902 67.7489C116.902 67.7489 127.546 85.4912 156.194 97.0966L159.174 91.0205Z" fill="#EFCAA6"/>
<path d="M114.955 56.9342C115.867 56.0835 117.753 55.4151 119.273 55.5367C119.334 55.2329 119.395 54.8683 119.395 54.5645C119.395 53.167 119.334 51.7695 119.577 50.372C119.882 48.2453 121.828 46.3009 123.957 47.82C124.078 47.8807 124.139 48.0023 124.139 48.1238C124.382 48.4276 124.261 48.8529 123.957 49.0352C121.889 50.2504 122.984 53.4708 123.409 55.2936C124.018 57.7241 124.322 59.6684 122.984 61.8558C122.375 62.828 121.28 63.9217 119.942 64.7724L113.069 60.6406C113.313 59.1823 113.982 57.7848 114.955 56.9342Z" fill="#EFCAA6"/>
<path d="M113.069 60.5789L113.434 59.546C113.617 59.2422 113.738 58.8776 113.921 58.5738L114.225 58.1484C114.347 58.0269 114.407 57.8446 114.529 57.7231L114.894 57.3585C115.016 57.237 115.137 57.1155 115.259 56.994C115.381 56.8725 115.563 56.7509 115.685 56.6902C115.806 56.6294 115.989 56.5079 116.11 56.4471C116.415 56.2648 116.78 56.2041 117.084 56.0826C117.449 55.961 117.753 55.9003 118.118 55.9003L118.665 55.8395H119.212H119.456L119.517 55.5965C119.638 55.1104 119.638 54.5635 119.638 54.0774L119.577 52.6192C119.577 52.3761 119.577 52.1331 119.577 51.89V51.1609C119.577 50.6748 119.638 50.1887 119.76 49.7026C119.821 49.4596 119.942 49.2773 120.003 49.0343C120.125 48.7912 120.246 48.6089 120.368 48.4266C120.672 48.0621 121.037 47.7583 121.463 47.576C121.645 47.4545 121.889 47.3937 122.132 47.3937C122.254 47.3937 122.375 47.3937 122.497 47.3937C122.619 47.3937 122.74 47.3937 122.801 47.4545C123.044 47.5152 123.227 47.576 123.409 47.7583L123.653 47.9406C123.713 48.0013 123.713 48.0621 123.774 48.0621V48.1228L123.835 48.2444C123.896 48.3659 123.896 48.4874 123.896 48.5482C123.896 48.6089 123.835 48.6697 123.774 48.6697L123.713 48.7305L123.592 48.852L123.348 49.0343L123.105 49.2773C122.923 49.4596 122.801 49.6419 122.74 49.8242C122.497 50.1887 122.436 50.6141 122.375 51.0394C122.314 51.4647 122.314 51.89 122.375 52.2546C122.436 53.0445 122.619 53.8344 122.801 54.6243C122.984 55.3534 123.166 56.1433 123.348 56.8725C123.409 57.237 123.47 57.6016 123.47 58.0269L123.531 58.5738V59.1206C123.531 59.4852 123.409 59.8498 123.348 60.2143C123.227 60.5789 123.105 60.9435 122.923 61.2473C122.801 61.4296 122.74 61.6118 122.679 61.7334L122.375 62.2194C122.132 62.5233 121.889 62.8271 121.645 63.0701L120.794 63.86L119.882 64.5891L119.942 64.6499L120.976 64.0423C121.28 63.7992 121.645 63.5562 121.889 63.3132C122.193 63.0093 122.497 62.7663 122.74 62.4625L123.105 61.9764C123.227 61.7941 123.348 61.6118 123.409 61.4296C123.653 61.065 123.774 60.7004 123.896 60.2751C124.018 59.9105 124.139 59.4852 124.139 59.0599C124.2 58.6345 124.2 58.2092 124.139 57.8446C124.139 57.4193 124.078 57.0547 124.018 56.6294C123.896 55.8395 123.713 55.0496 123.531 54.3205C123.348 53.5914 123.166 52.8015 123.044 52.0723C122.984 51.7078 122.984 51.3432 123.044 50.9786C123.105 50.6141 123.166 50.2495 123.288 49.9457C123.348 49.7634 123.47 49.6419 123.592 49.5204L123.774 49.3381L124.018 49.1558L124.078 49.2165C124.139 49.1558 124.2 49.1558 124.261 49.095C124.322 48.9735 124.443 48.9127 124.443 48.7912C124.565 48.5482 124.504 48.1836 124.322 48.0013L124.382 48.1228C124.382 48.0621 124.322 47.9406 124.261 47.8798C124.2 47.819 124.2 47.7583 124.139 47.7583C123.957 47.6368 123.896 47.576 123.774 47.5152C123.531 47.3937 123.288 47.2722 123.044 47.2722C122.923 47.2114 122.801 47.2114 122.679 47.2114C122.558 47.2114 122.436 47.2114 122.314 47.2114C122.01 47.2114 121.767 47.3329 121.585 47.4545C121.098 47.6368 120.733 48.0013 120.429 48.4266C120.246 48.6089 120.125 48.852 120.003 49.095C119.882 49.3381 119.76 49.5204 119.699 49.7634C119.517 50.2495 119.517 50.7356 119.456 51.2217L119.395 51.9508C119.395 52.1938 119.334 52.4369 119.334 52.6799L119.273 54.1382C119.273 54.6243 119.212 55.1104 119.091 55.5357L119.395 55.2927C119.03 55.2927 118.604 55.2927 118.239 55.2927C117.874 55.3534 117.449 55.4142 117.084 55.5357C116.719 55.6572 116.354 55.7788 115.989 55.961C115.806 56.0218 115.624 56.1433 115.502 56.2649C115.32 56.3864 115.137 56.5079 115.016 56.6294C114.833 56.7509 114.712 56.9332 114.59 57.0547L114.225 57.4801C114.103 57.6016 114.043 57.7839 113.921 57.9662L113.617 58.4523C113.495 58.8168 113.373 59.1814 113.252 59.546C113.191 59.9105 113.13 60.2751 113.069 60.6397V60.5789Z" fill="#C9976D"/>
<path d="M157.775 85.6732C157.775 85.6732 167.446 92.357 194.269 91.9317C194.269 91.9317 218.355 91.2633 230.702 83.4858C230.702 83.4858 236.298 95.395 237.879 99.3445C237.879 99.3445 226.931 106.879 217.869 108.276L219.207 144.308C219.207 144.308 198.953 152.025 169.575 145.888C169.575 145.888 172.19 124.257 175.11 110.707C175.11 110.707 161.06 108.519 153.335 103.476L157.775 85.6732Z" fill="#CD2400"/>
<path d="M199.379 90.3525L188.066 90.7779C188.066 90.7779 187.214 98.7984 193.722 98.7984C200.23 98.8591 199.379 90.3525 199.379 90.3525Z" fill="#C9976D"/>
<path opacity="0.5" d="M193.965 97.4612C199.864 97.1574 206.19 96.3068 211.482 93.5117C214.097 92.175 216.165 90.4737 217.929 88.5901C206.433 91.6281 194.208 91.932 194.208 91.932C183.321 92.1142 175.292 91.1421 169.574 89.8661C174.136 96.9751 186.544 97.8258 193.965 97.4612Z" fill="#D9863E"/>
<path d="M169.575 145.827C170.001 145.888 170.366 145.949 170.791 146.07C171.582 139.326 172.373 132.581 173.529 125.898C174.38 120.854 175.475 115.872 176.63 110.889C177.543 106.879 178.516 102.93 180.037 99.1018C178.394 100.621 177.3 102.747 175.292 103.841C173.711 104.692 169.879 104.206 168.298 103.78C163.31 102.444 159.174 101.35 154.369 99.3449L153.335 103.477C161.06 108.52 175.11 110.707 175.11 110.707C172.13 124.196 169.575 145.827 169.575 145.827Z" fill="#D9863E"/>
<path d="M235.507 93.876C231.554 96.2457 227.479 98.3723 223.221 100.317C221.761 100.985 218.598 102.869 217.139 101.228C215.679 99.5875 215.253 97.2786 214.28 95.3342C215.132 100.195 215.071 105.117 215.071 110.038C215.071 116.054 214.767 122.008 214.706 128.024C214.706 133.857 214.767 139.811 214.462 145.645C217.504 144.915 219.146 144.247 219.146 144.247L217.808 108.216C226.87 106.818 237.819 99.2837 237.819 99.2837C237.332 98.0685 236.481 96.0634 235.507 93.876Z" fill="#D9863E"/>
<path d="M189.586 2.73424C189.586 2.73424 189.707 0.36455 193.113 -1.69643e-05C196.519 -0.364584 197.006 2.30891 197.006 2.30891L189.586 2.73424Z" fill="#FFAB05"/>
<path d="M236.177 41.3181C236.177 41.3181 247.246 45.0245 253.146 50.7969C259.046 56.5692 258.195 64.7112 252.477 66.7771C246.76 68.843 242.198 67.7492 242.198 67.7492L236.177 41.3181Z" fill="#D37D00"/>
<path d="M256.309 63.4957C258.134 60.0324 257.282 54.8677 253.146 50.8574C247.186 45.0851 236.177 41.3787 236.177 41.3787L236.542 43.0192C239.279 44.0522 247.733 47.394 252.66 52.1942C256.309 55.6576 257.343 60.0931 256.309 63.4957Z" fill="#FFAB05"/>
<path d="M156.923 42.5943C156.923 44.4172 155.524 46.0577 152.604 48.9135C148.772 52.7415 142.873 56.2049 144.576 66.7166C144.576 66.7166 146.218 63.2532 148.529 62.2202C148.529 62.2202 143.907 70.666 151.205 76.6814C151.205 76.6814 150.901 73.4611 152.118 70.0584C152.118 70.0584 151.692 82.0891 168.297 83.1829L218.05 84.4588C218.05 84.4588 235.263 85.9171 238.852 70.8483C238.852 70.8483 239.156 74.0079 238.669 75.8915C238.669 75.8915 246.698 70.2407 241.832 58.6353C241.832 58.6353 244.082 60.5797 244.751 62.281C244.751 62.281 246.759 55.9011 242.44 50.1895C238.182 44.4779 237.209 45.1463 236.479 39.8601C235.81 34.5739 226.626 10.4517 195.971 13.915C165.316 17.3177 156.923 42.5943 156.923 42.5943Z" fill="#BE5000"/>
<path opacity="0.5" d="M244.69 62.2198C244.69 62.2198 246.697 55.8398 242.379 50.1283C238.669 45.2066 237.452 45.0243 236.722 41.6217C236.722 44.0521 237.148 46.4218 238.729 48.4877C241.041 51.5865 243.899 54.0777 244.082 58.2095C244.082 58.6348 243.474 58.6956 243.352 58.331C242.622 56.3259 241.041 54.0777 238.851 53.4094C242.622 58.5741 242.744 65.6224 240.493 71.4555C240.311 71.82 239.763 71.82 239.763 71.3947C239.703 69.7541 239.52 68.2351 239.094 66.7161C237.756 71.2732 234.837 74.6758 231.309 77.8962C231.005 78.1392 230.518 77.8354 230.701 77.4708C232.708 73.9467 233.864 69.9972 233.864 65.9262C233.864 65.5616 234.289 65.4401 234.533 65.6831C237.452 64.1641 238.608 59.9108 237.878 56.812C237.391 54.6246 235.749 50.2498 232.769 51.222C232.526 51.2827 232.343 51.1004 232.282 50.8574C232.161 48.1839 232.343 45.5104 231.917 42.8977C231.674 41.5609 231.431 40.2242 231.431 38.8874C229.424 38.3406 227.538 37.2469 225.592 36.6393C222.246 35.6063 218.901 34.6341 215.434 34.2696C208.683 33.4797 201.627 33.7227 194.876 34.2088C188.307 34.6949 181.921 35.9709 175.473 37.3076C170.607 38.3406 165.559 39.4343 161.18 41.8647C161.119 45.7535 160.389 49.6422 159.781 53.4701C159.72 53.8347 159.294 53.8347 159.112 53.5917C157.226 50.7966 153.151 54.5031 152.543 56.569C151.752 59.1817 151.57 63.0097 153.212 65.3186C154.429 67.0199 156.557 67.506 156.375 69.8757C156.132 72.6099 156.497 75.2834 157.531 77.8962C157.652 78.2607 157.226 78.443 156.983 78.3215C153.03 76.7417 152.3 71.8808 151.996 67.9313C151.266 69.5719 151.083 71.3339 150.597 73.096C150.536 73.4606 149.988 73.4606 149.867 73.096C148.589 68.5389 148.103 64.1034 149.928 59.7893C148.285 60.883 146.826 62.159 145.731 63.8603C145.548 64.1641 145.062 64.0426 145.062 63.678C145.183 59.9108 146.339 56.1436 148.529 52.984C148.772 52.6195 149.015 52.3157 149.259 51.9511C146.096 55.0499 143.176 58.9386 144.393 66.7768C144.393 66.7768 146.035 63.3135 148.346 62.2805C148.346 62.2805 143.724 70.7263 151.022 76.7417C151.022 76.7417 150.718 73.5213 151.935 70.1187C151.935 70.1187 151.509 82.1494 168.114 83.2431L217.867 84.5191C217.867 84.5191 235.08 85.9774 238.669 70.9086C238.669 70.9086 238.973 74.0682 238.486 75.9518C238.486 75.9518 246.515 70.301 241.649 58.6956C241.831 58.6348 244.082 60.5184 244.69 62.2198Z" fill="#9F3900"/>
<path d="M160.998 57.2373C160.998 57.2373 159.659 54.6245 158.26 54.4423C156.862 54.26 153.638 55.8398 153.273 59.9108C152.908 63.921 155.402 66.716 157.531 67.3237C159.659 67.8705 160.572 65.2578 160.572 65.2578L160.998 57.2373Z" fill="#EFCAA6"/>
<path d="M157.531 58.9989C155.645 58.1483 155.037 60.6395 154.915 62.28C154.915 62.3408 154.976 62.3408 155.037 62.28C155.28 61.6724 155.463 61.0041 155.706 60.3964C156.132 59.3027 157.105 59.5458 157.713 60.1534C157.956 60.3964 158.139 60.6395 158.261 60.9433C157.896 61.0648 157.531 61.4294 157.287 61.794C156.983 62.28 156.801 62.8877 156.74 63.4345C156.74 63.4953 156.862 63.556 156.862 63.4953C157.105 63.0699 157.287 62.6446 157.531 62.2193C157.835 61.794 158.139 61.6724 158.565 61.4901C158.93 62.3408 159.112 63.3737 159.355 64.2852C159.416 64.4674 159.599 64.4674 159.659 64.2852C159.781 62.4016 159.295 59.7888 157.531 58.9989Z" fill="#C39368"/>
<path d="M229.667 55.1708C229.667 55.1708 231.37 52.8011 232.952 52.7403C234.533 52.6796 237.757 54.3809 237.817 58.2089C237.817 61.976 234.776 64.4065 232.465 64.7711C230.093 65.1356 229.424 62.5837 229.424 62.5837L229.667 55.1708Z" fill="#EFCAA6"/>
<path d="M233.194 57.0552C235.323 56.3868 235.688 58.8172 235.688 60.3363C235.688 60.397 235.566 60.397 235.566 60.3363C235.384 59.7287 235.262 59.1211 235.019 58.5134C234.654 57.4805 233.62 57.602 232.89 58.1489C232.586 58.3312 232.343 58.5742 232.16 58.8172C232.586 58.9388 232.89 59.3641 233.133 59.7287C233.438 60.2148 233.498 60.7616 233.559 61.3085C233.559 61.3692 233.438 61.3692 233.438 61.3085C233.255 60.8831 233.073 60.4578 232.829 60.0932C232.586 59.6679 232.221 59.5464 231.795 59.3641C231.309 60.154 231.065 61.0654 230.64 61.9161C230.579 62.0984 230.336 62.0376 230.336 61.8553C230.518 60.0932 231.248 57.6628 233.194 57.0552Z" fill="#C39368"/>
<path d="M160.756 42.8981C160.756 42.8981 161.121 51.9515 160.27 58.8783C159.418 65.7443 155.708 81.0561 175.05 89.0766C194.331 97.0971 219.025 91.6894 227.662 75.7092C229.791 71.7597 232.102 62.4025 230.764 55.0503C229.426 47.6982 229.486 39.3739 229.486 38.6448C229.486 37.9157 208.016 31.9003 184.964 37.4296C161.973 42.8981 160.756 42.8981 160.756 42.8981Z" fill="#F4D9BF"/>
<path d="M205.034 82.5741C203.027 85.4299 199.682 87.0097 196.336 87.6781C192.991 88.3464 189.22 88.1034 186.057 86.8274C183.989 85.9767 182.408 84.3969 181.495 82.3311C180.887 80.9943 180.583 79.5968 179.975 78.3208C183.868 79.4145 188.186 79.4753 192.139 78.8677C195.302 78.3816 198.343 77.4094 201.324 76.3765C202.723 75.8904 204 75.222 205.277 74.4929C206.372 73.8852 207.284 73.0953 208.258 72.3662C207.71 75.8904 207.163 79.536 205.034 82.5741Z" fill="#930323"/>
<path d="M203.514 77.0448C203.575 76.4372 203.575 75.8903 203.575 75.2827C202.845 75.6473 202.055 76.0119 201.264 76.3157C198.284 77.3486 195.242 78.3815 192.08 78.8069C189.525 79.2322 186.727 79.293 183.99 79.0499C184.233 79.7183 184.598 80.3259 184.963 80.8728C191.411 82.6956 198.162 80.9943 203.514 77.0448Z" fill="white"/>
<path d="M189.829 87.7993C192.019 88.1032 194.269 88.0424 196.337 87.6778C198.466 87.2525 200.534 86.5234 202.298 85.3081C197.797 83.2422 192.323 83.5461 189.829 87.7993Z" fill="#F9CBC0"/>
<path d="M177.846 61.1261C177.603 63.435 176.629 65.1971 175.778 65.1363C174.926 65.0756 174.44 63.1312 174.744 60.8223C174.987 58.5134 175.96 56.7513 176.812 56.8121C177.663 56.9336 178.15 58.8172 177.846 61.1261Z" fill="#3D1A0B"/>
<path d="M176.324 59.2425C176.203 59.9109 175.898 60.4577 175.594 60.3969C175.351 60.3362 175.229 59.7286 175.351 59.0602C175.473 58.3918 175.777 57.845 176.02 57.9057C176.324 57.9665 176.446 58.5741 176.324 59.2425Z" fill="white"/>
<path d="M208.744 60.4577C208.744 62.7666 208.136 64.6502 207.224 64.711C206.372 64.7717 205.642 62.8881 205.581 60.5792C205.581 58.2703 206.25 56.3867 207.102 56.3259C208.014 56.3259 208.744 58.1488 208.744 60.4577Z" fill="#3D1A0B"/>
<path d="M206.98 58.8168C206.919 59.4852 206.676 60.0928 206.433 60.032C206.19 60.032 206.007 59.4244 206.007 58.756C206.068 58.0877 206.311 57.4801 206.555 57.5408C206.798 57.5408 206.98 58.0877 206.98 58.8168Z" fill="white"/>
<path d="M177.724 69.6932C177.724 70.9692 175.048 72.0021 171.763 71.9414C168.479 71.8806 165.802 70.7869 165.802 69.4502C165.802 68.1742 168.479 67.1413 171.763 67.202C175.048 67.2628 177.724 68.4172 177.724 69.6932Z" fill="#F9CBC0"/>
<path d="M222.978 69.2069C223.282 70.4829 220.849 72.0627 217.626 72.6703C214.402 73.3387 211.543 72.8526 211.3 71.5766C210.996 70.3006 213.429 68.7208 216.653 68.1132C219.815 67.4448 222.674 67.9309 222.978 69.2069Z" fill="#F9CBC0"/>
<path d="M190.559 67.6276C191.106 66.5339 190.802 65.3794 190.133 64.3465C190.072 64.225 189.89 64.3465 189.89 64.468C190.072 64.9541 190.194 65.3794 190.194 65.9263C190.194 66.4731 189.951 66.8985 189.768 67.3238C188.978 67.1415 188.065 67.3238 187.639 67.9922C187.092 68.9036 187.579 70.3011 187.944 71.2125C188.43 72.4885 189.647 73.2784 190.802 73.9468C190.863 74.0075 190.924 73.886 190.863 73.8252C189.403 72.4885 188.369 71.5163 188.126 69.4504C187.944 67.8099 189.464 67.6276 190.559 68.4175C191.289 68.9036 191.715 69.815 192.14 70.5441C192.262 70.7264 192.444 70.5441 192.384 70.4226C192.14 69.2681 191.593 68.296 190.559 67.6276Z" fill="#C39368"/>
<path d="M208.44 71.2724H208.379C207.406 71.8193 206.676 72.6092 205.764 73.2168C204.547 74.1282 203.027 74.7966 201.628 75.3434C198.769 76.4979 195.728 77.3485 192.687 77.9562C187.274 78.9891 180.401 78.746 175.413 76.1941C175.352 76.1941 175.292 76.2548 175.352 76.2548C176.69 77.1055 178.15 77.7131 179.671 78.1384C180.766 81.8449 181.617 85.1867 185.327 87.1311C188.551 88.8932 192.869 88.8932 196.397 88.2856C199.864 87.7387 202.966 86.0374 205.277 83.3639C208.075 80.1436 208.562 75.5865 209.048 71.5155C209.109 71.2117 208.683 71.0901 208.44 71.2724ZM205.034 82.574C203.027 85.4298 199.682 87.0096 196.336 87.6779C192.991 88.3463 189.22 88.1033 186.057 86.8273C183.989 85.9766 182.408 84.3968 181.495 82.331C180.887 80.9942 180.583 79.5967 179.975 78.3207C183.868 79.4144 188.186 79.4752 192.14 78.8676C195.302 78.3815 198.343 77.4093 201.324 76.3764C202.723 75.8903 204 75.2219 205.277 74.4928C206.372 73.8851 207.285 73.0953 208.258 72.3661C207.71 75.8903 207.163 79.5359 205.034 82.574Z" fill="#C39368"/>
<path d="M213.428 52.1329C212.09 47.4543 208.38 44.9024 204.305 46.2999C200.655 47.5758 198.709 52.0114 198.709 55.9609C198.709 56.0824 198.892 56.1432 198.952 56.0217C200.108 53.1659 201.689 50.4924 204.548 49.1556C208.258 47.3936 210.57 50.9177 212.151 53.5912C212.881 54.8672 213.793 53.4697 213.428 52.1329Z" fill="#BE5000"/>
<path d="M176.69 47.6366C173.223 47.1505 170.122 50.5531 169.878 53.4089C169.757 54.6241 170.547 55.414 171.216 54.3811C173.041 51.586 174.501 50.1278 176.751 50.3101C179.245 50.5531 180.401 53.4696 181.252 55.4748C181.313 55.657 181.617 55.5963 181.556 55.414C181.07 52.619 180.948 48.1834 176.69 47.6366Z" fill="#BE5000"/>
<path d="M230.642 36.0917C228.574 30.1371 207.773 28.0104 196.277 28.8003C184.721 29.5902 159.296 34.3296 160.026 41.8032C160.026 41.8032 160.878 49.1554 162.034 52.801C162.034 52.801 165.805 44.1729 173.772 42.7754C173.772 42.7754 170.975 45.1451 169.819 48.2439L190.499 41.1349C190.499 41.1349 187.944 43.0185 187.093 44.9021C187.093 44.9021 201.934 43.2008 209.597 39.1298C209.597 39.1298 207.894 41.2564 207.164 42.1071C207.164 42.1071 212.699 41.0134 216.41 38.6437C216.41 38.6437 215.984 41.9855 223.708 46.7249C223.708 46.7249 224.134 44.5375 223.404 41.1956C223.404 41.1956 227.662 47.7579 230.885 49.3984C230.885 49.4592 232.71 42.0463 230.642 36.0917Z" fill="#BE5000"/>
<path d="M195.12 1.76167C182.955 1.94396 152.057 13.5494 155.645 45.2667C155.645 45.2667 197.37 29.2257 238.122 42.2894C238.183 42.2894 240.311 0.971775 195.12 1.76167ZM210.326 33.3575C196.701 32.203 180.644 35.4842 180.644 35.4842C180.644 35.4842 179.549 19.8078 194.025 18.471C210.326 16.952 210.326 33.3575 210.326 33.3575Z" fill="#FFAB05"/>
<path d="M170.243 24.7303C171.155 19.2011 173.223 13.9148 177.177 9.7223C179.488 7.29185 182.225 5.28673 185.084 3.52466C171.155 7.83871 152.847 20.3555 155.706 45.2069C155.706 45.2069 161.058 43.141 169.695 41.1359C169.33 35.6066 169.391 30.1988 170.243 24.7303Z" fill="#687100"/>
<path d="M201.569 1.94482C204.488 2.85624 207.286 4.43603 209.597 6.07659C214.037 9.23617 216.957 13.9148 219.147 18.8364C221.64 24.4265 222.918 30.8064 223.587 36.8825C223.648 37.4901 223.708 38.1585 223.769 38.8269C228.513 39.6168 233.318 40.7712 238.124 42.2903C238.184 42.2903 240.07 5.04365 201.569 1.94482Z" fill="#687100"/>
<path d="M192.202 33.3577C192.202 33.3577 196.216 31.7172 199.318 32.9324L199.683 37.0034C199.683 37.0034 196.946 38.7047 192.688 37.368L192.202 33.3577Z" fill="#FFDE05"/>
<path opacity="0.3" d="M164.406 19.7473C170.306 21.0233 176.206 21.9347 182.227 22.3601C183.139 22.4208 184.052 22.4816 184.964 22.5423C186.971 20.4765 189.83 18.8359 194.027 18.4713C200.109 17.9245 203.941 19.8081 206.313 22.4816C210.814 22.117 215.254 21.5702 219.694 20.6587C223.648 19.8688 227.601 19.0182 231.494 18.046C225.716 9.17487 215.011 1.39743 195.122 1.70124C187.154 1.82276 171.157 6.86594 162.034 19.2005C162.885 19.4435 163.676 19.6258 164.406 19.7473Z" fill="#FCFF93"/>
<path d="M206.495 174.142C206.495 174.142 217.2 207.804 217.869 236.726C217.869 236.726 223.039 238.853 226.506 235.45C226.506 235.45 224.013 195.348 213.429 171.772L206.495 174.142Z" fill="#F4D9BF"/>
<path d="M216.045 178.396C215.254 176.087 214.402 173.9 213.429 171.834L206.495 174.143C206.495 174.143 207.347 176.816 208.563 181.252C211.118 180.887 213.612 179.733 216.045 178.396Z" fill="#EFCAA6"/>
<path d="M216.349 218.376C217.201 224.452 217.748 230.711 217.87 236.726C217.87 236.726 223.04 238.853 226.507 235.45C226.507 235.45 226.02 227.977 224.621 217.586C221.945 218.255 219.147 218.437 216.349 218.376Z" fill="#F2EEEB"/>
<path d="M215.254 242.498C214.828 240.675 214.464 234.781 215.315 234.052C216.349 233.141 216.714 233.08 217.687 232.837C217.687 232.837 218.356 234.599 222.553 234.538C222.614 234.538 221.093 233.505 223.648 233.08C226.142 232.655 227.297 232.29 228.574 232.047C229.852 231.804 230.034 232.715 230.034 233.444C230.034 233.444 239.523 233.627 243.719 233.262C247.916 232.958 252.843 233.687 254.607 236.969C256.31 240.25 254.364 241.647 249.194 243.166C244.024 244.685 226.202 246.69 220.789 246.508C216.471 246.326 215.741 244.685 215.254 242.498Z" fill="#00647E"/>
<path d="M254.605 236.908C253.024 233.931 248.705 233.08 244.813 233.202C241.832 235.571 239.156 237.941 239.521 242.498C239.582 243.288 239.703 244.017 239.886 244.807C243.839 244.26 247.306 243.652 249.192 243.106C254.362 241.587 256.308 240.189 254.605 236.908Z" fill="#F3F4EF"/>
<path d="M239.582 245.172L239.521 244.807C239.4 244.2 239.217 243.349 239.157 242.498C238.792 237.881 241.407 235.389 244.631 232.837L244.752 232.777H244.874C245.482 232.777 246.09 232.777 246.699 232.777C249.618 232.898 253.45 233.749 255.031 236.726C255.7 238.063 255.883 239.096 255.457 240.007C254.788 241.587 252.538 242.498 249.375 243.471C247.611 243.957 244.266 244.564 240.008 245.172H239.582ZM244.996 233.566C241.894 235.997 239.643 238.245 239.947 242.438C240.008 243.106 240.13 243.774 240.191 244.321C244.266 243.774 247.428 243.167 249.071 242.681C252.598 241.648 254.18 240.797 254.666 239.703C254.971 239.035 254.849 238.184 254.241 237.091C252.781 234.296 248.827 233.688 246.577 233.566C246.09 233.566 245.543 233.566 244.996 233.566Z" fill="#BFBFBE"/>
<path d="M232.893 243.714C228.636 243.957 224.135 244.443 219.877 244.14C218.174 244.018 216.593 243.593 215.316 242.681C215.802 244.808 216.654 246.327 220.79 246.449C226.203 246.57 243.963 244.565 249.194 243.107C253.695 241.831 255.763 240.615 255.094 238.124C248.707 242.195 239.949 243.289 232.893 243.714Z" fill="#F3F4EF"/>
<path d="M220.364 246.813C216.593 246.63 215.498 245.172 214.95 242.742L214.707 241.769L215.498 242.316C216.653 243.106 218.113 243.592 219.877 243.714C223.283 243.957 226.872 243.714 230.278 243.471C231.129 243.41 231.981 243.349 232.832 243.288C239.158 242.924 248.342 241.891 254.85 237.82L255.276 237.516L255.459 238.002C256.249 240.858 253.756 242.134 249.315 243.41C244.024 244.929 226.081 246.934 220.789 246.752C220.668 246.813 220.485 246.813 220.364 246.813ZM215.923 243.531C216.41 244.99 217.505 246.023 220.789 246.083C226.02 246.205 243.841 244.261 249.072 242.742C253.391 241.466 254.972 240.433 254.79 238.792C248.221 242.742 239.158 243.714 232.893 244.139C232.042 244.2 231.19 244.261 230.339 244.321C226.872 244.564 223.283 244.807 219.816 244.564C218.356 244.382 217.018 244.078 215.923 243.531Z" fill="#BFBFBE"/>
<path d="M176.449 176.33C176.449 176.33 167.873 210.599 166.839 235.998C166.839 235.998 163.615 241.284 158.202 235.755C158.202 235.755 160.696 199.966 169.515 173.9L176.449 176.33Z" fill="#F4D9BF"/>
<path d="M167.385 180.705C168.054 178.396 168.723 176.087 169.514 173.839L176.509 176.33C176.509 176.33 175.961 178.396 175.231 181.798C172.373 181.798 169.818 181.434 167.385 180.705Z" fill="#EFCAA6"/>
<path d="M168.238 219.956C167.569 225.425 167.021 230.893 166.839 235.997C166.839 235.997 163.615 241.283 158.202 235.754C158.202 235.754 158.689 228.949 159.966 219.105C162.703 220.017 165.562 220.503 168.238 219.956Z" fill="#F2EEEB"/>
<path d="M162.885 234.479C162.885 234.479 166.352 234.843 166.899 233.567V232.17C166.899 232.17 169.758 232.413 169.575 235.026C169.454 237.638 168.359 242.925 167.994 244.504C167.568 246.023 168.055 246.813 165.379 247.36C162.702 247.968 154.187 248.636 145.489 246.935C136.792 245.294 132.473 243.289 131.561 240.919C130.648 238.55 136.427 233.567 143.725 234.843C151.024 236.18 153.579 234.418 154.795 233.689C155.951 232.96 155.099 231.988 156.924 231.684C158.749 231.441 164.953 232.96 162.885 234.479Z" fill="#00647E"/>
<path d="M142.388 234.722C143.787 235.391 145.125 236.241 146.22 237.274C149.322 240.312 148.896 243.897 147.254 247.239C146.646 247.117 146.099 247.057 145.49 246.935C136.793 245.295 132.474 243.29 131.562 240.92C130.65 238.732 135.759 234.175 142.388 234.722Z" fill="#F3F4EF"/>
<path d="M147.497 247.664L147.192 247.603C146.584 247.542 146.037 247.421 145.429 247.299C136.731 245.659 132.169 243.654 131.196 241.041C130.892 240.312 131.135 239.34 131.804 238.367C133.446 236.119 137.4 233.81 142.387 234.236L142.509 234.296C144.151 235.086 145.489 235.937 146.463 236.909C149.26 239.583 149.625 243.107 147.557 247.36L147.497 247.664ZM141.962 235.086C137.704 234.843 133.933 236.848 132.412 238.914C131.865 239.643 131.683 240.312 131.865 240.798C132.777 243.107 137.217 244.99 145.55 246.57C146.037 246.631 146.523 246.752 147.01 246.813C148.774 242.985 148.47 239.947 145.976 237.517C145.064 236.605 143.847 235.815 142.266 235.025C142.205 235.086 142.083 235.086 141.962 235.086Z" fill="#BFBFBE"/>
<path d="M148.349 245.112C154.796 246.024 162.217 245.781 168.117 243.836C168.056 244.079 167.995 244.262 167.995 244.444C167.569 245.963 168.056 246.753 165.38 247.3C162.703 247.907 154.188 248.576 145.49 246.874C136.793 245.234 132.474 243.229 131.562 240.859C131.319 240.251 131.501 239.522 132.048 238.732C136.549 242.803 142.449 244.262 148.349 245.112Z" fill="#F3F4EF"/>
<path d="M153.64 248.332C150.781 248.211 147.983 247.846 145.368 247.36C136.67 245.72 132.108 243.715 131.135 241.102C130.892 240.373 131.074 239.522 131.683 238.611L131.926 238.246L132.23 238.55C136.913 242.682 143.3 244.079 148.348 244.808C149.869 245.051 151.45 245.173 152.971 245.234C158.445 245.537 163.736 244.93 167.933 243.532L168.602 243.289L168.298 244.565C168.237 244.869 168.177 245.112 168.116 245.294C167.933 246.51 167.69 247.178 165.379 247.725C163.432 248.211 158.81 248.576 153.64 248.332ZM132.108 239.401C131.804 239.947 131.743 240.434 131.865 240.798C132.777 243.107 137.217 244.991 145.55 246.57C148.105 247.057 150.842 247.36 153.701 247.543C159.54 247.846 163.858 247.3 165.318 246.996C167.264 246.57 167.325 246.145 167.507 245.234C167.568 244.991 167.568 244.748 167.629 244.505C163.432 245.781 158.262 246.327 153.032 246.024C151.45 245.963 149.869 245.781 148.287 245.537C143.239 244.808 136.913 243.411 132.108 239.401Z" fill="#BFBFBE"/>
<path d="M217.808 143.215L170.67 144.369C167.264 152.39 161.79 173.109 161.79 173.109L188.248 176.573L192.445 161.504L195.79 176.937L222.066 168.552L217.808 143.215Z" fill="#207100"/>
<path opacity="0.7" d="M170.792 153.605C172.495 152.389 173.468 150.81 174.016 148.865C174.442 147.407 174.867 145.827 175.05 144.247L170.549 144.369C169.454 146.921 168.177 150.688 166.96 154.698C168.359 154.637 169.758 154.394 170.792 153.605Z" fill="#9E8807"/>
<path opacity="0.7" d="M212.456 145.949C212.76 147.893 212.881 150.202 214.463 151.6C215.862 152.876 217.626 153.422 219.511 153.665L217.747 143.154L211.847 143.275C212.152 144.187 212.334 145.098 212.456 145.949Z" fill="#9E8807"/>
<path opacity="0.4" d="M204.063 152.451C209.172 151.843 213.916 149.959 218.6 147.711L217.87 143.215L170.732 144.369C170.124 145.767 169.454 147.59 168.725 149.656C180.038 152.937 192.324 153.848 204.063 152.451Z" fill="#207100"/>
<path d="M160.757 171.407C160.757 171.407 179.977 175.174 190.196 175.174L188.918 179.428C188.918 179.428 175.902 179.671 160.21 175.114L160.757 171.407Z" fill="#AFCA04"/>
<path d="M193.844 176.634L195.547 180.401C195.547 180.401 216.47 175.904 224.255 171.469L223.343 167.641L193.844 176.634Z" fill="#AFCA04"/>
<path d="M199.255 106.575L190.558 107.061L182.286 134.951L189.645 135.558L191.227 126.566L197.613 126.687L199.864 135.741L206.432 134.161L199.255 106.575ZM191.652 121.948L193.234 114.778L196.032 114.839L197.005 121.826L191.652 121.948Z" fill="#006AB0"/>
<path d="M686.634 339.29C686.634 341.66 685.235 343.604 683.472 343.604H611.335C609.632 343.604 608.172 341.66 608.172 339.29C608.172 336.921 609.571 334.976 611.335 334.976H683.472C685.235 335.037 686.634 336.921 686.634 339.29Z" fill="#1A1A1D"/>
<path d="M521.194 355.089C521.194 370.279 508.907 382.553 493.701 382.553C478.496 382.553 466.209 370.279 466.209 355.089C466.209 339.898 478.496 327.625 493.701 327.625C508.907 327.625 521.194 339.959 521.194 355.089Z" fill="#1A1A1D"/>
<path d="M523.81 355.089C523.81 370.279 511.523 382.553 496.318 382.553C481.112 382.553 468.826 370.279 468.826 355.089C468.826 339.898 481.112 327.625 496.318 327.625C511.523 327.625 523.81 339.959 523.81 355.089Z" fill="#3E3F41"/>
<path d="M512.618 355.089C512.618 364.082 505.319 371.373 496.317 371.373C487.315 371.373 480.016 364.082 480.016 355.089C480.016 346.096 487.315 338.805 496.317 338.805C505.319 338.805 512.618 346.096 512.618 355.089Z" fill="#6F7073"/>
<path d="M503.31 355.089C503.31 358.978 500.147 362.077 496.316 362.077C492.484 362.077 489.321 358.978 489.321 355.089C489.321 351.2 492.484 348.102 496.316 348.102C500.147 348.102 503.31 351.261 503.31 355.089Z" fill="#DADCDD"/>
<path d="M594.912 355.089C594.912 370.279 582.626 382.553 567.42 382.553C552.214 382.553 539.928 370.279 539.928 355.089C539.928 339.898 552.214 327.625 567.42 327.625C582.626 327.625 594.912 339.959 594.912 355.089Z" fill="#1A1A1D"/>
<path d="M597.466 355.089C597.466 370.279 585.18 382.553 569.974 382.553C554.768 382.553 542.482 370.279 542.482 355.089C542.482 339.898 554.768 327.625 569.974 327.625C585.18 327.625 597.466 339.959 597.466 355.089Z" fill="#3E3F41"/>
<path d="M586.274 355.089C586.274 364.082 578.975 371.373 569.973 371.373C560.971 371.373 553.672 364.082 553.672 355.089C553.672 346.096 560.971 338.805 569.973 338.805C578.975 338.805 586.274 346.096 586.274 355.089Z" fill="#6F7073"/>
<path d="M569.975 362.077C573.838 362.077 576.969 358.948 576.969 355.089C576.969 351.23 573.838 348.102 569.975 348.102C566.112 348.102 562.98 351.23 562.98 355.089C562.98 358.948 566.112 362.077 569.975 362.077Z" fill="#DADCDD"/>
<path d="M571.797 355.149C571.797 356.851 570.398 358.309 568.695 358.309H496.863C495.16 358.309 493.761 356.911 493.761 355.149C493.761 353.448 495.16 352.051 496.863 352.051H568.695C570.398 352.051 571.797 353.387 571.797 355.149Z" fill="#1A1A1D"/>
<path d="M633.412 240.857H482.693V366.815H633.412V240.857Z" fill="#64BB45"/>
<path d="M633.351 240.857H536.156V366.815H633.351V240.857Z" fill="#009543"/>
<path d="M642.231 234.355H475.089V243.895H642.231V234.355Z" fill="#0060B0"/>
<path d="M642.232 234.355H536.156V243.895H642.232V234.355Z" fill="#085498"/>
<path d="M573.075 359.037C573.075 374.228 560.788 386.501 545.583 386.501C530.377 386.501 518.09 374.228 518.09 359.037C518.09 343.847 530.377 331.573 545.583 331.573C560.788 331.573 573.075 343.847 573.075 359.037Z" fill="#1A1A1D"/>
<path d="M575.629 359.037C575.629 374.228 563.343 386.501 548.137 386.501C532.931 386.501 520.645 374.228 520.645 359.037C520.645 343.847 532.992 331.573 548.137 331.573C563.343 331.573 575.629 343.847 575.629 359.037Z" fill="#3E3F41"/>
<path d="M564.499 359.037C564.499 368.03 557.2 375.321 548.198 375.321C539.196 375.321 531.898 368.03 531.898 359.037C531.898 350.044 539.196 342.753 548.198 342.753C557.139 342.692 564.499 350.044 564.499 359.037Z" fill="#6F7073"/>
<path d="M555.192 359.038C555.192 362.927 552.09 366.025 548.197 366.025C544.304 366.025 541.202 362.927 541.202 359.038C541.202 355.21 544.365 352.05 548.197 352.05C552.029 352.05 555.192 355.149 555.192 359.038Z" fill="#DADCDD"/>
<path d="M646.793 359.037C646.793 374.228 634.507 386.501 619.301 386.501C604.095 386.501 591.809 374.228 591.809 359.037C591.809 343.847 604.095 331.573 619.301 331.573C634.446 331.573 646.793 343.847 646.793 359.037Z" fill="#1A1A1D"/>
<path d="M649.347 359.037C649.347 374.228 637.061 386.501 621.855 386.501C606.649 386.501 594.363 374.228 594.363 359.037C594.363 343.847 606.649 331.573 621.855 331.573C637.061 331.573 649.347 343.847 649.347 359.037Z" fill="#3E3F41"/>
<path d="M638.155 359.037C638.155 368.03 630.856 375.321 621.854 375.321C612.852 375.321 605.553 368.03 605.553 359.037C605.553 350.044 612.852 342.753 621.854 342.753C630.856 342.692 638.155 350.044 638.155 359.037Z" fill="#6F7073"/>
<path d="M628.85 359.038C628.85 362.927 625.687 366.025 621.856 366.025C617.963 366.025 614.861 362.927 614.861 359.038C614.861 355.21 617.963 352.05 621.856 352.05C625.748 352.05 628.85 355.149 628.85 359.038Z" fill="#DADCDD"/>
<path d="M623.68 359.037C623.68 360.739 622.281 362.136 620.578 362.136H548.745C547.042 362.136 545.583 360.739 545.583 359.037C545.583 357.336 546.981 355.878 548.745 355.878H620.578C622.281 355.938 623.68 357.336 623.68 359.037Z" fill="#1A1A1D"/>
<path d="M616.259 293.78C616.259 307.208 605.372 318.084 591.93 318.084H577.637C564.195 318.084 553.307 307.208 553.307 293.78V279.501C553.307 266.073 564.195 255.196 577.637 255.196H591.93C605.372 255.196 616.259 266.073 616.259 279.501V293.78Z" fill="#C71B00"/>
<path d="M608.292 293.172C608.292 303.198 600.142 311.34 590.106 311.34H579.462C569.426 311.34 561.276 303.198 561.276 293.172V282.539C561.276 272.513 569.426 264.371 579.462 264.371H590.106C600.142 264.371 608.292 272.513 608.292 282.539V293.172Z" fill="#0060B0"/>
<path d="M511.948 339.108C511.948 345.427 507.873 350.531 502.825 350.531C497.777 350.531 493.702 345.427 493.702 339.108C493.702 332.788 497.777 327.684 502.825 327.684C507.873 327.624 511.948 332.788 511.948 339.108Z" fill="#FFA600"/>
<path d="M505.562 339.291C505.562 341.66 504.164 343.605 502.4 343.605H430.324C428.621 343.605 427.161 341.66 427.161 339.291C427.161 336.921 428.56 334.977 430.324 334.977H502.4C504.164 335.037 505.562 336.921 505.562 339.291Z" fill="#1A1A1D"/>
<path d="M339.151 355.089C339.151 370.279 326.865 382.553 311.659 382.553C296.453 382.553 284.167 370.279 284.167 355.089C284.167 339.898 296.453 327.625 311.659 327.625C326.865 327.625 339.151 339.959 339.151 355.089Z" fill="#1A1A1D"/>
<path d="M341.705 355.089C341.705 370.279 329.419 382.553 314.213 382.553C299.007 382.553 286.721 370.279 286.721 355.089C286.721 339.898 299.007 327.625 314.213 327.625C329.419 327.625 341.705 339.959 341.705 355.089Z" fill="#3E3F41"/>
<path d="M330.514 355.089C330.514 364.082 323.215 371.373 314.213 371.373C305.211 371.373 297.852 364.082 297.852 355.089C297.852 346.096 305.15 338.805 314.213 338.805C323.276 338.805 330.514 346.096 330.514 355.089Z" fill="#6F7073"/>
<path d="M321.268 355.089C321.268 358.978 318.105 362.077 314.273 362.077C310.441 362.077 307.278 358.978 307.278 355.089C307.278 351.2 310.441 348.102 314.273 348.102C318.105 348.102 321.268 351.261 321.268 355.089Z" fill="#DADCDD"/>
<path d="M412.869 355.089C412.869 370.279 400.583 382.553 385.377 382.553C370.172 382.553 357.885 370.279 357.885 355.089C357.885 339.898 370.172 327.625 385.377 327.625C400.522 327.625 412.869 339.959 412.869 355.089Z" fill="#1A1A1D"/>
<path d="M415.424 355.089C415.424 370.279 403.137 382.553 387.932 382.553C372.726 382.553 360.439 370.279 360.439 355.089C360.439 339.898 372.726 327.625 387.932 327.625C403.137 327.625 415.424 339.959 415.424 355.089Z" fill="#3E3F41"/>
<path d="M404.231 355.089C404.231 364.082 396.932 371.373 387.93 371.373C378.929 371.373 371.63 364.082 371.63 355.089C371.63 346.096 378.929 338.805 387.93 338.805C396.932 338.805 404.231 346.096 404.231 355.089Z" fill="#6F7073"/>
<path d="M394.927 355.089C394.927 358.978 391.764 362.077 387.932 362.077C384.039 362.077 380.938 358.978 380.938 355.089C380.938 351.2 384.1 348.102 387.932 348.102C391.764 348.102 394.927 351.261 394.927 355.089Z" fill="#DADCDD"/>
<path d="M389.756 355.149C389.756 356.851 388.357 358.309 386.654 358.309H314.761C313.058 358.309 311.659 356.911 311.659 355.149C311.659 353.448 313.058 352.051 314.761 352.051H386.654C388.357 352.051 389.756 353.387 389.756 355.149Z" fill="#1A1A1D"/>
<path d="M451.31 240.857H300.59V366.815H451.31V240.857Z" fill="#ED2324"/>
<path d="M451.309 240.857H354.113V366.815H451.309V240.857Z" fill="#C71B00"/>
<path d="M460.19 234.355H292.987V243.895H460.19V234.355Z" fill="#0060B0"/>
<path d="M460.189 234.355H354.113V243.895H460.189V234.355Z" fill="#085498"/>
<path d="M391.032 359.037C391.032 374.228 378.746 386.501 363.54 386.501C348.334 386.501 336.048 374.228 336.048 359.037C336.048 343.847 348.334 331.573 363.54 331.573C378.685 331.573 391.032 343.847 391.032 359.037Z" fill="#1A1A1D"/>
<path d="M393.586 359.037C393.586 374.228 381.3 386.501 366.094 386.501C350.888 386.501 338.602 374.228 338.602 359.037C338.602 343.847 350.888 331.573 366.094 331.573C381.3 331.573 393.586 343.847 393.586 359.037Z" fill="#3E3F41"/>
<path d="M382.394 359.037C382.394 368.03 375.095 375.321 366.093 375.321C357.091 375.321 349.792 368.03 349.792 359.037C349.792 350.044 357.091 342.753 366.093 342.753C375.095 342.692 382.394 350.044 382.394 359.037Z" fill="#6F7073"/>
<path d="M373.089 359.038C373.089 362.927 369.927 366.025 366.095 366.025C362.202 366.025 359.1 362.927 359.1 359.038C359.1 355.21 362.263 352.05 366.095 352.05C369.987 352.05 373.089 355.149 373.089 359.038Z" fill="#DADCDD"/>
<path d="M464.688 359.037C464.688 374.228 452.402 386.501 437.196 386.501C421.99 386.501 409.704 374.228 409.704 359.037C409.704 343.847 421.99 331.573 437.196 331.573C452.402 331.573 464.688 343.847 464.688 359.037Z" fill="#1A1A1D"/>
<path d="M467.304 359.037C467.304 374.228 455.018 386.501 439.812 386.501C424.606 386.501 412.32 374.228 412.32 359.037C412.32 343.847 424.606 331.573 439.812 331.573C454.957 331.573 467.304 343.847 467.304 359.037Z" fill="#3E3F41"/>
<path d="M456.112 359.037C456.112 368.03 448.813 375.321 439.811 375.321C430.81 375.321 423.511 368.03 423.511 359.037C423.511 350.044 430.81 342.753 439.811 342.753C448.813 342.692 456.112 350.044 456.112 359.037Z" fill="#6F7073"/>
<path d="M446.805 359.038C446.805 362.927 443.703 366.025 439.811 366.025C435.918 366.025 432.816 362.927 432.816 359.038C432.816 355.21 435.918 352.05 439.811 352.05C443.642 352.05 446.805 355.149 446.805 359.038Z" fill="#DADCDD"/>
<path d="M441.636 359.037C441.636 360.739 440.237 362.136 438.473 362.136H366.641C364.877 362.136 363.478 360.739 363.478 359.037C363.478 357.336 364.877 355.878 366.641 355.878H438.473C440.237 355.938 441.636 357.336 441.636 359.037Z" fill="#1A1A1D"/>
<path d="M434.217 293.78C434.217 307.208 423.329 318.084 409.887 318.084H395.594C382.152 318.084 371.265 307.208 371.265 293.78V279.501C371.265 266.073 382.152 255.196 395.594 255.196H409.887C423.329 255.196 434.217 266.073 434.217 279.501V293.78Z" fill="#FFA600"/>
<path d="M426.187 293.172C426.187 303.198 418.037 311.34 408.001 311.34H397.357C387.321 311.34 379.171 303.198 379.171 293.172V282.539C379.171 272.513 387.321 264.371 397.357 264.371H408.001C418.037 264.371 426.187 272.513 426.187 282.539V293.172Z" fill="#80D2ED"/>
<path d="M329.906 339.108C329.906 345.427 325.831 350.531 320.782 350.531C315.734 350.531 311.659 345.427 311.659 339.108C311.659 332.788 315.734 327.684 320.782 327.684C325.831 327.624 329.906 332.788 329.906 339.108Z" fill="#FFA600"/>
<path d="M323.458 339.29C323.458 341.66 322.059 343.604 320.295 343.604H248.219C246.456 343.604 245.057 341.66 245.057 339.29C245.057 336.921 246.456 334.976 248.219 334.976H320.295C322.059 335.037 323.458 336.921 323.458 339.29Z" fill="#1A1A1D"/>
<path d="M232.527 355.393C232.527 370.583 220.241 382.857 205.035 382.857C189.829 382.857 177.543 370.583 177.543 355.393C177.543 340.202 189.829 327.928 205.035 327.928C220.18 327.928 232.527 340.202 232.527 355.393Z" fill="#1A1A1D"/>
<path d="M235.081 355.393C235.081 370.583 222.795 382.857 207.589 382.857C192.383 382.857 180.097 370.583 180.097 355.393C180.097 340.202 192.383 327.928 207.589 327.928C222.795 327.928 235.081 340.202 235.081 355.393Z" fill="#3E3F41"/>
<path d="M223.889 355.393C223.889 364.386 216.59 371.677 207.588 371.677C198.586 371.677 191.287 364.386 191.287 355.393C191.287 346.4 198.586 339.109 207.588 339.109C216.59 339.109 223.889 346.339 223.889 355.393Z" fill="#6F7073"/>
<path d="M214.584 355.393C214.584 359.281 211.421 362.38 207.59 362.38C203.697 362.38 200.595 359.22 200.595 355.393C200.595 351.565 203.758 348.405 207.59 348.405C211.482 348.344 214.584 351.504 214.584 355.393Z" fill="#DADCDD"/>
<path d="M87.7066 355.393C87.7066 370.583 75.4203 382.857 60.2145 382.857C45.0087 382.857 32.7224 370.583 32.7224 355.393C32.7224 340.202 45.0087 327.929 60.2145 327.929C75.4203 327.929 87.7066 340.202 87.7066 355.393Z" fill="#1A1A1D"/>
<path d="M90.2609 355.393C90.2609 370.583 77.9746 382.857 62.7688 382.857C47.563 382.857 35.2767 370.583 35.2767 355.393C35.2767 340.202 47.563 327.928 62.7688 327.928C77.9746 327.928 90.2609 340.202 90.2609 355.393Z" fill="#3E3F41"/>
<path d="M79.1308 355.393C79.1308 364.386 71.832 371.677 62.8302 371.677C53.8283 371.677 46.5295 364.386 46.5295 355.393C46.5295 346.4 53.8283 339.109 62.8302 339.109C71.7712 339.109 79.1308 346.339 79.1308 355.393Z" fill="#6F7073"/>
<path d="M69.7641 355.393C69.7641 359.281 66.6621 362.38 62.7694 362.38C58.8768 362.38 55.7748 359.22 55.7748 355.393C55.7748 351.565 58.9376 348.405 62.7694 348.405C66.6621 348.344 69.7641 351.504 69.7641 355.393Z" fill="#DADCDD"/>
<path d="M161.425 355.393C161.425 370.583 149.139 382.857 133.933 382.857C118.727 382.857 106.441 370.583 106.441 355.393C106.441 340.202 118.727 327.928 133.933 327.928C149.078 327.928 161.425 340.202 161.425 355.393Z" fill="#1A1A1D"/>
<path d="M163.979 355.393C163.979 370.583 151.693 382.857 136.487 382.857C121.281 382.857 108.995 370.583 108.995 355.393C108.995 340.202 121.281 327.928 136.487 327.928C151.693 327.928 163.979 340.202 163.979 355.393Z" fill="#3E3F41"/>
<path d="M152.787 355.393C152.787 364.386 145.488 371.677 136.486 371.677C127.484 371.677 120.186 364.386 120.186 355.393C120.186 346.4 127.484 339.109 136.486 339.109C145.488 339.109 152.787 346.339 152.787 355.393Z" fill="#6F7073"/>
<path d="M143.483 355.393C143.483 359.281 140.32 362.38 136.488 362.38C132.595 362.38 129.493 359.22 129.493 355.393C129.493 351.565 132.656 348.405 136.488 348.405C140.32 348.344 143.483 351.504 143.483 355.393Z" fill="#DADCDD"/>
<path d="M138.311 355.393C138.311 357.094 136.912 358.491 135.209 358.491H63.3773C61.6742 358.491 60.2145 357.094 60.2145 355.393C60.2145 353.691 61.6134 352.294 63.3773 352.294H135.209C136.912 352.294 138.311 353.691 138.311 355.393Z" fill="#1A1A1D"/>
<path d="M211.543 355.393C211.543 357.094 210.144 358.491 208.441 358.491H136.548C134.845 358.491 133.446 357.094 133.446 355.393C133.446 353.691 134.845 352.294 136.548 352.294H208.38C210.144 352.294 211.543 353.691 211.543 355.393Z" fill="#1A1A1D"/>
<path d="M39.8994 343.786L7.11572 386.015H57.5382V345.791L39.8994 343.786ZM13.198 383.16L38.318 351.503L41.6633 352.111L20.5576 383.16H13.198ZM24.572 383.16L43.4272 352.232L47.9889 352.597L37.7706 383.099H24.572V383.16ZM52.4898 383.16H42.3324L50.1785 352.779L54.497 352.657L52.4898 383.16Z" fill="#232020"/>
<path d="M60.215 383.161H0V391.424H60.215V383.161Z" fill="#4D4848"/>
<path d="M262.573 134.343H136.243V348.283H262.573V134.343Z" fill="#FFA600"/>
<path d="M262.573 134.343H181.13V348.283H262.573V134.343Z" fill="#C28211"/>
<path d="M102.304 155.609H49.2051V269.475H102.304V155.609Z" fill="#C71B00"/>
<path d="M102.304 155.609H49.2051V175.539H102.304V155.609Z" fill="#860F10"/>
<path d="M102.304 212.543H49.2051V232.473H102.304V212.543Z" fill="#860F10"/>
<path d="M102.304 155.609H81.8678V269.475H102.304V155.609Z" fill="#860F10"/>
<path d="M87.8897 124.196H65.7501L27.7356 168.612H58.0255H87.8897H125.965L87.8897 124.196Z" fill="#0060B0"/>
<path d="M87.8891 124.196L87.7067 168.612H87.8891H125.964L87.8891 124.196Z" fill="#074E8F"/>
<path d="M261.235 218.133H42.0894V350.531H261.235C269.994 350.531 277.11 320.88 277.11 284.302C277.11 247.784 269.994 218.133 261.235 218.133Z" fill="#0060B0"/>
<path d="M274.738 249.546C274.373 246.933 273.947 244.442 273.461 242.133H42.0894V249.546H274.738Z" fill="#0060B0"/>
<path d="M42.0894 290.074V350.532H261.235C269.568 350.532 276.38 323.918 277.049 290.074H42.0894V290.074Z" fill="#06427B"/>
<path d="M58.0246 284.301C58.0246 320.88 50.9083 350.531 42.1498 350.531C33.3912 350.531 26.2749 320.88 26.2749 284.301C26.2749 247.723 33.3912 218.072 42.1498 218.072C50.9083 218.132 58.0246 247.784 58.0246 284.301Z" fill="#C71B00"/>
<path d="M42.0884 284.301C42.0884 302.59 38.5606 317.416 34.1205 317.416C29.7413 317.416 26.1527 302.59 26.1527 284.301C26.1527 266.012 29.6805 251.186 34.1205 251.186C38.5606 251.247 42.0884 266.073 42.0884 284.301Z" fill="#0060B0"/>
<path d="M101.818 347.31C100.541 347.31 99.4461 348.1 98.9595 349.133H109.178C117.389 338.379 121.221 309.639 121.221 282.539C121.221 256.776 117.754 229.555 110.394 217.707H101.088C101.332 217.768 101.575 217.828 101.879 217.828C106.319 217.828 115.017 240.675 115.017 282.539C114.956 324.525 106.258 347.31 101.818 347.31Z" fill="#C71B00"/>
<path d="M197.674 347.31C196.397 347.31 195.302 348.1 194.815 349.133H204.973C213.184 338.379 217.016 309.639 217.016 282.539C217.016 256.776 213.549 229.555 206.129 217.707H196.823C197.066 217.768 197.309 217.828 197.552 217.828C201.993 217.828 210.751 240.675 210.751 282.539C210.812 324.525 202.114 347.31 197.674 347.31Z" fill="#C71B00"/>
<path d="M270.054 124.196H129.918V139.082H270.054V124.196Z" fill="#0060B0"/>
<path d="M270.054 124.196H181.13V139.082H270.054V124.196Z" fill="#085498"/>
<path d="M254.18 185.017C254.18 198.446 243.292 209.322 229.85 209.322H215.557C202.115 209.322 191.228 198.446 191.228 185.017V170.739C191.228 157.31 202.115 146.434 215.557 146.434H229.85C243.292 146.434 254.18 157.31 254.18 170.739V185.017Z" fill="#085498"/>
<path d="M246.212 184.41C246.212 194.435 238.062 202.577 228.026 202.577H217.382C207.346 202.577 199.196 194.435 199.196 184.41V173.776C199.196 163.751 207.346 155.609 217.382 155.609H228.026C238.062 155.609 246.212 163.751 246.212 173.776V184.41Z" fill="#0099D0"/>
<path d="M76.8194 124.196H71.1628L42.0894 168.612H65.7496L76.8194 124.196Z" fill="#0060B0"/>
<path d="M260.019 366.815C260.019 382.005 247.672 394.279 232.527 394.279C217.321 394.279 205.035 382.005 205.035 366.815C205.035 351.625 217.321 339.351 232.527 339.351C247.672 339.351 260.019 351.686 260.019 366.815Z" fill="#1A1A1D"/>
<path d="M262.573 366.815C262.573 382.005 250.287 394.279 235.081 394.279C219.875 394.279 207.589 382.005 207.589 366.815C207.589 351.625 219.875 339.351 235.081 339.351C250.287 339.351 262.573 351.686 262.573 366.815Z" fill="#3E3F41"/>
<path d="M251.381 366.816C251.381 375.808 244.082 383.1 235.08 383.1C226.078 383.1 218.779 375.808 218.779 366.816C218.779 357.823 226.078 350.531 235.08 350.531C244.082 350.531 251.381 357.823 251.381 366.816Z" fill="#6F7073"/>
<path d="M242.076 366.816C242.076 370.704 238.914 373.803 235.082 373.803C231.25 373.803 228.087 370.644 228.087 366.816C228.087 362.927 231.189 359.828 235.082 359.828C238.974 359.828 242.076 362.988 242.076 366.816Z" fill="#DADCDD"/>
<path d="M115.199 366.815C115.199 382.005 102.912 394.279 87.7066 394.279C72.5008 394.279 60.2145 382.005 60.2145 366.815C60.2145 351.625 72.5008 339.351 87.7066 339.351C102.912 339.351 115.199 351.686 115.199 366.815Z" fill="#1A1A1D"/>
<path d="M117.815 366.815C117.815 382.005 105.529 394.279 90.3228 394.279C75.117 394.279 62.8307 382.005 62.8307 366.815C62.8307 351.625 75.117 339.351 90.3228 339.351C105.468 339.351 117.815 351.686 117.815 366.815Z" fill="#3E3F41"/>
<path d="M106.623 366.816C106.623 375.808 99.3241 383.1 90.3222 383.1C81.3204 383.1 74.0216 375.808 74.0216 366.816C74.0216 357.823 81.3204 350.531 90.3222 350.531C99.3241 350.531 106.623 357.823 106.623 366.816Z" fill="#6F7073"/>
<path d="M97.3154 366.816C97.3154 370.704 94.1526 373.803 90.3207 373.803C86.4889 373.803 83.326 370.644 83.326 366.816C83.326 362.927 86.4889 359.828 90.3207 359.828C94.1526 359.828 97.3154 362.988 97.3154 366.816Z" fill="#DADCDD"/>
<path d="M188.917 366.815C188.917 382.005 176.631 394.279 161.425 394.279C146.219 394.279 133.933 382.005 133.933 366.815C133.933 351.625 146.219 339.351 161.425 339.351C176.57 339.351 188.917 351.686 188.917 366.815Z" fill="#1A1A1D"/>
<path d="M191.471 366.815C191.471 382.005 179.185 394.279 163.979 394.279C148.773 394.279 136.487 382.005 136.487 366.815C136.487 351.625 148.773 339.351 163.979 339.351C179.185 339.351 191.471 351.686 191.471 366.815Z" fill="#3E3F41"/>
<path d="M180.279 366.816C180.279 375.808 172.98 383.1 163.978 383.1C154.976 383.1 147.678 375.808 147.678 366.816C147.678 357.823 154.976 350.531 163.978 350.531C172.98 350.531 180.279 357.823 180.279 366.816Z" fill="#6F7073"/>
<path d="M170.975 366.816C170.975 370.704 167.812 373.803 163.98 373.803C160.148 373.803 156.985 370.644 156.985 366.816C156.985 362.927 160.148 359.828 163.98 359.828C167.812 359.828 170.975 362.988 170.975 366.816Z" fill="#DADCDD"/>
<path d="M165.804 366.876C165.804 368.638 164.405 370.036 162.641 370.036H90.8085C89.1055 370.036 87.7065 368.638 87.7065 366.876C87.7065 365.175 89.1055 363.778 90.8085 363.778H162.641C164.405 363.717 165.804 365.114 165.804 366.876Z" fill="#1A1A1D"/>
<path d="M239.035 366.876C239.035 368.638 237.636 370.036 235.933 370.036H164.04C162.337 370.036 160.938 368.638 160.938 366.876C160.938 365.175 162.337 363.778 164.04 363.778H235.872C237.636 363.717 239.035 365.114 239.035 366.876Z" fill="#1A1A1D"/>
</g>
<defs>
<clipPath id="clip0_210:145">
<rect width="1027" height="439" fill="white"/>
</clipPath>
</defs>
</svg>
