<svg width="157" height="27" viewBox="0 0 157 27" fill="none" xmlns="http://www.w3.org/2000/svg">
<path d="M30.1738 3.87109C31.3769 3.9987 32.8717 3.86198 34.6581 3.46094C35.0045 3.40625 35.2779 3.44271 35.4784 3.57031C35.6972 3.80729 35.6607 3.98047 35.3691 4.08984C33.9107 4.18099 32.5709 4.29948 31.3495 4.44531C31.0032 4.46354 30.83 4.63672 30.83 4.96484C30.5019 6.51432 29.9368 7.89062 29.1347 9.09375L28.6152 9.69531C28.3053 9.98698 28.1139 10.1237 28.0409 10.1055C28.0045 10.0872 28.1139 9.90495 28.3691 9.55859C29.3534 8.02734 29.9641 6.51432 30.2011 5.01953C30.1829 4.83724 30.1373 4.65495 30.0644 4.47266C29.9368 4.25391 29.8821 4.11719 29.9003 4.0625C29.9368 3.91667 30.0279 3.85286 30.1738 3.87109ZM33.9198 10.7344C34.0657 10.6068 34.2571 10.6341 34.4941 10.8164C34.6946 10.9987 34.8131 11.1628 34.8495 11.3086C34.8313 11.3997 34.649 11.582 34.3027 11.8555L33.5644 12.5938C33.2909 12.849 33.3001 13.0677 33.5917 13.25C34.1204 13.5234 34.6034 13.806 35.0409 14.0977C35.3326 14.3711 35.4876 14.5443 35.5058 14.6172C35.3964 15.1276 35.1321 15.2188 34.7128 14.8906C34.4576 14.6354 34.1113 14.3529 33.6738 14.043L33.1542 13.6602C32.8261 13.4414 32.5253 13.4323 32.2519 13.6328C30.9029 14.5443 29.718 15.0911 28.6972 15.2734C28.6607 15.237 28.8157 15.1185 29.162 14.918C30.1099 14.4258 30.9667 13.8971 31.7323 13.332C32.024 13.1315 31.9967 12.931 31.6503 12.7305L30.0917 11.8828C29.6724 11.6458 29.4993 11.5091 29.5722 11.4727C29.718 11.4727 29.9185 11.5182 30.1738 11.6094L32.1425 12.457C32.4524 12.6029 32.7623 12.5299 33.0722 12.2383C33.3639 11.9648 33.6008 11.6367 33.7831 11.2539C33.8378 11.0898 33.8834 10.9167 33.9198 10.7344ZM37.3925 16.8047L39.7441 15.3008C39.7988 15.3372 39.7258 15.5286 39.5253 15.875C38.942 16.6224 38.4042 17.2148 37.912 17.6523C37.5657 17.9258 37.2831 17.8164 37.0644 17.3242C37.0097 17.1419 37.1191 16.9688 37.3925 16.8047ZM30.5292 18.2812L34.8769 17.8711C35.2597 17.8529 35.5422 17.8711 35.7245 17.9258C35.9068 17.9805 36.0071 18.0807 36.0253 18.2266C35.9889 18.3906 35.9068 18.5 35.7792 18.5547C35.6152 18.6094 35.442 18.6276 35.2597 18.6094C34.7675 18.5365 34.1568 18.5091 33.4277 18.5273C33.0813 18.5638 32.9081 18.7188 32.9081 18.9922V20.7148C32.8717 21.0794 32.7714 21.3073 32.6073 21.3984C32.4251 21.4714 32.2336 21.444 32.0331 21.3164C31.5592 21.0794 31.0305 21.0612 30.4472 21.2617C30.1738 21.3164 29.9915 21.5169 29.9003 21.8633C29.7363 22.4466 29.9915 22.9206 30.6659 23.2852C32.1425 23.8503 33.5461 23.7135 34.8769 22.875C35.2232 22.7474 35.4146 22.7109 35.4511 22.7656C35.5605 22.9479 35.4876 23.1302 35.2323 23.3125C33.7922 24.3333 32.1607 24.4974 30.3378 23.8047C29.3899 23.349 28.9615 22.7474 29.0527 22C29.1073 21.6354 29.3261 21.2982 29.7089 20.9883C30.3469 20.5872 31.0852 20.4596 31.9238 20.6055C32.0696 20.6419 32.1881 20.5234 32.2792 20.25V19.0195C32.2792 18.7461 32.106 18.6185 31.7597 18.6367C31.1034 18.7096 30.4198 18.819 29.7089 18.9648C29.2532 19.1107 28.8613 18.974 28.5331 18.5547C28.5696 18.3542 28.7792 18.2904 29.162 18.3633C29.5448 18.3633 30.0006 18.3359 30.5292 18.2812ZM21.4784 1.30078C22.0253 1.00911 22.5357 0.972656 23.0097 1.19141C23.7206 1.44661 24.1764 1.71094 24.3769 1.98438C24.3404 2.38542 24.0579 2.54036 23.5292 2.44922C23.3469 2.33984 23.0188 2.41276 22.5448 2.66797C20.7766 3.26953 19.1542 3.72526 17.6777 4.03516C17.2037 4.1263 16.9667 4.38151 16.9667 4.80078V8.79297C16.9667 9.2487 17.1855 9.47656 17.623 9.47656H21.5605C21.998 9.47656 22.4993 9.20312 23.0644 8.65625C23.6113 8.10938 24.1581 8.03646 24.705 8.4375L25.9628 9.42188C25.981 9.49479 25.9446 9.63151 25.8534 9.83203C25.7441 10.0872 25.4342 10.2148 24.9238 10.2148H17.6503C17.1946 10.2148 16.9667 10.4336 16.9667 10.8711V15.0273C16.9667 15.4831 17.1855 15.7109 17.623 15.7109H20.7948C21.2323 15.7109 21.6243 15.5742 21.9706 15.3008C22.317 15.0273 22.7636 15.0547 23.3105 15.3828L24.3222 15.9844C24.5045 16.4766 24.3222 16.7956 23.7753 16.9414C23.429 17.1055 23.3105 17.4245 23.4198 17.8984V25.3633C23.4198 25.9102 23.1555 26.2109 22.6269 26.2656C22.0982 26.3021 21.8339 26.0286 21.8339 25.4453C21.8339 24.8438 21.6152 24.543 21.1777 24.543H11.6347C11.179 24.543 10.9511 24.7708 10.9511 25.2266C10.9511 25.7005 10.9329 25.9648 10.8964 26.0195C10.8235 26.0924 10.6685 26.1562 10.4316 26.2109C9.72063 26.2656 9.36516 26.0195 9.36516 25.4727V15.6836C9.36516 15.1367 9.6386 15 10.1855 15.2734C10.7141 15.6745 11.2063 15.8203 11.662 15.7109H14.6972C15.1529 15.7109 15.3808 15.4922 15.3808 15.0547V10.8984C15.3808 10.4427 15.162 10.2148 14.7245 10.2148H8.87297C8.3261 10.2148 8.02531 10.1146 7.97063 9.91406C7.89771 9.6224 8.11646 9.47656 8.62688 9.47656H14.6972C15.1529 9.47656 15.3808 9.25781 15.3808 8.82031V5.18359C15.3808 4.74609 15.1073 4.54557 14.5605 4.58203C12.9198 4.81901 11.3886 4.98307 9.96672 5.07422C9.41985 5.09245 9.12818 5.0013 9.09172 4.80078C9.03703 4.54557 9.2649 4.38151 9.77531 4.30859C14.4784 3.70703 18.3795 2.70443 21.4784 1.30078ZM2.58391 1.4375C2.71151 1.29167 3.03964 1.35547 3.56828 1.62891C4.8261 2.46745 5.69198 3.37891 6.16594 4.36328C6.51229 5.14714 6.32089 5.63932 5.59172 5.83984C5.19068 5.78516 4.93547 5.58464 4.8261 5.23828C4.40682 4.03516 3.91464 3.1237 3.34953 2.50391C2.74797 1.95703 2.49276 1.60156 2.58391 1.4375ZM6.82219 7.58984C7.05917 7.00651 7.24146 6.74219 7.36906 6.79688C7.6425 6.86979 7.67896 7.21615 7.47844 7.83594L4.08781 18.7734C3.68677 19.7943 3.84172 21.2253 4.55266 23.0664C5.0813 24.5612 5.02662 25.6276 4.3886 26.2656C3.73235 26.5573 3.2675 26.2656 2.99406 25.3906C2.92115 25.0807 2.87557 24.7617 2.85735 24.4336C2.94849 22.556 2.90292 21.2344 2.72063 20.4688C2.55656 19.8854 2.10084 19.5938 1.35344 19.5938C0.697189 19.5026 0.387293 19.3568 0.423752 19.1562C0.441981 18.974 0.742762 18.8737 1.3261 18.8555C1.85474 18.8555 2.27401 18.7188 2.58391 18.4453C2.78443 18.263 2.95761 18.0078 3.10344 17.6797C4.30656 14.3255 5.54615 10.9622 6.82219 7.58984ZM0.724533 8.02734C0.852137 7.86328 1.18938 7.9362 1.73625 8.24609C2.35604 8.64714 2.97584 9.20312 3.59563 9.91406C4.30656 10.6068 4.5162 11.3359 4.22453 12.1016C4.0787 12.2656 3.87818 12.3659 3.62297 12.4023C3.22193 12.4388 2.96672 12.2201 2.85735 11.7461C2.54745 10.7617 2.06438 9.85026 1.40813 9.01172C0.843023 8.5013 0.615158 8.17318 0.724533 8.02734ZM21.8339 17.1602C21.8339 16.6862 21.6243 16.4492 21.205 16.4492H11.6347C11.179 16.4492 10.9511 16.668 10.9511 17.1055V23.1484C10.9511 23.6042 11.1698 23.832 11.6073 23.832H21.1503C21.606 23.832 21.8339 23.6133 21.8339 23.1758V17.1602ZM69.8561 2.42188C69.9655 2.3125 70.0748 2.29427 70.1842 2.36719C70.3301 2.34896 70.4577 2.48568 70.567 2.77734C70.6764 2.88672 70.6217 3.0599 70.403 3.29688L69.7194 4.0625C69.5371 4.33594 69.4642 4.49089 69.5006 4.52734L70.8405 4.39062L73.2194 4.22656C73.8392 4.04427 74.1582 4.22656 74.1764 4.77344C73.9212 6.01302 73.584 7.05208 73.1647 7.89062C73.0371 8.20052 72.791 8.53776 72.4264 8.90234C72.2259 9.21224 71.9798 9.29427 71.6881 9.14844C71.6517 9.09375 71.6152 8.99349 71.5788 8.84766L71.4967 8.57422C71.2962 8.24609 71.2233 8.0638 71.278 8.02734C71.3327 8.02734 71.4876 8.07292 71.7428 8.16406C71.998 8.23698 72.2623 8.10938 72.5358 7.78125C73.028 7.08854 73.3105 6.23177 73.3834 5.21094C73.347 4.73698 73.0918 4.55469 72.6178 4.66406L71.6881 4.69141C71.4147 4.70964 71.1959 4.89193 71.0319 5.23828C70.3209 6.64193 69.3366 7.77214 68.0788 8.62891C67.7324 8.8112 67.5501 8.86589 67.5319 8.79297C67.5319 8.72005 67.7233 8.52865 68.1061 8.21875C69.1452 7.28906 69.8652 6.29557 70.2663 5.23828C70.3574 4.96484 70.2298 4.86458 69.8834 4.9375C69.4824 5.01042 69.0631 5.11068 68.6256 5.23828C68.2975 5.4388 68.0788 5.41146 67.9694 5.15625C67.9511 5.0651 68.097 4.88281 68.4069 4.60938C69.0631 4.0625 69.4915 3.52474 69.692 2.99609C69.7285 2.77734 69.7832 2.58594 69.8561 2.42188ZM72.6452 10.9531C72.6816 10.7344 72.8092 10.6797 73.028 10.7891C73.7754 11.1719 73.8209 11.5365 73.1647 11.8828C72.8913 12.1198 72.6178 12.3932 72.3444 12.7031C72.0709 12.9401 72.1074 13.1589 72.4538 13.3594C72.8548 13.5781 73.2467 13.8151 73.6295 14.0703C74.0488 14.3984 74.2676 14.5898 74.2858 14.6445C74.1764 15.2096 73.8939 15.319 73.4381 14.9727C73.11 14.5898 72.6087 14.1888 71.9342 13.7695C71.6061 13.5508 71.3053 13.5417 71.0319 13.7422C69.8288 14.5625 68.6439 15.1094 67.4772 15.3828C67.459 15.3281 67.6139 15.2096 67.942 15.0273C68.9993 14.4805 69.8561 13.9518 70.5123 13.4414C70.804 13.2409 70.7767 13.0404 70.4303 12.8398L68.8717 11.9922C68.4707 11.7552 68.2975 11.6276 68.3522 11.6094C68.5163 11.5911 68.7168 11.6276 68.9538 11.7188C69.6282 11.9922 70.2936 12.293 70.9498 12.6211C71.2415 12.7487 71.5241 12.6758 71.7975 12.4023C72.3626 11.8372 72.6452 11.3542 72.6452 10.9531ZM76.2545 15.4375C76.3639 15.3828 76.4642 15.3828 76.5553 15.4375C77.1751 16.0026 77.7767 16.6042 78.36 17.2422C78.6152 17.5885 78.7246 17.7799 78.6881 17.8164C78.6517 17.8164 78.4603 17.7253 78.1139 17.543C77.5123 17.2148 76.9108 16.8503 76.3092 16.4492C75.6894 16.2122 75.6712 15.875 76.2545 15.4375ZM70.8405 17.8164C70.9134 17.7617 71.1048 17.7708 71.4147 17.8438C71.8157 18.0443 72.0163 18.2904 72.0163 18.582C72.0163 18.6367 71.8795 18.8555 71.6061 19.2383L68.9811 22.793C68.7806 23.0664 68.6985 23.2305 68.735 23.2852C68.8079 23.3763 68.9264 23.4128 69.0905 23.3945C70.403 23.3034 71.7793 23.1484 73.2194 22.9297C73.6204 22.8385 73.9941 22.8932 74.3405 23.0938C74.7051 23.4036 74.6686 23.6042 74.2311 23.6953C72.4811 23.4401 70.5306 23.5951 68.3795 24.1602C68.0332 24.2695 67.8144 24.2878 67.7233 24.2148C67.3952 23.7409 67.4772 23.3672 67.9694 23.0938C68.8444 22.3099 69.6556 21.2344 70.403 19.8672C70.8222 19.2292 71.0045 18.7552 70.9498 18.4453C70.8587 18.0443 70.8222 17.8346 70.8405 17.8164ZM49.5397 1.08203C50.1777 0.790365 50.7246 0.763021 51.1803 1L51.4811 1.16406C52.192 1.54688 52.5566 1.79297 52.5748 1.90234C52.5384 2.02995 52.4746 2.13932 52.3834 2.23047C52.2923 2.28516 52.0644 2.3125 51.6998 2.3125C51.2623 2.22135 50.5332 2.34896 49.5123 2.69531L47.7623 3.10547C47.3248 3.19661 47.1061 3.46094 47.1061 3.89844V5.10156C47.1061 5.55729 47.3248 5.78516 47.7623 5.78516H49.2116C49.6491 5.78516 50.1413 5.51172 50.6881 4.96484C51.2532 4.39974 51.8092 4.31771 52.3561 4.71875L52.6295 4.9375C53.304 5.5026 53.5866 5.89453 53.4772 6.11328C53.3678 6.36849 53.0488 6.49609 52.5202 6.49609H47.7897C47.334 6.49609 47.1061 6.71484 47.1061 7.15234V8.27344C47.1061 8.72917 47.3248 8.95703 47.7623 8.95703H49.6217C50.0592 8.95703 50.4511 8.8112 50.7975 8.51953C51.1439 8.24609 51.5905 8.27344 52.1373 8.60156C52.9577 8.91146 53.304 9.29427 53.1764 9.75C53.0853 9.98698 52.9212 10.1146 52.6842 10.1328C52.2832 10.2786 52.1373 10.6068 52.2467 11.1172V17.0234C52.2467 17.5885 51.9824 17.9076 51.4538 17.9805C50.9251 17.9987 50.6608 17.7891 50.6608 17.3516C50.6608 16.8958 50.442 16.668 50.0045 16.668H47.7897C47.334 16.668 47.1061 16.8867 47.1061 17.3242V18.9922C47.1061 19.4479 47.3248 19.6758 47.7623 19.6758H48.692C49.1295 19.6758 49.6035 19.4206 50.1139 18.9102C50.6426 18.3815 51.1803 18.3177 51.7272 18.7188C51.8183 18.8281 51.9095 18.9102 52.0006 18.9648C52.5657 19.4206 52.7936 19.7669 52.6842 20.0039C52.5566 20.2591 52.2194 20.3867 51.6725 20.3867H47.7897C47.334 20.3867 47.1061 20.6055 47.1061 21.043V22.3555C47.1061 22.793 47.3795 22.9844 47.9264 22.9297C48.929 22.7656 49.9316 22.556 50.9342 22.3008C51.5176 22.1367 51.8913 22.1732 52.0553 22.4102C52.1647 22.6471 51.9368 22.8659 51.3717 23.0664C48.0905 24.1602 44.9186 24.9258 41.8561 25.3633C41.4186 25.4727 41.1725 25.6276 41.1178 25.8281C41.0814 26.1016 41.0176 26.2839 40.9264 26.375C40.4889 26.7031 40.1608 26.4844 39.942 25.7188L39.6139 24.625C39.3769 23.9323 39.541 23.5951 40.1061 23.6133C41.6556 23.6315 43.2415 23.5404 44.8639 23.3398C45.3014 23.2669 45.5202 23.0117 45.5202 22.5742V21.0703C45.5202 20.6146 45.3014 20.3867 44.8639 20.3867H40.7897C40.2428 20.3867 39.942 20.2865 39.8873 20.0859C39.8327 19.8125 40.0514 19.6758 40.5436 19.6758H44.8366C45.2923 19.6758 45.5202 19.457 45.5202 19.0195V17.3516C45.5202 16.8958 45.3014 16.668 44.8639 16.668H42.6491C42.1933 16.668 41.9655 16.8958 41.9655 17.3516C41.9655 17.8255 41.9472 18.0898 41.9108 18.1445C41.8379 18.2174 41.6829 18.2812 41.4459 18.3359C40.735 18.3906 40.3795 18.1445 40.3795 17.5977V9.01172C40.3795 8.46484 40.653 8.32812 41.1998 8.60156C41.5827 8.96615 42.0019 9.08464 42.4577 8.95703H44.8366C45.2923 8.95703 45.5202 8.73828 45.5202 8.30078V7.17969C45.5202 6.72396 45.3014 6.49609 44.8639 6.49609H40.5709C40.0241 6.49609 39.7142 6.39583 39.6413 6.19531C39.5683 5.92188 39.7962 5.78516 40.3248 5.78516H44.8366C45.2923 5.78516 45.5202 5.56641 45.5202 5.12891V4.08984C45.5202 3.65234 45.2467 3.44271 44.6998 3.46094L41.0084 3.59766C40.4616 3.59766 40.1608 3.4974 40.1061 3.29688C40.0696 3.02344 40.3704 2.85938 41.0084 2.80469C44.5814 2.47656 47.4251 1.90234 49.5397 1.08203ZM56.7584 1.62891C56.7402 1.08203 57.0045 0.854167 57.5514 0.945312L58.3717 1.05469C58.791 1.09115 59.0735 1.24609 59.2194 1.51953C59.3105 1.84766 59.1556 2.06641 58.7545 2.17578C58.4629 2.2487 58.317 2.50391 58.317 2.94141C58.3353 4.34505 58.317 5.77604 58.2623 7.23438C58.2623 7.79948 58.4811 8.08203 58.9186 8.08203H61.1881C61.6256 8.08203 62.0084 7.94531 62.3366 7.67188C62.7011 7.39844 63.1386 7.44401 63.6491 7.80859L64.36 8.30078C64.7246 8.62891 64.6608 8.92969 64.1686 9.20312C63.804 9.3125 63.6582 9.61328 63.7311 10.1055V13.9883C63.6582 17.5247 63.2936 20.5872 62.6373 23.1758C62.2181 24.8346 61.2884 25.8737 59.8483 26.293C59.1556 26.4388 58.791 26.3477 58.7545 26.0195C58.6816 25.5091 58.3991 25.1445 57.9069 24.9258C57.4694 24.7435 57.278 24.5612 57.3327 24.3789C57.4238 24.1419 57.761 24.1055 58.3444 24.2695L59.4108 24.4883C59.9759 24.6523 60.4407 24.306 60.8053 23.4492C61.2975 22.3919 61.6165 20.9336 61.7623 19.0742C61.9446 17.3971 62.0631 15.3281 62.1178 12.8672V9.47656C62.1178 9.02083 61.8991 8.79297 61.4616 8.79297H58.9186C58.4811 8.79297 58.235 9.06641 58.1803 9.61328C57.998 12.8763 57.6061 15.7018 57.0045 18.0898C56.4212 20.6784 55.1543 22.9115 53.2038 24.7891C52.6933 25.2266 52.1465 25.6003 51.5631 25.9102C50.9798 26.2018 50.6334 26.2747 50.5241 26.1289C50.4329 25.9831 50.679 25.6641 51.2623 25.1719C52.0827 24.4974 52.7298 23.7865 53.2038 23.0391C54.0241 21.7995 54.6985 20.3411 55.2272 18.6641C56.0475 15.9115 56.5032 12.8398 56.5944 9.44922C56.5944 9.01172 56.3756 8.79297 55.9381 8.79297H54.4069C53.86 8.79297 53.5592 8.69271 53.5045 8.49219C53.4498 8.21875 53.6777 8.08203 54.1881 8.08203H55.9381C56.3756 8.08203 56.6126 7.86328 56.6491 7.42578C56.722 5.49349 56.7584 3.5612 56.7584 1.62891ZM45.5202 10.3516C45.5202 9.89583 45.3014 9.66797 44.8639 9.66797H42.6491C42.1933 9.66797 41.9655 9.88672 41.9655 10.3242V11.7734C41.9655 12.2292 42.1842 12.457 42.6217 12.457H44.8366C45.2923 12.457 45.5202 12.2383 45.5202 11.8008V10.3516ZM50.6608 10.3516C50.6608 9.89583 50.442 9.66797 50.0045 9.66797H47.7897C47.334 9.66797 47.1061 9.88672 47.1061 10.3242V11.7734C47.1061 12.2292 47.3248 12.457 47.7623 12.457H49.9772C50.4329 12.457 50.6608 12.2383 50.6608 11.8008V10.3516ZM45.5202 13.8789C45.5202 13.4049 45.3105 13.168 44.8913 13.168H42.6491C42.1933 13.168 41.9655 13.3867 41.9655 13.8242V15.2734C41.9655 15.7292 42.1842 15.957 42.6217 15.957H44.8366C45.2923 15.957 45.5202 15.7383 45.5202 15.3008V13.8789ZM50.6608 13.8789C50.6608 13.4049 50.4511 13.168 50.0319 13.168H47.7897C47.334 13.168 47.1061 13.3867 47.1061 13.8242V15.2734C47.1061 15.7292 47.3248 15.957 47.7623 15.957H49.9772C50.4329 15.957 50.6608 15.7383 50.6608 15.3008V13.8789ZM111.535 9.64062C111.936 9.54948 112.346 9.6224 112.765 9.85938C112.82 9.91406 112.82 10.1146 112.765 10.4609C112.692 10.8438 112.656 11.181 112.656 11.4727C112.583 12.4753 112.291 13.4505 111.781 14.3984C111.398 14.7995 111.115 14.7812 110.933 14.3438C110.897 14.2526 110.833 14.1615 110.742 14.0703C110.359 13.724 110.167 13.5234 110.167 13.4688C110.204 13.3776 110.395 13.4049 110.742 13.5508L110.988 13.6328C111.352 13.7969 111.589 13.5964 111.699 13.0312C111.917 11.8099 111.999 10.9349 111.945 10.4062C111.799 10.1875 111.562 10.1146 111.234 10.1875L110.085 10.3242C109.794 10.3607 109.648 10.543 109.648 10.8711L109.812 14.9453V16.6133C109.794 16.7956 109.766 16.9505 109.73 17.0781C109.657 17.3333 109.502 17.3607 109.265 17.1602C109.083 16.668 109.055 15.7109 109.183 14.2891V12.7578L109.046 10.8711C109.028 10.5977 108.846 10.4883 108.499 10.543L107.433 10.707C107.196 10.7799 107.032 10.8073 106.941 10.7891C106.777 10.7526 106.576 10.6523 106.339 10.4883C106.285 10.3242 106.467 10.224 106.886 10.1875L111.015 9.77734C111.179 9.75911 111.352 9.71354 111.535 9.64062ZM89.4955 1.08203C89.6231 0.535156 89.9512 0.325521 90.4798 0.453125L90.7533 0.507812C91.4642 0.708333 91.8561 0.863281 91.9291 0.972656C92.0384 1.30078 91.8926 1.52865 91.4916 1.65625C91.3093 1.67448 91.0814 1.92057 90.808 2.39453C90.5528 2.90495 90.6439 3.16016 91.0814 3.16016H99.5853C100.023 3.16016 100.433 3.01432 100.816 2.72266C101.253 2.41276 101.718 2.50391 102.21 2.99609C102.976 3.50651 103.24 4.01693 103.003 4.52734C102.876 4.67318 102.538 4.70964 101.992 4.63672C101.791 4.65495 101.481 4.86458 101.062 5.26562L100.16 6.14062C99.4851 6.72396 99.0749 6.96094 98.9291 6.85156C98.7832 6.72396 98.8926 6.41406 99.2572 5.92188L100.16 4.52734C100.36 4.08984 100.242 3.87109 99.8041 3.87109H90.5619C90.1244 3.87109 89.6778 4.14453 89.222 4.69141C88.6934 5.3112 88.0918 5.92188 87.4173 6.52344C86.8705 6.88802 86.5423 7.01562 86.433 6.90625C86.3236 6.76042 86.515 6.43229 87.0072 5.92188C88.3015 4.3724 89.1309 2.75911 89.4955 1.08203ZM83.7533 2.50391C84.3184 1.97526 84.8561 1.91146 85.3666 2.3125C86.278 2.8776 86.6061 3.30599 86.3509 3.59766C86.2233 3.85286 85.8861 3.98047 85.3392 3.98047H79.7884C79.2416 3.98047 78.9408 3.88021 78.8861 3.67969C78.8314 3.40625 79.0502 3.26953 79.5423 3.26953H82.3314C82.7689 3.26953 83.2429 3.01432 83.7533 2.50391ZM92.7767 5.34766C93.0319 4.74609 93.4239 4.55469 93.9525 4.77344L94.1986 4.85547C94.709 5.07422 95.0098 5.25651 95.1009 5.40234C95.1921 5.58464 95.1647 5.73047 95.0189 5.83984C94.8184 5.96745 94.9551 6.24089 95.4291 6.66016C97.5983 8.33724 99.7676 9.35807 101.937 9.72266C102.484 9.83203 102.794 9.91406 102.867 9.96875C103.012 10.1875 102.867 10.4062 102.429 10.625C101.992 11.2448 101.481 11.4727 100.898 11.3086C98.5645 10.3607 96.459 8.90234 94.5814 6.93359C94.2168 6.53255 93.8431 6.6237 93.4603 7.20703C91.7468 9.43099 89.459 10.8255 86.597 11.3906C86.0502 11.5 85.7585 11.4727 85.722 11.3086C85.6673 11.1263 85.9317 10.944 86.515 10.7617C89.2858 9.86849 91.3731 8.0638 92.7767 5.34766ZM83.9994 7.86328C84.6921 7.48047 85.0931 7.35286 85.2025 7.48047C85.3848 7.69922 85.2207 8.03646 84.7103 8.49219C83.9082 9.11198 82.5684 9.85026 80.6908 10.707C80.2168 10.944 79.9981 11.181 80.0345 11.418C80.1074 11.7279 79.9707 11.9284 79.6244 12.0195C79.4056 12.056 79.196 11.9193 78.9955 11.6094C78.8496 11.2266 78.6673 10.8346 78.4486 10.4336C78.1934 9.85026 78.3301 9.52214 78.8587 9.44922C80.5723 9.2487 82.2858 8.72005 83.9994 7.86328ZM97.2064 11.6094C97.571 11.2995 98.0085 11.2995 98.5189 11.6094L98.765 11.7734C99.3301 12.138 99.6218 12.3568 99.64 12.4297C99.7494 12.7578 99.5762 13.0221 99.1205 13.2227C98.683 13.3685 98.5371 13.6966 98.683 14.207V21.6992C98.683 22.2643 98.4186 22.5833 97.89 22.6562C97.3614 22.6927 97.097 22.5469 97.097 22.2188C97.097 21.8724 96.8783 21.6992 96.4408 21.6992H85.5853C85.1296 21.6992 84.9017 21.8359 84.9017 22.1094C85.0476 22.5286 84.8744 22.7656 84.3822 22.8203C83.6712 22.875 83.3158 22.6198 83.3158 22.0547V12.0742C83.3158 11.5273 83.5892 11.3906 84.1361 11.6641C84.5189 12.0286 84.9382 12.1471 85.3939 12.0195H96.0853C96.5228 12.0195 96.8965 11.8828 97.2064 11.6094ZM97.097 13.4414C97.097 12.9674 96.8874 12.7305 96.4681 12.7305H85.5853C85.1296 12.7305 84.9017 12.9492 84.9017 13.3867V14.3984C84.9017 14.8542 85.1205 15.082 85.558 15.082H96.4134C96.8692 15.082 97.097 14.8633 97.097 14.4258V13.4414ZM97.097 16.4766C97.097 16.0208 96.8783 15.793 96.4408 15.793H85.5853C85.1296 15.793 84.9017 16.0117 84.9017 16.4492V17.4336C84.9017 17.8893 85.1205 18.1172 85.558 18.1172H96.4134C96.8692 18.1172 97.097 17.8984 97.097 17.4609V16.4766ZM97.097 19.5938C97.097 19.1016 96.8965 18.8555 96.4955 18.8555H85.5853C85.1296 18.8555 84.9017 19.0742 84.9017 19.5117V20.2773C84.9017 20.7331 85.1205 20.9609 85.558 20.9609H96.4134C96.8692 20.9609 97.097 20.7422 97.097 20.3047V19.5938ZM86.0228 23.4492C86.6608 22.9023 87.2442 22.7292 87.7728 22.9297L88.0189 23.0391C88.3835 23.1849 88.6022 23.2943 88.6752 23.3672C88.8574 23.7865 88.6843 23.987 88.1556 23.9688C87.9369 23.9505 87.5723 24.1146 87.0619 24.4609C84.9655 25.5911 83.0241 26.2839 81.2377 26.5391C80.6361 26.6302 80.308 26.6029 80.2533 26.457C80.1621 26.2201 80.4447 26.0286 81.1009 25.8828C82.5228 25.5729 84.1634 24.7617 86.0228 23.4492ZM92.9681 23.2578C92.9681 23.0573 93.2051 22.9661 93.6791 22.9844C96.5046 23.2396 98.6374 23.8229 100.077 24.7344C100.606 25.0625 100.889 25.3906 100.925 25.7188C101.016 26.1562 100.816 26.4479 100.324 26.5938C100.105 26.6849 99.7403 26.5299 99.2298 26.1289C97.5163 25.1081 95.7025 24.306 93.7884 23.7227C93.2416 23.5404 92.9681 23.3854 92.9681 23.2578ZM151.107 2.99609C151.272 2.97786 151.445 2.99609 151.627 3.05078C152.046 3.30599 152.247 3.46094 152.229 3.51562C152.174 3.67969 152.083 3.76172 151.955 3.76172C151.791 3.77995 151.618 3.76172 151.436 3.70703C150.907 3.5612 150.205 3.55208 149.33 3.67969C149.057 3.71615 148.92 3.87109 148.92 4.14453V5.75781L148.975 7.75391C149.011 8.26432 149.002 8.68359 148.947 9.01172C148.874 9.30339 148.71 9.41276 148.455 9.33984C148.127 9.01172 148.018 8.61979 148.127 8.16406C148.218 7.78125 148.273 7.21615 148.291 6.46875V4.66406C148.309 4.51823 148.309 4.3724 148.291 4.22656C148.291 3.9349 148.118 3.80729 147.772 3.84375C147.079 3.9349 146.441 4.04427 145.857 4.17188C145.693 4.20833 145.475 4.17188 145.201 4.0625C144.855 3.84375 144.682 3.71615 144.682 3.67969C144.7 3.58854 144.791 3.52474 144.955 3.48828C147.143 3.48828 149.193 3.32422 151.107 2.99609ZM150.315 10.9805C150.515 10.8893 150.798 10.944 151.162 11.1445C151.326 11.2539 151.381 11.418 151.326 11.6367C151.253 11.8919 151.253 12.2383 151.326 12.6758C151.454 13.5872 151.527 14.2708 151.545 14.7266C151.563 14.9089 151.554 15.0911 151.518 15.2734C151.372 15.5833 151.144 15.5651 150.834 15.2188C150.761 15.0547 150.542 14.9818 150.178 15C148.774 15.0365 147.507 15.1458 146.377 15.3281C145.83 15.5286 145.466 15.3372 145.283 14.7539C145.265 14.5169 145.283 14.3438 145.338 14.2344C145.666 13.3594 145.757 12.4935 145.611 11.6367C145.52 11.2904 145.502 11.099 145.557 11.0625C145.903 10.9714 146.167 11.1081 146.35 11.4727C146.386 11.6367 146.368 11.8464 146.295 12.1016C146.222 12.776 146.122 13.4596 145.994 14.1523C145.921 14.4805 146.076 14.6536 146.459 14.6719C147.535 14.5625 148.838 14.4805 150.369 14.4258C150.643 14.3711 150.798 14.1706 150.834 13.8242C150.816 12.6029 150.624 11.6914 150.26 11.0898C150.26 11.0534 150.278 11.0169 150.315 10.9805ZM153.815 15.4375C153.924 15.3828 154.024 15.3828 154.115 15.4375C154.735 16.0026 155.337 16.6042 155.92 17.2422C156.175 17.5885 156.285 17.7799 156.248 17.8164C156.212 17.8164 156.02 17.7253 155.674 17.543C155.072 17.2148 154.471 16.8503 153.869 16.4492C153.249 16.2122 153.231 15.875 153.815 15.4375ZM146.377 17.9531C146.559 17.862 146.751 17.8893 146.951 18.0352C147.298 18.1992 147.389 18.4362 147.225 18.7461C146.988 19.3477 146.714 19.9492 146.404 20.5508C146.24 20.8789 146.177 21.0612 146.213 21.0977C146.268 21.1341 146.468 21.1159 146.815 21.043C147.963 20.8242 149.102 20.724 150.232 20.7422C150.761 20.6146 151.208 20.6146 151.572 20.7422C151.937 21.125 152.01 21.4531 151.791 21.7266L151.025 23.2578C150.77 23.8776 150.424 24.3424 149.986 24.6523C149.859 24.7253 149.777 24.707 149.74 24.5977C149.722 24.543 149.804 24.3424 149.986 23.9961C150.351 23.3216 150.652 22.6107 150.889 21.8633C150.925 21.6081 150.925 21.444 150.889 21.3711C150.725 21.2253 150.506 21.1797 150.232 21.2344C149.193 21.2526 148.081 21.362 146.897 21.5625C146.386 21.6172 146.04 21.6992 145.857 21.8086C145.438 22.1549 145.183 22.1003 145.092 21.6445C145.11 21.4622 145.238 21.2708 145.475 21.0703C145.967 20.4141 146.286 19.5938 146.432 18.6094C146.432 18.4271 146.413 18.2721 146.377 18.1445C146.322 18.0352 146.322 17.9714 146.377 17.9531ZM122.561 1.46484C123.126 0.89974 123.673 0.817708 124.201 1.21875L124.447 1.41016C125.158 1.95703 125.468 2.33984 125.377 2.55859C125.231 2.85026 124.912 2.99609 124.42 2.99609H118.678C118.131 2.99609 117.821 2.89583 117.748 2.69531C117.675 2.42188 117.903 2.28516 118.432 2.28516H121.084C121.522 2.28516 122.014 2.01172 122.561 1.46484ZM137.244 2.12109C137.572 1.79297 138.01 1.8112 138.557 2.17578C139.341 2.63151 139.723 3.05078 139.705 3.43359C139.742 3.63411 139.596 3.79818 139.268 3.92578C138.885 4.03516 138.721 4.40885 138.775 5.04688V10.5703C138.812 15.0365 139.295 18.7734 140.225 21.7812C140.443 22.2188 140.607 22.4193 140.717 22.3828C140.954 22.0729 141.127 21.6536 141.236 21.125L141.619 20.0312C141.874 19.3385 142.121 19.0195 142.357 19.0742C142.613 19.1471 142.677 19.457 142.549 20.0039C142.275 21.3529 142.038 22.7018 141.838 24.0508C141.838 24.4518 141.92 24.8164 142.084 25.1445C142.303 25.4727 142.303 25.8372 142.084 26.2383C141.61 26.7122 141.072 26.612 140.471 25.9375C139.122 24.151 138.256 21.9635 137.873 19.375C137.49 16.5859 137.262 13.8333 137.19 11.1172V5.70312L137.244 3.98047C137.244 3.54297 137.025 3.32422 136.588 3.32422H133.088C132.65 3.32422 132.423 3.59766 132.404 4.14453C132.386 6.6237 132.322 9.13021 132.213 11.6641C132.213 12.1016 132.486 12.1745 133.033 11.8828C133.544 11.6094 134.081 11.2904 134.647 10.9258C135.157 10.5794 135.485 10.4883 135.631 10.6523C135.777 10.8164 135.54 11.1901 134.92 11.7734C134.154 12.3932 133.434 12.9036 132.76 13.3047C132.286 13.5964 132.031 13.9518 131.994 14.3711C131.721 17.7253 130.755 20.5781 129.096 22.9297C128.367 23.9323 127.565 24.8346 126.69 25.6367C126.234 26.0378 125.942 26.1745 125.815 26.0469C125.614 25.8646 125.76 25.5182 126.252 25.0078C128.695 22.4557 130.089 19.2201 130.436 15.3008C130.454 14.8633 130.19 14.7812 129.643 15.0547L129.014 15.3828C128.594 15.6562 128.403 15.8932 128.44 16.0938C128.531 16.4583 128.367 16.6771 127.947 16.75C127.565 16.6042 127.182 16.1029 126.799 15.2461C126.489 14.6992 126.617 14.3529 127.182 14.207C128.075 13.9518 128.996 13.6602 129.943 13.332C130.381 13.168 130.618 12.8034 130.654 12.2383L130.818 6.82422V4.00781C130.818 3.55208 130.6 3.32422 130.162 3.32422H127.811C127.264 3.32422 126.963 3.22396 126.908 3.02344C126.854 2.75 127.081 2.61328 127.592 2.61328H136.123C136.561 2.61328 136.934 2.44922 137.244 2.12109ZM123.436 5.04688C124.001 4.48177 124.557 4.40885 125.104 4.82812L126.334 5.8125C126.352 5.88542 126.316 6.02214 126.225 6.22266C126.115 6.47786 125.796 6.60547 125.268 6.60547H117.803C117.256 6.60547 116.955 6.50521 116.9 6.30469C116.828 6.01302 117.037 5.86719 117.529 5.86719H121.959C122.397 5.86719 122.889 5.59375 123.436 5.04688ZM122.451 8.90234C123.016 8.33724 123.572 8.26432 124.119 8.68359L124.393 8.90234C125.049 9.41276 125.341 9.79557 125.268 10.0508C125.158 10.306 124.83 10.4336 124.283 10.4336H118.678C118.131 10.4336 117.821 10.3333 117.748 10.1328C117.675 9.85938 117.903 9.72266 118.432 9.72266H120.975C121.412 9.72266 121.904 9.44922 122.451 8.90234ZM122.451 12.8398C123.016 12.2747 123.572 12.1927 124.119 12.5938L125.35 13.5781C125.368 13.651 125.341 13.7878 125.268 13.9883C125.14 14.2435 124.821 14.3711 124.311 14.3711H118.787C118.24 14.3711 117.93 14.2708 117.857 14.0703C117.785 13.7969 118.012 13.6602 118.541 13.6602H120.975C121.412 13.6602 121.904 13.3867 122.451 12.8398ZM117.502 17.7344C117.502 17.1693 117.766 17.0417 118.295 17.3516C118.714 17.7161 119.143 17.8346 119.58 17.707H122.287C122.725 17.707 123.117 17.5521 123.463 17.2422C123.773 16.987 124.219 17.0326 124.803 17.3789L125.787 17.9805C125.988 18.2904 125.897 18.5729 125.514 18.8281C124.967 18.9193 124.757 19.2656 124.885 19.8672V24.6523C124.885 25.2357 124.63 25.5547 124.119 25.6094C123.572 25.6458 123.299 25.4089 123.299 24.8984C123.299 24.3698 123.08 24.1055 122.643 24.1055H119.772C119.316 24.1055 119.088 24.3242 119.088 24.7617C119.106 25.2539 119.088 25.7461 119.033 26.2383C118.96 26.3112 118.805 26.375 118.568 26.4297C117.857 26.4844 117.502 26.2383 117.502 25.6914V17.7344ZM123.299 19.1016C123.299 18.6458 123.08 18.418 122.643 18.418H119.772C119.316 18.418 119.088 18.6367 119.088 19.0742V22.6836C119.088 23.1393 119.307 23.3672 119.744 23.3672H122.615C123.071 23.3672 123.299 23.1484 123.299 22.7109V19.1016Z" fill="#C6D963"/>
</svg>
