<svg width="157" height="27" viewBox="0 0 157 27" fill="none" xmlns="http://www.w3.org/2000/svg">
<path d="M32.4159 5.07422C32.4889 4.72786 32.6985 4.67318 33.0448 4.91016C33.3547 5.22005 33.3547 5.47526 33.0448 5.67578C32.024 6.49609 30.9849 7.15234 29.9277 7.64453C29.5631 7.88151 29.2896 7.96354 29.1073 7.89062C29.0709 7.85417 29.2258 7.72656 29.5722 7.50781C30.6659 6.83333 31.5318 6.17708 32.1698 5.53906C32.2974 5.35677 32.3795 5.20182 32.4159 5.07422ZM33.1269 6.90625C33.218 6.65104 33.3912 6.61458 33.6464 6.79688C34.1204 7.05208 34.1477 7.31641 33.7284 7.58984C33.4185 7.77214 33.0631 8.07292 32.662 8.49219C32.4068 8.71094 32.3066 8.96615 32.3613 9.25781C32.4889 10.1693 32.5344 11.3177 32.498 12.7031C32.4068 13.1589 32.2154 13.25 31.9238 12.9766C31.6503 12.5938 31.6047 12.1016 31.787 11.5C31.9146 11.0807 31.9329 10.4336 31.8417 9.55859C31.787 9.28516 31.5865 9.26693 31.2402 9.50391C30.4198 10.0508 29.6086 10.4974 28.8066 10.8438C28.5149 10.9714 28.2779 11.0169 28.0956 10.9805C28.0592 10.944 28.2141 10.8164 28.5605 10.5977C29.8001 9.94141 31.1308 8.99349 32.5527 7.75391C32.899 7.46224 33.0904 7.17969 33.1269 6.90625ZM39.2792 12.1836C39.662 11.9102 39.8352 11.8646 39.7988 12.0469C39.5435 12.5208 39.0331 13.2044 38.2675 14.0977C37.8482 14.7539 37.4563 14.8268 37.0917 14.3164C36.9823 14.1341 37.0188 13.9701 37.2011 13.8242L39.2792 12.1836ZM31.4863 14.043C31.705 13.8424 32.0058 13.8516 32.3886 14.0703C32.5344 14.2161 32.5527 14.4714 32.4433 14.8359L32.2519 16.0938C32.1972 16.3672 32.343 16.5039 32.6894 16.5039L34.5488 16.3125C34.7493 16.2943 34.9316 16.3125 35.0956 16.3672C35.3326 16.4948 35.4146 16.6315 35.3417 16.7773C35.1594 16.9961 34.7948 17.0326 34.248 16.8867C33.6464 16.8685 33.1178 16.8867 32.662 16.9414C32.3521 16.9779 32.3066 17.151 32.5253 17.4609C32.5618 17.5339 32.5709 17.6159 32.5527 17.707C32.4433 18.7096 32.3977 19.4935 32.4159 20.0586C32.4159 20.4961 32.7258 20.7969 33.3456 20.9609C33.8014 20.9974 34.6399 20.9336 35.8613 20.7695C36.2441 20.7878 36.3808 20.9609 36.2714 21.2891C36.162 21.4349 35.998 21.5169 35.7792 21.5352H33.4003C32.7623 21.4987 32.2974 21.1888 32.0058 20.6055C31.8417 20.1315 31.8326 19.2839 31.9784 18.0625C31.942 17.7891 31.8417 17.8255 31.6777 18.1719C31.0214 19.4661 30.0006 20.5234 28.6152 21.3438C28.4146 21.526 28.2597 21.5807 28.1503 21.5078L28.0409 21.3984C28.0227 21.362 28.1868 21.1979 28.5331 20.9062C30.0461 19.7031 30.9849 18.5638 31.3495 17.4883C31.4407 17.2148 31.3131 17.0872 30.9667 17.1055C30.5292 17.2148 30.0917 17.306 29.6542 17.3789C29.4355 17.4883 29.1256 17.3698 28.7245 17.0234C28.6516 16.8958 28.6334 16.8138 28.6698 16.7773C28.761 16.7409 28.9797 16.7227 29.3261 16.7227C29.9459 16.7227 30.5657 16.6862 31.1855 16.6133C31.4589 16.5951 31.623 16.4036 31.6777 16.0391L31.7597 15.1641C31.8326 14.9089 31.7415 14.5352 31.4863 14.043ZM12.2089 1.21875C12.2089 0.671875 12.4823 0.44401 13.0292 0.535156L13.8495 0.671875C14.2141 0.744792 14.442 0.817708 14.5331 0.890625C14.5878 0.981771 14.5787 1.11849 14.5058 1.30078C14.0318 1.86589 13.7948 2.36719 13.7948 2.80469V4.99219C13.7948 5.44792 14.0136 5.67578 14.4511 5.67578H16.1191C16.5566 5.67578 16.9576 5.40234 17.3222 4.85547C17.9238 3.67057 18.3157 2.66797 18.498 1.84766C18.6803 1.15495 19.0448 0.89974 19.5917 1.08203C20.412 1.28255 20.9133 1.51953 21.0956 1.79297C21.1139 2.17578 20.9224 2.34896 20.5214 2.3125C20.3756 2.29427 20.1477 2.49479 19.8378 2.91406C19.4368 3.55208 18.9628 4.21745 18.4159 4.91016C18.0331 5.42057 18.0605 5.67578 18.498 5.67578H21.7792C22.2167 5.67578 22.6269 5.52083 23.0097 5.21094C23.429 4.88281 23.8938 4.94661 24.4042 5.40234C25.1334 5.91276 25.4706 6.35938 25.4159 6.74219C25.2883 7.125 25.0149 7.26172 24.5956 7.15234C24.2857 7.13411 23.8938 7.36198 23.4198 7.83594L22.4355 8.95703C21.9251 9.46745 21.5878 9.65885 21.4238 9.53125C21.2961 9.42188 21.4146 9.07552 21.7792 8.49219C22.0527 8.03646 22.2805 7.58073 22.4628 7.125C22.6451 6.63281 22.5357 6.38672 22.1347 6.38672H4.63469C4.19719 6.38672 3.90552 6.66016 3.75969 7.20703C3.52271 8.57422 2.96672 9.51302 2.09172 10.0234C1.54485 10.2969 1.1438 10.0964 0.888596 9.42188C0.870366 9.22135 0.970627 8.98438 1.18938 8.71094C2.44719 7.61719 3.19459 6.53255 3.43156 5.45703C3.54094 4.91016 3.67766 4.6276 3.84172 4.60938C4.00578 4.6276 4.0787 4.79167 4.06047 5.10156C4.04224 5.48438 4.22453 5.67578 4.60735 5.67578H11.5253C11.981 5.67578 12.2089 5.45703 12.2089 5.01953V1.21875ZM6.02922 1.24609C6.12037 1.13672 6.43026 1.21875 6.95891 1.49219C8.34432 2.25781 9.08261 3.13281 9.17375 4.11719C9.24667 4.6276 9.03703 4.96484 8.54485 5.12891C7.87037 5.07422 7.52401 4.70052 7.50578 4.00781C7.39641 3.4974 7.15031 2.95052 6.7675 2.36719C6.18417 1.7474 5.93807 1.3737 6.02922 1.24609ZM6.52141 8.82031C6.52141 8.23698 6.77662 8.09115 7.28703 8.38281C7.85214 8.89323 8.34432 9.08464 8.7636 8.95703H17.1581C17.5956 8.95703 17.9602 8.82943 18.2519 8.57422C18.5435 8.31901 18.9446 8.36458 19.455 8.71094C20.3482 9.16667 20.4485 9.63151 19.7558 10.1055C19.5735 10.2331 19.4823 10.5156 19.4823 10.9531V14.3711C19.4823 14.918 19.455 15.2279 19.4003 15.3008C19.3274 15.3555 19.0631 15.3919 18.6073 15.4102C18.1334 15.4466 17.8964 15.2461 17.8964 14.8086C17.8964 14.3711 17.6777 14.1523 17.2402 14.1523H14.4784C14.0227 14.1523 13.7948 14.3711 13.7948 14.8086V16.6953C13.7948 17.151 14.0136 17.3789 14.4511 17.3789H19.4277C19.8652 17.3789 20.2024 17.2604 20.4394 17.0234C20.6764 16.7865 21.0683 16.8867 21.6152 17.3242C22.5995 17.8529 22.7089 18.3451 21.9433 18.8008C21.761 18.8737 21.6698 19.138 21.6698 19.5938V23.5586C21.8339 24.707 21.3782 25.4271 20.3027 25.7188C19.7922 25.8281 19.5097 25.7643 19.455 25.5273C19.4185 25.1992 19.2089 24.944 18.8261 24.7617C18.1152 24.4883 17.7779 24.2513 17.8144 24.0508C17.8691 23.7956 18.1607 23.7318 18.6894 23.8594C19.1269 23.9505 19.537 23.9688 19.9198 23.9141C20.0292 23.8229 20.0839 23.5495 20.0839 23.0938V18.7734C20.0839 18.3177 19.8652 18.0898 19.4277 18.0898H14.4784C14.0227 18.0898 13.7948 18.3086 13.7948 18.7461V25.5C13.9771 26.1927 13.804 26.5299 13.2753 26.5117C12.5644 26.6029 12.2089 26.3841 12.2089 25.8555V18.7734C12.2089 18.3177 11.9902 18.0898 11.5527 18.0898H6.52141C6.06568 18.0898 5.83781 18.3086 5.83781 18.7461V24.4609C5.96542 25.099 5.83781 25.5182 5.455 25.7188C4.4524 26.0104 4.04224 25.6094 4.22453 24.5156V17.3242C4.22453 16.7773 4.49797 16.6589 5.04485 16.9688C5.46412 17.388 5.8925 17.5247 6.33 17.3789H11.5253C11.981 17.3789 12.2089 17.1602 12.2089 16.7227V14.8359C12.2089 14.3802 11.9902 14.1523 11.5527 14.1523H8.81828C8.36255 14.1523 8.13469 14.3255 8.13469 14.6719C8.24406 15.5469 7.84302 15.875 6.93156 15.6562C6.56698 15.5104 6.43026 15.082 6.52141 14.3711V8.82031ZM17.8964 10.3516C17.8964 9.89583 17.6777 9.66797 17.2402 9.66797H8.81828C8.36255 9.66797 8.13469 9.88672 8.13469 10.3242V12.7305C8.13469 13.1862 8.35344 13.4141 8.79094 13.4141H17.2128C17.6685 13.4141 17.8964 13.1953 17.8964 12.7578V10.3516ZM71.6334 2.17578C71.7975 2.08464 72.0618 2.16667 72.4264 2.42188C72.5905 2.60417 72.636 2.86849 72.5631 3.21484C72.5267 3.50651 72.4993 3.80729 72.4811 4.11719V5.53906V6.87891L72.5358 8.4375C72.5905 8.83854 72.5814 9.17578 72.5084 9.44922C72.4902 9.63151 72.4264 9.78646 72.317 9.91406C71.9524 9.8776 71.7793 9.54948 71.7975 8.92969L71.8795 6.63281C71.8795 6.35938 71.6972 6.29557 71.3327 6.44141C70.3118 6.87891 69.6282 7.20703 69.2819 7.42578C69.0631 7.60807 68.8717 7.71745 68.7077 7.75391C68.5436 7.75391 68.4342 7.64453 68.3795 7.42578C68.3066 7.29818 68.3248 7.17057 68.4342 7.04297C68.5983 6.91536 68.6985 6.69661 68.735 6.38672C68.8261 5.96745 68.8535 5.42057 68.817 4.74609L68.735 4.39062C68.6074 4.04427 68.5618 3.86198 68.5983 3.84375C68.8717 3.78906 69.0996 3.80729 69.2819 3.89844C69.6465 4.04427 69.7285 4.26302 69.528 4.55469C69.3821 4.9375 69.3092 5.45703 69.3092 6.11328C69.291 6.20443 69.3183 6.30469 69.3913 6.41406C69.5189 6.48698 69.7649 6.45052 70.1295 6.30469C70.567 6.17708 70.9954 6.03125 71.4147 5.86719C71.7064 5.75781 71.8613 5.52995 71.8795 5.18359V3.87109C71.9342 3.39714 71.7975 2.89583 71.4694 2.36719C71.5058 2.27604 71.5605 2.21224 71.6334 2.17578ZM73.4108 12.8672C73.5931 12.849 73.9394 12.8945 74.4498 13.0039C74.6321 13.0221 74.778 13.1133 74.8873 13.2773C74.942 13.3685 74.9056 13.4596 74.778 13.5508C74.6504 13.6419 74.4681 13.6693 74.2311 13.6328C73.8483 13.5964 73.4564 13.569 73.0553 13.5508H71.6334C70.6126 13.5872 69.5735 13.7513 68.5163 14.043C68.0241 14.0977 67.5957 13.8789 67.2311 13.3867C67.2311 13.3503 67.2493 13.3138 67.2858 13.2773C67.3769 13.2409 67.5774 13.25 67.8873 13.3047L68.3795 13.3594L72.5358 13.0586C72.9186 13.0404 73.2103 12.9766 73.4108 12.8672ZM76.2545 15.4375C76.3639 15.3828 76.4642 15.3828 76.5553 15.4375C77.1751 16.0026 77.7767 16.6042 78.36 17.2422C78.6152 17.5885 78.7246 17.7799 78.6881 17.8164C78.6517 17.8164 78.4603 17.7253 78.1139 17.543C77.5123 17.2148 76.9108 16.8503 76.3092 16.4492C75.6894 16.2122 75.6712 15.875 76.2545 15.4375ZM71.7702 18.0078C72.2077 18.026 72.5996 17.944 72.9459 17.7617C73.2923 17.7799 73.5657 17.9531 73.7663 18.2812C73.9485 18.5365 73.9303 18.7461 73.7116 18.9102C73.5657 18.9102 73.3652 19.0833 73.11 19.4297C72.9095 19.7214 72.7363 20.0221 72.5905 20.332C72.4264 20.6237 72.5176 20.7695 72.8639 20.7695L73.3834 20.6875C73.7116 20.5417 74.0579 20.6146 74.4225 20.9062C74.86 21.2344 74.8965 21.5169 74.5319 21.7539C74.3678 21.918 74.2493 22.0911 74.1764 22.2734C73.7754 23.1849 73.0371 24.0599 71.9616 24.8984C71.8522 24.9167 71.761 24.8346 71.6881 24.6523C71.6881 24.5794 71.8613 24.3789 72.2077 24.0508C72.9186 23.2669 73.4199 22.401 73.7116 21.4531C73.6386 21.3073 73.5475 21.2344 73.4381 21.2344C72.3991 21.1615 71.36 21.1888 70.3209 21.3164C69.5189 21.3346 68.8261 21.5352 68.2428 21.918C67.8782 22.1185 67.6686 22.0365 67.6139 21.6719C67.5957 21.4349 67.778 21.1432 68.1608 20.7969C68.7441 20.3047 68.9902 19.694 68.8991 18.9648C68.7715 18.7826 68.5618 18.6185 68.2702 18.4727C68.1972 18.3815 68.3431 18.3086 68.7077 18.2539L71.7702 18.0078ZM72.1256 18.4453C71.1595 18.4635 70.3483 18.5456 69.692 18.6914C69.3821 18.7826 69.2819 18.9284 69.3913 19.1289C69.5006 19.3294 69.5462 19.5026 69.528 19.6484C69.4733 19.9583 69.2819 20.3138 68.9538 20.7148C68.735 20.9701 68.7897 21.0794 69.1178 21.043C69.8105 20.9336 70.5032 20.8607 71.1959 20.8242C71.4694 20.7878 71.7155 20.5964 71.9342 20.25L72.6452 19.0195C72.9186 18.5638 72.7454 18.3724 72.1256 18.4453ZM44.2897 1.21875C44.2897 0.671875 44.554 0.589844 45.0827 0.972656C45.6478 1.51953 46.1491 1.73828 46.5866 1.62891H57.5241C57.9616 1.62891 58.3899 1.41927 58.8092 1C59.2467 0.5625 59.7389 0.617188 60.2858 1.16406C61.4342 2.03906 61.498 2.65885 60.4772 3.02344C60.1673 3.11458 60.0123 3.37891 60.0123 3.81641V16.9414C60.1946 17.5612 60.0215 17.9349 59.4928 18.0625C58.7819 18.099 58.4264 17.8438 58.4264 17.2969C58.4264 16.7318 58.2077 16.4492 57.7702 16.4492H56.1022C55.6465 16.4492 55.4186 16.668 55.4186 17.1055V22.3555C55.2363 23.3216 55.6465 23.9232 56.6491 24.1602C57.5788 24.3971 59.1373 24.4245 61.3248 24.2422C61.9264 24.3516 62.4186 24.0599 62.8014 23.3672C62.9472 23.0026 63.0566 22.638 63.1295 22.2734C63.3118 21.6172 63.5032 21.2891 63.7038 21.2891C63.886 21.3073 63.9863 21.5898 64.0045 22.1367C63.9681 22.9935 64.1139 23.6042 64.442 23.9688C64.9707 24.6797 64.7337 25.181 63.7311 25.4727C60.5957 26.1289 57.761 26.138 55.2272 25.5C54.2793 25.0807 53.8144 24.3698 53.8327 23.3672V17.1328C53.8327 16.6771 53.6139 16.4492 53.1764 16.4492H51.235C50.7975 16.4492 50.5332 16.7227 50.442 17.2695C50.1504 19.5846 49.1295 21.681 47.3795 23.5586C45.3014 25.1263 43.123 26.0469 40.8444 26.3203C40.2975 26.3932 40.0058 26.3385 39.9694 26.1562C39.9329 25.974 40.1881 25.8099 40.735 25.6641C41.61 25.4453 42.3483 25.1901 42.9498 24.8984C44.8457 24.151 46.304 22.9661 47.3248 21.3438C48.1087 20.0312 48.61 18.6185 48.8288 17.1055C48.8652 16.668 48.6647 16.4492 48.2272 16.4492H46.5866C46.1308 16.4492 45.903 16.6953 45.903 17.1875C45.903 17.6797 45.8847 17.9622 45.8483 18.0352C45.7936 18.1081 45.5293 18.1992 45.0553 18.3086C44.5449 18.3268 44.2897 18.0352 44.2897 17.4336V1.21875ZM58.4264 3.05078C58.4264 2.57682 58.2168 2.33984 57.7975 2.33984H46.5866C46.1308 2.33984 45.903 2.55859 45.903 2.99609V5.64844C45.903 6.10417 46.1217 6.33203 46.5592 6.33203H57.7428C58.1985 6.33203 58.4264 6.11328 58.4264 5.67578V3.05078ZM58.4264 7.72656C58.4264 7.27083 58.2077 7.04297 57.7702 7.04297H46.5866C46.1308 7.04297 45.903 7.26172 45.903 7.69922V10.3516C45.903 10.8073 46.1217 11.0352 46.5592 11.0352H57.7428C58.1985 11.0352 58.4264 10.8164 58.4264 10.3789V7.72656ZM58.4264 12.4844C58.4264 11.9922 58.2259 11.7461 57.8248 11.7461H46.5866C46.1308 11.7461 45.903 11.9648 45.903 12.4023V15.0273C45.903 15.4831 46.1217 15.7109 46.5592 15.7109H57.7428C58.1985 15.7109 58.4264 15.4922 58.4264 15.0547V12.4844ZM111.452 5.45703C111.598 5.42057 111.79 5.51172 112.027 5.73047C112.391 5.98568 112.41 6.25911 112.081 6.55078C111.826 6.78776 111.544 7.15234 111.234 7.64453C111.088 7.86328 110.924 8.07292 110.742 8.27344C110.486 8.5651 110.514 8.82943 110.824 9.06641C111.17 9.32161 111.507 9.58594 111.835 9.85938C112.382 10.2604 112.774 10.6615 113.011 11.0625C113.12 11.1901 113.093 11.3633 112.929 11.582C112.692 11.8008 112.437 11.7643 112.163 11.4727C111.762 10.944 111.179 10.3333 110.413 9.64062C110.067 9.34896 109.766 9.33073 109.511 9.58594C108.508 10.5339 107.442 11.2448 106.312 11.7188C105.947 11.8828 105.756 11.9466 105.738 11.9102C105.701 11.8737 105.856 11.7279 106.202 11.4727C107.15 10.7982 108.089 10.0417 109.019 9.20312C109.274 8.92969 109.229 8.65625 108.882 8.38281C108.317 7.92708 107.752 7.48958 107.187 7.07031C106.786 6.77865 106.64 6.6237 106.749 6.60547C106.841 6.60547 106.968 6.63281 107.132 6.6875C107.843 7.05208 108.609 7.51693 109.429 8.08203C109.702 8.26432 109.994 8.18229 110.304 7.83594C110.851 7.21615 111.179 6.56901 111.288 5.89453C111.307 5.71224 111.361 5.56641 111.452 5.45703ZM114.816 12.0195C115.089 11.7461 115.344 11.7643 115.581 12.0742C116.128 12.7122 116.666 13.3685 117.195 14.043C117.395 14.3711 117.486 14.5534 117.468 14.5898C116.83 14.2617 115.946 13.6693 114.816 12.8125C114.524 12.5755 114.524 12.3112 114.816 12.0195ZM107.706 14.125C107.743 14.0885 107.934 14.125 108.281 14.2344C108.426 14.2526 108.536 14.3529 108.609 14.5352C108.645 14.6445 108.6 14.8451 108.472 15.1367C108.253 15.7383 108.016 16.3398 107.761 16.9414C107.579 17.2878 107.488 17.4792 107.488 17.5156C107.524 17.5521 107.716 17.5612 108.062 17.543C109.192 17.3607 110.368 17.2604 111.589 17.2422L112.355 17.1602C112.701 17.1966 112.938 17.306 113.066 17.4883C113.193 17.6888 113.193 17.9531 113.066 18.2812C112.665 19.2474 112.355 19.931 112.136 20.332C111.826 20.9154 111.516 21.2799 111.206 21.4258C111.006 21.3529 111.006 21.1797 111.206 20.9062C111.68 19.9219 112.018 19.0651 112.218 18.3359C112.327 17.8073 112.091 17.5977 111.507 17.707C110.395 17.7617 109.347 17.862 108.363 18.0078C107.889 18.0443 107.46 18.1719 107.077 18.3906C106.749 18.5729 106.531 18.5547 106.421 18.3359C106.33 18.1354 106.376 17.9349 106.558 17.7344C106.85 17.4609 107.077 17.1146 107.242 16.6953C107.46 16.1484 107.606 15.638 107.679 15.1641C107.716 14.9818 107.734 14.7721 107.734 14.5352C107.679 14.2982 107.67 14.1615 107.706 14.125ZM79.2416 1.08203C79.2416 0.535156 79.515 0.46224 80.0619 0.863281C80.5176 1.3737 80.9733 1.55599 81.4291 1.41016H86.2416C86.6791 1.41016 87.071 1.25521 87.4173 0.945312C87.7272 0.690104 88.1739 0.735677 88.7572 1.08203L89.7416 1.68359C89.9968 2.17578 89.7416 2.53125 88.9759 2.75C88.8848 2.85938 88.8392 3.13281 88.8392 3.57031V10.1328C88.8392 10.6979 88.5749 11.0169 88.0462 11.0898C87.5176 11.1081 87.2533 10.8984 87.2533 10.4609C87.2533 10.0052 87.0345 9.77734 86.597 9.77734H81.5384C81.0827 9.77734 80.8548 9.99609 80.8548 10.4336V25.418C80.8548 25.9648 80.8275 26.2839 80.7728 26.375C80.6817 26.4844 80.4173 26.5664 79.9798 26.6211C79.4877 26.6393 79.2416 26.3568 79.2416 25.7734V1.08203ZM100.706 0.972656C101.107 0.66276 101.572 0.735677 102.101 1.19141C102.684 1.55599 102.985 1.92969 103.003 2.3125C102.912 2.53125 102.684 2.67708 102.32 2.75C102.229 2.84115 102.183 3.10547 102.183 3.54297V23.9961C102.42 25.1263 101.827 25.901 100.406 26.3203C99.8587 26.4297 99.5306 26.3385 99.4212 26.0469C99.2754 25.5729 98.8379 25.2174 98.1087 24.9805C97.489 24.7799 97.1973 24.5612 97.2337 24.3242C97.252 24.1602 97.5619 24.1328 98.1634 24.2422C99.0384 24.388 99.7403 24.4245 100.269 24.3516C100.597 24.2422 100.706 23.9232 100.597 23.3945V10.4609C100.597 10.0052 100.378 9.77734 99.9408 9.77734H94.7728C94.3171 9.77734 94.0892 9.91406 94.0892 10.1875C94.2351 10.6068 94.0619 10.8438 93.5697 10.8984C92.8587 10.9531 92.5033 10.6979 92.5033 10.1328V1.46484C92.5033 0.917969 92.7767 0.78125 93.3236 1.05469C93.7064 1.41927 94.1257 1.53776 94.5814 1.41016H99.5033C99.9408 1.41016 100.342 1.26432 100.706 0.972656ZM87.2533 2.80469C87.2533 2.34896 87.0345 2.12109 86.597 2.12109H81.5384C81.0827 2.12109 80.8548 2.33984 80.8548 2.77734V4.52734C80.8548 4.98307 81.0736 5.21094 81.5111 5.21094H86.5697C87.0254 5.21094 87.2533 4.99219 87.2533 4.55469V2.80469ZM100.597 2.80469C100.597 2.34896 100.378 2.12109 99.9408 2.12109H94.7728C94.3171 2.12109 94.0892 2.33984 94.0892 2.77734V4.52734C94.0892 4.98307 94.308 5.21094 94.7455 5.21094H99.9134C100.369 5.21094 100.597 4.99219 100.597 4.55469V2.80469ZM87.2533 6.63281C87.2533 6.17708 87.0345 5.94922 86.597 5.94922H81.5384C81.0827 5.94922 80.8548 6.16797 80.8548 6.60547V8.38281C80.8548 8.83854 81.0736 9.06641 81.5111 9.06641H86.5697C87.0254 9.06641 87.2533 8.84766 87.2533 8.41016V6.63281ZM100.597 6.63281C100.597 6.17708 100.378 5.94922 99.9408 5.94922H94.7728C94.3171 5.94922 94.0892 6.16797 94.0892 6.60547V8.38281C94.0892 8.83854 94.308 9.06641 94.7455 9.06641H99.9134C100.369 9.06641 100.597 8.84766 100.597 8.41016V6.63281ZM85.8314 13.7422C85.8314 13.1589 86.0866 13.0039 86.597 13.2773C87.1621 13.6966 87.6543 13.8607 88.0736 13.7695H93.1048C93.5423 13.7695 93.9343 13.6237 94.2806 13.332C94.627 13.0586 95.0736 13.0859 95.6205 13.4141C96.2767 13.7057 96.6413 14.0065 96.7142 14.3164C96.7689 14.4805 96.6869 14.6536 96.4681 14.8359C95.8119 14.9635 95.5658 15.319 95.7298 15.9023V21.3711C95.7298 21.9362 95.4746 22.2643 94.9642 22.3555C94.4173 22.3919 94.1439 22.1276 94.1439 21.5625V21.1797C94.1439 20.724 93.9252 20.4961 93.4877 20.4961H88.1283C87.6726 20.4961 87.4447 20.7878 87.4447 21.3711C87.4447 21.9727 87.4265 22.3099 87.39 22.3828C87.0072 22.638 86.515 22.7201 85.9134 22.6289C85.8587 22.5742 85.8314 22.2734 85.8314 21.7266V13.7422ZM94.1439 15.2188C94.1439 14.7266 93.9434 14.4805 93.5423 14.4805H88.1283C87.6726 14.4805 87.4447 14.6992 87.4447 15.1367V19.1016C87.4447 19.5573 87.6634 19.7852 88.1009 19.7852H93.4603C93.916 19.7852 94.1439 19.5664 94.1439 19.1289V15.2188ZM147.17 5.67578C147.279 5.32943 147.343 5.14714 147.361 5.12891C147.671 5.03776 147.863 5.12891 147.936 5.40234C148.081 5.63932 148.072 5.83984 147.908 6.00391L146.815 7.50781L146.842 7.58984C146.878 7.6263 147.07 7.61719 147.416 7.5625C148.072 7.45312 148.792 7.38932 149.576 7.37109L151.107 7.23438C151.618 7.21615 151.809 7.53516 151.682 8.19141C151.372 9.77734 150.816 11.1536 150.014 12.3203C149.704 12.6667 149.458 12.7943 149.275 12.7031C149.221 12.6667 149.13 12.4844 149.002 12.1562C148.838 11.7552 148.783 11.5456 148.838 11.5273C149.44 12.0013 149.95 11.7005 150.369 10.625C150.679 9.89583 150.861 9.21224 150.916 8.57422C151.062 7.9362 150.816 7.65365 150.178 7.72656L149.139 7.75391C148.865 7.79036 148.647 7.98177 148.482 8.32812C147.881 9.71354 146.86 10.9805 145.42 12.1289C145.074 12.3294 144.891 12.4023 144.873 12.3477C144.873 12.2747 145.055 12.0742 145.42 11.7461C146.477 10.7435 147.243 9.60417 147.717 8.32812C147.79 8.03646 147.69 7.91797 147.416 7.97266C146.723 8.11849 146.104 8.27344 145.557 8.4375C145.447 8.4375 145.374 8.36458 145.338 8.21875C145.32 8.1276 145.456 7.94531 145.748 7.67188C146.532 6.94271 147.006 6.27734 147.17 5.67578ZM155.619 12.1836C156.002 11.9102 156.175 11.8646 156.139 12.0469C155.884 12.5208 155.373 13.2044 154.607 14.0977C154.188 14.7539 153.796 14.8268 153.432 14.3164C153.322 14.1341 153.359 13.9701 153.541 13.8242L155.619 12.1836ZM145.365 14.3164C145.475 14.2799 145.593 14.2982 145.721 14.3711C146.45 14.9909 147.188 15.6562 147.936 16.3672C148.209 16.6406 148.519 16.6406 148.865 16.3672C149.558 15.8385 150.223 15.1732 150.861 14.3711C151.007 14.2435 151.199 14.2617 151.436 14.4258C151.837 14.6992 151.818 14.9727 151.381 15.2461C150.743 15.6107 150.023 16.1393 149.221 16.832C148.874 17.1055 148.71 17.4154 148.729 17.7617L148.783 20.7969C148.802 20.9245 148.792 21.0885 148.756 21.2891C148.701 21.6536 148.546 21.8359 148.291 21.8359C148.218 21.8177 148.1 21.6354 147.936 21.2891C147.881 21.1432 147.881 20.8971 147.936 20.5508C148.027 19.6029 148.072 18.6732 148.072 17.7617C148.072 17.4883 147.908 17.1784 147.58 16.832C146.796 16.0846 146.067 15.5286 145.393 15.1641C144.718 14.9635 144.709 14.681 145.365 14.3164ZM120.811 1.54688C120.92 0.835938 121.248 0.544271 121.795 0.671875L122.041 0.726562C122.734 0.872396 123.126 0.990885 123.217 1.08203C123.417 1.46484 123.29 1.70182 122.834 1.79297C122.634 1.86589 122.387 2.19401 122.096 2.77734L121.877 3.24219C121.658 3.69792 121.768 3.92578 122.205 3.92578H125.104C125.541 3.92578 126.042 3.64323 126.607 3.07812C127.154 2.51302 127.701 2.44922 128.248 2.88672L128.522 3.10547C129.123 3.57943 129.397 3.96224 129.342 4.25391C129.287 4.50911 128.996 4.63672 128.467 4.63672H124.393C123.937 4.63672 123.982 4.92839 124.529 5.51172C125.66 6.78776 125.997 7.95443 125.541 9.01172C125.049 9.54036 124.602 9.48568 124.201 8.84766C124.147 8.70182 124.119 8.34635 124.119 7.78125C124.156 7.03385 123.937 6.22266 123.463 5.34766C123.153 4.8737 122.798 4.63672 122.397 4.63672H121.768C121.33 4.63672 120.92 4.91016 120.537 5.45703C119.936 6.3138 119.225 7.13411 118.404 7.91797C117.73 8.46484 117.329 8.66536 117.201 8.51953C117.092 8.39193 117.274 8.07292 117.748 7.5625C119.316 5.8125 120.337 3.80729 120.811 1.54688ZM131.994 1.32812C132.085 0.763021 132.404 0.544271 132.951 0.671875L133.197 0.726562C133.89 0.872396 134.282 0.990885 134.373 1.08203C134.61 1.5013 134.455 1.7474 133.908 1.82031C133.726 1.92969 133.589 2.07552 133.498 2.25781L132.979 3.24219C132.669 3.69792 132.742 3.92578 133.197 3.92578H137.654C138.092 3.92578 138.593 3.64323 139.158 3.07812C139.723 2.51302 140.279 2.44922 140.826 2.88672L141.1 3.07812C141.738 3.60677 142.011 3.9987 141.92 4.25391C141.847 4.50911 141.546 4.63672 141.018 4.63672H136.014C135.54 4.63672 135.631 4.89193 136.287 5.40234C137.509 6.45964 138.046 7.55339 137.9 8.68359C137.736 9.12109 137.499 9.3125 137.19 9.25781C136.588 9.1849 136.251 8.64714 136.178 7.64453C136.068 6.95182 135.749 6.22266 135.221 5.45703C134.71 4.91016 134.236 4.63672 133.799 4.63672H132.623C132.186 4.63672 131.712 4.91016 131.201 5.45703L130.736 5.92188C130.08 6.41406 129.697 6.58724 129.588 6.44141C129.479 6.3138 129.661 5.97656 130.135 5.42969C131.192 4.02604 131.812 2.65885 131.994 1.32812ZM127.893 7.67188C128.239 6.94271 128.667 6.69661 129.178 6.93359L129.943 7.28906C130.417 7.48958 130.572 7.73568 130.408 8.02734C130.262 8.19141 130.408 8.52865 130.846 9.03906C133.325 11.6276 136.242 13.4141 139.596 14.3984L142.44 15.1367C142.458 15.2279 142.458 15.319 142.44 15.4102C141.966 15.6836 141.565 16.0755 141.236 16.5859C141.091 16.8776 140.662 16.8958 139.951 16.6406C135.831 15.1276 132.486 12.5938 129.916 9.03906C129.624 8.60156 129.269 8.67448 128.85 9.25781C125.769 13.2682 122.078 15.9297 117.775 17.2422C117.229 17.4245 116.928 17.4518 116.873 17.3242C116.782 17.1419 117.065 16.9232 117.721 16.668C122.132 14.8997 125.523 11.901 127.893 7.67188ZM131.092 13.7422C131.621 13.2318 132.158 13.1862 132.705 13.6055C133.635 14.1706 133.954 14.5898 133.662 14.8633C133.535 15.1185 133.197 15.2461 132.65 15.2461H125.897C125.35 15.2461 125.04 15.1458 124.967 14.9453C124.894 14.6719 125.122 14.5352 125.65 14.5352H129.643C130.08 14.5352 130.563 14.2708 131.092 13.7422ZM121.986 18.2812C121.986 17.7161 122.251 17.5885 122.779 17.8984C123.199 18.2266 123.627 18.3359 124.065 18.2266H134.428C134.865 18.2266 135.257 18.0807 135.604 17.7891C135.913 17.5339 136.36 17.5794 136.943 17.9258L137.928 18.5273C138.128 18.8372 138.037 19.1198 137.654 19.375C137.107 19.4661 136.898 19.8125 137.025 20.4141V25.3359C137.025 25.901 136.761 26.2201 136.232 26.293C135.704 26.3112 135.44 26.1016 135.44 25.6641C135.44 25.2083 135.221 24.9805 134.783 24.9805H124.256C123.8 24.9805 123.572 25.1536 123.572 25.5C123.7 25.9922 123.536 26.2656 123.08 26.3203C122.479 26.3932 122.15 26.4115 122.096 26.375C122.023 26.3203 121.986 26.0195 121.986 25.4727V18.2812ZM135.44 19.6484C135.44 19.1927 135.221 18.9648 134.783 18.9648H124.256C123.8 18.9648 123.572 19.1836 123.572 19.6211V23.5859C123.572 24.0417 123.791 24.2695 124.229 24.2695H134.756C135.212 24.2695 135.44 24.0508 135.44 23.6133V19.6484Z" fill="#C6D963"/>
</svg>
